%TF.GenerationSoftware,KiCad,Pcbnew,(5.1.12)-1*%
%TF.CreationDate,2022-08-10T11:31:23+05:30*%
%TF.ProjectId,AGV_SENSOR_PCB_2,4147565f-5345-44e5-934f-525f5043425f,rev?*%
%TF.SameCoordinates,Original*%
%TF.FileFunction,Soldermask,Bot*%
%TF.FilePolarity,Negative*%
%FSLAX46Y46*%
G04 Gerber Fmt 4.6, Leading zero omitted, Abs format (unit mm)*
G04 Created by KiCad (PCBNEW (5.1.12)-1) date 2022-08-10 11:31:23*
%MOMM*%
%LPD*%
G01*
G04 APERTURE LIST*
%ADD10C,1.600000*%
%ADD11R,1.600000X1.600000*%
%ADD12R,1.700000X1.700000*%
%ADD13O,1.700000X1.700000*%
%ADD14O,1.800000X3.600000*%
%ADD15O,3.600000X1.800000*%
%ADD16C,1.700000*%
%ADD17C,1.500000*%
%ADD18C,1.000000*%
G04 APERTURE END LIST*
D10*
%TO.C,C10*%
X142798800Y-123180000D03*
D11*
X142798800Y-119380000D03*
%TD*%
%TO.C,C12*%
X180340000Y-116840000D03*
D10*
X180340000Y-120640000D03*
%TD*%
%TO.C,C13*%
G36*
G01*
X182151000Y-116975000D02*
X183101000Y-116975000D01*
G75*
G02*
X183351000Y-117225000I0J-250000D01*
G01*
X183351000Y-117725000D01*
G75*
G02*
X183101000Y-117975000I-250000J0D01*
G01*
X182151000Y-117975000D01*
G75*
G02*
X181901000Y-117725000I0J250000D01*
G01*
X181901000Y-117225000D01*
G75*
G02*
X182151000Y-116975000I250000J0D01*
G01*
G37*
G36*
G01*
X182151000Y-118875000D02*
X183101000Y-118875000D01*
G75*
G02*
X183351000Y-119125000I0J-250000D01*
G01*
X183351000Y-119625000D01*
G75*
G02*
X183101000Y-119875000I-250000J0D01*
G01*
X182151000Y-119875000D01*
G75*
G02*
X181901000Y-119625000I0J250000D01*
G01*
X181901000Y-119125000D01*
G75*
G02*
X182151000Y-118875000I250000J0D01*
G01*
G37*
%TD*%
%TO.C,C16*%
G36*
G01*
X177452000Y-101605500D02*
X178402000Y-101605500D01*
G75*
G02*
X178652000Y-101855500I0J-250000D01*
G01*
X178652000Y-102355500D01*
G75*
G02*
X178402000Y-102605500I-250000J0D01*
G01*
X177452000Y-102605500D01*
G75*
G02*
X177202000Y-102355500I0J250000D01*
G01*
X177202000Y-101855500D01*
G75*
G02*
X177452000Y-101605500I250000J0D01*
G01*
G37*
G36*
G01*
X177452000Y-99705500D02*
X178402000Y-99705500D01*
G75*
G02*
X178652000Y-99955500I0J-250000D01*
G01*
X178652000Y-100455500D01*
G75*
G02*
X178402000Y-100705500I-250000J0D01*
G01*
X177452000Y-100705500D01*
G75*
G02*
X177202000Y-100455500I0J250000D01*
G01*
X177202000Y-99955500D01*
G75*
G02*
X177452000Y-99705500I250000J0D01*
G01*
G37*
%TD*%
D11*
%TO.C,C17*%
X176085500Y-106275500D03*
D10*
X176085500Y-108775500D03*
%TD*%
%TO.C,C18*%
X175958500Y-102449000D03*
D11*
X175958500Y-99949000D03*
%TD*%
%TO.C,C19*%
G36*
G01*
X173451500Y-105738000D02*
X174401500Y-105738000D01*
G75*
G02*
X174651500Y-105988000I0J-250000D01*
G01*
X174651500Y-106488000D01*
G75*
G02*
X174401500Y-106738000I-250000J0D01*
G01*
X173451500Y-106738000D01*
G75*
G02*
X173201500Y-106488000I0J250000D01*
G01*
X173201500Y-105988000D01*
G75*
G02*
X173451500Y-105738000I250000J0D01*
G01*
G37*
G36*
G01*
X173451500Y-107638000D02*
X174401500Y-107638000D01*
G75*
G02*
X174651500Y-107888000I0J-250000D01*
G01*
X174651500Y-108388000D01*
G75*
G02*
X174401500Y-108638000I-250000J0D01*
G01*
X173451500Y-108638000D01*
G75*
G02*
X173201500Y-108388000I0J250000D01*
G01*
X173201500Y-107888000D01*
G75*
G02*
X173451500Y-107638000I250000J0D01*
G01*
G37*
%TD*%
D12*
%TO.C,J1*%
X174625000Y-71056500D03*
D13*
X177165000Y-71056500D03*
X179705000Y-71056500D03*
%TD*%
D14*
%TO.C,J2*%
X119888000Y-119380000D03*
X124968000Y-119380000D03*
X130048000Y-119380000D03*
G36*
G01*
X136028000Y-117830000D02*
X136028000Y-120930000D01*
G75*
G02*
X135778000Y-121180000I-250000J0D01*
G01*
X134478000Y-121180000D01*
G75*
G02*
X134228000Y-120930000I0J250000D01*
G01*
X134228000Y-117830000D01*
G75*
G02*
X134478000Y-117580000I250000J0D01*
G01*
X135778000Y-117580000D01*
G75*
G02*
X136028000Y-117830000I0J-250000D01*
G01*
G37*
%TD*%
%TO.C,J3*%
G36*
G01*
X136028000Y-73126000D02*
X136028000Y-76226000D01*
G75*
G02*
X135778000Y-76476000I-250000J0D01*
G01*
X134478000Y-76476000D01*
G75*
G02*
X134228000Y-76226000I0J250000D01*
G01*
X134228000Y-73126000D01*
G75*
G02*
X134478000Y-72876000I250000J0D01*
G01*
X135778000Y-72876000D01*
G75*
G02*
X136028000Y-73126000I0J-250000D01*
G01*
G37*
X130048000Y-74676000D03*
X124968000Y-74676000D03*
X119888000Y-74676000D03*
%TD*%
%TO.C,J5*%
G36*
G01*
X185954000Y-103008000D02*
X182854000Y-103008000D01*
G75*
G02*
X182604000Y-102758000I0J250000D01*
G01*
X182604000Y-101458000D01*
G75*
G02*
X182854000Y-101208000I250000J0D01*
G01*
X185954000Y-101208000D01*
G75*
G02*
X186204000Y-101458000I0J-250000D01*
G01*
X186204000Y-102758000D01*
G75*
G02*
X185954000Y-103008000I-250000J0D01*
G01*
G37*
D15*
X184404000Y-97028000D03*
X184404000Y-91948000D03*
X184404000Y-86868000D03*
%TD*%
D16*
%TO.C,SW1*%
X185792500Y-74462500D03*
X185792500Y-80962500D03*
X181292500Y-74462500D03*
X181292500Y-80962500D03*
%TD*%
D17*
%TO.C,Y1*%
X150368000Y-77470000D03*
X150368000Y-82350000D03*
%TD*%
D18*
%TO.C,Y2*%
X154432000Y-72326500D03*
X154432000Y-70426500D03*
%TD*%
D12*
%TO.C,J4*%
X160782000Y-71056500D03*
D13*
X163322000Y-71056500D03*
X165862000Y-71056500D03*
X168402000Y-71056500D03*
X170942000Y-71056500D03*
%TD*%
D12*
%TO.C,J6*%
X141478000Y-83312000D03*
D13*
X144018000Y-83312000D03*
X141478000Y-80772000D03*
X144018000Y-80772000D03*
X141478000Y-78232000D03*
X144018000Y-78232000D03*
X141478000Y-75692000D03*
X144018000Y-75692000D03*
%TD*%
D12*
%TO.C,J7*%
X168910000Y-92710000D03*
D13*
X166370000Y-92710000D03*
X163830000Y-92710000D03*
%TD*%
M02*
