%TF.GenerationSoftware,KiCad,Pcbnew,(5.1.12)-1*%
%TF.CreationDate,2022-08-10T11:31:24+05:30*%
%TF.ProjectId,AGV_SENSOR_PCB_2,4147565f-5345-44e5-934f-525f5043425f,rev?*%
%TF.SameCoordinates,Original*%
%TF.FileFunction,AssemblyDrawing,Bot*%
%FSLAX46Y46*%
G04 Gerber Fmt 4.6, Leading zero omitted, Abs format (unit mm)*
G04 Created by KiCad (PCBNEW (5.1.12)-1) date 2022-08-10 11:31:24*
%MOMM*%
%LPD*%
G01*
G04 APERTURE LIST*
%ADD10C,0.100000*%
%ADD11C,0.080000*%
%ADD12C,0.105000*%
G04 APERTURE END LIST*
D10*
%TO.C,C13*%
X183251000Y-119425000D02*
X183251000Y-117425000D01*
X182001000Y-119425000D02*
X183251000Y-119425000D01*
X182001000Y-117425000D02*
X182001000Y-119425000D01*
X183251000Y-117425000D02*
X182001000Y-117425000D01*
%TO.C,C16*%
X178552000Y-100155500D02*
X177302000Y-100155500D01*
X177302000Y-100155500D02*
X177302000Y-102155500D01*
X177302000Y-102155500D02*
X178552000Y-102155500D01*
X178552000Y-102155500D02*
X178552000Y-100155500D01*
%TO.C,C19*%
X174551500Y-108188000D02*
X174551500Y-106188000D01*
X173301500Y-108188000D02*
X174551500Y-108188000D01*
X173301500Y-106188000D02*
X173301500Y-108188000D01*
X174551500Y-106188000D02*
X173301500Y-106188000D01*
%TO.C,Y2*%
X153432000Y-70426500D02*
X154432000Y-70426500D01*
X152432000Y-71026500D02*
X153432000Y-70426500D01*
X153432000Y-72326500D02*
X154432000Y-72326500D01*
X152432000Y-71726500D02*
X153432000Y-72326500D01*
X152432000Y-70376500D02*
X152432000Y-72376500D01*
X146432000Y-70376500D02*
X152432000Y-70376500D01*
X146432000Y-72376500D02*
X146432000Y-70376500D01*
X152432000Y-72376500D02*
X146432000Y-72376500D01*
%TD*%
%TO.C,C13*%
D11*
X182804571Y-118103571D02*
X182828380Y-118079761D01*
X182852190Y-118008333D01*
X182852190Y-117960714D01*
X182828380Y-117889285D01*
X182780761Y-117841666D01*
X182733142Y-117817857D01*
X182637904Y-117794047D01*
X182566476Y-117794047D01*
X182471238Y-117817857D01*
X182423619Y-117841666D01*
X182376000Y-117889285D01*
X182352190Y-117960714D01*
X182352190Y-118008333D01*
X182376000Y-118079761D01*
X182399809Y-118103571D01*
X182852190Y-118579761D02*
X182852190Y-118294047D01*
X182852190Y-118436904D02*
X182352190Y-118436904D01*
X182423619Y-118389285D01*
X182471238Y-118341666D01*
X182495047Y-118294047D01*
X182352190Y-118746428D02*
X182352190Y-119055952D01*
X182542666Y-118889285D01*
X182542666Y-118960714D01*
X182566476Y-119008333D01*
X182590285Y-119032142D01*
X182637904Y-119055952D01*
X182756952Y-119055952D01*
X182804571Y-119032142D01*
X182828380Y-119008333D01*
X182852190Y-118960714D01*
X182852190Y-118817857D01*
X182828380Y-118770238D01*
X182804571Y-118746428D01*
%TO.C,C16*%
X178105571Y-100834071D02*
X178129380Y-100810261D01*
X178153190Y-100738833D01*
X178153190Y-100691214D01*
X178129380Y-100619785D01*
X178081761Y-100572166D01*
X178034142Y-100548357D01*
X177938904Y-100524547D01*
X177867476Y-100524547D01*
X177772238Y-100548357D01*
X177724619Y-100572166D01*
X177677000Y-100619785D01*
X177653190Y-100691214D01*
X177653190Y-100738833D01*
X177677000Y-100810261D01*
X177700809Y-100834071D01*
X178153190Y-101310261D02*
X178153190Y-101024547D01*
X178153190Y-101167404D02*
X177653190Y-101167404D01*
X177724619Y-101119785D01*
X177772238Y-101072166D01*
X177796047Y-101024547D01*
X177653190Y-101738833D02*
X177653190Y-101643595D01*
X177677000Y-101595976D01*
X177700809Y-101572166D01*
X177772238Y-101524547D01*
X177867476Y-101500738D01*
X178057952Y-101500738D01*
X178105571Y-101524547D01*
X178129380Y-101548357D01*
X178153190Y-101595976D01*
X178153190Y-101691214D01*
X178129380Y-101738833D01*
X178105571Y-101762642D01*
X178057952Y-101786452D01*
X177938904Y-101786452D01*
X177891285Y-101762642D01*
X177867476Y-101738833D01*
X177843666Y-101691214D01*
X177843666Y-101595976D01*
X177867476Y-101548357D01*
X177891285Y-101524547D01*
X177938904Y-101500738D01*
%TO.C,C19*%
X174105071Y-106866571D02*
X174128880Y-106842761D01*
X174152690Y-106771333D01*
X174152690Y-106723714D01*
X174128880Y-106652285D01*
X174081261Y-106604666D01*
X174033642Y-106580857D01*
X173938404Y-106557047D01*
X173866976Y-106557047D01*
X173771738Y-106580857D01*
X173724119Y-106604666D01*
X173676500Y-106652285D01*
X173652690Y-106723714D01*
X173652690Y-106771333D01*
X173676500Y-106842761D01*
X173700309Y-106866571D01*
X174152690Y-107342761D02*
X174152690Y-107057047D01*
X174152690Y-107199904D02*
X173652690Y-107199904D01*
X173724119Y-107152285D01*
X173771738Y-107104666D01*
X173795547Y-107057047D01*
X174152690Y-107580857D02*
X174152690Y-107676095D01*
X174128880Y-107723714D01*
X174105071Y-107747523D01*
X174033642Y-107795142D01*
X173938404Y-107818952D01*
X173747928Y-107818952D01*
X173700309Y-107795142D01*
X173676500Y-107771333D01*
X173652690Y-107723714D01*
X173652690Y-107628476D01*
X173676500Y-107580857D01*
X173700309Y-107557047D01*
X173747928Y-107533238D01*
X173866976Y-107533238D01*
X173914595Y-107557047D01*
X173938404Y-107580857D01*
X173962214Y-107628476D01*
X173962214Y-107723714D01*
X173938404Y-107771333D01*
X173914595Y-107795142D01*
X173866976Y-107818952D01*
%TO.C,Y2*%
D12*
X150015333Y-71309833D02*
X150015333Y-71643166D01*
X150248666Y-70943166D02*
X150015333Y-71309833D01*
X149782000Y-70943166D01*
X149582000Y-71009833D02*
X149548666Y-70976500D01*
X149482000Y-70943166D01*
X149315333Y-70943166D01*
X149248666Y-70976500D01*
X149215333Y-71009833D01*
X149182000Y-71076500D01*
X149182000Y-71143166D01*
X149215333Y-71243166D01*
X149615333Y-71643166D01*
X149182000Y-71643166D01*
%TD*%
M02*
