%TF.GenerationSoftware,KiCad,Pcbnew,(5.1.12)-1*%
%TF.CreationDate,2022-08-10T11:31:23+05:30*%
%TF.ProjectId,AGV_SENSOR_PCB_2,4147565f-5345-44e5-934f-525f5043425f,rev?*%
%TF.SameCoordinates,Original*%
%TF.FileFunction,Paste,Bot*%
%TF.FilePolarity,Positive*%
%FSLAX46Y46*%
G04 Gerber Fmt 4.6, Leading zero omitted, Abs format (unit mm)*
G04 Created by KiCad (PCBNEW (5.1.12)-1) date 2022-08-10 11:31:23*
%MOMM*%
%LPD*%
G01*
G04 APERTURE LIST*
G04 APERTURE END LIST*
%TO.C,C13*%
G36*
G01*
X182151000Y-116975000D02*
X183101000Y-116975000D01*
G75*
G02*
X183351000Y-117225000I0J-250000D01*
G01*
X183351000Y-117725000D01*
G75*
G02*
X183101000Y-117975000I-250000J0D01*
G01*
X182151000Y-117975000D01*
G75*
G02*
X181901000Y-117725000I0J250000D01*
G01*
X181901000Y-117225000D01*
G75*
G02*
X182151000Y-116975000I250000J0D01*
G01*
G37*
G36*
G01*
X182151000Y-118875000D02*
X183101000Y-118875000D01*
G75*
G02*
X183351000Y-119125000I0J-250000D01*
G01*
X183351000Y-119625000D01*
G75*
G02*
X183101000Y-119875000I-250000J0D01*
G01*
X182151000Y-119875000D01*
G75*
G02*
X181901000Y-119625000I0J250000D01*
G01*
X181901000Y-119125000D01*
G75*
G02*
X182151000Y-118875000I250000J0D01*
G01*
G37*
%TD*%
%TO.C,C16*%
G36*
G01*
X177452000Y-101605500D02*
X178402000Y-101605500D01*
G75*
G02*
X178652000Y-101855500I0J-250000D01*
G01*
X178652000Y-102355500D01*
G75*
G02*
X178402000Y-102605500I-250000J0D01*
G01*
X177452000Y-102605500D01*
G75*
G02*
X177202000Y-102355500I0J250000D01*
G01*
X177202000Y-101855500D01*
G75*
G02*
X177452000Y-101605500I250000J0D01*
G01*
G37*
G36*
G01*
X177452000Y-99705500D02*
X178402000Y-99705500D01*
G75*
G02*
X178652000Y-99955500I0J-250000D01*
G01*
X178652000Y-100455500D01*
G75*
G02*
X178402000Y-100705500I-250000J0D01*
G01*
X177452000Y-100705500D01*
G75*
G02*
X177202000Y-100455500I0J250000D01*
G01*
X177202000Y-99955500D01*
G75*
G02*
X177452000Y-99705500I250000J0D01*
G01*
G37*
%TD*%
%TO.C,C19*%
G36*
G01*
X173451500Y-105738000D02*
X174401500Y-105738000D01*
G75*
G02*
X174651500Y-105988000I0J-250000D01*
G01*
X174651500Y-106488000D01*
G75*
G02*
X174401500Y-106738000I-250000J0D01*
G01*
X173451500Y-106738000D01*
G75*
G02*
X173201500Y-106488000I0J250000D01*
G01*
X173201500Y-105988000D01*
G75*
G02*
X173451500Y-105738000I250000J0D01*
G01*
G37*
G36*
G01*
X173451500Y-107638000D02*
X174401500Y-107638000D01*
G75*
G02*
X174651500Y-107888000I0J-250000D01*
G01*
X174651500Y-108388000D01*
G75*
G02*
X174401500Y-108638000I-250000J0D01*
G01*
X173451500Y-108638000D01*
G75*
G02*
X173201500Y-108388000I0J250000D01*
G01*
X173201500Y-107888000D01*
G75*
G02*
X173451500Y-107638000I250000J0D01*
G01*
G37*
%TD*%
M02*
