%TF.GenerationSoftware,KiCad,Pcbnew,(5.1.12)-1*%
%TF.CreationDate,2022-08-10T11:31:24+05:30*%
%TF.ProjectId,AGV_SENSOR_PCB_2,4147565f-5345-44e5-934f-525f5043425f,rev?*%
%TF.SameCoordinates,Original*%
%TF.FileFunction,AssemblyDrawing,Top*%
%FSLAX46Y46*%
G04 Gerber Fmt 4.6, Leading zero omitted, Abs format (unit mm)*
G04 Created by KiCad (PCBNEW (5.1.12)-1) date 2022-08-10 11:31:24*
%MOMM*%
%LPD*%
G01*
G04 APERTURE LIST*
%ADD10C,0.100000*%
%ADD11C,0.200000*%
%ADD12C,0.127000*%
%ADD13C,0.150000*%
%ADD14C,0.080000*%
%ADD15C,0.120000*%
G04 APERTURE END LIST*
D10*
%TO.C,U1*%
X161600000Y-77764000D02*
X162600000Y-76764000D01*
X161600000Y-83764000D02*
X161600000Y-77764000D01*
X168600000Y-83764000D02*
X161600000Y-83764000D01*
X168600000Y-76764000D02*
X168600000Y-83764000D01*
X162600000Y-76764000D02*
X168600000Y-76764000D01*
%TO.C,C1*%
X154188000Y-78851000D02*
X154188000Y-76851000D01*
X155438000Y-78851000D02*
X154188000Y-78851000D01*
X155438000Y-76851000D02*
X155438000Y-78851000D01*
X154188000Y-76851000D02*
X155438000Y-76851000D01*
%TO.C,C2*%
X155438000Y-82407000D02*
X154188000Y-82407000D01*
X154188000Y-82407000D02*
X154188000Y-80407000D01*
X154188000Y-80407000D02*
X155438000Y-80407000D01*
X155438000Y-80407000D02*
X155438000Y-82407000D01*
%TO.C,C3*%
X158096500Y-73015000D02*
X156096500Y-73015000D01*
X158096500Y-71765000D02*
X158096500Y-73015000D01*
X156096500Y-71765000D02*
X158096500Y-71765000D01*
X156096500Y-73015000D02*
X156096500Y-71765000D01*
%TO.C,C4*%
X160356000Y-73289000D02*
X162356000Y-73289000D01*
X160356000Y-74539000D02*
X160356000Y-73289000D01*
X162356000Y-74539000D02*
X160356000Y-74539000D01*
X162356000Y-73289000D02*
X162356000Y-74539000D01*
%TO.C,C5*%
X167875500Y-86624000D02*
X167875500Y-87874000D01*
X167875500Y-87874000D02*
X165875500Y-87874000D01*
X165875500Y-87874000D02*
X165875500Y-86624000D01*
X165875500Y-86624000D02*
X167875500Y-86624000D01*
%TO.C,C6*%
X172349000Y-77962000D02*
X172349000Y-75962000D01*
X173599000Y-77962000D02*
X172349000Y-77962000D01*
X173599000Y-75962000D02*
X173599000Y-77962000D01*
X172349000Y-75962000D02*
X173599000Y-75962000D01*
%TO.C,C7*%
X182703000Y-72761000D02*
X182703000Y-71511000D01*
X182703000Y-71511000D02*
X184703000Y-71511000D01*
X184703000Y-71511000D02*
X184703000Y-72761000D01*
X184703000Y-72761000D02*
X182703000Y-72761000D01*
%TO.C,C8*%
X156099000Y-70919500D02*
X156099000Y-69669500D01*
X156099000Y-69669500D02*
X158099000Y-69669500D01*
X158099000Y-69669500D02*
X158099000Y-70919500D01*
X158099000Y-70919500D02*
X156099000Y-70919500D01*
%TO.C,C9*%
X167590000Y-113020000D02*
X167590000Y-111770000D01*
X167590000Y-111770000D02*
X169590000Y-111770000D01*
X169590000Y-111770000D02*
X169590000Y-113020000D01*
X169590000Y-113020000D02*
X167590000Y-113020000D01*
%TO.C,C10*%
X146798800Y-121280000D02*
G75*
G03*
X146798800Y-121280000I-4000000J0D01*
G01*
X144546300Y-117853241D02*
X144546300Y-118653241D01*
X144946300Y-118253241D02*
X144146300Y-118253241D01*
%TO.C,C11*%
X147901500Y-118065000D02*
X149151500Y-118065000D01*
X149151500Y-118065000D02*
X149151500Y-120065000D01*
X149151500Y-120065000D02*
X147901500Y-120065000D01*
X147901500Y-120065000D02*
X147901500Y-118065000D01*
%TO.C,C12*%
X182487500Y-115713241D02*
X181687500Y-115713241D01*
X182087500Y-115313241D02*
X182087500Y-116113241D01*
X184340000Y-118740000D02*
G75*
G03*
X184340000Y-118740000I-4000000J0D01*
G01*
%TO.C,C14*%
X144158500Y-96911000D02*
X146158500Y-96911000D01*
X144158500Y-98161000D02*
X144158500Y-96911000D01*
X146158500Y-98161000D02*
X144158500Y-98161000D01*
X146158500Y-96911000D02*
X146158500Y-98161000D01*
%TO.C,C15*%
X147647500Y-99364000D02*
X147647500Y-97364000D01*
X148897500Y-99364000D02*
X147647500Y-99364000D01*
X148897500Y-97364000D02*
X148897500Y-99364000D01*
X147647500Y-97364000D02*
X148897500Y-97364000D01*
%TO.C,C17*%
X177423000Y-105641895D02*
X176923000Y-105641895D01*
X177173000Y-105391895D02*
X177173000Y-105891895D01*
X178585500Y-107525500D02*
G75*
G03*
X178585500Y-107525500I-2500000J0D01*
G01*
%TO.C,C18*%
X178458500Y-101199000D02*
G75*
G03*
X178458500Y-101199000I-2500000J0D01*
G01*
X177046000Y-99065395D02*
X177046000Y-99565395D01*
X177296000Y-99315395D02*
X176796000Y-99315395D01*
D11*
%TO.C,D1*%
X148229200Y-124053600D02*
G75*
G03*
X148229200Y-124053600I-100000J0D01*
G01*
D12*
X153839200Y-125353600D02*
X149589200Y-125353600D01*
X153839200Y-122753600D02*
X153839200Y-125353600D01*
X149589200Y-122753600D02*
X153839200Y-122753600D01*
X149589200Y-125353600D02*
X149589200Y-122753600D01*
D10*
%TO.C,D2*%
X179352500Y-77437500D02*
X178152500Y-77437500D01*
X179352500Y-79437500D02*
X179352500Y-77437500D01*
X178452500Y-79437500D02*
X179352500Y-79437500D01*
X178152500Y-79137500D02*
X178452500Y-79437500D01*
X178152500Y-77437500D02*
X178152500Y-79137500D01*
%TO.C,J1*%
X180975000Y-72326500D02*
X173355000Y-72326500D01*
X180975000Y-69786500D02*
X180975000Y-72326500D01*
X173990000Y-69786500D02*
X180975000Y-69786500D01*
X173355000Y-70421500D02*
X173990000Y-69786500D01*
X173355000Y-72326500D02*
X173355000Y-70421500D01*
%TO.C,J2*%
X137668000Y-123730000D02*
X137668000Y-116480000D01*
X137668000Y-116480000D02*
X117348000Y-116480000D01*
X117348000Y-116480000D02*
X117348000Y-123730000D01*
X117348000Y-123730000D02*
X137668000Y-123730000D01*
X138168000Y-122980000D02*
X138168000Y-124230000D01*
X138168000Y-124230000D02*
X136168000Y-124230000D01*
%TO.C,J3*%
X138168000Y-79526000D02*
X136168000Y-79526000D01*
X138168000Y-78276000D02*
X138168000Y-79526000D01*
X117348000Y-79026000D02*
X137668000Y-79026000D01*
X117348000Y-71776000D02*
X117348000Y-79026000D01*
X137668000Y-71776000D02*
X117348000Y-71776000D01*
X137668000Y-79026000D02*
X137668000Y-71776000D01*
%TO.C,J5*%
X179554000Y-105148000D02*
X179554000Y-103148000D01*
X180804000Y-105148000D02*
X179554000Y-105148000D01*
X180054000Y-84328000D02*
X180054000Y-104648000D01*
X187304000Y-84328000D02*
X180054000Y-84328000D01*
X187304000Y-104648000D02*
X187304000Y-84328000D01*
X180054000Y-104648000D02*
X187304000Y-104648000D01*
%TO.C,L1*%
X167200512Y-123205500D02*
G75*
G03*
X167200512Y-123205500I-390512J0D01*
G01*
X175110000Y-114005500D02*
X175110000Y-116905500D01*
X162710000Y-114005500D02*
X162710000Y-116905500D01*
X175110000Y-114005500D02*
X162710000Y-114005500D01*
X175110000Y-126405500D02*
X175110000Y-123505500D01*
X162710000Y-126405500D02*
X175110000Y-126405500D01*
X162710000Y-123505500D02*
X162710000Y-126405500D01*
X163910000Y-116705500D02*
X164110000Y-117005500D01*
X163810000Y-116205500D02*
X163910000Y-116705500D01*
X164010000Y-115705500D02*
X163810000Y-116205500D01*
X164310000Y-115405500D02*
X164010000Y-115705500D01*
X164710000Y-115205500D02*
X164310000Y-115405500D01*
X165210000Y-115105500D02*
X164710000Y-115205500D01*
X165610000Y-115305500D02*
X165210000Y-115105500D01*
X165910000Y-115505500D02*
X165610000Y-115305500D01*
X166310000Y-115305500D02*
X165910000Y-115505500D01*
X167210000Y-114905500D02*
X166310000Y-115305500D01*
X168110000Y-114705500D02*
X167210000Y-114905500D01*
X168910000Y-114605500D02*
X168110000Y-114705500D01*
X169810000Y-114705500D02*
X168910000Y-114605500D01*
X170610000Y-114905500D02*
X169810000Y-114705500D01*
X171110000Y-115105500D02*
X170610000Y-114905500D01*
X171510000Y-115305500D02*
X171110000Y-115105500D01*
X171910000Y-115605500D02*
X171510000Y-115305500D01*
X172210000Y-115305500D02*
X171910000Y-115605500D01*
X172510000Y-115205500D02*
X172210000Y-115305500D01*
X172810000Y-115105500D02*
X172510000Y-115205500D01*
X173110000Y-115105500D02*
X172810000Y-115105500D01*
X173410000Y-115305500D02*
X173110000Y-115105500D01*
X173710000Y-115505500D02*
X173410000Y-115305500D01*
X173910000Y-115905500D02*
X173710000Y-115505500D01*
X174010000Y-116205500D02*
X173910000Y-115905500D01*
X173910000Y-116605500D02*
X174010000Y-116205500D01*
X173810000Y-116905500D02*
X173910000Y-116605500D01*
X163910000Y-123805500D02*
X164110000Y-123405500D01*
X163810000Y-124305500D02*
X163910000Y-123805500D01*
X164010000Y-124805500D02*
X163810000Y-124305500D01*
X164310000Y-125005500D02*
X164010000Y-124805500D01*
X164610000Y-125205500D02*
X164310000Y-125005500D01*
X165010000Y-125305500D02*
X164610000Y-125205500D01*
X165610000Y-125105500D02*
X165010000Y-125305500D01*
X165910000Y-124905500D02*
X165610000Y-125105500D01*
X166310000Y-125105500D02*
X165910000Y-124905500D01*
X166810000Y-125305500D02*
X166310000Y-125105500D01*
X167410000Y-125505500D02*
X166810000Y-125305500D01*
X168310000Y-125705500D02*
X167410000Y-125505500D01*
X169510000Y-125705500D02*
X168310000Y-125705500D01*
X170510000Y-125505500D02*
X169510000Y-125705500D01*
X171310000Y-125205500D02*
X170510000Y-125505500D01*
X171910000Y-124805500D02*
X171310000Y-125205500D01*
X172010000Y-124905500D02*
X171910000Y-124805500D01*
X172410000Y-125205500D02*
X172010000Y-124905500D01*
X172910000Y-125305500D02*
X172410000Y-125205500D01*
X173410000Y-125205500D02*
X172910000Y-125305500D01*
X173710000Y-124805500D02*
X173410000Y-125205500D01*
X173910000Y-124505500D02*
X173710000Y-124805500D01*
X174010000Y-124005500D02*
X173910000Y-124505500D01*
X173910000Y-123605500D02*
X174010000Y-124005500D01*
X173810000Y-123505500D02*
X173910000Y-123605500D01*
%TO.C,R1*%
X179441000Y-83105500D02*
X178191000Y-83105500D01*
X178191000Y-83105500D02*
X178191000Y-81105500D01*
X178191000Y-81105500D02*
X179441000Y-81105500D01*
X179441000Y-81105500D02*
X179441000Y-83105500D01*
%TO.C,R2*%
X169529000Y-109611000D02*
X169529000Y-110861000D01*
X169529000Y-110861000D02*
X167529000Y-110861000D01*
X167529000Y-110861000D02*
X167529000Y-109611000D01*
X167529000Y-109611000D02*
X169529000Y-109611000D01*
%TO.C,R3*%
X153934000Y-89210000D02*
X155184000Y-89210000D01*
X155184000Y-89210000D02*
X155184000Y-91210000D01*
X155184000Y-91210000D02*
X153934000Y-91210000D01*
X153934000Y-91210000D02*
X153934000Y-89210000D01*
%TO.C,R4*%
X149264500Y-88465500D02*
X151264500Y-88465500D01*
X149264500Y-89715500D02*
X149264500Y-88465500D01*
X151264500Y-89715500D02*
X149264500Y-89715500D01*
X151264500Y-88465500D02*
X151264500Y-89715500D01*
%TO.C,R5*%
X155184000Y-94845000D02*
X155184000Y-96845000D01*
X153934000Y-94845000D02*
X155184000Y-94845000D01*
X153934000Y-96845000D02*
X153934000Y-94845000D01*
X155184000Y-96845000D02*
X153934000Y-96845000D01*
%TO.C,R6*%
X141234000Y-88003500D02*
X142484000Y-88003500D01*
X142484000Y-88003500D02*
X142484000Y-90003500D01*
X142484000Y-90003500D02*
X141234000Y-90003500D01*
X141234000Y-90003500D02*
X141234000Y-88003500D01*
%TO.C,R7*%
X183779000Y-106211500D02*
X185029000Y-106211500D01*
X185029000Y-106211500D02*
X185029000Y-108211500D01*
X185029000Y-108211500D02*
X183779000Y-108211500D01*
X183779000Y-108211500D02*
X183779000Y-106211500D01*
%TO.C,R8*%
X164792500Y-112442500D02*
X164792500Y-110442500D01*
X166042500Y-112442500D02*
X164792500Y-112442500D01*
X166042500Y-110442500D02*
X166042500Y-112442500D01*
X164792500Y-110442500D02*
X166042500Y-110442500D01*
%TO.C,R9*%
X142484000Y-92114500D02*
X142484000Y-94114500D01*
X141234000Y-92114500D02*
X142484000Y-92114500D01*
X141234000Y-94114500D02*
X141234000Y-92114500D01*
X142484000Y-94114500D02*
X141234000Y-94114500D01*
%TO.C,R10*%
X141234000Y-97941000D02*
X141234000Y-95941000D01*
X142484000Y-97941000D02*
X141234000Y-97941000D01*
X142484000Y-95941000D02*
X142484000Y-97941000D01*
X141234000Y-95941000D02*
X142484000Y-95941000D01*
%TO.C,R11*%
X175320800Y-94954600D02*
X175320800Y-92954600D01*
X176570800Y-94954600D02*
X175320800Y-94954600D01*
X176570800Y-92954600D02*
X176570800Y-94954600D01*
X175320800Y-92954600D02*
X176570800Y-92954600D01*
%TO.C,R12*%
X179377500Y-73866500D02*
X179377500Y-75866500D01*
X178127500Y-73866500D02*
X179377500Y-73866500D01*
X178127500Y-75866500D02*
X178127500Y-73866500D01*
X179377500Y-75866500D02*
X178127500Y-75866500D01*
%TO.C,R13*%
X174808000Y-74666000D02*
X174808000Y-73416000D01*
X174808000Y-73416000D02*
X176808000Y-73416000D01*
X176808000Y-73416000D02*
X176808000Y-74666000D01*
X176808000Y-74666000D02*
X174808000Y-74666000D01*
%TO.C,SW1*%
X186542500Y-80712500D02*
X186542500Y-74712500D01*
X180542500Y-80712500D02*
X180542500Y-74712500D01*
X180542500Y-74712500D02*
X186542500Y-74712500D01*
X180542500Y-80712500D02*
X186542500Y-80712500D01*
%TO.C,U2*%
X159297000Y-119785000D02*
X159297000Y-115085000D01*
X158497000Y-119785000D02*
X159297000Y-119785000D01*
X158497000Y-115085000D02*
X158497000Y-119785000D01*
X157597000Y-119785000D02*
X157597000Y-115085000D01*
X156797000Y-119785000D02*
X157597000Y-119785000D01*
X156797000Y-115085000D02*
X156797000Y-119785000D01*
X155897000Y-119785000D02*
X155897000Y-115085000D01*
X155097000Y-119785000D02*
X155897000Y-119785000D01*
X155097000Y-115085000D02*
X155097000Y-119785000D01*
X154197000Y-119785000D02*
X154197000Y-115085000D01*
X153397000Y-119785000D02*
X154197000Y-119785000D01*
X153397000Y-115085000D02*
X153397000Y-119785000D01*
X152497000Y-119785000D02*
X152497000Y-115085000D01*
X151697000Y-119785000D02*
X152497000Y-119785000D01*
X151697000Y-115085000D02*
X151697000Y-119785000D01*
X150497000Y-114085000D02*
X150497000Y-105835000D01*
X151497000Y-115085000D02*
X150497000Y-114085000D01*
X160497000Y-115085000D02*
X151497000Y-115085000D01*
X160497000Y-105835000D02*
X160497000Y-115085000D01*
X150497000Y-105835000D02*
X160497000Y-105835000D01*
X160497000Y-104835000D02*
X160497000Y-105835000D01*
X150497000Y-104835000D02*
X160497000Y-104835000D01*
X150497000Y-105835000D02*
X150497000Y-104835000D01*
%TO.C,U3*%
X165609500Y-101235500D02*
X172309500Y-101235500D01*
X172309500Y-104935500D02*
X172309500Y-101235500D01*
X165609500Y-103935500D02*
X165609500Y-101235500D01*
X166609500Y-104935500D02*
X172309500Y-104935500D01*
X166609500Y-104935500D02*
X165609500Y-103935500D01*
%TO.C,Y1*%
X148368000Y-76910000D02*
X148368000Y-82910000D01*
X152368000Y-76910000D02*
X152368000Y-82910000D01*
X148043000Y-76710000D02*
X148043000Y-83110000D01*
X152693000Y-76710000D02*
X152693000Y-83110000D01*
X148043000Y-76710000D02*
G75*
G02*
X152693000Y-76710000I2325000J0D01*
G01*
X148043000Y-83110000D02*
G75*
G03*
X152693000Y-83110000I2325000J0D01*
G01*
X148368000Y-76910000D02*
G75*
G02*
X152368000Y-76910000I2000000J0D01*
G01*
X148368000Y-82910000D02*
G75*
G03*
X152368000Y-82910000I2000000J0D01*
G01*
%TO.C,J4*%
X172212000Y-72326500D02*
X159512000Y-72326500D01*
X172212000Y-69786500D02*
X172212000Y-72326500D01*
X160147000Y-69786500D02*
X172212000Y-69786500D01*
X159512000Y-70421500D02*
X160147000Y-69786500D01*
X159512000Y-72326500D02*
X159512000Y-70421500D01*
%TO.C,R14*%
X170297000Y-88272500D02*
X169047000Y-88272500D01*
X169047000Y-88272500D02*
X169047000Y-86272500D01*
X169047000Y-86272500D02*
X170297000Y-86272500D01*
X170297000Y-86272500D02*
X170297000Y-88272500D01*
%TO.C,R15*%
X172329000Y-86272500D02*
X172329000Y-88272500D01*
X171079000Y-86272500D02*
X172329000Y-86272500D01*
X171079000Y-88272500D02*
X171079000Y-86272500D01*
X172329000Y-88272500D02*
X171079000Y-88272500D01*
%TO.C,R16*%
X174361000Y-88376000D02*
X173111000Y-88376000D01*
X173111000Y-88376000D02*
X173111000Y-86376000D01*
X173111000Y-86376000D02*
X174361000Y-86376000D01*
X174361000Y-86376000D02*
X174361000Y-88376000D01*
%TO.C,R17*%
X173362500Y-91303000D02*
X171362500Y-91303000D01*
X173362500Y-90053000D02*
X173362500Y-91303000D01*
X171362500Y-90053000D02*
X173362500Y-90053000D01*
X171362500Y-91303000D02*
X171362500Y-90053000D01*
%TO.C,J6*%
X145288000Y-84582000D02*
X141208000Y-84582000D01*
X141208000Y-84582000D02*
X140208000Y-83582000D01*
X140208000Y-83582000D02*
X140208000Y-74422000D01*
X140208000Y-74422000D02*
X145288000Y-74422000D01*
X145288000Y-74422000D02*
X145288000Y-84582000D01*
%TO.C,J7*%
X162560000Y-91440000D02*
X170180000Y-91440000D01*
X162560000Y-93980000D02*
X162560000Y-91440000D01*
X169545000Y-93980000D02*
X162560000Y-93980000D01*
X170180000Y-93345000D02*
X169545000Y-93980000D01*
X170180000Y-91440000D02*
X170180000Y-93345000D01*
%TD*%
%TO.C,U1*%
D13*
X164338095Y-79716380D02*
X164338095Y-80525904D01*
X164385714Y-80621142D01*
X164433333Y-80668761D01*
X164528571Y-80716380D01*
X164719047Y-80716380D01*
X164814285Y-80668761D01*
X164861904Y-80621142D01*
X164909523Y-80525904D01*
X164909523Y-79716380D01*
X165909523Y-80716380D02*
X165338095Y-80716380D01*
X165623809Y-80716380D02*
X165623809Y-79716380D01*
X165528571Y-79859238D01*
X165433333Y-79954476D01*
X165338095Y-80002095D01*
%TO.C,C1*%
D14*
X154991571Y-77934333D02*
X155015380Y-77958142D01*
X155039190Y-78029571D01*
X155039190Y-78077190D01*
X155015380Y-78148619D01*
X154967761Y-78196238D01*
X154920142Y-78220047D01*
X154824904Y-78243857D01*
X154753476Y-78243857D01*
X154658238Y-78220047D01*
X154610619Y-78196238D01*
X154563000Y-78148619D01*
X154539190Y-78077190D01*
X154539190Y-78029571D01*
X154563000Y-77958142D01*
X154586809Y-77934333D01*
X155039190Y-77458142D02*
X155039190Y-77743857D01*
X155039190Y-77601000D02*
X154539190Y-77601000D01*
X154610619Y-77648619D01*
X154658238Y-77696238D01*
X154682047Y-77743857D01*
%TO.C,C2*%
X154991571Y-81490333D02*
X155015380Y-81514142D01*
X155039190Y-81585571D01*
X155039190Y-81633190D01*
X155015380Y-81704619D01*
X154967761Y-81752238D01*
X154920142Y-81776047D01*
X154824904Y-81799857D01*
X154753476Y-81799857D01*
X154658238Y-81776047D01*
X154610619Y-81752238D01*
X154563000Y-81704619D01*
X154539190Y-81633190D01*
X154539190Y-81585571D01*
X154563000Y-81514142D01*
X154586809Y-81490333D01*
X154586809Y-81299857D02*
X154563000Y-81276047D01*
X154539190Y-81228428D01*
X154539190Y-81109380D01*
X154563000Y-81061761D01*
X154586809Y-81037952D01*
X154634428Y-81014142D01*
X154682047Y-81014142D01*
X154753476Y-81037952D01*
X155039190Y-81323666D01*
X155039190Y-81014142D01*
%TO.C,C3*%
X157013166Y-72568571D02*
X156989357Y-72592380D01*
X156917928Y-72616190D01*
X156870309Y-72616190D01*
X156798880Y-72592380D01*
X156751261Y-72544761D01*
X156727452Y-72497142D01*
X156703642Y-72401904D01*
X156703642Y-72330476D01*
X156727452Y-72235238D01*
X156751261Y-72187619D01*
X156798880Y-72140000D01*
X156870309Y-72116190D01*
X156917928Y-72116190D01*
X156989357Y-72140000D01*
X157013166Y-72163809D01*
X157179833Y-72116190D02*
X157489357Y-72116190D01*
X157322690Y-72306666D01*
X157394119Y-72306666D01*
X157441738Y-72330476D01*
X157465547Y-72354285D01*
X157489357Y-72401904D01*
X157489357Y-72520952D01*
X157465547Y-72568571D01*
X157441738Y-72592380D01*
X157394119Y-72616190D01*
X157251261Y-72616190D01*
X157203642Y-72592380D01*
X157179833Y-72568571D01*
%TO.C,C4*%
X161272666Y-74092571D02*
X161248857Y-74116380D01*
X161177428Y-74140190D01*
X161129809Y-74140190D01*
X161058380Y-74116380D01*
X161010761Y-74068761D01*
X160986952Y-74021142D01*
X160963142Y-73925904D01*
X160963142Y-73854476D01*
X160986952Y-73759238D01*
X161010761Y-73711619D01*
X161058380Y-73664000D01*
X161129809Y-73640190D01*
X161177428Y-73640190D01*
X161248857Y-73664000D01*
X161272666Y-73687809D01*
X161701238Y-73806857D02*
X161701238Y-74140190D01*
X161582190Y-73616380D02*
X161463142Y-73973523D01*
X161772666Y-73973523D01*
%TO.C,C5*%
X166792166Y-87427571D02*
X166768357Y-87451380D01*
X166696928Y-87475190D01*
X166649309Y-87475190D01*
X166577880Y-87451380D01*
X166530261Y-87403761D01*
X166506452Y-87356142D01*
X166482642Y-87260904D01*
X166482642Y-87189476D01*
X166506452Y-87094238D01*
X166530261Y-87046619D01*
X166577880Y-86999000D01*
X166649309Y-86975190D01*
X166696928Y-86975190D01*
X166768357Y-86999000D01*
X166792166Y-87022809D01*
X167244547Y-86975190D02*
X167006452Y-86975190D01*
X166982642Y-87213285D01*
X167006452Y-87189476D01*
X167054071Y-87165666D01*
X167173119Y-87165666D01*
X167220738Y-87189476D01*
X167244547Y-87213285D01*
X167268357Y-87260904D01*
X167268357Y-87379952D01*
X167244547Y-87427571D01*
X167220738Y-87451380D01*
X167173119Y-87475190D01*
X167054071Y-87475190D01*
X167006452Y-87451380D01*
X166982642Y-87427571D01*
%TO.C,C6*%
X173152571Y-77045333D02*
X173176380Y-77069142D01*
X173200190Y-77140571D01*
X173200190Y-77188190D01*
X173176380Y-77259619D01*
X173128761Y-77307238D01*
X173081142Y-77331047D01*
X172985904Y-77354857D01*
X172914476Y-77354857D01*
X172819238Y-77331047D01*
X172771619Y-77307238D01*
X172724000Y-77259619D01*
X172700190Y-77188190D01*
X172700190Y-77140571D01*
X172724000Y-77069142D01*
X172747809Y-77045333D01*
X172700190Y-76616761D02*
X172700190Y-76712000D01*
X172724000Y-76759619D01*
X172747809Y-76783428D01*
X172819238Y-76831047D01*
X172914476Y-76854857D01*
X173104952Y-76854857D01*
X173152571Y-76831047D01*
X173176380Y-76807238D01*
X173200190Y-76759619D01*
X173200190Y-76664380D01*
X173176380Y-76616761D01*
X173152571Y-76592952D01*
X173104952Y-76569142D01*
X172985904Y-76569142D01*
X172938285Y-76592952D01*
X172914476Y-76616761D01*
X172890666Y-76664380D01*
X172890666Y-76759619D01*
X172914476Y-76807238D01*
X172938285Y-76831047D01*
X172985904Y-76854857D01*
%TO.C,C7*%
X183619666Y-72314571D02*
X183595857Y-72338380D01*
X183524428Y-72362190D01*
X183476809Y-72362190D01*
X183405380Y-72338380D01*
X183357761Y-72290761D01*
X183333952Y-72243142D01*
X183310142Y-72147904D01*
X183310142Y-72076476D01*
X183333952Y-71981238D01*
X183357761Y-71933619D01*
X183405380Y-71886000D01*
X183476809Y-71862190D01*
X183524428Y-71862190D01*
X183595857Y-71886000D01*
X183619666Y-71909809D01*
X183786333Y-71862190D02*
X184119666Y-71862190D01*
X183905380Y-72362190D01*
%TO.C,C8*%
X157015666Y-70473071D02*
X156991857Y-70496880D01*
X156920428Y-70520690D01*
X156872809Y-70520690D01*
X156801380Y-70496880D01*
X156753761Y-70449261D01*
X156729952Y-70401642D01*
X156706142Y-70306404D01*
X156706142Y-70234976D01*
X156729952Y-70139738D01*
X156753761Y-70092119D01*
X156801380Y-70044500D01*
X156872809Y-70020690D01*
X156920428Y-70020690D01*
X156991857Y-70044500D01*
X157015666Y-70068309D01*
X157301380Y-70234976D02*
X157253761Y-70211166D01*
X157229952Y-70187357D01*
X157206142Y-70139738D01*
X157206142Y-70115928D01*
X157229952Y-70068309D01*
X157253761Y-70044500D01*
X157301380Y-70020690D01*
X157396619Y-70020690D01*
X157444238Y-70044500D01*
X157468047Y-70068309D01*
X157491857Y-70115928D01*
X157491857Y-70139738D01*
X157468047Y-70187357D01*
X157444238Y-70211166D01*
X157396619Y-70234976D01*
X157301380Y-70234976D01*
X157253761Y-70258785D01*
X157229952Y-70282595D01*
X157206142Y-70330214D01*
X157206142Y-70425452D01*
X157229952Y-70473071D01*
X157253761Y-70496880D01*
X157301380Y-70520690D01*
X157396619Y-70520690D01*
X157444238Y-70496880D01*
X157468047Y-70473071D01*
X157491857Y-70425452D01*
X157491857Y-70330214D01*
X157468047Y-70282595D01*
X157444238Y-70258785D01*
X157396619Y-70234976D01*
%TO.C,C9*%
X168506666Y-112573571D02*
X168482857Y-112597380D01*
X168411428Y-112621190D01*
X168363809Y-112621190D01*
X168292380Y-112597380D01*
X168244761Y-112549761D01*
X168220952Y-112502142D01*
X168197142Y-112406904D01*
X168197142Y-112335476D01*
X168220952Y-112240238D01*
X168244761Y-112192619D01*
X168292380Y-112145000D01*
X168363809Y-112121190D01*
X168411428Y-112121190D01*
X168482857Y-112145000D01*
X168506666Y-112168809D01*
X168744761Y-112621190D02*
X168840000Y-112621190D01*
X168887619Y-112597380D01*
X168911428Y-112573571D01*
X168959047Y-112502142D01*
X168982857Y-112406904D01*
X168982857Y-112216428D01*
X168959047Y-112168809D01*
X168935238Y-112145000D01*
X168887619Y-112121190D01*
X168792380Y-112121190D01*
X168744761Y-112145000D01*
X168720952Y-112168809D01*
X168697142Y-112216428D01*
X168697142Y-112335476D01*
X168720952Y-112383095D01*
X168744761Y-112406904D01*
X168792380Y-112430714D01*
X168887619Y-112430714D01*
X168935238Y-112406904D01*
X168959047Y-112383095D01*
X168982857Y-112335476D01*
%TO.C,C10*%
D13*
X143155942Y-121922857D02*
X143203561Y-121970476D01*
X143251180Y-122113333D01*
X143251180Y-122208571D01*
X143203561Y-122351428D01*
X143108323Y-122446666D01*
X143013085Y-122494285D01*
X142822609Y-122541904D01*
X142679752Y-122541904D01*
X142489276Y-122494285D01*
X142394038Y-122446666D01*
X142298800Y-122351428D01*
X142251180Y-122208571D01*
X142251180Y-122113333D01*
X142298800Y-121970476D01*
X142346419Y-121922857D01*
X143251180Y-120970476D02*
X143251180Y-121541904D01*
X143251180Y-121256190D02*
X142251180Y-121256190D01*
X142394038Y-121351428D01*
X142489276Y-121446666D01*
X142536895Y-121541904D01*
X142251180Y-120351428D02*
X142251180Y-120256190D01*
X142298800Y-120160952D01*
X142346419Y-120113333D01*
X142441657Y-120065714D01*
X142632133Y-120018095D01*
X142870228Y-120018095D01*
X143060704Y-120065714D01*
X143155942Y-120113333D01*
X143203561Y-120160952D01*
X143251180Y-120256190D01*
X143251180Y-120351428D01*
X143203561Y-120446666D01*
X143155942Y-120494285D01*
X143060704Y-120541904D01*
X142870228Y-120589523D01*
X142632133Y-120589523D01*
X142441657Y-120541904D01*
X142346419Y-120494285D01*
X142298800Y-120446666D01*
X142251180Y-120351428D01*
%TO.C,C11*%
D14*
X148705071Y-119386428D02*
X148728880Y-119410238D01*
X148752690Y-119481666D01*
X148752690Y-119529285D01*
X148728880Y-119600714D01*
X148681261Y-119648333D01*
X148633642Y-119672142D01*
X148538404Y-119695952D01*
X148466976Y-119695952D01*
X148371738Y-119672142D01*
X148324119Y-119648333D01*
X148276500Y-119600714D01*
X148252690Y-119529285D01*
X148252690Y-119481666D01*
X148276500Y-119410238D01*
X148300309Y-119386428D01*
X148752690Y-118910238D02*
X148752690Y-119195952D01*
X148752690Y-119053095D02*
X148252690Y-119053095D01*
X148324119Y-119100714D01*
X148371738Y-119148333D01*
X148395547Y-119195952D01*
X148752690Y-118434047D02*
X148752690Y-118719761D01*
X148752690Y-118576904D02*
X148252690Y-118576904D01*
X148324119Y-118624523D01*
X148371738Y-118672142D01*
X148395547Y-118719761D01*
%TO.C,C12*%
D13*
X180697142Y-119382857D02*
X180744761Y-119430476D01*
X180792380Y-119573333D01*
X180792380Y-119668571D01*
X180744761Y-119811428D01*
X180649523Y-119906666D01*
X180554285Y-119954285D01*
X180363809Y-120001904D01*
X180220952Y-120001904D01*
X180030476Y-119954285D01*
X179935238Y-119906666D01*
X179840000Y-119811428D01*
X179792380Y-119668571D01*
X179792380Y-119573333D01*
X179840000Y-119430476D01*
X179887619Y-119382857D01*
X180792380Y-118430476D02*
X180792380Y-119001904D01*
X180792380Y-118716190D02*
X179792380Y-118716190D01*
X179935238Y-118811428D01*
X180030476Y-118906666D01*
X180078095Y-119001904D01*
X179887619Y-118049523D02*
X179840000Y-118001904D01*
X179792380Y-117906666D01*
X179792380Y-117668571D01*
X179840000Y-117573333D01*
X179887619Y-117525714D01*
X179982857Y-117478095D01*
X180078095Y-117478095D01*
X180220952Y-117525714D01*
X180792380Y-118097142D01*
X180792380Y-117478095D01*
%TO.C,C14*%
D14*
X144837071Y-97714571D02*
X144813261Y-97738380D01*
X144741833Y-97762190D01*
X144694214Y-97762190D01*
X144622785Y-97738380D01*
X144575166Y-97690761D01*
X144551357Y-97643142D01*
X144527547Y-97547904D01*
X144527547Y-97476476D01*
X144551357Y-97381238D01*
X144575166Y-97333619D01*
X144622785Y-97286000D01*
X144694214Y-97262190D01*
X144741833Y-97262190D01*
X144813261Y-97286000D01*
X144837071Y-97309809D01*
X145313261Y-97762190D02*
X145027547Y-97762190D01*
X145170404Y-97762190D02*
X145170404Y-97262190D01*
X145122785Y-97333619D01*
X145075166Y-97381238D01*
X145027547Y-97405047D01*
X145741833Y-97428857D02*
X145741833Y-97762190D01*
X145622785Y-97238380D02*
X145503738Y-97595523D01*
X145813261Y-97595523D01*
%TO.C,C15*%
X148451071Y-98685428D02*
X148474880Y-98709238D01*
X148498690Y-98780666D01*
X148498690Y-98828285D01*
X148474880Y-98899714D01*
X148427261Y-98947333D01*
X148379642Y-98971142D01*
X148284404Y-98994952D01*
X148212976Y-98994952D01*
X148117738Y-98971142D01*
X148070119Y-98947333D01*
X148022500Y-98899714D01*
X147998690Y-98828285D01*
X147998690Y-98780666D01*
X148022500Y-98709238D01*
X148046309Y-98685428D01*
X148498690Y-98209238D02*
X148498690Y-98494952D01*
X148498690Y-98352095D02*
X147998690Y-98352095D01*
X148070119Y-98399714D01*
X148117738Y-98447333D01*
X148141547Y-98494952D01*
X147998690Y-97756857D02*
X147998690Y-97994952D01*
X148236785Y-98018761D01*
X148212976Y-97994952D01*
X148189166Y-97947333D01*
X148189166Y-97828285D01*
X148212976Y-97780666D01*
X148236785Y-97756857D01*
X148284404Y-97733047D01*
X148403452Y-97733047D01*
X148451071Y-97756857D01*
X148474880Y-97780666D01*
X148498690Y-97828285D01*
X148498690Y-97947333D01*
X148474880Y-97994952D01*
X148451071Y-98018761D01*
%TO.C,C17*%
D13*
X176442642Y-108168357D02*
X176490261Y-108215976D01*
X176537880Y-108358833D01*
X176537880Y-108454071D01*
X176490261Y-108596928D01*
X176395023Y-108692166D01*
X176299785Y-108739785D01*
X176109309Y-108787404D01*
X175966452Y-108787404D01*
X175775976Y-108739785D01*
X175680738Y-108692166D01*
X175585500Y-108596928D01*
X175537880Y-108454071D01*
X175537880Y-108358833D01*
X175585500Y-108215976D01*
X175633119Y-108168357D01*
X176537880Y-107215976D02*
X176537880Y-107787404D01*
X176537880Y-107501690D02*
X175537880Y-107501690D01*
X175680738Y-107596928D01*
X175775976Y-107692166D01*
X175823595Y-107787404D01*
X175537880Y-106882642D02*
X175537880Y-106215976D01*
X176537880Y-106644547D01*
%TO.C,C18*%
X176315642Y-101841857D02*
X176363261Y-101889476D01*
X176410880Y-102032333D01*
X176410880Y-102127571D01*
X176363261Y-102270428D01*
X176268023Y-102365666D01*
X176172785Y-102413285D01*
X175982309Y-102460904D01*
X175839452Y-102460904D01*
X175648976Y-102413285D01*
X175553738Y-102365666D01*
X175458500Y-102270428D01*
X175410880Y-102127571D01*
X175410880Y-102032333D01*
X175458500Y-101889476D01*
X175506119Y-101841857D01*
X176410880Y-100889476D02*
X176410880Y-101460904D01*
X176410880Y-101175190D02*
X175410880Y-101175190D01*
X175553738Y-101270428D01*
X175648976Y-101365666D01*
X175696595Y-101460904D01*
X175839452Y-100318047D02*
X175791833Y-100413285D01*
X175744214Y-100460904D01*
X175648976Y-100508523D01*
X175601357Y-100508523D01*
X175506119Y-100460904D01*
X175458500Y-100413285D01*
X175410880Y-100318047D01*
X175410880Y-100127571D01*
X175458500Y-100032333D01*
X175506119Y-99984714D01*
X175601357Y-99937095D01*
X175648976Y-99937095D01*
X175744214Y-99984714D01*
X175791833Y-100032333D01*
X175839452Y-100127571D01*
X175839452Y-100318047D01*
X175887071Y-100413285D01*
X175934690Y-100460904D01*
X176029928Y-100508523D01*
X176220404Y-100508523D01*
X176315642Y-100460904D01*
X176363261Y-100413285D01*
X176410880Y-100318047D01*
X176410880Y-100127571D01*
X176363261Y-100032333D01*
X176315642Y-99984714D01*
X176220404Y-99937095D01*
X176029928Y-99937095D01*
X175934690Y-99984714D01*
X175887071Y-100032333D01*
X175839452Y-100127571D01*
%TO.C,D2*%
D14*
X178978690Y-78806547D02*
X178478690Y-78806547D01*
X178478690Y-78687500D01*
X178502500Y-78616071D01*
X178550119Y-78568452D01*
X178597738Y-78544642D01*
X178692976Y-78520833D01*
X178764404Y-78520833D01*
X178859642Y-78544642D01*
X178907261Y-78568452D01*
X178954880Y-78616071D01*
X178978690Y-78687500D01*
X178978690Y-78806547D01*
X178526309Y-78330357D02*
X178502500Y-78306547D01*
X178478690Y-78258928D01*
X178478690Y-78139880D01*
X178502500Y-78092261D01*
X178526309Y-78068452D01*
X178573928Y-78044642D01*
X178621547Y-78044642D01*
X178692976Y-78068452D01*
X178978690Y-78354166D01*
X178978690Y-78044642D01*
%TO.C,J1*%
D13*
X176831666Y-70508880D02*
X176831666Y-71223166D01*
X176784047Y-71366023D01*
X176688809Y-71461261D01*
X176545952Y-71508880D01*
X176450714Y-71508880D01*
X177831666Y-71508880D02*
X177260238Y-71508880D01*
X177545952Y-71508880D02*
X177545952Y-70508880D01*
X177450714Y-70651738D01*
X177355476Y-70746976D01*
X177260238Y-70794595D01*
%TO.C,J2*%
X127174666Y-122482380D02*
X127174666Y-123196666D01*
X127127047Y-123339523D01*
X127031809Y-123434761D01*
X126888952Y-123482380D01*
X126793714Y-123482380D01*
X127603238Y-122577619D02*
X127650857Y-122530000D01*
X127746095Y-122482380D01*
X127984190Y-122482380D01*
X128079428Y-122530000D01*
X128127047Y-122577619D01*
X128174666Y-122672857D01*
X128174666Y-122768095D01*
X128127047Y-122910952D01*
X127555619Y-123482380D01*
X128174666Y-123482380D01*
%TO.C,J3*%
X127174666Y-77778380D02*
X127174666Y-78492666D01*
X127127047Y-78635523D01*
X127031809Y-78730761D01*
X126888952Y-78778380D01*
X126793714Y-78778380D01*
X127555619Y-77778380D02*
X128174666Y-77778380D01*
X127841333Y-78159333D01*
X127984190Y-78159333D01*
X128079428Y-78206952D01*
X128127047Y-78254571D01*
X128174666Y-78349809D01*
X128174666Y-78587904D01*
X128127047Y-78683142D01*
X128079428Y-78730761D01*
X127984190Y-78778380D01*
X127698476Y-78778380D01*
X127603238Y-78730761D01*
X127555619Y-78683142D01*
%TO.C,J5*%
X180206380Y-94821333D02*
X180920666Y-94821333D01*
X181063523Y-94868952D01*
X181158761Y-94964190D01*
X181206380Y-95107047D01*
X181206380Y-95202285D01*
X180206380Y-93868952D02*
X180206380Y-94345142D01*
X180682571Y-94392761D01*
X180634952Y-94345142D01*
X180587333Y-94249904D01*
X180587333Y-94011809D01*
X180634952Y-93916571D01*
X180682571Y-93868952D01*
X180777809Y-93821333D01*
X181015904Y-93821333D01*
X181111142Y-93868952D01*
X181158761Y-93916571D01*
X181206380Y-94011809D01*
X181206380Y-94249904D01*
X181158761Y-94345142D01*
X181111142Y-94392761D01*
%TO.C,L1*%
X168743333Y-120657880D02*
X168267142Y-120657880D01*
X168267142Y-119657880D01*
X169600476Y-120657880D02*
X169029047Y-120657880D01*
X169314761Y-120657880D02*
X169314761Y-119657880D01*
X169219523Y-119800738D01*
X169124285Y-119895976D01*
X169029047Y-119943595D01*
%TO.C,R1*%
D14*
X179042190Y-82188833D02*
X178804095Y-82355500D01*
X179042190Y-82474547D02*
X178542190Y-82474547D01*
X178542190Y-82284071D01*
X178566000Y-82236452D01*
X178589809Y-82212642D01*
X178637428Y-82188833D01*
X178708857Y-82188833D01*
X178756476Y-82212642D01*
X178780285Y-82236452D01*
X178804095Y-82284071D01*
X178804095Y-82474547D01*
X179042190Y-81712642D02*
X179042190Y-81998357D01*
X179042190Y-81855500D02*
X178542190Y-81855500D01*
X178613619Y-81903119D01*
X178661238Y-81950738D01*
X178685047Y-81998357D01*
%TO.C,R2*%
X168445666Y-110462190D02*
X168279000Y-110224095D01*
X168159952Y-110462190D02*
X168159952Y-109962190D01*
X168350428Y-109962190D01*
X168398047Y-109986000D01*
X168421857Y-110009809D01*
X168445666Y-110057428D01*
X168445666Y-110128857D01*
X168421857Y-110176476D01*
X168398047Y-110200285D01*
X168350428Y-110224095D01*
X168159952Y-110224095D01*
X168636142Y-110009809D02*
X168659952Y-109986000D01*
X168707571Y-109962190D01*
X168826619Y-109962190D01*
X168874238Y-109986000D01*
X168898047Y-110009809D01*
X168921857Y-110057428D01*
X168921857Y-110105047D01*
X168898047Y-110176476D01*
X168612333Y-110462190D01*
X168921857Y-110462190D01*
%TO.C,R3*%
X154785190Y-90293333D02*
X154547095Y-90460000D01*
X154785190Y-90579047D02*
X154285190Y-90579047D01*
X154285190Y-90388571D01*
X154309000Y-90340952D01*
X154332809Y-90317142D01*
X154380428Y-90293333D01*
X154451857Y-90293333D01*
X154499476Y-90317142D01*
X154523285Y-90340952D01*
X154547095Y-90388571D01*
X154547095Y-90579047D01*
X154285190Y-90126666D02*
X154285190Y-89817142D01*
X154475666Y-89983809D01*
X154475666Y-89912380D01*
X154499476Y-89864761D01*
X154523285Y-89840952D01*
X154570904Y-89817142D01*
X154689952Y-89817142D01*
X154737571Y-89840952D01*
X154761380Y-89864761D01*
X154785190Y-89912380D01*
X154785190Y-90055238D01*
X154761380Y-90102857D01*
X154737571Y-90126666D01*
%TO.C,R4*%
X150181166Y-89316690D02*
X150014500Y-89078595D01*
X149895452Y-89316690D02*
X149895452Y-88816690D01*
X150085928Y-88816690D01*
X150133547Y-88840500D01*
X150157357Y-88864309D01*
X150181166Y-88911928D01*
X150181166Y-88983357D01*
X150157357Y-89030976D01*
X150133547Y-89054785D01*
X150085928Y-89078595D01*
X149895452Y-89078595D01*
X150609738Y-88983357D02*
X150609738Y-89316690D01*
X150490690Y-88792880D02*
X150371642Y-89150023D01*
X150681166Y-89150023D01*
%TO.C,R5*%
X154785190Y-95928333D02*
X154547095Y-96095000D01*
X154785190Y-96214047D02*
X154285190Y-96214047D01*
X154285190Y-96023571D01*
X154309000Y-95975952D01*
X154332809Y-95952142D01*
X154380428Y-95928333D01*
X154451857Y-95928333D01*
X154499476Y-95952142D01*
X154523285Y-95975952D01*
X154547095Y-96023571D01*
X154547095Y-96214047D01*
X154285190Y-95475952D02*
X154285190Y-95714047D01*
X154523285Y-95737857D01*
X154499476Y-95714047D01*
X154475666Y-95666428D01*
X154475666Y-95547380D01*
X154499476Y-95499761D01*
X154523285Y-95475952D01*
X154570904Y-95452142D01*
X154689952Y-95452142D01*
X154737571Y-95475952D01*
X154761380Y-95499761D01*
X154785190Y-95547380D01*
X154785190Y-95666428D01*
X154761380Y-95714047D01*
X154737571Y-95737857D01*
%TO.C,R6*%
X142085190Y-89086833D02*
X141847095Y-89253500D01*
X142085190Y-89372547D02*
X141585190Y-89372547D01*
X141585190Y-89182071D01*
X141609000Y-89134452D01*
X141632809Y-89110642D01*
X141680428Y-89086833D01*
X141751857Y-89086833D01*
X141799476Y-89110642D01*
X141823285Y-89134452D01*
X141847095Y-89182071D01*
X141847095Y-89372547D01*
X141585190Y-88658261D02*
X141585190Y-88753500D01*
X141609000Y-88801119D01*
X141632809Y-88824928D01*
X141704238Y-88872547D01*
X141799476Y-88896357D01*
X141989952Y-88896357D01*
X142037571Y-88872547D01*
X142061380Y-88848738D01*
X142085190Y-88801119D01*
X142085190Y-88705880D01*
X142061380Y-88658261D01*
X142037571Y-88634452D01*
X141989952Y-88610642D01*
X141870904Y-88610642D01*
X141823285Y-88634452D01*
X141799476Y-88658261D01*
X141775666Y-88705880D01*
X141775666Y-88801119D01*
X141799476Y-88848738D01*
X141823285Y-88872547D01*
X141870904Y-88896357D01*
%TO.C,R7*%
X184630190Y-107294833D02*
X184392095Y-107461500D01*
X184630190Y-107580547D02*
X184130190Y-107580547D01*
X184130190Y-107390071D01*
X184154000Y-107342452D01*
X184177809Y-107318642D01*
X184225428Y-107294833D01*
X184296857Y-107294833D01*
X184344476Y-107318642D01*
X184368285Y-107342452D01*
X184392095Y-107390071D01*
X184392095Y-107580547D01*
X184130190Y-107128166D02*
X184130190Y-106794833D01*
X184630190Y-107009119D01*
%TO.C,R8*%
X165643690Y-111525833D02*
X165405595Y-111692500D01*
X165643690Y-111811547D02*
X165143690Y-111811547D01*
X165143690Y-111621071D01*
X165167500Y-111573452D01*
X165191309Y-111549642D01*
X165238928Y-111525833D01*
X165310357Y-111525833D01*
X165357976Y-111549642D01*
X165381785Y-111573452D01*
X165405595Y-111621071D01*
X165405595Y-111811547D01*
X165357976Y-111240119D02*
X165334166Y-111287738D01*
X165310357Y-111311547D01*
X165262738Y-111335357D01*
X165238928Y-111335357D01*
X165191309Y-111311547D01*
X165167500Y-111287738D01*
X165143690Y-111240119D01*
X165143690Y-111144880D01*
X165167500Y-111097261D01*
X165191309Y-111073452D01*
X165238928Y-111049642D01*
X165262738Y-111049642D01*
X165310357Y-111073452D01*
X165334166Y-111097261D01*
X165357976Y-111144880D01*
X165357976Y-111240119D01*
X165381785Y-111287738D01*
X165405595Y-111311547D01*
X165453214Y-111335357D01*
X165548452Y-111335357D01*
X165596071Y-111311547D01*
X165619880Y-111287738D01*
X165643690Y-111240119D01*
X165643690Y-111144880D01*
X165619880Y-111097261D01*
X165596071Y-111073452D01*
X165548452Y-111049642D01*
X165453214Y-111049642D01*
X165405595Y-111073452D01*
X165381785Y-111097261D01*
X165357976Y-111144880D01*
%TO.C,R9*%
X142085190Y-93197833D02*
X141847095Y-93364500D01*
X142085190Y-93483547D02*
X141585190Y-93483547D01*
X141585190Y-93293071D01*
X141609000Y-93245452D01*
X141632809Y-93221642D01*
X141680428Y-93197833D01*
X141751857Y-93197833D01*
X141799476Y-93221642D01*
X141823285Y-93245452D01*
X141847095Y-93293071D01*
X141847095Y-93483547D01*
X142085190Y-92959738D02*
X142085190Y-92864500D01*
X142061380Y-92816880D01*
X142037571Y-92793071D01*
X141966142Y-92745452D01*
X141870904Y-92721642D01*
X141680428Y-92721642D01*
X141632809Y-92745452D01*
X141609000Y-92769261D01*
X141585190Y-92816880D01*
X141585190Y-92912119D01*
X141609000Y-92959738D01*
X141632809Y-92983547D01*
X141680428Y-93007357D01*
X141799476Y-93007357D01*
X141847095Y-92983547D01*
X141870904Y-92959738D01*
X141894714Y-92912119D01*
X141894714Y-92816880D01*
X141870904Y-92769261D01*
X141847095Y-92745452D01*
X141799476Y-92721642D01*
%TO.C,R10*%
X142085190Y-97262428D02*
X141847095Y-97429095D01*
X142085190Y-97548142D02*
X141585190Y-97548142D01*
X141585190Y-97357666D01*
X141609000Y-97310047D01*
X141632809Y-97286238D01*
X141680428Y-97262428D01*
X141751857Y-97262428D01*
X141799476Y-97286238D01*
X141823285Y-97310047D01*
X141847095Y-97357666D01*
X141847095Y-97548142D01*
X142085190Y-96786238D02*
X142085190Y-97071952D01*
X142085190Y-96929095D02*
X141585190Y-96929095D01*
X141656619Y-96976714D01*
X141704238Y-97024333D01*
X141728047Y-97071952D01*
X141585190Y-96476714D02*
X141585190Y-96429095D01*
X141609000Y-96381476D01*
X141632809Y-96357666D01*
X141680428Y-96333857D01*
X141775666Y-96310047D01*
X141894714Y-96310047D01*
X141989952Y-96333857D01*
X142037571Y-96357666D01*
X142061380Y-96381476D01*
X142085190Y-96429095D01*
X142085190Y-96476714D01*
X142061380Y-96524333D01*
X142037571Y-96548142D01*
X141989952Y-96571952D01*
X141894714Y-96595761D01*
X141775666Y-96595761D01*
X141680428Y-96571952D01*
X141632809Y-96548142D01*
X141609000Y-96524333D01*
X141585190Y-96476714D01*
%TO.C,R11*%
X176171990Y-94276028D02*
X175933895Y-94442695D01*
X176171990Y-94561742D02*
X175671990Y-94561742D01*
X175671990Y-94371266D01*
X175695800Y-94323647D01*
X175719609Y-94299838D01*
X175767228Y-94276028D01*
X175838657Y-94276028D01*
X175886276Y-94299838D01*
X175910085Y-94323647D01*
X175933895Y-94371266D01*
X175933895Y-94561742D01*
X176171990Y-93799838D02*
X176171990Y-94085552D01*
X176171990Y-93942695D02*
X175671990Y-93942695D01*
X175743419Y-93990314D01*
X175791038Y-94037933D01*
X175814847Y-94085552D01*
X176171990Y-93323647D02*
X176171990Y-93609361D01*
X176171990Y-93466504D02*
X175671990Y-93466504D01*
X175743419Y-93514123D01*
X175791038Y-93561742D01*
X175814847Y-93609361D01*
%TO.C,R12*%
X178978690Y-75187928D02*
X178740595Y-75354595D01*
X178978690Y-75473642D02*
X178478690Y-75473642D01*
X178478690Y-75283166D01*
X178502500Y-75235547D01*
X178526309Y-75211738D01*
X178573928Y-75187928D01*
X178645357Y-75187928D01*
X178692976Y-75211738D01*
X178716785Y-75235547D01*
X178740595Y-75283166D01*
X178740595Y-75473642D01*
X178978690Y-74711738D02*
X178978690Y-74997452D01*
X178978690Y-74854595D02*
X178478690Y-74854595D01*
X178550119Y-74902214D01*
X178597738Y-74949833D01*
X178621547Y-74997452D01*
X178526309Y-74521261D02*
X178502500Y-74497452D01*
X178478690Y-74449833D01*
X178478690Y-74330785D01*
X178502500Y-74283166D01*
X178526309Y-74259357D01*
X178573928Y-74235547D01*
X178621547Y-74235547D01*
X178692976Y-74259357D01*
X178978690Y-74545071D01*
X178978690Y-74235547D01*
%TO.C,R13*%
X175486571Y-74267190D02*
X175319904Y-74029095D01*
X175200857Y-74267190D02*
X175200857Y-73767190D01*
X175391333Y-73767190D01*
X175438952Y-73791000D01*
X175462761Y-73814809D01*
X175486571Y-73862428D01*
X175486571Y-73933857D01*
X175462761Y-73981476D01*
X175438952Y-74005285D01*
X175391333Y-74029095D01*
X175200857Y-74029095D01*
X175962761Y-74267190D02*
X175677047Y-74267190D01*
X175819904Y-74267190D02*
X175819904Y-73767190D01*
X175772285Y-73838619D01*
X175724666Y-73886238D01*
X175677047Y-73910047D01*
X176129428Y-73767190D02*
X176438952Y-73767190D01*
X176272285Y-73957666D01*
X176343714Y-73957666D01*
X176391333Y-73981476D01*
X176415142Y-74005285D01*
X176438952Y-74052904D01*
X176438952Y-74171952D01*
X176415142Y-74219571D01*
X176391333Y-74243380D01*
X176343714Y-74267190D01*
X176200857Y-74267190D01*
X176153238Y-74243380D01*
X176129428Y-74219571D01*
%TO.C,SW1*%
D13*
X183947261Y-79045833D02*
X183994880Y-78902976D01*
X183994880Y-78664880D01*
X183947261Y-78569642D01*
X183899642Y-78522023D01*
X183804404Y-78474404D01*
X183709166Y-78474404D01*
X183613928Y-78522023D01*
X183566309Y-78569642D01*
X183518690Y-78664880D01*
X183471071Y-78855357D01*
X183423452Y-78950595D01*
X183375833Y-78998214D01*
X183280595Y-79045833D01*
X183185357Y-79045833D01*
X183090119Y-78998214D01*
X183042500Y-78950595D01*
X182994880Y-78855357D01*
X182994880Y-78617261D01*
X183042500Y-78474404D01*
X182994880Y-78141071D02*
X183994880Y-77902976D01*
X183280595Y-77712500D01*
X183994880Y-77522023D01*
X182994880Y-77283928D01*
X183994880Y-76379166D02*
X183994880Y-76950595D01*
X183994880Y-76664880D02*
X182994880Y-76664880D01*
X183137738Y-76760119D01*
X183232976Y-76855357D01*
X183280595Y-76950595D01*
%TO.C,U2*%
X154949380Y-113096904D02*
X155758904Y-113096904D01*
X155854142Y-113049285D01*
X155901761Y-113001666D01*
X155949380Y-112906428D01*
X155949380Y-112715952D01*
X155901761Y-112620714D01*
X155854142Y-112573095D01*
X155758904Y-112525476D01*
X154949380Y-112525476D01*
X155044619Y-112096904D02*
X154997000Y-112049285D01*
X154949380Y-111954047D01*
X154949380Y-111715952D01*
X154997000Y-111620714D01*
X155044619Y-111573095D01*
X155139857Y-111525476D01*
X155235095Y-111525476D01*
X155377952Y-111573095D01*
X155949380Y-112144523D01*
X155949380Y-111525476D01*
%TO.C,U3*%
D15*
X168349976Y-102647404D02*
X168349976Y-103295023D01*
X168388071Y-103371214D01*
X168426166Y-103409309D01*
X168502357Y-103447404D01*
X168654738Y-103447404D01*
X168730928Y-103409309D01*
X168769023Y-103371214D01*
X168807119Y-103295023D01*
X168807119Y-102647404D01*
X169111880Y-102647404D02*
X169607119Y-102647404D01*
X169340452Y-102952166D01*
X169454738Y-102952166D01*
X169530928Y-102990261D01*
X169569023Y-103028357D01*
X169607119Y-103104547D01*
X169607119Y-103295023D01*
X169569023Y-103371214D01*
X169530928Y-103409309D01*
X169454738Y-103447404D01*
X169226166Y-103447404D01*
X169149976Y-103409309D01*
X169111880Y-103371214D01*
%TO.C,Y1*%
D13*
X150344190Y-80386190D02*
X150820380Y-80386190D01*
X149820380Y-80719523D02*
X150344190Y-80386190D01*
X149820380Y-80052857D01*
X150820380Y-79195714D02*
X150820380Y-79767142D01*
X150820380Y-79481428D02*
X149820380Y-79481428D01*
X149963238Y-79576666D01*
X150058476Y-79671904D01*
X150106095Y-79767142D01*
%TO.C,J4*%
X165528666Y-70508880D02*
X165528666Y-71223166D01*
X165481047Y-71366023D01*
X165385809Y-71461261D01*
X165242952Y-71508880D01*
X165147714Y-71508880D01*
X166433428Y-70842214D02*
X166433428Y-71508880D01*
X166195333Y-70461261D02*
X165957238Y-71175547D01*
X166576285Y-71175547D01*
%TO.C,R14*%
D14*
X169898190Y-87593928D02*
X169660095Y-87760595D01*
X169898190Y-87879642D02*
X169398190Y-87879642D01*
X169398190Y-87689166D01*
X169422000Y-87641547D01*
X169445809Y-87617738D01*
X169493428Y-87593928D01*
X169564857Y-87593928D01*
X169612476Y-87617738D01*
X169636285Y-87641547D01*
X169660095Y-87689166D01*
X169660095Y-87879642D01*
X169898190Y-87117738D02*
X169898190Y-87403452D01*
X169898190Y-87260595D02*
X169398190Y-87260595D01*
X169469619Y-87308214D01*
X169517238Y-87355833D01*
X169541047Y-87403452D01*
X169564857Y-86689166D02*
X169898190Y-86689166D01*
X169374380Y-86808214D02*
X169731523Y-86927261D01*
X169731523Y-86617738D01*
%TO.C,R15*%
X171930190Y-87593928D02*
X171692095Y-87760595D01*
X171930190Y-87879642D02*
X171430190Y-87879642D01*
X171430190Y-87689166D01*
X171454000Y-87641547D01*
X171477809Y-87617738D01*
X171525428Y-87593928D01*
X171596857Y-87593928D01*
X171644476Y-87617738D01*
X171668285Y-87641547D01*
X171692095Y-87689166D01*
X171692095Y-87879642D01*
X171930190Y-87117738D02*
X171930190Y-87403452D01*
X171930190Y-87260595D02*
X171430190Y-87260595D01*
X171501619Y-87308214D01*
X171549238Y-87355833D01*
X171573047Y-87403452D01*
X171430190Y-86665357D02*
X171430190Y-86903452D01*
X171668285Y-86927261D01*
X171644476Y-86903452D01*
X171620666Y-86855833D01*
X171620666Y-86736785D01*
X171644476Y-86689166D01*
X171668285Y-86665357D01*
X171715904Y-86641547D01*
X171834952Y-86641547D01*
X171882571Y-86665357D01*
X171906380Y-86689166D01*
X171930190Y-86736785D01*
X171930190Y-86855833D01*
X171906380Y-86903452D01*
X171882571Y-86927261D01*
%TO.C,R16*%
X173962190Y-87697428D02*
X173724095Y-87864095D01*
X173962190Y-87983142D02*
X173462190Y-87983142D01*
X173462190Y-87792666D01*
X173486000Y-87745047D01*
X173509809Y-87721238D01*
X173557428Y-87697428D01*
X173628857Y-87697428D01*
X173676476Y-87721238D01*
X173700285Y-87745047D01*
X173724095Y-87792666D01*
X173724095Y-87983142D01*
X173962190Y-87221238D02*
X173962190Y-87506952D01*
X173962190Y-87364095D02*
X173462190Y-87364095D01*
X173533619Y-87411714D01*
X173581238Y-87459333D01*
X173605047Y-87506952D01*
X173462190Y-86792666D02*
X173462190Y-86887904D01*
X173486000Y-86935523D01*
X173509809Y-86959333D01*
X173581238Y-87006952D01*
X173676476Y-87030761D01*
X173866952Y-87030761D01*
X173914571Y-87006952D01*
X173938380Y-86983142D01*
X173962190Y-86935523D01*
X173962190Y-86840285D01*
X173938380Y-86792666D01*
X173914571Y-86768857D01*
X173866952Y-86745047D01*
X173747904Y-86745047D01*
X173700285Y-86768857D01*
X173676476Y-86792666D01*
X173652666Y-86840285D01*
X173652666Y-86935523D01*
X173676476Y-86983142D01*
X173700285Y-87006952D01*
X173747904Y-87030761D01*
%TO.C,R17*%
X172041071Y-90904190D02*
X171874404Y-90666095D01*
X171755357Y-90904190D02*
X171755357Y-90404190D01*
X171945833Y-90404190D01*
X171993452Y-90428000D01*
X172017261Y-90451809D01*
X172041071Y-90499428D01*
X172041071Y-90570857D01*
X172017261Y-90618476D01*
X171993452Y-90642285D01*
X171945833Y-90666095D01*
X171755357Y-90666095D01*
X172517261Y-90904190D02*
X172231547Y-90904190D01*
X172374404Y-90904190D02*
X172374404Y-90404190D01*
X172326785Y-90475619D01*
X172279166Y-90523238D01*
X172231547Y-90547047D01*
X172683928Y-90404190D02*
X173017261Y-90404190D01*
X172802976Y-90904190D01*
%TO.C,J6*%
D13*
X142200380Y-79835333D02*
X142914666Y-79835333D01*
X143057523Y-79882952D01*
X143152761Y-79978190D01*
X143200380Y-80121047D01*
X143200380Y-80216285D01*
X142200380Y-78930571D02*
X142200380Y-79121047D01*
X142248000Y-79216285D01*
X142295619Y-79263904D01*
X142438476Y-79359142D01*
X142628952Y-79406761D01*
X143009904Y-79406761D01*
X143105142Y-79359142D01*
X143152761Y-79311523D01*
X143200380Y-79216285D01*
X143200380Y-79025809D01*
X143152761Y-78930571D01*
X143105142Y-78882952D01*
X143009904Y-78835333D01*
X142771809Y-78835333D01*
X142676571Y-78882952D01*
X142628952Y-78930571D01*
X142581333Y-79025809D01*
X142581333Y-79216285D01*
X142628952Y-79311523D01*
X142676571Y-79359142D01*
X142771809Y-79406761D01*
%TO.C,J7*%
X166036666Y-92162380D02*
X166036666Y-92876666D01*
X165989047Y-93019523D01*
X165893809Y-93114761D01*
X165750952Y-93162380D01*
X165655714Y-93162380D01*
X166417619Y-92162380D02*
X167084285Y-92162380D01*
X166655714Y-93162380D01*
%TD*%
M02*
