%TF.GenerationSoftware,KiCad,Pcbnew,(5.1.12)-1*%
%TF.CreationDate,2022-08-10T11:31:23+05:30*%
%TF.ProjectId,AGV_SENSOR_PCB_2,4147565f-5345-44e5-934f-525f5043425f,rev?*%
%TF.SameCoordinates,Original*%
%TF.FileFunction,Legend,Top*%
%TF.FilePolarity,Positive*%
%FSLAX46Y46*%
G04 Gerber Fmt 4.6, Leading zero omitted, Abs format (unit mm)*
G04 Created by KiCad (PCBNEW (5.1.12)-1) date 2022-08-10 11:31:23*
%MOMM*%
%LPD*%
G01*
G04 APERTURE LIST*
%ADD10C,0.250000*%
%ADD11C,0.150000*%
%ADD12C,0.120000*%
%ADD13C,0.200000*%
%ADD14C,0.127000*%
%ADD15C,0.254000*%
G04 APERTURE END LIST*
D10*
X117153428Y-105678857D02*
X117082000Y-105821714D01*
X116939142Y-105964571D01*
X116724857Y-106178857D01*
X116653428Y-106321714D01*
X116653428Y-106464571D01*
X117010571Y-106393142D02*
X116939142Y-106536000D01*
X116796285Y-106678857D01*
X116510571Y-106750285D01*
X116010571Y-106750285D01*
X115724857Y-106678857D01*
X115582000Y-106536000D01*
X115510571Y-106393142D01*
X115510571Y-106107428D01*
X115582000Y-105964571D01*
X115724857Y-105821714D01*
X116010571Y-105750285D01*
X116510571Y-105750285D01*
X116796285Y-105821714D01*
X116939142Y-105964571D01*
X117010571Y-106107428D01*
X117010571Y-106393142D01*
X116010571Y-104464571D02*
X117010571Y-104464571D01*
X116010571Y-105107428D02*
X116796285Y-105107428D01*
X116939142Y-105036000D01*
X117010571Y-104893142D01*
X117010571Y-104678857D01*
X116939142Y-104536000D01*
X116867714Y-104464571D01*
X117010571Y-103750285D02*
X116010571Y-103750285D01*
X116296285Y-103750285D02*
X116153428Y-103678857D01*
X116082000Y-103607428D01*
X116010571Y-103464571D01*
X116010571Y-103321714D01*
X117010571Y-102607428D02*
X116939142Y-102750285D01*
X116867714Y-102821714D01*
X116724857Y-102893142D01*
X116296285Y-102893142D01*
X116153428Y-102821714D01*
X116082000Y-102750285D01*
X116010571Y-102607428D01*
X116010571Y-102393142D01*
X116082000Y-102250285D01*
X116153428Y-102178857D01*
X116296285Y-102107428D01*
X116724857Y-102107428D01*
X116867714Y-102178857D01*
X116939142Y-102250285D01*
X117010571Y-102393142D01*
X117010571Y-102607428D01*
X117010571Y-101250285D02*
X116939142Y-101393142D01*
X116796285Y-101464571D01*
X115510571Y-101464571D01*
X117010571Y-100036000D02*
X116224857Y-100036000D01*
X116082000Y-100107428D01*
X116010571Y-100250285D01*
X116010571Y-100536000D01*
X116082000Y-100678857D01*
X116939142Y-100036000D02*
X117010571Y-100178857D01*
X117010571Y-100536000D01*
X116939142Y-100678857D01*
X116796285Y-100750285D01*
X116653428Y-100750285D01*
X116510571Y-100678857D01*
X116439142Y-100536000D01*
X116439142Y-100178857D01*
X116367714Y-100036000D01*
X117010571Y-99321714D02*
X115510571Y-99321714D01*
X116082000Y-99321714D02*
X116010571Y-99178857D01*
X116010571Y-98893142D01*
X116082000Y-98750285D01*
X116153428Y-98678857D01*
X116296285Y-98607428D01*
X116724857Y-98607428D01*
X116867714Y-98678857D01*
X116939142Y-98750285D01*
X117010571Y-98893142D01*
X117010571Y-99178857D01*
X116939142Y-99321714D01*
X116939142Y-98036000D02*
X117010571Y-97893142D01*
X117010571Y-97607428D01*
X116939142Y-97464571D01*
X116796285Y-97393142D01*
X116724857Y-97393142D01*
X116582000Y-97464571D01*
X116510571Y-97607428D01*
X116510571Y-97821714D01*
X116439142Y-97964571D01*
X116296285Y-98036000D01*
X116224857Y-98036000D01*
X116082000Y-97964571D01*
X116010571Y-97821714D01*
X116010571Y-97607428D01*
X116082000Y-97464571D01*
X116010571Y-95607428D02*
X117510571Y-95607428D01*
X116082000Y-95607428D02*
X116010571Y-95464571D01*
X116010571Y-95178857D01*
X116082000Y-95036000D01*
X116153428Y-94964571D01*
X116296285Y-94893142D01*
X116724857Y-94893142D01*
X116867714Y-94964571D01*
X116939142Y-95036000D01*
X117010571Y-95178857D01*
X117010571Y-95464571D01*
X116939142Y-95607428D01*
X116010571Y-94393142D02*
X117010571Y-94036000D01*
X116010571Y-93678857D01*
X116010571Y-93321714D02*
X116010571Y-92750285D01*
X115510571Y-93107428D02*
X116796285Y-93107428D01*
X116939142Y-93036000D01*
X117010571Y-92893142D01*
X117010571Y-92750285D01*
X117010571Y-90393142D02*
X117010571Y-91107428D01*
X115510571Y-91107428D01*
X116010571Y-90107428D02*
X116010571Y-89536000D01*
X115510571Y-89893142D02*
X116796285Y-89893142D01*
X116939142Y-89821714D01*
X117010571Y-89678857D01*
X117010571Y-89536000D01*
X117010571Y-88393142D02*
X115510571Y-88393142D01*
X116939142Y-88393142D02*
X117010571Y-88536000D01*
X117010571Y-88821714D01*
X116939142Y-88964571D01*
X116867714Y-89036000D01*
X116724857Y-89107428D01*
X116296285Y-89107428D01*
X116153428Y-89036000D01*
X116082000Y-88964571D01*
X116010571Y-88821714D01*
X116010571Y-88536000D01*
X116082000Y-88393142D01*
D11*
X189301428Y-103393714D02*
X189301428Y-102631809D01*
X189682380Y-103012761D02*
X188920476Y-103012761D01*
X188682380Y-101679428D02*
X188682380Y-102155619D01*
X189158571Y-102203238D01*
X189110952Y-102155619D01*
X189063333Y-102060380D01*
X189063333Y-101822285D01*
X189110952Y-101727047D01*
X189158571Y-101679428D01*
X189253809Y-101631809D01*
X189491904Y-101631809D01*
X189587142Y-101679428D01*
X189634761Y-101727047D01*
X189682380Y-101822285D01*
X189682380Y-102060380D01*
X189634761Y-102155619D01*
X189587142Y-102203238D01*
X188682380Y-101346095D02*
X189682380Y-101012761D01*
X188682380Y-100679428D01*
X189682380Y-97194666D02*
X189206190Y-97528000D01*
X189682380Y-97766095D02*
X188682380Y-97766095D01*
X188682380Y-97385142D01*
X188730000Y-97289904D01*
X188777619Y-97242285D01*
X188872857Y-97194666D01*
X189015714Y-97194666D01*
X189110952Y-97242285D01*
X189158571Y-97289904D01*
X189206190Y-97385142D01*
X189206190Y-97766095D01*
X188682380Y-96861333D02*
X189682380Y-96194666D01*
X188682380Y-96194666D02*
X189682380Y-96861333D01*
X188682380Y-92709904D02*
X188682380Y-92138476D01*
X189682380Y-92424190D02*
X188682380Y-92424190D01*
X188682380Y-91900380D02*
X189682380Y-91233714D01*
X188682380Y-91233714D02*
X189682380Y-91900380D01*
X188222000Y-86352095D02*
X188174380Y-86447333D01*
X188174380Y-86590190D01*
X188222000Y-86733047D01*
X188317238Y-86828285D01*
X188412476Y-86875904D01*
X188602952Y-86923523D01*
X188745809Y-86923523D01*
X188936285Y-86875904D01*
X189031523Y-86828285D01*
X189126761Y-86733047D01*
X189174380Y-86590190D01*
X189174380Y-86494952D01*
X189126761Y-86352095D01*
X189079142Y-86304476D01*
X188745809Y-86304476D01*
X188745809Y-86494952D01*
X135366095Y-69988133D02*
X134889904Y-69988133D01*
X135461333Y-69702419D02*
X135128000Y-70702419D01*
X134794666Y-69702419D01*
X129976571Y-70124628D02*
X129833714Y-70077009D01*
X129786095Y-70029390D01*
X129738476Y-69934152D01*
X129738476Y-69791295D01*
X129786095Y-69696057D01*
X129833714Y-69648438D01*
X129928952Y-69600819D01*
X130309904Y-69600819D01*
X130309904Y-70600819D01*
X129976571Y-70600819D01*
X129881333Y-70553200D01*
X129833714Y-70505580D01*
X129786095Y-70410342D01*
X129786095Y-70315104D01*
X129833714Y-70219866D01*
X129881333Y-70172247D01*
X129976571Y-70124628D01*
X130309904Y-70124628D01*
X124756895Y-70553200D02*
X124852133Y-70600819D01*
X124994990Y-70600819D01*
X125137847Y-70553200D01*
X125233085Y-70457961D01*
X125280704Y-70362723D01*
X125328323Y-70172247D01*
X125328323Y-70029390D01*
X125280704Y-69838914D01*
X125233085Y-69743676D01*
X125137847Y-69648438D01*
X124994990Y-69600819D01*
X124899752Y-69600819D01*
X124756895Y-69648438D01*
X124709276Y-69696057D01*
X124709276Y-70029390D01*
X124899752Y-70029390D01*
X121649904Y-69829371D02*
X120888000Y-69829371D01*
X121268952Y-69448419D02*
X121268952Y-70210323D01*
X120459428Y-70353180D02*
X120411809Y-70400800D01*
X120316571Y-70448419D01*
X120078476Y-70448419D01*
X119983238Y-70400800D01*
X119935619Y-70353180D01*
X119888000Y-70257942D01*
X119888000Y-70162704D01*
X119935619Y-70019847D01*
X120507047Y-69448419D01*
X119888000Y-69448419D01*
X119030857Y-70115085D02*
X119030857Y-69448419D01*
X119268952Y-70496038D02*
X119507047Y-69781752D01*
X118888000Y-69781752D01*
X118649904Y-70448419D02*
X118316571Y-69448419D01*
X117983238Y-70448419D01*
X117618095Y-125547428D02*
X118380000Y-125547428D01*
X117999047Y-125928380D02*
X117999047Y-125166476D01*
X118808571Y-125023619D02*
X118856190Y-124976000D01*
X118951428Y-124928380D01*
X119189523Y-124928380D01*
X119284761Y-124976000D01*
X119332380Y-125023619D01*
X119380000Y-125118857D01*
X119380000Y-125214095D01*
X119332380Y-125356952D01*
X118760952Y-125928380D01*
X119380000Y-125928380D01*
X120237142Y-125261714D02*
X120237142Y-125928380D01*
X119999047Y-124880761D02*
X119760952Y-125595047D01*
X120380000Y-125595047D01*
X120618095Y-124928380D02*
X120951428Y-125928380D01*
X121284761Y-124928380D01*
X125229904Y-124976000D02*
X125134666Y-124928380D01*
X124991809Y-124928380D01*
X124848952Y-124976000D01*
X124753714Y-125071238D01*
X124706095Y-125166476D01*
X124658476Y-125356952D01*
X124658476Y-125499809D01*
X124706095Y-125690285D01*
X124753714Y-125785523D01*
X124848952Y-125880761D01*
X124991809Y-125928380D01*
X125087047Y-125928380D01*
X125229904Y-125880761D01*
X125277523Y-125833142D01*
X125277523Y-125499809D01*
X125087047Y-125499809D01*
X130119428Y-125658571D02*
X130262285Y-125706190D01*
X130309904Y-125753809D01*
X130357523Y-125849047D01*
X130357523Y-125991904D01*
X130309904Y-126087142D01*
X130262285Y-126134761D01*
X130167047Y-126182380D01*
X129786095Y-126182380D01*
X129786095Y-125182380D01*
X130119428Y-125182380D01*
X130214666Y-125230000D01*
X130262285Y-125277619D01*
X130309904Y-125372857D01*
X130309904Y-125468095D01*
X130262285Y-125563333D01*
X130214666Y-125610952D01*
X130119428Y-125658571D01*
X129786095Y-125658571D01*
X134889904Y-125642666D02*
X135366095Y-125642666D01*
X134794666Y-125928380D02*
X135128000Y-124928380D01*
X135461333Y-125928380D01*
D12*
X187960000Y-71120000D02*
X187960000Y-124460000D01*
X114300000Y-71120000D02*
X187960000Y-71120000D01*
X114300000Y-124460000D02*
X114300000Y-71120000D01*
X114300000Y-124460000D02*
X187960000Y-124460000D01*
X189560000Y-124460000D02*
G75*
G03*
X189560000Y-124460000I-1600000J0D01*
G01*
X189560000Y-71120000D02*
G75*
G03*
X189560000Y-71120000I-1600000J0D01*
G01*
X115900000Y-71120000D02*
G75*
G03*
X115900000Y-71120000I-1600000J0D01*
G01*
X115900000Y-124460000D02*
G75*
G03*
X115900000Y-124460000I-1600000J0D01*
G01*
X111760000Y-127000000D02*
X111760000Y-68580000D01*
X190500000Y-127000000D02*
X111760000Y-127000000D01*
X190500000Y-68580000D02*
X190500000Y-127000000D01*
X111760000Y-68580000D02*
X190500000Y-68580000D01*
%TO.C,U1*%
X161490000Y-77104000D02*
X160200000Y-77104000D01*
X161490000Y-76654000D02*
X161490000Y-77104000D01*
X161940000Y-76654000D02*
X161490000Y-76654000D01*
X168710000Y-76654000D02*
X168710000Y-77104000D01*
X168260000Y-76654000D02*
X168710000Y-76654000D01*
X161490000Y-83874000D02*
X161490000Y-83424000D01*
X161940000Y-83874000D02*
X161490000Y-83874000D01*
X168710000Y-83874000D02*
X168710000Y-83424000D01*
X168260000Y-83874000D02*
X168710000Y-83874000D01*
%TO.C,C1*%
X154078000Y-77589748D02*
X154078000Y-78112252D01*
X155548000Y-77589748D02*
X155548000Y-78112252D01*
%TO.C,C2*%
X154078000Y-81668252D02*
X154078000Y-81145748D01*
X155548000Y-81668252D02*
X155548000Y-81145748D01*
%TO.C,C3*%
X156835248Y-73125000D02*
X157357752Y-73125000D01*
X156835248Y-71655000D02*
X157357752Y-71655000D01*
%TO.C,C4*%
X161617252Y-73179000D02*
X161094748Y-73179000D01*
X161617252Y-74649000D02*
X161094748Y-74649000D01*
%TO.C,C5*%
X167136752Y-87984000D02*
X166614248Y-87984000D01*
X167136752Y-86514000D02*
X166614248Y-86514000D01*
%TO.C,C6*%
X172239000Y-76700748D02*
X172239000Y-77223252D01*
X173709000Y-76700748D02*
X173709000Y-77223252D01*
%TO.C,C7*%
X183441748Y-71401000D02*
X183964252Y-71401000D01*
X183441748Y-72871000D02*
X183964252Y-72871000D01*
%TO.C,C8*%
X156837748Y-69559500D02*
X157360252Y-69559500D01*
X156837748Y-71029500D02*
X157360252Y-71029500D01*
%TO.C,C9*%
X168328748Y-111660000D02*
X168851252Y-111660000D01*
X168328748Y-113130000D02*
X168851252Y-113130000D01*
%TO.C,C10*%
X146918800Y-121280000D02*
G75*
G03*
X146918800Y-121280000I-4120000J0D01*
G01*
X146878800Y-121280000D02*
X138718800Y-121280000D01*
X146878800Y-121320000D02*
X138718800Y-121320000D01*
X146878800Y-121360000D02*
X138718800Y-121360000D01*
X146877800Y-121400000D02*
X138719800Y-121400000D01*
X146875800Y-121440000D02*
X138721800Y-121440000D01*
X146874800Y-121480000D02*
X138722800Y-121480000D01*
X146872800Y-121520000D02*
X138724800Y-121520000D01*
X146869800Y-121560000D02*
X138727800Y-121560000D01*
X146866800Y-121600000D02*
X138730800Y-121600000D01*
X146863800Y-121640000D02*
X138733800Y-121640000D01*
X146859800Y-121680000D02*
X138737800Y-121680000D01*
X146855800Y-121720000D02*
X138741800Y-121720000D01*
X146850800Y-121760000D02*
X138746800Y-121760000D01*
X146846800Y-121800000D02*
X138750800Y-121800000D01*
X146840800Y-121840000D02*
X138756800Y-121840000D01*
X146835800Y-121880000D02*
X138761800Y-121880000D01*
X146828800Y-121920000D02*
X138768800Y-121920000D01*
X146822800Y-121960000D02*
X138774800Y-121960000D01*
X146815800Y-122001000D02*
X138781800Y-122001000D01*
X146808800Y-122041000D02*
X138788800Y-122041000D01*
X146800800Y-122081000D02*
X138796800Y-122081000D01*
X146792800Y-122121000D02*
X138804800Y-122121000D01*
X146783800Y-122161000D02*
X143838800Y-122161000D01*
X141758800Y-122161000D02*
X138813800Y-122161000D01*
X146774800Y-122201000D02*
X143838800Y-122201000D01*
X141758800Y-122201000D02*
X138822800Y-122201000D01*
X146765800Y-122241000D02*
X143838800Y-122241000D01*
X141758800Y-122241000D02*
X138831800Y-122241000D01*
X146755800Y-122281000D02*
X143838800Y-122281000D01*
X141758800Y-122281000D02*
X138841800Y-122281000D01*
X146745800Y-122321000D02*
X143838800Y-122321000D01*
X141758800Y-122321000D02*
X138851800Y-122321000D01*
X146734800Y-122361000D02*
X143838800Y-122361000D01*
X141758800Y-122361000D02*
X138862800Y-122361000D01*
X146723800Y-122401000D02*
X143838800Y-122401000D01*
X141758800Y-122401000D02*
X138873800Y-122401000D01*
X146712800Y-122441000D02*
X143838800Y-122441000D01*
X141758800Y-122441000D02*
X138884800Y-122441000D01*
X146700800Y-122481000D02*
X143838800Y-122481000D01*
X141758800Y-122481000D02*
X138896800Y-122481000D01*
X146687800Y-122521000D02*
X143838800Y-122521000D01*
X141758800Y-122521000D02*
X138909800Y-122521000D01*
X146675800Y-122561000D02*
X143838800Y-122561000D01*
X141758800Y-122561000D02*
X138921800Y-122561000D01*
X146661800Y-122601000D02*
X143838800Y-122601000D01*
X141758800Y-122601000D02*
X138935800Y-122601000D01*
X146648800Y-122641000D02*
X143838800Y-122641000D01*
X141758800Y-122641000D02*
X138948800Y-122641000D01*
X146633800Y-122681000D02*
X143838800Y-122681000D01*
X141758800Y-122681000D02*
X138963800Y-122681000D01*
X146619800Y-122721000D02*
X143838800Y-122721000D01*
X141758800Y-122721000D02*
X138977800Y-122721000D01*
X146603800Y-122761000D02*
X143838800Y-122761000D01*
X141758800Y-122761000D02*
X138993800Y-122761000D01*
X146588800Y-122801000D02*
X143838800Y-122801000D01*
X141758800Y-122801000D02*
X139008800Y-122801000D01*
X146572800Y-122841000D02*
X143838800Y-122841000D01*
X141758800Y-122841000D02*
X139024800Y-122841000D01*
X146555800Y-122881000D02*
X143838800Y-122881000D01*
X141758800Y-122881000D02*
X139041800Y-122881000D01*
X146538800Y-122921000D02*
X143838800Y-122921000D01*
X141758800Y-122921000D02*
X139058800Y-122921000D01*
X146520800Y-122961000D02*
X143838800Y-122961000D01*
X141758800Y-122961000D02*
X139076800Y-122961000D01*
X146502800Y-123001000D02*
X143838800Y-123001000D01*
X141758800Y-123001000D02*
X139094800Y-123001000D01*
X146484800Y-123041000D02*
X143838800Y-123041000D01*
X141758800Y-123041000D02*
X139112800Y-123041000D01*
X146464800Y-123081000D02*
X143838800Y-123081000D01*
X141758800Y-123081000D02*
X139132800Y-123081000D01*
X146445800Y-123121000D02*
X143838800Y-123121000D01*
X141758800Y-123121000D02*
X139151800Y-123121000D01*
X146425800Y-123161000D02*
X143838800Y-123161000D01*
X141758800Y-123161000D02*
X139171800Y-123161000D01*
X146404800Y-123201000D02*
X143838800Y-123201000D01*
X141758800Y-123201000D02*
X139192800Y-123201000D01*
X146382800Y-123241000D02*
X143838800Y-123241000D01*
X141758800Y-123241000D02*
X139214800Y-123241000D01*
X146360800Y-123281000D02*
X143838800Y-123281000D01*
X141758800Y-123281000D02*
X139236800Y-123281000D01*
X146338800Y-123321000D02*
X143838800Y-123321000D01*
X141758800Y-123321000D02*
X139258800Y-123321000D01*
X146315800Y-123361000D02*
X143838800Y-123361000D01*
X141758800Y-123361000D02*
X139281800Y-123361000D01*
X146291800Y-123401000D02*
X143838800Y-123401000D01*
X141758800Y-123401000D02*
X139305800Y-123401000D01*
X146267800Y-123441000D02*
X143838800Y-123441000D01*
X141758800Y-123441000D02*
X139329800Y-123441000D01*
X146242800Y-123481000D02*
X143838800Y-123481000D01*
X141758800Y-123481000D02*
X139354800Y-123481000D01*
X146216800Y-123521000D02*
X143838800Y-123521000D01*
X141758800Y-123521000D02*
X139380800Y-123521000D01*
X146190800Y-123561000D02*
X143838800Y-123561000D01*
X141758800Y-123561000D02*
X139406800Y-123561000D01*
X146163800Y-123601000D02*
X143838800Y-123601000D01*
X141758800Y-123601000D02*
X139433800Y-123601000D01*
X146136800Y-123641000D02*
X143838800Y-123641000D01*
X141758800Y-123641000D02*
X139460800Y-123641000D01*
X146107800Y-123681000D02*
X143838800Y-123681000D01*
X141758800Y-123681000D02*
X139489800Y-123681000D01*
X146078800Y-123721000D02*
X143838800Y-123721000D01*
X141758800Y-123721000D02*
X139518800Y-123721000D01*
X146048800Y-123761000D02*
X143838800Y-123761000D01*
X141758800Y-123761000D02*
X139548800Y-123761000D01*
X146018800Y-123801000D02*
X143838800Y-123801000D01*
X141758800Y-123801000D02*
X139578800Y-123801000D01*
X145987800Y-123841000D02*
X143838800Y-123841000D01*
X141758800Y-123841000D02*
X139609800Y-123841000D01*
X145954800Y-123881000D02*
X143838800Y-123881000D01*
X141758800Y-123881000D02*
X139642800Y-123881000D01*
X145922800Y-123921000D02*
X143838800Y-123921000D01*
X141758800Y-123921000D02*
X139674800Y-123921000D01*
X145888800Y-123961000D02*
X143838800Y-123961000D01*
X141758800Y-123961000D02*
X139708800Y-123961000D01*
X145853800Y-124001000D02*
X143838800Y-124001000D01*
X141758800Y-124001000D02*
X139743800Y-124001000D01*
X145817800Y-124041000D02*
X143838800Y-124041000D01*
X141758800Y-124041000D02*
X139779800Y-124041000D01*
X145781800Y-124081000D02*
X143838800Y-124081000D01*
X141758800Y-124081000D02*
X139815800Y-124081000D01*
X145743800Y-124121000D02*
X143838800Y-124121000D01*
X141758800Y-124121000D02*
X139853800Y-124121000D01*
X145705800Y-124161000D02*
X143838800Y-124161000D01*
X141758800Y-124161000D02*
X139891800Y-124161000D01*
X145665800Y-124201000D02*
X143838800Y-124201000D01*
X141758800Y-124201000D02*
X139931800Y-124201000D01*
X145624800Y-124241000D02*
X139972800Y-124241000D01*
X145582800Y-124281000D02*
X140014800Y-124281000D01*
X145539800Y-124321000D02*
X140057800Y-124321000D01*
X145495800Y-124361000D02*
X140101800Y-124361000D01*
X145449800Y-124401000D02*
X140147800Y-124401000D01*
X145402800Y-124441000D02*
X140194800Y-124441000D01*
X145354800Y-124481000D02*
X140242800Y-124481000D01*
X145303800Y-124521000D02*
X140293800Y-124521000D01*
X145252800Y-124561000D02*
X140344800Y-124561000D01*
X145198800Y-124601000D02*
X140398800Y-124601000D01*
X145143800Y-124641000D02*
X140453800Y-124641000D01*
X145085800Y-124681000D02*
X140511800Y-124681000D01*
X145026800Y-124721000D02*
X140570800Y-124721000D01*
X144964800Y-124761000D02*
X140632800Y-124761000D01*
X144900800Y-124801000D02*
X140696800Y-124801000D01*
X144832800Y-124841000D02*
X140764800Y-124841000D01*
X144762800Y-124881000D02*
X140834800Y-124881000D01*
X144688800Y-124921000D02*
X140908800Y-124921000D01*
X144611800Y-124961000D02*
X140985800Y-124961000D01*
X144529800Y-125001000D02*
X141067800Y-125001000D01*
X144443800Y-125041000D02*
X141153800Y-125041000D01*
X144350800Y-125081000D02*
X141246800Y-125081000D01*
X144251800Y-125121000D02*
X141345800Y-125121000D01*
X144144800Y-125161000D02*
X141452800Y-125161000D01*
X144027800Y-125201000D02*
X141569800Y-125201000D01*
X143896800Y-125241000D02*
X141700800Y-125241000D01*
X143746800Y-125281000D02*
X141850800Y-125281000D01*
X143566800Y-125321000D02*
X142030800Y-125321000D01*
X143331800Y-125361000D02*
X142265800Y-125361000D01*
X145113800Y-116870302D02*
X145113800Y-117670302D01*
X145513800Y-117270302D02*
X144713800Y-117270302D01*
%TO.C,C11*%
X149261500Y-118803748D02*
X149261500Y-119326252D01*
X147791500Y-118803748D02*
X147791500Y-119326252D01*
%TO.C,C12*%
X183055000Y-114730302D02*
X182255000Y-114730302D01*
X182655000Y-114330302D02*
X182655000Y-115130302D01*
X180873000Y-122821000D02*
X179807000Y-122821000D01*
X181108000Y-122781000D02*
X179572000Y-122781000D01*
X181288000Y-122741000D02*
X179392000Y-122741000D01*
X181438000Y-122701000D02*
X179242000Y-122701000D01*
X181569000Y-122661000D02*
X179111000Y-122661000D01*
X181686000Y-122621000D02*
X178994000Y-122621000D01*
X181793000Y-122581000D02*
X178887000Y-122581000D01*
X181892000Y-122541000D02*
X178788000Y-122541000D01*
X181985000Y-122501000D02*
X178695000Y-122501000D01*
X182071000Y-122461000D02*
X178609000Y-122461000D01*
X182153000Y-122421000D02*
X178527000Y-122421000D01*
X182230000Y-122381000D02*
X178450000Y-122381000D01*
X182304000Y-122341000D02*
X178376000Y-122341000D01*
X182374000Y-122301000D02*
X178306000Y-122301000D01*
X182442000Y-122261000D02*
X178238000Y-122261000D01*
X182506000Y-122221000D02*
X178174000Y-122221000D01*
X182568000Y-122181000D02*
X178112000Y-122181000D01*
X182627000Y-122141000D02*
X178053000Y-122141000D01*
X182685000Y-122101000D02*
X177995000Y-122101000D01*
X182740000Y-122061000D02*
X177940000Y-122061000D01*
X182794000Y-122021000D02*
X177886000Y-122021000D01*
X182845000Y-121981000D02*
X177835000Y-121981000D01*
X182896000Y-121941000D02*
X177784000Y-121941000D01*
X182944000Y-121901000D02*
X177736000Y-121901000D01*
X182991000Y-121861000D02*
X177689000Y-121861000D01*
X183037000Y-121821000D02*
X177643000Y-121821000D01*
X183081000Y-121781000D02*
X177599000Y-121781000D01*
X183124000Y-121741000D02*
X177556000Y-121741000D01*
X183166000Y-121701000D02*
X177514000Y-121701000D01*
X179300000Y-121661000D02*
X177473000Y-121661000D01*
X183207000Y-121661000D02*
X181380000Y-121661000D01*
X179300000Y-121621000D02*
X177433000Y-121621000D01*
X183247000Y-121621000D02*
X181380000Y-121621000D01*
X179300000Y-121581000D02*
X177395000Y-121581000D01*
X183285000Y-121581000D02*
X181380000Y-121581000D01*
X179300000Y-121541000D02*
X177357000Y-121541000D01*
X183323000Y-121541000D02*
X181380000Y-121541000D01*
X179300000Y-121501000D02*
X177321000Y-121501000D01*
X183359000Y-121501000D02*
X181380000Y-121501000D01*
X179300000Y-121461000D02*
X177285000Y-121461000D01*
X183395000Y-121461000D02*
X181380000Y-121461000D01*
X179300000Y-121421000D02*
X177250000Y-121421000D01*
X183430000Y-121421000D02*
X181380000Y-121421000D01*
X179300000Y-121381000D02*
X177216000Y-121381000D01*
X183464000Y-121381000D02*
X181380000Y-121381000D01*
X179300000Y-121341000D02*
X177184000Y-121341000D01*
X183496000Y-121341000D02*
X181380000Y-121341000D01*
X179300000Y-121301000D02*
X177151000Y-121301000D01*
X183529000Y-121301000D02*
X181380000Y-121301000D01*
X179300000Y-121261000D02*
X177120000Y-121261000D01*
X183560000Y-121261000D02*
X181380000Y-121261000D01*
X179300000Y-121221000D02*
X177090000Y-121221000D01*
X183590000Y-121221000D02*
X181380000Y-121221000D01*
X179300000Y-121181000D02*
X177060000Y-121181000D01*
X183620000Y-121181000D02*
X181380000Y-121181000D01*
X179300000Y-121141000D02*
X177031000Y-121141000D01*
X183649000Y-121141000D02*
X181380000Y-121141000D01*
X179300000Y-121101000D02*
X177002000Y-121101000D01*
X183678000Y-121101000D02*
X181380000Y-121101000D01*
X179300000Y-121061000D02*
X176975000Y-121061000D01*
X183705000Y-121061000D02*
X181380000Y-121061000D01*
X179300000Y-121021000D02*
X176948000Y-121021000D01*
X183732000Y-121021000D02*
X181380000Y-121021000D01*
X179300000Y-120981000D02*
X176922000Y-120981000D01*
X183758000Y-120981000D02*
X181380000Y-120981000D01*
X179300000Y-120941000D02*
X176896000Y-120941000D01*
X183784000Y-120941000D02*
X181380000Y-120941000D01*
X179300000Y-120901000D02*
X176871000Y-120901000D01*
X183809000Y-120901000D02*
X181380000Y-120901000D01*
X179300000Y-120861000D02*
X176847000Y-120861000D01*
X183833000Y-120861000D02*
X181380000Y-120861000D01*
X179300000Y-120821000D02*
X176823000Y-120821000D01*
X183857000Y-120821000D02*
X181380000Y-120821000D01*
X179300000Y-120781000D02*
X176800000Y-120781000D01*
X183880000Y-120781000D02*
X181380000Y-120781000D01*
X179300000Y-120741000D02*
X176778000Y-120741000D01*
X183902000Y-120741000D02*
X181380000Y-120741000D01*
X179300000Y-120701000D02*
X176756000Y-120701000D01*
X183924000Y-120701000D02*
X181380000Y-120701000D01*
X179300000Y-120661000D02*
X176734000Y-120661000D01*
X183946000Y-120661000D02*
X181380000Y-120661000D01*
X179300000Y-120621000D02*
X176713000Y-120621000D01*
X183967000Y-120621000D02*
X181380000Y-120621000D01*
X179300000Y-120581000D02*
X176693000Y-120581000D01*
X183987000Y-120581000D02*
X181380000Y-120581000D01*
X179300000Y-120541000D02*
X176674000Y-120541000D01*
X184006000Y-120541000D02*
X181380000Y-120541000D01*
X179300000Y-120501000D02*
X176654000Y-120501000D01*
X184026000Y-120501000D02*
X181380000Y-120501000D01*
X179300000Y-120461000D02*
X176636000Y-120461000D01*
X184044000Y-120461000D02*
X181380000Y-120461000D01*
X179300000Y-120421000D02*
X176618000Y-120421000D01*
X184062000Y-120421000D02*
X181380000Y-120421000D01*
X179300000Y-120381000D02*
X176600000Y-120381000D01*
X184080000Y-120381000D02*
X181380000Y-120381000D01*
X179300000Y-120341000D02*
X176583000Y-120341000D01*
X184097000Y-120341000D02*
X181380000Y-120341000D01*
X179300000Y-120301000D02*
X176566000Y-120301000D01*
X184114000Y-120301000D02*
X181380000Y-120301000D01*
X179300000Y-120261000D02*
X176550000Y-120261000D01*
X184130000Y-120261000D02*
X181380000Y-120261000D01*
X179300000Y-120221000D02*
X176535000Y-120221000D01*
X184145000Y-120221000D02*
X181380000Y-120221000D01*
X179300000Y-120181000D02*
X176519000Y-120181000D01*
X184161000Y-120181000D02*
X181380000Y-120181000D01*
X179300000Y-120141000D02*
X176505000Y-120141000D01*
X184175000Y-120141000D02*
X181380000Y-120141000D01*
X179300000Y-120101000D02*
X176490000Y-120101000D01*
X184190000Y-120101000D02*
X181380000Y-120101000D01*
X179300000Y-120061000D02*
X176477000Y-120061000D01*
X184203000Y-120061000D02*
X181380000Y-120061000D01*
X179300000Y-120021000D02*
X176463000Y-120021000D01*
X184217000Y-120021000D02*
X181380000Y-120021000D01*
X179300000Y-119981000D02*
X176451000Y-119981000D01*
X184229000Y-119981000D02*
X181380000Y-119981000D01*
X179300000Y-119941000D02*
X176438000Y-119941000D01*
X184242000Y-119941000D02*
X181380000Y-119941000D01*
X179300000Y-119901000D02*
X176426000Y-119901000D01*
X184254000Y-119901000D02*
X181380000Y-119901000D01*
X179300000Y-119861000D02*
X176415000Y-119861000D01*
X184265000Y-119861000D02*
X181380000Y-119861000D01*
X179300000Y-119821000D02*
X176404000Y-119821000D01*
X184276000Y-119821000D02*
X181380000Y-119821000D01*
X179300000Y-119781000D02*
X176393000Y-119781000D01*
X184287000Y-119781000D02*
X181380000Y-119781000D01*
X179300000Y-119741000D02*
X176383000Y-119741000D01*
X184297000Y-119741000D02*
X181380000Y-119741000D01*
X179300000Y-119701000D02*
X176373000Y-119701000D01*
X184307000Y-119701000D02*
X181380000Y-119701000D01*
X179300000Y-119661000D02*
X176364000Y-119661000D01*
X184316000Y-119661000D02*
X181380000Y-119661000D01*
X179300000Y-119621000D02*
X176355000Y-119621000D01*
X184325000Y-119621000D02*
X181380000Y-119621000D01*
X184334000Y-119581000D02*
X176346000Y-119581000D01*
X184342000Y-119541000D02*
X176338000Y-119541000D01*
X184350000Y-119501000D02*
X176330000Y-119501000D01*
X184357000Y-119461000D02*
X176323000Y-119461000D01*
X184364000Y-119420000D02*
X176316000Y-119420000D01*
X184370000Y-119380000D02*
X176310000Y-119380000D01*
X184377000Y-119340000D02*
X176303000Y-119340000D01*
X184382000Y-119300000D02*
X176298000Y-119300000D01*
X184388000Y-119260000D02*
X176292000Y-119260000D01*
X184392000Y-119220000D02*
X176288000Y-119220000D01*
X184397000Y-119180000D02*
X176283000Y-119180000D01*
X184401000Y-119140000D02*
X176279000Y-119140000D01*
X184405000Y-119100000D02*
X176275000Y-119100000D01*
X184408000Y-119060000D02*
X176272000Y-119060000D01*
X184411000Y-119020000D02*
X176269000Y-119020000D01*
X184414000Y-118980000D02*
X176266000Y-118980000D01*
X184416000Y-118940000D02*
X176264000Y-118940000D01*
X184417000Y-118900000D02*
X176263000Y-118900000D01*
X184419000Y-118860000D02*
X176261000Y-118860000D01*
X184420000Y-118820000D02*
X176260000Y-118820000D01*
X184420000Y-118780000D02*
X176260000Y-118780000D01*
X184420000Y-118740000D02*
X176260000Y-118740000D01*
X184460000Y-118740000D02*
G75*
G03*
X184460000Y-118740000I-4120000J0D01*
G01*
%TO.C,C14*%
X145419752Y-96801000D02*
X144897248Y-96801000D01*
X145419752Y-98271000D02*
X144897248Y-98271000D01*
%TO.C,C15*%
X147537500Y-98102748D02*
X147537500Y-98625252D01*
X149007500Y-98102748D02*
X149007500Y-98625252D01*
%TO.C,C17*%
X177810500Y-104970725D02*
X177310500Y-104970725D01*
X177560500Y-104720725D02*
X177560500Y-105220725D01*
X176369500Y-110126500D02*
X175801500Y-110126500D01*
X176603500Y-110086500D02*
X175567500Y-110086500D01*
X176762500Y-110046500D02*
X175408500Y-110046500D01*
X176890500Y-110006500D02*
X175280500Y-110006500D01*
X177000500Y-109966500D02*
X175170500Y-109966500D01*
X177096500Y-109926500D02*
X175074500Y-109926500D01*
X177183500Y-109886500D02*
X174987500Y-109886500D01*
X177263500Y-109846500D02*
X174907500Y-109846500D01*
X175045500Y-109806500D02*
X174834500Y-109806500D01*
X177336500Y-109806500D02*
X177125500Y-109806500D01*
X175045500Y-109766500D02*
X174766500Y-109766500D01*
X177404500Y-109766500D02*
X177125500Y-109766500D01*
X175045500Y-109726500D02*
X174702500Y-109726500D01*
X177468500Y-109726500D02*
X177125500Y-109726500D01*
X175045500Y-109686500D02*
X174642500Y-109686500D01*
X177528500Y-109686500D02*
X177125500Y-109686500D01*
X175045500Y-109646500D02*
X174585500Y-109646500D01*
X177585500Y-109646500D02*
X177125500Y-109646500D01*
X175045500Y-109606500D02*
X174531500Y-109606500D01*
X177639500Y-109606500D02*
X177125500Y-109606500D01*
X175045500Y-109566500D02*
X174480500Y-109566500D01*
X177690500Y-109566500D02*
X177125500Y-109566500D01*
X175045500Y-109526500D02*
X174432500Y-109526500D01*
X177738500Y-109526500D02*
X177125500Y-109526500D01*
X175045500Y-109486500D02*
X174386500Y-109486500D01*
X177784500Y-109486500D02*
X177125500Y-109486500D01*
X175045500Y-109446500D02*
X174342500Y-109446500D01*
X177828500Y-109446500D02*
X177125500Y-109446500D01*
X175045500Y-109406500D02*
X174300500Y-109406500D01*
X177870500Y-109406500D02*
X177125500Y-109406500D01*
X175045500Y-109366500D02*
X174259500Y-109366500D01*
X177911500Y-109366500D02*
X177125500Y-109366500D01*
X175045500Y-109326500D02*
X174221500Y-109326500D01*
X177949500Y-109326500D02*
X177125500Y-109326500D01*
X175045500Y-109286500D02*
X174184500Y-109286500D01*
X177986500Y-109286500D02*
X177125500Y-109286500D01*
X175045500Y-109246500D02*
X174148500Y-109246500D01*
X178022500Y-109246500D02*
X177125500Y-109246500D01*
X175045500Y-109206500D02*
X174114500Y-109206500D01*
X178056500Y-109206500D02*
X177125500Y-109206500D01*
X175045500Y-109166500D02*
X174081500Y-109166500D01*
X178089500Y-109166500D02*
X177125500Y-109166500D01*
X175045500Y-109126500D02*
X174050500Y-109126500D01*
X178120500Y-109126500D02*
X177125500Y-109126500D01*
X175045500Y-109086500D02*
X174020500Y-109086500D01*
X178150500Y-109086500D02*
X177125500Y-109086500D01*
X175045500Y-109046500D02*
X173990500Y-109046500D01*
X178180500Y-109046500D02*
X177125500Y-109046500D01*
X175045500Y-109006500D02*
X173963500Y-109006500D01*
X178207500Y-109006500D02*
X177125500Y-109006500D01*
X175045500Y-108966500D02*
X173936500Y-108966500D01*
X178234500Y-108966500D02*
X177125500Y-108966500D01*
X175045500Y-108926500D02*
X173910500Y-108926500D01*
X178260500Y-108926500D02*
X177125500Y-108926500D01*
X175045500Y-108886500D02*
X173885500Y-108886500D01*
X178285500Y-108886500D02*
X177125500Y-108886500D01*
X175045500Y-108846500D02*
X173861500Y-108846500D01*
X178309500Y-108846500D02*
X177125500Y-108846500D01*
X175045500Y-108806500D02*
X173838500Y-108806500D01*
X178332500Y-108806500D02*
X177125500Y-108806500D01*
X175045500Y-108766500D02*
X173817500Y-108766500D01*
X178353500Y-108766500D02*
X177125500Y-108766500D01*
X175045500Y-108726500D02*
X173795500Y-108726500D01*
X178375500Y-108726500D02*
X177125500Y-108726500D01*
X175045500Y-108686500D02*
X173775500Y-108686500D01*
X178395500Y-108686500D02*
X177125500Y-108686500D01*
X175045500Y-108646500D02*
X173756500Y-108646500D01*
X178414500Y-108646500D02*
X177125500Y-108646500D01*
X175045500Y-108606500D02*
X173737500Y-108606500D01*
X178433500Y-108606500D02*
X177125500Y-108606500D01*
X175045500Y-108566500D02*
X173720500Y-108566500D01*
X178450500Y-108566500D02*
X177125500Y-108566500D01*
X175045500Y-108526500D02*
X173703500Y-108526500D01*
X178467500Y-108526500D02*
X177125500Y-108526500D01*
X175045500Y-108486500D02*
X173687500Y-108486500D01*
X178483500Y-108486500D02*
X177125500Y-108486500D01*
X175045500Y-108446500D02*
X173671500Y-108446500D01*
X178499500Y-108446500D02*
X177125500Y-108446500D01*
X175045500Y-108406500D02*
X173657500Y-108406500D01*
X178513500Y-108406500D02*
X177125500Y-108406500D01*
X175045500Y-108366500D02*
X173643500Y-108366500D01*
X178527500Y-108366500D02*
X177125500Y-108366500D01*
X175045500Y-108326500D02*
X173630500Y-108326500D01*
X178540500Y-108326500D02*
X177125500Y-108326500D01*
X175045500Y-108286500D02*
X173617500Y-108286500D01*
X178553500Y-108286500D02*
X177125500Y-108286500D01*
X175045500Y-108246500D02*
X173605500Y-108246500D01*
X178565500Y-108246500D02*
X177125500Y-108246500D01*
X175045500Y-108205500D02*
X173594500Y-108205500D01*
X178576500Y-108205500D02*
X177125500Y-108205500D01*
X175045500Y-108165500D02*
X173584500Y-108165500D01*
X178586500Y-108165500D02*
X177125500Y-108165500D01*
X175045500Y-108125500D02*
X173574500Y-108125500D01*
X178596500Y-108125500D02*
X177125500Y-108125500D01*
X175045500Y-108085500D02*
X173565500Y-108085500D01*
X178605500Y-108085500D02*
X177125500Y-108085500D01*
X175045500Y-108045500D02*
X173557500Y-108045500D01*
X178613500Y-108045500D02*
X177125500Y-108045500D01*
X175045500Y-108005500D02*
X173549500Y-108005500D01*
X178621500Y-108005500D02*
X177125500Y-108005500D01*
X175045500Y-107965500D02*
X173542500Y-107965500D01*
X178628500Y-107965500D02*
X177125500Y-107965500D01*
X175045500Y-107925500D02*
X173535500Y-107925500D01*
X178635500Y-107925500D02*
X177125500Y-107925500D01*
X175045500Y-107885500D02*
X173529500Y-107885500D01*
X178641500Y-107885500D02*
X177125500Y-107885500D01*
X175045500Y-107845500D02*
X173524500Y-107845500D01*
X178646500Y-107845500D02*
X177125500Y-107845500D01*
X175045500Y-107805500D02*
X173520500Y-107805500D01*
X178650500Y-107805500D02*
X177125500Y-107805500D01*
X175045500Y-107765500D02*
X173516500Y-107765500D01*
X178654500Y-107765500D02*
X177125500Y-107765500D01*
X178658500Y-107725500D02*
X173512500Y-107725500D01*
X178661500Y-107685500D02*
X173509500Y-107685500D01*
X178663500Y-107645500D02*
X173507500Y-107645500D01*
X178664500Y-107605500D02*
X173506500Y-107605500D01*
X178665500Y-107565500D02*
X173505500Y-107565500D01*
X178665500Y-107525500D02*
X173505500Y-107525500D01*
X178705500Y-107525500D02*
G75*
G03*
X178705500Y-107525500I-2620000J0D01*
G01*
%TO.C,C18*%
X178578500Y-101199000D02*
G75*
G03*
X178578500Y-101199000I-2620000J0D01*
G01*
X178538500Y-101199000D02*
X173378500Y-101199000D01*
X178538500Y-101239000D02*
X173378500Y-101239000D01*
X178537500Y-101279000D02*
X173379500Y-101279000D01*
X178536500Y-101319000D02*
X173380500Y-101319000D01*
X178534500Y-101359000D02*
X173382500Y-101359000D01*
X178531500Y-101399000D02*
X173385500Y-101399000D01*
X178527500Y-101439000D02*
X176998500Y-101439000D01*
X174918500Y-101439000D02*
X173389500Y-101439000D01*
X178523500Y-101479000D02*
X176998500Y-101479000D01*
X174918500Y-101479000D02*
X173393500Y-101479000D01*
X178519500Y-101519000D02*
X176998500Y-101519000D01*
X174918500Y-101519000D02*
X173397500Y-101519000D01*
X178514500Y-101559000D02*
X176998500Y-101559000D01*
X174918500Y-101559000D02*
X173402500Y-101559000D01*
X178508500Y-101599000D02*
X176998500Y-101599000D01*
X174918500Y-101599000D02*
X173408500Y-101599000D01*
X178501500Y-101639000D02*
X176998500Y-101639000D01*
X174918500Y-101639000D02*
X173415500Y-101639000D01*
X178494500Y-101679000D02*
X176998500Y-101679000D01*
X174918500Y-101679000D02*
X173422500Y-101679000D01*
X178486500Y-101719000D02*
X176998500Y-101719000D01*
X174918500Y-101719000D02*
X173430500Y-101719000D01*
X178478500Y-101759000D02*
X176998500Y-101759000D01*
X174918500Y-101759000D02*
X173438500Y-101759000D01*
X178469500Y-101799000D02*
X176998500Y-101799000D01*
X174918500Y-101799000D02*
X173447500Y-101799000D01*
X178459500Y-101839000D02*
X176998500Y-101839000D01*
X174918500Y-101839000D02*
X173457500Y-101839000D01*
X178449500Y-101879000D02*
X176998500Y-101879000D01*
X174918500Y-101879000D02*
X173467500Y-101879000D01*
X178438500Y-101920000D02*
X176998500Y-101920000D01*
X174918500Y-101920000D02*
X173478500Y-101920000D01*
X178426500Y-101960000D02*
X176998500Y-101960000D01*
X174918500Y-101960000D02*
X173490500Y-101960000D01*
X178413500Y-102000000D02*
X176998500Y-102000000D01*
X174918500Y-102000000D02*
X173503500Y-102000000D01*
X178400500Y-102040000D02*
X176998500Y-102040000D01*
X174918500Y-102040000D02*
X173516500Y-102040000D01*
X178386500Y-102080000D02*
X176998500Y-102080000D01*
X174918500Y-102080000D02*
X173530500Y-102080000D01*
X178372500Y-102120000D02*
X176998500Y-102120000D01*
X174918500Y-102120000D02*
X173544500Y-102120000D01*
X178356500Y-102160000D02*
X176998500Y-102160000D01*
X174918500Y-102160000D02*
X173560500Y-102160000D01*
X178340500Y-102200000D02*
X176998500Y-102200000D01*
X174918500Y-102200000D02*
X173576500Y-102200000D01*
X178323500Y-102240000D02*
X176998500Y-102240000D01*
X174918500Y-102240000D02*
X173593500Y-102240000D01*
X178306500Y-102280000D02*
X176998500Y-102280000D01*
X174918500Y-102280000D02*
X173610500Y-102280000D01*
X178287500Y-102320000D02*
X176998500Y-102320000D01*
X174918500Y-102320000D02*
X173629500Y-102320000D01*
X178268500Y-102360000D02*
X176998500Y-102360000D01*
X174918500Y-102360000D02*
X173648500Y-102360000D01*
X178248500Y-102400000D02*
X176998500Y-102400000D01*
X174918500Y-102400000D02*
X173668500Y-102400000D01*
X178226500Y-102440000D02*
X176998500Y-102440000D01*
X174918500Y-102440000D02*
X173690500Y-102440000D01*
X178205500Y-102480000D02*
X176998500Y-102480000D01*
X174918500Y-102480000D02*
X173711500Y-102480000D01*
X178182500Y-102520000D02*
X176998500Y-102520000D01*
X174918500Y-102520000D02*
X173734500Y-102520000D01*
X178158500Y-102560000D02*
X176998500Y-102560000D01*
X174918500Y-102560000D02*
X173758500Y-102560000D01*
X178133500Y-102600000D02*
X176998500Y-102600000D01*
X174918500Y-102600000D02*
X173783500Y-102600000D01*
X178107500Y-102640000D02*
X176998500Y-102640000D01*
X174918500Y-102640000D02*
X173809500Y-102640000D01*
X178080500Y-102680000D02*
X176998500Y-102680000D01*
X174918500Y-102680000D02*
X173836500Y-102680000D01*
X178053500Y-102720000D02*
X176998500Y-102720000D01*
X174918500Y-102720000D02*
X173863500Y-102720000D01*
X178023500Y-102760000D02*
X176998500Y-102760000D01*
X174918500Y-102760000D02*
X173893500Y-102760000D01*
X177993500Y-102800000D02*
X176998500Y-102800000D01*
X174918500Y-102800000D02*
X173923500Y-102800000D01*
X177962500Y-102840000D02*
X176998500Y-102840000D01*
X174918500Y-102840000D02*
X173954500Y-102840000D01*
X177929500Y-102880000D02*
X176998500Y-102880000D01*
X174918500Y-102880000D02*
X173987500Y-102880000D01*
X177895500Y-102920000D02*
X176998500Y-102920000D01*
X174918500Y-102920000D02*
X174021500Y-102920000D01*
X177859500Y-102960000D02*
X176998500Y-102960000D01*
X174918500Y-102960000D02*
X174057500Y-102960000D01*
X177822500Y-103000000D02*
X176998500Y-103000000D01*
X174918500Y-103000000D02*
X174094500Y-103000000D01*
X177784500Y-103040000D02*
X176998500Y-103040000D01*
X174918500Y-103040000D02*
X174132500Y-103040000D01*
X177743500Y-103080000D02*
X176998500Y-103080000D01*
X174918500Y-103080000D02*
X174173500Y-103080000D01*
X177701500Y-103120000D02*
X176998500Y-103120000D01*
X174918500Y-103120000D02*
X174215500Y-103120000D01*
X177657500Y-103160000D02*
X176998500Y-103160000D01*
X174918500Y-103160000D02*
X174259500Y-103160000D01*
X177611500Y-103200000D02*
X176998500Y-103200000D01*
X174918500Y-103200000D02*
X174305500Y-103200000D01*
X177563500Y-103240000D02*
X176998500Y-103240000D01*
X174918500Y-103240000D02*
X174353500Y-103240000D01*
X177512500Y-103280000D02*
X176998500Y-103280000D01*
X174918500Y-103280000D02*
X174404500Y-103280000D01*
X177458500Y-103320000D02*
X176998500Y-103320000D01*
X174918500Y-103320000D02*
X174458500Y-103320000D01*
X177401500Y-103360000D02*
X176998500Y-103360000D01*
X174918500Y-103360000D02*
X174515500Y-103360000D01*
X177341500Y-103400000D02*
X176998500Y-103400000D01*
X174918500Y-103400000D02*
X174575500Y-103400000D01*
X177277500Y-103440000D02*
X176998500Y-103440000D01*
X174918500Y-103440000D02*
X174639500Y-103440000D01*
X177209500Y-103480000D02*
X176998500Y-103480000D01*
X174918500Y-103480000D02*
X174707500Y-103480000D01*
X177136500Y-103520000D02*
X174780500Y-103520000D01*
X177056500Y-103560000D02*
X174860500Y-103560000D01*
X176969500Y-103600000D02*
X174947500Y-103600000D01*
X176873500Y-103640000D02*
X175043500Y-103640000D01*
X176763500Y-103680000D02*
X175153500Y-103680000D01*
X176635500Y-103720000D02*
X175281500Y-103720000D01*
X176476500Y-103760000D02*
X175440500Y-103760000D01*
X176242500Y-103800000D02*
X175674500Y-103800000D01*
X177433500Y-98394225D02*
X177433500Y-98894225D01*
X177683500Y-98644225D02*
X177183500Y-98644225D01*
D13*
%TO.C,D1*%
X148229200Y-124053600D02*
G75*
G03*
X148229200Y-124053600I-100000J0D01*
G01*
D14*
X153839200Y-125353600D02*
X149589200Y-125353600D01*
X149589200Y-122753600D02*
X153839200Y-122753600D01*
X153839200Y-125353600D02*
X153839200Y-125113600D01*
X153839200Y-122753600D02*
X153839200Y-122993600D01*
X149589200Y-125353600D02*
X149589200Y-125113600D01*
X149589200Y-122993600D02*
X149589200Y-122753600D01*
D12*
%TO.C,D2*%
X179712500Y-80122500D02*
X179712500Y-77437500D01*
X177792500Y-80122500D02*
X179712500Y-80122500D01*
X177792500Y-77437500D02*
X177792500Y-80122500D01*
D13*
%TO.C,IC1*%
X150253500Y-95477500D02*
X147053500Y-95477500D01*
X147053500Y-95477500D02*
X147053500Y-90577500D01*
X147053500Y-90577500D02*
X150253500Y-90577500D01*
X150253500Y-90577500D02*
X150253500Y-95477500D01*
X152128500Y-95607500D02*
X150603500Y-95607500D01*
D12*
%TO.C,J1*%
X173295000Y-71056500D02*
X173295000Y-69726500D01*
X173295000Y-69726500D02*
X174625000Y-69726500D01*
X175895000Y-69726500D02*
X181035000Y-69726500D01*
X181035000Y-72386500D02*
X181035000Y-69726500D01*
X175895000Y-72386500D02*
X181035000Y-72386500D01*
X175895000Y-72386500D02*
X175895000Y-69726500D01*
%TO.C,J2*%
X137778000Y-123840000D02*
X137778000Y-116370000D01*
X137778000Y-116370000D02*
X117238000Y-116370000D01*
X117238000Y-116370000D02*
X117238000Y-123840000D01*
X117238000Y-123840000D02*
X137778000Y-123840000D01*
X135878000Y-117230000D02*
X136628000Y-117230000D01*
X136628000Y-117230000D02*
X136628000Y-121530000D01*
X136628000Y-121530000D02*
X135878000Y-121530000D01*
X135878000Y-121530000D02*
X135878000Y-121880000D01*
X135878000Y-121880000D02*
X136378000Y-121880000D01*
X136378000Y-121880000D02*
X136628000Y-122880000D01*
X136628000Y-122880000D02*
X133628000Y-122880000D01*
X133628000Y-122880000D02*
X133878000Y-121880000D01*
X133878000Y-121880000D02*
X134378000Y-121880000D01*
X134378000Y-121880000D02*
X134378000Y-121530000D01*
X134378000Y-121530000D02*
X133628000Y-121530000D01*
X133628000Y-121530000D02*
X133628000Y-117230000D01*
X133628000Y-117230000D02*
X134378000Y-117230000D01*
X130798000Y-117230000D02*
X131548000Y-117230000D01*
X131548000Y-117230000D02*
X131548000Y-121530000D01*
X131548000Y-121530000D02*
X130798000Y-121530000D01*
X130798000Y-121530000D02*
X130798000Y-121880000D01*
X130798000Y-121880000D02*
X131298000Y-121880000D01*
X131298000Y-121880000D02*
X131548000Y-122880000D01*
X131548000Y-122880000D02*
X128548000Y-122880000D01*
X128548000Y-122880000D02*
X128798000Y-121880000D01*
X128798000Y-121880000D02*
X129298000Y-121880000D01*
X129298000Y-121880000D02*
X129298000Y-121530000D01*
X129298000Y-121530000D02*
X128548000Y-121530000D01*
X128548000Y-121530000D02*
X128548000Y-117230000D01*
X128548000Y-117230000D02*
X129298000Y-117230000D01*
X125718000Y-117230000D02*
X126468000Y-117230000D01*
X126468000Y-117230000D02*
X126468000Y-121530000D01*
X126468000Y-121530000D02*
X125718000Y-121530000D01*
X125718000Y-121530000D02*
X125718000Y-121880000D01*
X125718000Y-121880000D02*
X126218000Y-121880000D01*
X126218000Y-121880000D02*
X126468000Y-122880000D01*
X126468000Y-122880000D02*
X123468000Y-122880000D01*
X123468000Y-122880000D02*
X123718000Y-121880000D01*
X123718000Y-121880000D02*
X124218000Y-121880000D01*
X124218000Y-121880000D02*
X124218000Y-121530000D01*
X124218000Y-121530000D02*
X123468000Y-121530000D01*
X123468000Y-121530000D02*
X123468000Y-117230000D01*
X123468000Y-117230000D02*
X124218000Y-117230000D01*
X120638000Y-117230000D02*
X121388000Y-117230000D01*
X121388000Y-117230000D02*
X121388000Y-121530000D01*
X121388000Y-121530000D02*
X120638000Y-121530000D01*
X120638000Y-121530000D02*
X120638000Y-121880000D01*
X120638000Y-121880000D02*
X121138000Y-121880000D01*
X121138000Y-121880000D02*
X121388000Y-122880000D01*
X121388000Y-122880000D02*
X118388000Y-122880000D01*
X118388000Y-122880000D02*
X118638000Y-121880000D01*
X118638000Y-121880000D02*
X119138000Y-121880000D01*
X119138000Y-121880000D02*
X119138000Y-121530000D01*
X119138000Y-121530000D02*
X118388000Y-121530000D01*
X118388000Y-121530000D02*
X118388000Y-117230000D01*
X118388000Y-117230000D02*
X119138000Y-117230000D01*
X138168000Y-122980000D02*
X138168000Y-124230000D01*
X138168000Y-124230000D02*
X136168000Y-124230000D01*
X119138353Y-117230155D02*
G75*
G03*
X120638000Y-117230000I749647J1700155D01*
G01*
X124218353Y-117230155D02*
G75*
G03*
X125718000Y-117230000I749647J1700155D01*
G01*
X129298353Y-117230155D02*
G75*
G03*
X130798000Y-117230000I749647J1700155D01*
G01*
X134378353Y-117230155D02*
G75*
G03*
X135878000Y-117230000I749647J1700155D01*
G01*
%TO.C,J3*%
X138168000Y-79526000D02*
X136168000Y-79526000D01*
X138168000Y-78276000D02*
X138168000Y-79526000D01*
X118388000Y-72526000D02*
X119138000Y-72526000D01*
X118388000Y-76826000D02*
X118388000Y-72526000D01*
X119138000Y-76826000D02*
X118388000Y-76826000D01*
X119138000Y-77176000D02*
X119138000Y-76826000D01*
X118638000Y-77176000D02*
X119138000Y-77176000D01*
X118388000Y-78176000D02*
X118638000Y-77176000D01*
X121388000Y-78176000D02*
X118388000Y-78176000D01*
X121138000Y-77176000D02*
X121388000Y-78176000D01*
X120638000Y-77176000D02*
X121138000Y-77176000D01*
X120638000Y-76826000D02*
X120638000Y-77176000D01*
X121388000Y-76826000D02*
X120638000Y-76826000D01*
X121388000Y-72526000D02*
X121388000Y-76826000D01*
X120638000Y-72526000D02*
X121388000Y-72526000D01*
X123468000Y-72526000D02*
X124218000Y-72526000D01*
X123468000Y-76826000D02*
X123468000Y-72526000D01*
X124218000Y-76826000D02*
X123468000Y-76826000D01*
X124218000Y-77176000D02*
X124218000Y-76826000D01*
X123718000Y-77176000D02*
X124218000Y-77176000D01*
X123468000Y-78176000D02*
X123718000Y-77176000D01*
X126468000Y-78176000D02*
X123468000Y-78176000D01*
X126218000Y-77176000D02*
X126468000Y-78176000D01*
X125718000Y-77176000D02*
X126218000Y-77176000D01*
X125718000Y-76826000D02*
X125718000Y-77176000D01*
X126468000Y-76826000D02*
X125718000Y-76826000D01*
X126468000Y-72526000D02*
X126468000Y-76826000D01*
X125718000Y-72526000D02*
X126468000Y-72526000D01*
X128548000Y-72526000D02*
X129298000Y-72526000D01*
X128548000Y-76826000D02*
X128548000Y-72526000D01*
X129298000Y-76826000D02*
X128548000Y-76826000D01*
X129298000Y-77176000D02*
X129298000Y-76826000D01*
X128798000Y-77176000D02*
X129298000Y-77176000D01*
X128548000Y-78176000D02*
X128798000Y-77176000D01*
X131548000Y-78176000D02*
X128548000Y-78176000D01*
X131298000Y-77176000D02*
X131548000Y-78176000D01*
X130798000Y-77176000D02*
X131298000Y-77176000D01*
X130798000Y-76826000D02*
X130798000Y-77176000D01*
X131548000Y-76826000D02*
X130798000Y-76826000D01*
X131548000Y-72526000D02*
X131548000Y-76826000D01*
X130798000Y-72526000D02*
X131548000Y-72526000D01*
X133628000Y-72526000D02*
X134378000Y-72526000D01*
X133628000Y-76826000D02*
X133628000Y-72526000D01*
X134378000Y-76826000D02*
X133628000Y-76826000D01*
X134378000Y-77176000D02*
X134378000Y-76826000D01*
X133878000Y-77176000D02*
X134378000Y-77176000D01*
X133628000Y-78176000D02*
X133878000Y-77176000D01*
X136628000Y-78176000D02*
X133628000Y-78176000D01*
X136378000Y-77176000D02*
X136628000Y-78176000D01*
X135878000Y-77176000D02*
X136378000Y-77176000D01*
X135878000Y-76826000D02*
X135878000Y-77176000D01*
X136628000Y-76826000D02*
X135878000Y-76826000D01*
X136628000Y-72526000D02*
X136628000Y-76826000D01*
X135878000Y-72526000D02*
X136628000Y-72526000D01*
X117238000Y-79136000D02*
X137778000Y-79136000D01*
X117238000Y-71666000D02*
X117238000Y-79136000D01*
X137778000Y-71666000D02*
X117238000Y-71666000D01*
X137778000Y-79136000D02*
X137778000Y-71666000D01*
X134378353Y-72526155D02*
G75*
G03*
X135878000Y-72526000I749647J1700155D01*
G01*
X129298353Y-72526155D02*
G75*
G03*
X130798000Y-72526000I749647J1700155D01*
G01*
X124218353Y-72526155D02*
G75*
G03*
X125718000Y-72526000I749647J1700155D01*
G01*
X119138353Y-72526155D02*
G75*
G03*
X120638000Y-72526000I749647J1700155D01*
G01*
%TO.C,J5*%
X179554000Y-105148000D02*
X179554000Y-103148000D01*
X180804000Y-105148000D02*
X179554000Y-105148000D01*
X186554000Y-85368000D02*
X186554000Y-86118000D01*
X182254000Y-85368000D02*
X186554000Y-85368000D01*
X182254000Y-86118000D02*
X182254000Y-85368000D01*
X181904000Y-86118000D02*
X182254000Y-86118000D01*
X181904000Y-85618000D02*
X181904000Y-86118000D01*
X180904000Y-85368000D02*
X181904000Y-85618000D01*
X180904000Y-88368000D02*
X180904000Y-85368000D01*
X181904000Y-88118000D02*
X180904000Y-88368000D01*
X181904000Y-87618000D02*
X181904000Y-88118000D01*
X182254000Y-87618000D02*
X181904000Y-87618000D01*
X182254000Y-88368000D02*
X182254000Y-87618000D01*
X186554000Y-88368000D02*
X182254000Y-88368000D01*
X186554000Y-87618000D02*
X186554000Y-88368000D01*
X186554000Y-90448000D02*
X186554000Y-91198000D01*
X182254000Y-90448000D02*
X186554000Y-90448000D01*
X182254000Y-91198000D02*
X182254000Y-90448000D01*
X181904000Y-91198000D02*
X182254000Y-91198000D01*
X181904000Y-90698000D02*
X181904000Y-91198000D01*
X180904000Y-90448000D02*
X181904000Y-90698000D01*
X180904000Y-93448000D02*
X180904000Y-90448000D01*
X181904000Y-93198000D02*
X180904000Y-93448000D01*
X181904000Y-92698000D02*
X181904000Y-93198000D01*
X182254000Y-92698000D02*
X181904000Y-92698000D01*
X182254000Y-93448000D02*
X182254000Y-92698000D01*
X186554000Y-93448000D02*
X182254000Y-93448000D01*
X186554000Y-92698000D02*
X186554000Y-93448000D01*
X186554000Y-95528000D02*
X186554000Y-96278000D01*
X182254000Y-95528000D02*
X186554000Y-95528000D01*
X182254000Y-96278000D02*
X182254000Y-95528000D01*
X181904000Y-96278000D02*
X182254000Y-96278000D01*
X181904000Y-95778000D02*
X181904000Y-96278000D01*
X180904000Y-95528000D02*
X181904000Y-95778000D01*
X180904000Y-98528000D02*
X180904000Y-95528000D01*
X181904000Y-98278000D02*
X180904000Y-98528000D01*
X181904000Y-97778000D02*
X181904000Y-98278000D01*
X182254000Y-97778000D02*
X181904000Y-97778000D01*
X182254000Y-98528000D02*
X182254000Y-97778000D01*
X186554000Y-98528000D02*
X182254000Y-98528000D01*
X186554000Y-97778000D02*
X186554000Y-98528000D01*
X186554000Y-100608000D02*
X186554000Y-101358000D01*
X182254000Y-100608000D02*
X186554000Y-100608000D01*
X182254000Y-101358000D02*
X182254000Y-100608000D01*
X181904000Y-101358000D02*
X182254000Y-101358000D01*
X181904000Y-100858000D02*
X181904000Y-101358000D01*
X180904000Y-100608000D02*
X181904000Y-100858000D01*
X180904000Y-103608000D02*
X180904000Y-100608000D01*
X181904000Y-103358000D02*
X180904000Y-103608000D01*
X181904000Y-102858000D02*
X181904000Y-103358000D01*
X182254000Y-102858000D02*
X181904000Y-102858000D01*
X182254000Y-103608000D02*
X182254000Y-102858000D01*
X186554000Y-103608000D02*
X182254000Y-103608000D01*
X186554000Y-102858000D02*
X186554000Y-103608000D01*
X179944000Y-84218000D02*
X179944000Y-104758000D01*
X187414000Y-84218000D02*
X179944000Y-84218000D01*
X187414000Y-104758000D02*
X187414000Y-84218000D01*
X179944000Y-104758000D02*
X187414000Y-104758000D01*
X186553845Y-101358353D02*
G75*
G03*
X186554000Y-102858000I1700155J-749647D01*
G01*
X186553845Y-96278353D02*
G75*
G03*
X186554000Y-97778000I1700155J-749647D01*
G01*
X186553845Y-91198353D02*
G75*
G03*
X186554000Y-92698000I1700155J-749647D01*
G01*
X186553845Y-86118353D02*
G75*
G03*
X186554000Y-87618000I1700155J-749647D01*
G01*
%TO.C,L1*%
X175210000Y-113905500D02*
X175210000Y-116905500D01*
X162610000Y-113905500D02*
X175210000Y-113905500D01*
X162610000Y-116905500D02*
X162610000Y-113905500D01*
X162610000Y-126505500D02*
X162610000Y-123505500D01*
X175210000Y-126505500D02*
X162610000Y-126505500D01*
X175210000Y-123505500D02*
X175210000Y-126505500D01*
%TO.C,R1*%
X178081000Y-82332564D02*
X178081000Y-81878436D01*
X179551000Y-82332564D02*
X179551000Y-81878436D01*
%TO.C,R2*%
X168756064Y-110971000D02*
X168301936Y-110971000D01*
X168756064Y-109501000D02*
X168301936Y-109501000D01*
%TO.C,R3*%
X155294000Y-89982936D02*
X155294000Y-90437064D01*
X153824000Y-89982936D02*
X153824000Y-90437064D01*
%TO.C,R4*%
X150491564Y-88355500D02*
X150037436Y-88355500D01*
X150491564Y-89825500D02*
X150037436Y-89825500D01*
%TO.C,R5*%
X155294000Y-96072064D02*
X155294000Y-95617936D01*
X153824000Y-96072064D02*
X153824000Y-95617936D01*
%TO.C,R6*%
X142594000Y-88776436D02*
X142594000Y-89230564D01*
X141124000Y-88776436D02*
X141124000Y-89230564D01*
%TO.C,R7*%
X185139000Y-106984436D02*
X185139000Y-107438564D01*
X183669000Y-106984436D02*
X183669000Y-107438564D01*
%TO.C,R8*%
X164682500Y-111215436D02*
X164682500Y-111669564D01*
X166152500Y-111215436D02*
X166152500Y-111669564D01*
%TO.C,R9*%
X142594000Y-93341564D02*
X142594000Y-92887436D01*
X141124000Y-93341564D02*
X141124000Y-92887436D01*
%TO.C,R10*%
X141124000Y-96713936D02*
X141124000Y-97168064D01*
X142594000Y-96713936D02*
X142594000Y-97168064D01*
%TO.C,R11*%
X175210800Y-93727536D02*
X175210800Y-94181664D01*
X176680800Y-93727536D02*
X176680800Y-94181664D01*
%TO.C,R12*%
X179487500Y-75093564D02*
X179487500Y-74639436D01*
X178017500Y-75093564D02*
X178017500Y-74639436D01*
%TO.C,R13*%
X175580936Y-73306000D02*
X176035064Y-73306000D01*
X175580936Y-74776000D02*
X176035064Y-74776000D01*
%TO.C,SW1*%
X182202500Y-74592500D02*
X184882500Y-74592500D01*
X184882500Y-80832500D02*
X182202500Y-80832500D01*
X180422500Y-80682500D02*
X180422500Y-74742500D01*
X186662500Y-80682500D02*
X186662500Y-74742500D01*
X184956714Y-77712500D02*
G75*
G03*
X184956714Y-77712500I-1414214J0D01*
G01*
%TO.C,U2*%
X159747000Y-115285000D02*
X159747000Y-116385000D01*
X160697000Y-115285000D02*
X159747000Y-115285000D01*
X160697000Y-113785000D02*
X160697000Y-115285000D01*
X151247000Y-115285000D02*
X151247000Y-120410000D01*
X150297000Y-115285000D02*
X151247000Y-115285000D01*
X150297000Y-113785000D02*
X150297000Y-115285000D01*
%TO.C,U3*%
X165549500Y-107185500D02*
X165549500Y-101175500D01*
X172369500Y-104935500D02*
X172369500Y-101175500D01*
X165549500Y-101175500D02*
X166809500Y-101175500D01*
X172369500Y-101175500D02*
X171109500Y-101175500D01*
%TO.C,Y1*%
X147843000Y-76710000D02*
X147843000Y-83110000D01*
X152893000Y-76710000D02*
X152893000Y-83110000D01*
X147843000Y-76710000D02*
G75*
G02*
X152893000Y-76710000I2525000J0D01*
G01*
X147843000Y-83110000D02*
G75*
G03*
X152893000Y-83110000I2525000J0D01*
G01*
%TO.C,J4*%
X159452000Y-71056500D02*
X159452000Y-69726500D01*
X159452000Y-69726500D02*
X160782000Y-69726500D01*
X162052000Y-69726500D02*
X172272000Y-69726500D01*
X172272000Y-72386500D02*
X172272000Y-69726500D01*
X162052000Y-72386500D02*
X172272000Y-72386500D01*
X162052000Y-72386500D02*
X162052000Y-69726500D01*
%TO.C,R14*%
X168937000Y-87499564D02*
X168937000Y-87045436D01*
X170407000Y-87499564D02*
X170407000Y-87045436D01*
%TO.C,R15*%
X172439000Y-87499564D02*
X172439000Y-87045436D01*
X170969000Y-87499564D02*
X170969000Y-87045436D01*
%TO.C,R16*%
X173001000Y-87603064D02*
X173001000Y-87148936D01*
X174471000Y-87603064D02*
X174471000Y-87148936D01*
%TO.C,R17*%
X172135436Y-91413000D02*
X172589564Y-91413000D01*
X172135436Y-89943000D02*
X172589564Y-89943000D01*
%TO.C,J6*%
X145348000Y-84642000D02*
X142748000Y-84642000D01*
X145348000Y-84642000D02*
X145348000Y-74362000D01*
X145348000Y-74362000D02*
X140148000Y-74362000D01*
X140148000Y-82042000D02*
X140148000Y-74362000D01*
X142748000Y-82042000D02*
X140148000Y-82042000D01*
X142748000Y-84642000D02*
X142748000Y-82042000D01*
X140148000Y-84642000D02*
X140148000Y-83312000D01*
X141478000Y-84642000D02*
X140148000Y-84642000D01*
%TO.C,J7*%
X170240000Y-92710000D02*
X170240000Y-94040000D01*
X170240000Y-94040000D02*
X168910000Y-94040000D01*
X167640000Y-94040000D02*
X162500000Y-94040000D01*
X162500000Y-91380000D02*
X162500000Y-94040000D01*
X167640000Y-91380000D02*
X162500000Y-91380000D01*
X167640000Y-91380000D02*
X167640000Y-94040000D01*
%TO.C,U1*%
D11*
X166116095Y-73112380D02*
X166116095Y-73921904D01*
X166163714Y-74017142D01*
X166211333Y-74064761D01*
X166306571Y-74112380D01*
X166497047Y-74112380D01*
X166592285Y-74064761D01*
X166639904Y-74017142D01*
X166687523Y-73921904D01*
X166687523Y-73112380D01*
X167687523Y-74112380D02*
X167116095Y-74112380D01*
X167401809Y-74112380D02*
X167401809Y-73112380D01*
X167306571Y-73255238D01*
X167211333Y-73350476D01*
X167116095Y-73398095D01*
%TO.C,C1*%
X156850142Y-78017666D02*
X156897761Y-78065285D01*
X156945380Y-78208142D01*
X156945380Y-78303380D01*
X156897761Y-78446238D01*
X156802523Y-78541476D01*
X156707285Y-78589095D01*
X156516809Y-78636714D01*
X156373952Y-78636714D01*
X156183476Y-78589095D01*
X156088238Y-78541476D01*
X155993000Y-78446238D01*
X155945380Y-78303380D01*
X155945380Y-78208142D01*
X155993000Y-78065285D01*
X156040619Y-78017666D01*
X156945380Y-77065285D02*
X156945380Y-77636714D01*
X156945380Y-77351000D02*
X155945380Y-77351000D01*
X156088238Y-77446238D01*
X156183476Y-77541476D01*
X156231095Y-77636714D01*
%TO.C,C2*%
X156821142Y-81446666D02*
X156868761Y-81494285D01*
X156916380Y-81637142D01*
X156916380Y-81732380D01*
X156868761Y-81875238D01*
X156773523Y-81970476D01*
X156678285Y-82018095D01*
X156487809Y-82065714D01*
X156344952Y-82065714D01*
X156154476Y-82018095D01*
X156059238Y-81970476D01*
X155964000Y-81875238D01*
X155916380Y-81732380D01*
X155916380Y-81637142D01*
X155964000Y-81494285D01*
X156011619Y-81446666D01*
X156011619Y-81065714D02*
X155964000Y-81018095D01*
X155916380Y-80922857D01*
X155916380Y-80684761D01*
X155964000Y-80589523D01*
X156011619Y-80541904D01*
X156106857Y-80494285D01*
X156202095Y-80494285D01*
X156344952Y-80541904D01*
X156916380Y-81113333D01*
X156916380Y-80494285D01*
%TO.C,C3*%
X156929833Y-75795142D02*
X156882214Y-75842761D01*
X156739357Y-75890380D01*
X156644119Y-75890380D01*
X156501261Y-75842761D01*
X156406023Y-75747523D01*
X156358404Y-75652285D01*
X156310785Y-75461809D01*
X156310785Y-75318952D01*
X156358404Y-75128476D01*
X156406023Y-75033238D01*
X156501261Y-74938000D01*
X156644119Y-74890380D01*
X156739357Y-74890380D01*
X156882214Y-74938000D01*
X156929833Y-74985619D01*
X157263166Y-74890380D02*
X157882214Y-74890380D01*
X157548880Y-75271333D01*
X157691738Y-75271333D01*
X157786976Y-75318952D01*
X157834595Y-75366571D01*
X157882214Y-75461809D01*
X157882214Y-75699904D01*
X157834595Y-75795142D01*
X157786976Y-75842761D01*
X157691738Y-75890380D01*
X157406023Y-75890380D01*
X157310785Y-75842761D01*
X157263166Y-75795142D01*
%TO.C,C4*%
X159091333Y-76049142D02*
X159043714Y-76096761D01*
X158900857Y-76144380D01*
X158805619Y-76144380D01*
X158662761Y-76096761D01*
X158567523Y-76001523D01*
X158519904Y-75906285D01*
X158472285Y-75715809D01*
X158472285Y-75572952D01*
X158519904Y-75382476D01*
X158567523Y-75287238D01*
X158662761Y-75192000D01*
X158805619Y-75144380D01*
X158900857Y-75144380D01*
X159043714Y-75192000D01*
X159091333Y-75239619D01*
X159948476Y-75477714D02*
X159948476Y-76144380D01*
X159710380Y-75096761D02*
X159472285Y-75811047D01*
X160091333Y-75811047D01*
%TO.C,C5*%
X166708833Y-89286142D02*
X166661214Y-89333761D01*
X166518357Y-89381380D01*
X166423119Y-89381380D01*
X166280261Y-89333761D01*
X166185023Y-89238523D01*
X166137404Y-89143285D01*
X166089785Y-88952809D01*
X166089785Y-88809952D01*
X166137404Y-88619476D01*
X166185023Y-88524238D01*
X166280261Y-88429000D01*
X166423119Y-88381380D01*
X166518357Y-88381380D01*
X166661214Y-88429000D01*
X166708833Y-88476619D01*
X167613595Y-88381380D02*
X167137404Y-88381380D01*
X167089785Y-88857571D01*
X167137404Y-88809952D01*
X167232642Y-88762333D01*
X167470738Y-88762333D01*
X167565976Y-88809952D01*
X167613595Y-88857571D01*
X167661214Y-88952809D01*
X167661214Y-89190904D01*
X167613595Y-89286142D01*
X167565976Y-89333761D01*
X167470738Y-89381380D01*
X167232642Y-89381380D01*
X167137404Y-89333761D01*
X167089785Y-89286142D01*
%TO.C,C6*%
X172743833Y-79795642D02*
X172696214Y-79843261D01*
X172553357Y-79890880D01*
X172458119Y-79890880D01*
X172315261Y-79843261D01*
X172220023Y-79748023D01*
X172172404Y-79652785D01*
X172124785Y-79462309D01*
X172124785Y-79319452D01*
X172172404Y-79128976D01*
X172220023Y-79033738D01*
X172315261Y-78938500D01*
X172458119Y-78890880D01*
X172553357Y-78890880D01*
X172696214Y-78938500D01*
X172743833Y-78986119D01*
X173600976Y-78890880D02*
X173410500Y-78890880D01*
X173315261Y-78938500D01*
X173267642Y-78986119D01*
X173172404Y-79128976D01*
X173124785Y-79319452D01*
X173124785Y-79700404D01*
X173172404Y-79795642D01*
X173220023Y-79843261D01*
X173315261Y-79890880D01*
X173505738Y-79890880D01*
X173600976Y-79843261D01*
X173648595Y-79795642D01*
X173696214Y-79700404D01*
X173696214Y-79462309D01*
X173648595Y-79367071D01*
X173600976Y-79319452D01*
X173505738Y-79271833D01*
X173315261Y-79271833D01*
X173220023Y-79319452D01*
X173172404Y-79367071D01*
X173124785Y-79462309D01*
%TO.C,C7*%
X183729333Y-70461142D02*
X183681714Y-70508761D01*
X183538857Y-70556380D01*
X183443619Y-70556380D01*
X183300761Y-70508761D01*
X183205523Y-70413523D01*
X183157904Y-70318285D01*
X183110285Y-70127809D01*
X183110285Y-69984952D01*
X183157904Y-69794476D01*
X183205523Y-69699238D01*
X183300761Y-69604000D01*
X183443619Y-69556380D01*
X183538857Y-69556380D01*
X183681714Y-69604000D01*
X183729333Y-69651619D01*
X184062666Y-69556380D02*
X184729333Y-69556380D01*
X184300761Y-70556380D01*
%TO.C,C8*%
X157059333Y-74525142D02*
X157011714Y-74572761D01*
X156868857Y-74620380D01*
X156773619Y-74620380D01*
X156630761Y-74572761D01*
X156535523Y-74477523D01*
X156487904Y-74382285D01*
X156440285Y-74191809D01*
X156440285Y-74048952D01*
X156487904Y-73858476D01*
X156535523Y-73763238D01*
X156630761Y-73668000D01*
X156773619Y-73620380D01*
X156868857Y-73620380D01*
X157011714Y-73668000D01*
X157059333Y-73715619D01*
X157630761Y-74048952D02*
X157535523Y-74001333D01*
X157487904Y-73953714D01*
X157440285Y-73858476D01*
X157440285Y-73810857D01*
X157487904Y-73715619D01*
X157535523Y-73668000D01*
X157630761Y-73620380D01*
X157821238Y-73620380D01*
X157916476Y-73668000D01*
X157964095Y-73715619D01*
X158011714Y-73810857D01*
X158011714Y-73858476D01*
X157964095Y-73953714D01*
X157916476Y-74001333D01*
X157821238Y-74048952D01*
X157630761Y-74048952D01*
X157535523Y-74096571D01*
X157487904Y-74144190D01*
X157440285Y-74239428D01*
X157440285Y-74429904D01*
X157487904Y-74525142D01*
X157535523Y-74572761D01*
X157630761Y-74620380D01*
X157821238Y-74620380D01*
X157916476Y-74572761D01*
X157964095Y-74525142D01*
X158011714Y-74429904D01*
X158011714Y-74239428D01*
X157964095Y-74144190D01*
X157916476Y-74096571D01*
X157821238Y-74048952D01*
%TO.C,C9*%
X171283333Y-112879142D02*
X171235714Y-112926761D01*
X171092857Y-112974380D01*
X170997619Y-112974380D01*
X170854761Y-112926761D01*
X170759523Y-112831523D01*
X170711904Y-112736285D01*
X170664285Y-112545809D01*
X170664285Y-112402952D01*
X170711904Y-112212476D01*
X170759523Y-112117238D01*
X170854761Y-112022000D01*
X170997619Y-111974380D01*
X171092857Y-111974380D01*
X171235714Y-112022000D01*
X171283333Y-112069619D01*
X171759523Y-112974380D02*
X171950000Y-112974380D01*
X172045238Y-112926761D01*
X172092857Y-112879142D01*
X172188095Y-112736285D01*
X172235714Y-112545809D01*
X172235714Y-112164857D01*
X172188095Y-112069619D01*
X172140476Y-112022000D01*
X172045238Y-111974380D01*
X171854761Y-111974380D01*
X171759523Y-112022000D01*
X171711904Y-112069619D01*
X171664285Y-112164857D01*
X171664285Y-112402952D01*
X171711904Y-112498190D01*
X171759523Y-112545809D01*
X171854761Y-112593428D01*
X172045238Y-112593428D01*
X172140476Y-112545809D01*
X172188095Y-112498190D01*
X172235714Y-112402952D01*
%TO.C,C10*%
X142155942Y-116425142D02*
X142108323Y-116472761D01*
X141965466Y-116520380D01*
X141870228Y-116520380D01*
X141727371Y-116472761D01*
X141632133Y-116377523D01*
X141584514Y-116282285D01*
X141536895Y-116091809D01*
X141536895Y-115948952D01*
X141584514Y-115758476D01*
X141632133Y-115663238D01*
X141727371Y-115568000D01*
X141870228Y-115520380D01*
X141965466Y-115520380D01*
X142108323Y-115568000D01*
X142155942Y-115615619D01*
X143108323Y-116520380D02*
X142536895Y-116520380D01*
X142822609Y-116520380D02*
X142822609Y-115520380D01*
X142727371Y-115663238D01*
X142632133Y-115758476D01*
X142536895Y-115806095D01*
X143727371Y-115520380D02*
X143822609Y-115520380D01*
X143917847Y-115568000D01*
X143965466Y-115615619D01*
X144013085Y-115710857D01*
X144060704Y-115901333D01*
X144060704Y-116139428D01*
X144013085Y-116329904D01*
X143965466Y-116425142D01*
X143917847Y-116472761D01*
X143822609Y-116520380D01*
X143727371Y-116520380D01*
X143632133Y-116472761D01*
X143584514Y-116425142D01*
X143536895Y-116329904D01*
X143489276Y-116139428D01*
X143489276Y-115901333D01*
X143536895Y-115710857D01*
X143584514Y-115615619D01*
X143632133Y-115568000D01*
X143727371Y-115520380D01*
%TO.C,C11*%
X147439142Y-116943142D02*
X147391523Y-116990761D01*
X147248666Y-117038380D01*
X147153428Y-117038380D01*
X147010571Y-116990761D01*
X146915333Y-116895523D01*
X146867714Y-116800285D01*
X146820095Y-116609809D01*
X146820095Y-116466952D01*
X146867714Y-116276476D01*
X146915333Y-116181238D01*
X147010571Y-116086000D01*
X147153428Y-116038380D01*
X147248666Y-116038380D01*
X147391523Y-116086000D01*
X147439142Y-116133619D01*
X148391523Y-117038380D02*
X147820095Y-117038380D01*
X148105809Y-117038380D02*
X148105809Y-116038380D01*
X148010571Y-116181238D01*
X147915333Y-116276476D01*
X147820095Y-116324095D01*
X149343904Y-117038380D02*
X148772476Y-117038380D01*
X149058190Y-117038380D02*
X149058190Y-116038380D01*
X148962952Y-116181238D01*
X148867714Y-116276476D01*
X148772476Y-116324095D01*
%TO.C,C12*%
X185793142Y-118975142D02*
X185745523Y-119022761D01*
X185602666Y-119070380D01*
X185507428Y-119070380D01*
X185364571Y-119022761D01*
X185269333Y-118927523D01*
X185221714Y-118832285D01*
X185174095Y-118641809D01*
X185174095Y-118498952D01*
X185221714Y-118308476D01*
X185269333Y-118213238D01*
X185364571Y-118118000D01*
X185507428Y-118070380D01*
X185602666Y-118070380D01*
X185745523Y-118118000D01*
X185793142Y-118165619D01*
X186745523Y-119070380D02*
X186174095Y-119070380D01*
X186459809Y-119070380D02*
X186459809Y-118070380D01*
X186364571Y-118213238D01*
X186269333Y-118308476D01*
X186174095Y-118356095D01*
X187126476Y-118165619D02*
X187174095Y-118118000D01*
X187269333Y-118070380D01*
X187507428Y-118070380D01*
X187602666Y-118118000D01*
X187650285Y-118165619D01*
X187697904Y-118260857D01*
X187697904Y-118356095D01*
X187650285Y-118498952D01*
X187078857Y-119070380D01*
X187697904Y-119070380D01*
%TO.C,C14*%
X144515642Y-99573142D02*
X144468023Y-99620761D01*
X144325166Y-99668380D01*
X144229928Y-99668380D01*
X144087071Y-99620761D01*
X143991833Y-99525523D01*
X143944214Y-99430285D01*
X143896595Y-99239809D01*
X143896595Y-99096952D01*
X143944214Y-98906476D01*
X143991833Y-98811238D01*
X144087071Y-98716000D01*
X144229928Y-98668380D01*
X144325166Y-98668380D01*
X144468023Y-98716000D01*
X144515642Y-98763619D01*
X145468023Y-99668380D02*
X144896595Y-99668380D01*
X145182309Y-99668380D02*
X145182309Y-98668380D01*
X145087071Y-98811238D01*
X144991833Y-98906476D01*
X144896595Y-98954095D01*
X146325166Y-99001714D02*
X146325166Y-99668380D01*
X146087071Y-98620761D02*
X145848976Y-99335047D01*
X146468023Y-99335047D01*
%TO.C,C15*%
X151487142Y-98940857D02*
X151534761Y-98988476D01*
X151582380Y-99131333D01*
X151582380Y-99226571D01*
X151534761Y-99369428D01*
X151439523Y-99464666D01*
X151344285Y-99512285D01*
X151153809Y-99559904D01*
X151010952Y-99559904D01*
X150820476Y-99512285D01*
X150725238Y-99464666D01*
X150630000Y-99369428D01*
X150582380Y-99226571D01*
X150582380Y-99131333D01*
X150630000Y-98988476D01*
X150677619Y-98940857D01*
X151582380Y-97988476D02*
X151582380Y-98559904D01*
X151582380Y-98274190D02*
X150582380Y-98274190D01*
X150725238Y-98369428D01*
X150820476Y-98464666D01*
X150868095Y-98559904D01*
X150582380Y-97083714D02*
X150582380Y-97559904D01*
X151058571Y-97607523D01*
X151010952Y-97559904D01*
X150963333Y-97464666D01*
X150963333Y-97226571D01*
X151010952Y-97131333D01*
X151058571Y-97083714D01*
X151153809Y-97036095D01*
X151391904Y-97036095D01*
X151487142Y-97083714D01*
X151534761Y-97131333D01*
X151582380Y-97226571D01*
X151582380Y-97464666D01*
X151534761Y-97559904D01*
X151487142Y-97607523D01*
%TO.C,C17*%
X178935142Y-110339142D02*
X178887523Y-110386761D01*
X178744666Y-110434380D01*
X178649428Y-110434380D01*
X178506571Y-110386761D01*
X178411333Y-110291523D01*
X178363714Y-110196285D01*
X178316095Y-110005809D01*
X178316095Y-109862952D01*
X178363714Y-109672476D01*
X178411333Y-109577238D01*
X178506571Y-109482000D01*
X178649428Y-109434380D01*
X178744666Y-109434380D01*
X178887523Y-109482000D01*
X178935142Y-109529619D01*
X179887523Y-110434380D02*
X179316095Y-110434380D01*
X179601809Y-110434380D02*
X179601809Y-109434380D01*
X179506571Y-109577238D01*
X179411333Y-109672476D01*
X179316095Y-109720095D01*
X180220857Y-109434380D02*
X180887523Y-109434380D01*
X180458952Y-110434380D01*
%TO.C,C18*%
X175379142Y-98147142D02*
X175331523Y-98194761D01*
X175188666Y-98242380D01*
X175093428Y-98242380D01*
X174950571Y-98194761D01*
X174855333Y-98099523D01*
X174807714Y-98004285D01*
X174760095Y-97813809D01*
X174760095Y-97670952D01*
X174807714Y-97480476D01*
X174855333Y-97385238D01*
X174950571Y-97290000D01*
X175093428Y-97242380D01*
X175188666Y-97242380D01*
X175331523Y-97290000D01*
X175379142Y-97337619D01*
X176331523Y-98242380D02*
X175760095Y-98242380D01*
X176045809Y-98242380D02*
X176045809Y-97242380D01*
X175950571Y-97385238D01*
X175855333Y-97480476D01*
X175760095Y-97528095D01*
X176902952Y-97670952D02*
X176807714Y-97623333D01*
X176760095Y-97575714D01*
X176712476Y-97480476D01*
X176712476Y-97432857D01*
X176760095Y-97337619D01*
X176807714Y-97290000D01*
X176902952Y-97242380D01*
X177093428Y-97242380D01*
X177188666Y-97290000D01*
X177236285Y-97337619D01*
X177283904Y-97432857D01*
X177283904Y-97480476D01*
X177236285Y-97575714D01*
X177188666Y-97623333D01*
X177093428Y-97670952D01*
X176902952Y-97670952D01*
X176807714Y-97718571D01*
X176760095Y-97766190D01*
X176712476Y-97861428D01*
X176712476Y-98051904D01*
X176760095Y-98147142D01*
X176807714Y-98194761D01*
X176902952Y-98242380D01*
X177093428Y-98242380D01*
X177188666Y-98194761D01*
X177236285Y-98147142D01*
X177283904Y-98051904D01*
X177283904Y-97861428D01*
X177236285Y-97766190D01*
X177188666Y-97718571D01*
X177093428Y-97670952D01*
%TO.C,D1*%
X155471904Y-124404380D02*
X155471904Y-123404380D01*
X155710000Y-123404380D01*
X155852857Y-123452000D01*
X155948095Y-123547238D01*
X155995714Y-123642476D01*
X156043333Y-123832952D01*
X156043333Y-123975809D01*
X155995714Y-124166285D01*
X155948095Y-124261523D01*
X155852857Y-124356761D01*
X155710000Y-124404380D01*
X155471904Y-124404380D01*
X156995714Y-124404380D02*
X156424285Y-124404380D01*
X156710000Y-124404380D02*
X156710000Y-123404380D01*
X156614761Y-123547238D01*
X156519523Y-123642476D01*
X156424285Y-123690095D01*
%TO.C,D2*%
X175791904Y-79192380D02*
X175791904Y-78192380D01*
X176030000Y-78192380D01*
X176172857Y-78240000D01*
X176268095Y-78335238D01*
X176315714Y-78430476D01*
X176363333Y-78620952D01*
X176363333Y-78763809D01*
X176315714Y-78954285D01*
X176268095Y-79049523D01*
X176172857Y-79144761D01*
X176030000Y-79192380D01*
X175791904Y-79192380D01*
X176744285Y-78287619D02*
X176791904Y-78240000D01*
X176887142Y-78192380D01*
X177125238Y-78192380D01*
X177220476Y-78240000D01*
X177268095Y-78287619D01*
X177315714Y-78382857D01*
X177315714Y-78478095D01*
X177268095Y-78620952D01*
X176696666Y-79192380D01*
X177315714Y-79192380D01*
%TO.C,IC1*%
D15*
X149228023Y-94267261D02*
X147958023Y-94267261D01*
X149107071Y-92936785D02*
X149167547Y-92997261D01*
X149228023Y-93178690D01*
X149228023Y-93299642D01*
X149167547Y-93481071D01*
X149046595Y-93602023D01*
X148925642Y-93662500D01*
X148683738Y-93722976D01*
X148502309Y-93722976D01*
X148260404Y-93662500D01*
X148139452Y-93602023D01*
X148018500Y-93481071D01*
X147958023Y-93299642D01*
X147958023Y-93178690D01*
X148018500Y-92997261D01*
X148078976Y-92936785D01*
X149228023Y-91727261D02*
X149228023Y-92452976D01*
X149228023Y-92090119D02*
X147958023Y-92090119D01*
X148139452Y-92211071D01*
X148260404Y-92332023D01*
X148320880Y-92452976D01*
%TO.C,J1*%
D11*
X171307380Y-71389833D02*
X172021666Y-71389833D01*
X172164523Y-71437452D01*
X172259761Y-71532690D01*
X172307380Y-71675547D01*
X172307380Y-71770785D01*
X172307380Y-70389833D02*
X172307380Y-70961261D01*
X172307380Y-70675547D02*
X171307380Y-70675547D01*
X171450238Y-70770785D01*
X171545476Y-70866023D01*
X171593095Y-70961261D01*
%TO.C,J2*%
X127174666Y-124382380D02*
X127174666Y-125096666D01*
X127127047Y-125239523D01*
X127031809Y-125334761D01*
X126888952Y-125382380D01*
X126793714Y-125382380D01*
X127603238Y-124477619D02*
X127650857Y-124430000D01*
X127746095Y-124382380D01*
X127984190Y-124382380D01*
X128079428Y-124430000D01*
X128127047Y-124477619D01*
X128174666Y-124572857D01*
X128174666Y-124668095D01*
X128127047Y-124810952D01*
X127555619Y-125382380D01*
X128174666Y-125382380D01*
%TO.C,J3*%
X127174666Y-79678380D02*
X127174666Y-80392666D01*
X127127047Y-80535523D01*
X127031809Y-80630761D01*
X126888952Y-80678380D01*
X126793714Y-80678380D01*
X127555619Y-79678380D02*
X128174666Y-79678380D01*
X127841333Y-80059333D01*
X127984190Y-80059333D01*
X128079428Y-80106952D01*
X128127047Y-80154571D01*
X128174666Y-80249809D01*
X128174666Y-80487904D01*
X128127047Y-80583142D01*
X128079428Y-80630761D01*
X127984190Y-80678380D01*
X127698476Y-80678380D01*
X127603238Y-80630761D01*
X127555619Y-80583142D01*
%TO.C,J5*%
X178306380Y-94821333D02*
X179020666Y-94821333D01*
X179163523Y-94868952D01*
X179258761Y-94964190D01*
X179306380Y-95107047D01*
X179306380Y-95202285D01*
X178306380Y-93868952D02*
X178306380Y-94345142D01*
X178782571Y-94392761D01*
X178734952Y-94345142D01*
X178687333Y-94249904D01*
X178687333Y-94011809D01*
X178734952Y-93916571D01*
X178782571Y-93868952D01*
X178877809Y-93821333D01*
X179115904Y-93821333D01*
X179211142Y-93868952D01*
X179258761Y-93916571D01*
X179306380Y-94011809D01*
X179306380Y-94249904D01*
X179258761Y-94345142D01*
X179211142Y-94392761D01*
%TO.C,L1*%
X174839333Y-113228380D02*
X174363142Y-113228380D01*
X174363142Y-112228380D01*
X175696476Y-113228380D02*
X175125047Y-113228380D01*
X175410761Y-113228380D02*
X175410761Y-112228380D01*
X175315523Y-112371238D01*
X175220285Y-112466476D01*
X175125047Y-112514095D01*
%TO.C,R1*%
X178395333Y-85542380D02*
X178062000Y-85066190D01*
X177823904Y-85542380D02*
X177823904Y-84542380D01*
X178204857Y-84542380D01*
X178300095Y-84590000D01*
X178347714Y-84637619D01*
X178395333Y-84732857D01*
X178395333Y-84875714D01*
X178347714Y-84970952D01*
X178300095Y-85018571D01*
X178204857Y-85066190D01*
X177823904Y-85066190D01*
X179347714Y-85542380D02*
X178776285Y-85542380D01*
X179062000Y-85542380D02*
X179062000Y-84542380D01*
X178966761Y-84685238D01*
X178871523Y-84780476D01*
X178776285Y-84828095D01*
%TO.C,R2*%
X171410333Y-110688380D02*
X171077000Y-110212190D01*
X170838904Y-110688380D02*
X170838904Y-109688380D01*
X171219857Y-109688380D01*
X171315095Y-109736000D01*
X171362714Y-109783619D01*
X171410333Y-109878857D01*
X171410333Y-110021714D01*
X171362714Y-110116952D01*
X171315095Y-110164571D01*
X171219857Y-110212190D01*
X170838904Y-110212190D01*
X171791285Y-109783619D02*
X171838904Y-109736000D01*
X171934142Y-109688380D01*
X172172238Y-109688380D01*
X172267476Y-109736000D01*
X172315095Y-109783619D01*
X172362714Y-109878857D01*
X172362714Y-109974095D01*
X172315095Y-110116952D01*
X171743666Y-110688380D01*
X172362714Y-110688380D01*
%TO.C,R3*%
X156297333Y-90622380D02*
X155964000Y-90146190D01*
X155725904Y-90622380D02*
X155725904Y-89622380D01*
X156106857Y-89622380D01*
X156202095Y-89670000D01*
X156249714Y-89717619D01*
X156297333Y-89812857D01*
X156297333Y-89955714D01*
X156249714Y-90050952D01*
X156202095Y-90098571D01*
X156106857Y-90146190D01*
X155725904Y-90146190D01*
X156630666Y-89622380D02*
X157249714Y-89622380D01*
X156916380Y-90003333D01*
X157059238Y-90003333D01*
X157154476Y-90050952D01*
X157202095Y-90098571D01*
X157249714Y-90193809D01*
X157249714Y-90431904D01*
X157202095Y-90527142D01*
X157154476Y-90574761D01*
X157059238Y-90622380D01*
X156773523Y-90622380D01*
X156678285Y-90574761D01*
X156630666Y-90527142D01*
%TO.C,R4*%
X150097833Y-87828380D02*
X149764500Y-87352190D01*
X149526404Y-87828380D02*
X149526404Y-86828380D01*
X149907357Y-86828380D01*
X150002595Y-86876000D01*
X150050214Y-86923619D01*
X150097833Y-87018857D01*
X150097833Y-87161714D01*
X150050214Y-87256952D01*
X150002595Y-87304571D01*
X149907357Y-87352190D01*
X149526404Y-87352190D01*
X150954976Y-87161714D02*
X150954976Y-87828380D01*
X150716880Y-86780761D02*
X150478785Y-87495047D01*
X151097833Y-87495047D01*
%TO.C,R5*%
X156297333Y-95956380D02*
X155964000Y-95480190D01*
X155725904Y-95956380D02*
X155725904Y-94956380D01*
X156106857Y-94956380D01*
X156202095Y-95004000D01*
X156249714Y-95051619D01*
X156297333Y-95146857D01*
X156297333Y-95289714D01*
X156249714Y-95384952D01*
X156202095Y-95432571D01*
X156106857Y-95480190D01*
X155725904Y-95480190D01*
X157202095Y-94956380D02*
X156725904Y-94956380D01*
X156678285Y-95432571D01*
X156725904Y-95384952D01*
X156821142Y-95337333D01*
X157059238Y-95337333D01*
X157154476Y-95384952D01*
X157202095Y-95432571D01*
X157249714Y-95527809D01*
X157249714Y-95765904D01*
X157202095Y-95861142D01*
X157154476Y-95908761D01*
X157059238Y-95956380D01*
X156821142Y-95956380D01*
X156725904Y-95908761D01*
X156678285Y-95861142D01*
%TO.C,R6*%
X140660380Y-89170166D02*
X140184190Y-89503500D01*
X140660380Y-89741595D02*
X139660380Y-89741595D01*
X139660380Y-89360642D01*
X139708000Y-89265404D01*
X139755619Y-89217785D01*
X139850857Y-89170166D01*
X139993714Y-89170166D01*
X140088952Y-89217785D01*
X140136571Y-89265404D01*
X140184190Y-89360642D01*
X140184190Y-89741595D01*
X139660380Y-88313023D02*
X139660380Y-88503500D01*
X139708000Y-88598738D01*
X139755619Y-88646357D01*
X139898476Y-88741595D01*
X140088952Y-88789214D01*
X140469904Y-88789214D01*
X140565142Y-88741595D01*
X140612761Y-88693976D01*
X140660380Y-88598738D01*
X140660380Y-88408261D01*
X140612761Y-88313023D01*
X140565142Y-88265404D01*
X140469904Y-88217785D01*
X140231809Y-88217785D01*
X140136571Y-88265404D01*
X140088952Y-88313023D01*
X140041333Y-88408261D01*
X140041333Y-88598738D01*
X140088952Y-88693976D01*
X140136571Y-88741595D01*
X140231809Y-88789214D01*
%TO.C,R7*%
X184237333Y-110180380D02*
X183904000Y-109704190D01*
X183665904Y-110180380D02*
X183665904Y-109180380D01*
X184046857Y-109180380D01*
X184142095Y-109228000D01*
X184189714Y-109275619D01*
X184237333Y-109370857D01*
X184237333Y-109513714D01*
X184189714Y-109608952D01*
X184142095Y-109656571D01*
X184046857Y-109704190D01*
X183665904Y-109704190D01*
X184570666Y-109180380D02*
X185237333Y-109180380D01*
X184808761Y-110180380D01*
%TO.C,R8*%
X163155333Y-111958380D02*
X162822000Y-111482190D01*
X162583904Y-111958380D02*
X162583904Y-110958380D01*
X162964857Y-110958380D01*
X163060095Y-111006000D01*
X163107714Y-111053619D01*
X163155333Y-111148857D01*
X163155333Y-111291714D01*
X163107714Y-111386952D01*
X163060095Y-111434571D01*
X162964857Y-111482190D01*
X162583904Y-111482190D01*
X163726761Y-111386952D02*
X163631523Y-111339333D01*
X163583904Y-111291714D01*
X163536285Y-111196476D01*
X163536285Y-111148857D01*
X163583904Y-111053619D01*
X163631523Y-111006000D01*
X163726761Y-110958380D01*
X163917238Y-110958380D01*
X164012476Y-111006000D01*
X164060095Y-111053619D01*
X164107714Y-111148857D01*
X164107714Y-111196476D01*
X164060095Y-111291714D01*
X164012476Y-111339333D01*
X163917238Y-111386952D01*
X163726761Y-111386952D01*
X163631523Y-111434571D01*
X163583904Y-111482190D01*
X163536285Y-111577428D01*
X163536285Y-111767904D01*
X163583904Y-111863142D01*
X163631523Y-111910761D01*
X163726761Y-111958380D01*
X163917238Y-111958380D01*
X164012476Y-111910761D01*
X164060095Y-111863142D01*
X164107714Y-111767904D01*
X164107714Y-111577428D01*
X164060095Y-111482190D01*
X164012476Y-111434571D01*
X163917238Y-111386952D01*
%TO.C,R9*%
X140661380Y-93281166D02*
X140185190Y-93614500D01*
X140661380Y-93852595D02*
X139661380Y-93852595D01*
X139661380Y-93471642D01*
X139709000Y-93376404D01*
X139756619Y-93328785D01*
X139851857Y-93281166D01*
X139994714Y-93281166D01*
X140089952Y-93328785D01*
X140137571Y-93376404D01*
X140185190Y-93471642D01*
X140185190Y-93852595D01*
X140661380Y-92804976D02*
X140661380Y-92614500D01*
X140613761Y-92519261D01*
X140566142Y-92471642D01*
X140423285Y-92376404D01*
X140232809Y-92328785D01*
X139851857Y-92328785D01*
X139756619Y-92376404D01*
X139709000Y-92424023D01*
X139661380Y-92519261D01*
X139661380Y-92709738D01*
X139709000Y-92804976D01*
X139756619Y-92852595D01*
X139851857Y-92900214D01*
X140089952Y-92900214D01*
X140185190Y-92852595D01*
X140232809Y-92804976D01*
X140280428Y-92709738D01*
X140280428Y-92519261D01*
X140232809Y-92424023D01*
X140185190Y-92376404D01*
X140089952Y-92328785D01*
%TO.C,R10*%
X140660380Y-97583857D02*
X140184190Y-97917190D01*
X140660380Y-98155285D02*
X139660380Y-98155285D01*
X139660380Y-97774333D01*
X139708000Y-97679095D01*
X139755619Y-97631476D01*
X139850857Y-97583857D01*
X139993714Y-97583857D01*
X140088952Y-97631476D01*
X140136571Y-97679095D01*
X140184190Y-97774333D01*
X140184190Y-98155285D01*
X140660380Y-96631476D02*
X140660380Y-97202904D01*
X140660380Y-96917190D02*
X139660380Y-96917190D01*
X139803238Y-97012428D01*
X139898476Y-97107666D01*
X139946095Y-97202904D01*
X139660380Y-96012428D02*
X139660380Y-95917190D01*
X139708000Y-95821952D01*
X139755619Y-95774333D01*
X139850857Y-95726714D01*
X140041333Y-95679095D01*
X140279428Y-95679095D01*
X140469904Y-95726714D01*
X140565142Y-95774333D01*
X140612761Y-95821952D01*
X140660380Y-95917190D01*
X140660380Y-96012428D01*
X140612761Y-96107666D01*
X140565142Y-96155285D01*
X140469904Y-96202904D01*
X140279428Y-96250523D01*
X140041333Y-96250523D01*
X139850857Y-96202904D01*
X139755619Y-96155285D01*
X139708000Y-96107666D01*
X139660380Y-96012428D01*
%TO.C,R11*%
X172585142Y-95448380D02*
X172251809Y-94972190D01*
X172013714Y-95448380D02*
X172013714Y-94448380D01*
X172394666Y-94448380D01*
X172489904Y-94496000D01*
X172537523Y-94543619D01*
X172585142Y-94638857D01*
X172585142Y-94781714D01*
X172537523Y-94876952D01*
X172489904Y-94924571D01*
X172394666Y-94972190D01*
X172013714Y-94972190D01*
X173537523Y-95448380D02*
X172966095Y-95448380D01*
X173251809Y-95448380D02*
X173251809Y-94448380D01*
X173156571Y-94591238D01*
X173061333Y-94686476D01*
X172966095Y-94734095D01*
X174489904Y-95448380D02*
X173918476Y-95448380D01*
X174204190Y-95448380D02*
X174204190Y-94448380D01*
X174108952Y-94591238D01*
X174013714Y-94686476D01*
X173918476Y-94734095D01*
%TO.C,R12*%
X175633142Y-76398380D02*
X175299809Y-75922190D01*
X175061714Y-76398380D02*
X175061714Y-75398380D01*
X175442666Y-75398380D01*
X175537904Y-75446000D01*
X175585523Y-75493619D01*
X175633142Y-75588857D01*
X175633142Y-75731714D01*
X175585523Y-75826952D01*
X175537904Y-75874571D01*
X175442666Y-75922190D01*
X175061714Y-75922190D01*
X176585523Y-76398380D02*
X176014095Y-76398380D01*
X176299809Y-76398380D02*
X176299809Y-75398380D01*
X176204571Y-75541238D01*
X176109333Y-75636476D01*
X176014095Y-75684095D01*
X176966476Y-75493619D02*
X177014095Y-75446000D01*
X177109333Y-75398380D01*
X177347428Y-75398380D01*
X177442666Y-75446000D01*
X177490285Y-75493619D01*
X177537904Y-75588857D01*
X177537904Y-75684095D01*
X177490285Y-75826952D01*
X176918857Y-76398380D01*
X177537904Y-76398380D01*
%TO.C,R13*%
X171776142Y-74429880D02*
X171442809Y-73953690D01*
X171204714Y-74429880D02*
X171204714Y-73429880D01*
X171585666Y-73429880D01*
X171680904Y-73477500D01*
X171728523Y-73525119D01*
X171776142Y-73620357D01*
X171776142Y-73763214D01*
X171728523Y-73858452D01*
X171680904Y-73906071D01*
X171585666Y-73953690D01*
X171204714Y-73953690D01*
X172728523Y-74429880D02*
X172157095Y-74429880D01*
X172442809Y-74429880D02*
X172442809Y-73429880D01*
X172347571Y-73572738D01*
X172252333Y-73667976D01*
X172157095Y-73715595D01*
X173061857Y-73429880D02*
X173680904Y-73429880D01*
X173347571Y-73810833D01*
X173490428Y-73810833D01*
X173585666Y-73858452D01*
X173633285Y-73906071D01*
X173680904Y-74001309D01*
X173680904Y-74239404D01*
X173633285Y-74334642D01*
X173585666Y-74382261D01*
X173490428Y-74429880D01*
X173204714Y-74429880D01*
X173109476Y-74382261D01*
X173061857Y-74334642D01*
%TO.C,SW1*%
X189126761Y-79057333D02*
X189174380Y-78914476D01*
X189174380Y-78676380D01*
X189126761Y-78581142D01*
X189079142Y-78533523D01*
X188983904Y-78485904D01*
X188888666Y-78485904D01*
X188793428Y-78533523D01*
X188745809Y-78581142D01*
X188698190Y-78676380D01*
X188650571Y-78866857D01*
X188602952Y-78962095D01*
X188555333Y-79009714D01*
X188460095Y-79057333D01*
X188364857Y-79057333D01*
X188269619Y-79009714D01*
X188222000Y-78962095D01*
X188174380Y-78866857D01*
X188174380Y-78628761D01*
X188222000Y-78485904D01*
X188174380Y-78152571D02*
X189174380Y-77914476D01*
X188460095Y-77724000D01*
X189174380Y-77533523D01*
X188174380Y-77295428D01*
X189174380Y-76390666D02*
X189174380Y-76962095D01*
X189174380Y-76676380D02*
X188174380Y-76676380D01*
X188317238Y-76771619D01*
X188412476Y-76866857D01*
X188460095Y-76962095D01*
%TO.C,U2*%
X148299380Y-114299904D02*
X149108904Y-114299904D01*
X149204142Y-114252285D01*
X149251761Y-114204666D01*
X149299380Y-114109428D01*
X149299380Y-113918952D01*
X149251761Y-113823714D01*
X149204142Y-113776095D01*
X149108904Y-113728476D01*
X148299380Y-113728476D01*
X148394619Y-113299904D02*
X148347000Y-113252285D01*
X148299380Y-113157047D01*
X148299380Y-112918952D01*
X148347000Y-112823714D01*
X148394619Y-112776095D01*
X148489857Y-112728476D01*
X148585095Y-112728476D01*
X148727952Y-112776095D01*
X149299380Y-113347523D01*
X149299380Y-112728476D01*
%TO.C,U3*%
X168402095Y-97242380D02*
X168402095Y-98051904D01*
X168449714Y-98147142D01*
X168497333Y-98194761D01*
X168592571Y-98242380D01*
X168783047Y-98242380D01*
X168878285Y-98194761D01*
X168925904Y-98147142D01*
X168973523Y-98051904D01*
X168973523Y-97242380D01*
X169354476Y-97242380D02*
X169973523Y-97242380D01*
X169640190Y-97623333D01*
X169783047Y-97623333D01*
X169878285Y-97670952D01*
X169925904Y-97718571D01*
X169973523Y-97813809D01*
X169973523Y-98051904D01*
X169925904Y-98147142D01*
X169878285Y-98194761D01*
X169783047Y-98242380D01*
X169497333Y-98242380D01*
X169402095Y-98194761D01*
X169354476Y-98147142D01*
%TO.C,Y1*%
X146788190Y-85820190D02*
X147264380Y-85820190D01*
X146264380Y-86153523D02*
X146788190Y-85820190D01*
X146264380Y-85486857D01*
X147264380Y-84629714D02*
X147264380Y-85201142D01*
X147264380Y-84915428D02*
X146264380Y-84915428D01*
X146407238Y-85010666D01*
X146502476Y-85105904D01*
X146550095Y-85201142D01*
%TO.C,J4*%
X157464380Y-71389833D02*
X158178666Y-71389833D01*
X158321523Y-71437452D01*
X158416761Y-71532690D01*
X158464380Y-71675547D01*
X158464380Y-71770785D01*
X157797714Y-70485071D02*
X158464380Y-70485071D01*
X157416761Y-70723166D02*
X158131047Y-70961261D01*
X158131047Y-70342214D01*
%TO.C,R14*%
X172156380Y-84716857D02*
X171680190Y-85050190D01*
X172156380Y-85288285D02*
X171156380Y-85288285D01*
X171156380Y-84907333D01*
X171204000Y-84812095D01*
X171251619Y-84764476D01*
X171346857Y-84716857D01*
X171489714Y-84716857D01*
X171584952Y-84764476D01*
X171632571Y-84812095D01*
X171680190Y-84907333D01*
X171680190Y-85288285D01*
X172156380Y-83764476D02*
X172156380Y-84335904D01*
X172156380Y-84050190D02*
X171156380Y-84050190D01*
X171299238Y-84145428D01*
X171394476Y-84240666D01*
X171442095Y-84335904D01*
X171489714Y-82907333D02*
X172156380Y-82907333D01*
X171108761Y-83145428D02*
X171823047Y-83383523D01*
X171823047Y-82764476D01*
%TO.C,R15*%
X173680380Y-84716857D02*
X173204190Y-85050190D01*
X173680380Y-85288285D02*
X172680380Y-85288285D01*
X172680380Y-84907333D01*
X172728000Y-84812095D01*
X172775619Y-84764476D01*
X172870857Y-84716857D01*
X173013714Y-84716857D01*
X173108952Y-84764476D01*
X173156571Y-84812095D01*
X173204190Y-84907333D01*
X173204190Y-85288285D01*
X173680380Y-83764476D02*
X173680380Y-84335904D01*
X173680380Y-84050190D02*
X172680380Y-84050190D01*
X172823238Y-84145428D01*
X172918476Y-84240666D01*
X172966095Y-84335904D01*
X172680380Y-82859714D02*
X172680380Y-83335904D01*
X173156571Y-83383523D01*
X173108952Y-83335904D01*
X173061333Y-83240666D01*
X173061333Y-83002571D01*
X173108952Y-82907333D01*
X173156571Y-82859714D01*
X173251809Y-82812095D01*
X173489904Y-82812095D01*
X173585142Y-82859714D01*
X173632761Y-82907333D01*
X173680380Y-83002571D01*
X173680380Y-83240666D01*
X173632761Y-83335904D01*
X173585142Y-83383523D01*
%TO.C,R16*%
X174950380Y-84716857D02*
X174474190Y-85050190D01*
X174950380Y-85288285D02*
X173950380Y-85288285D01*
X173950380Y-84907333D01*
X173998000Y-84812095D01*
X174045619Y-84764476D01*
X174140857Y-84716857D01*
X174283714Y-84716857D01*
X174378952Y-84764476D01*
X174426571Y-84812095D01*
X174474190Y-84907333D01*
X174474190Y-85288285D01*
X174950380Y-83764476D02*
X174950380Y-84335904D01*
X174950380Y-84050190D02*
X173950380Y-84050190D01*
X174093238Y-84145428D01*
X174188476Y-84240666D01*
X174236095Y-84335904D01*
X173950380Y-82907333D02*
X173950380Y-83097809D01*
X173998000Y-83193047D01*
X174045619Y-83240666D01*
X174188476Y-83335904D01*
X174378952Y-83383523D01*
X174759904Y-83383523D01*
X174855142Y-83335904D01*
X174902761Y-83288285D01*
X174950380Y-83193047D01*
X174950380Y-83002571D01*
X174902761Y-82907333D01*
X174855142Y-82859714D01*
X174759904Y-82812095D01*
X174521809Y-82812095D01*
X174426571Y-82859714D01*
X174378952Y-82907333D01*
X174331333Y-83002571D01*
X174331333Y-83193047D01*
X174378952Y-83288285D01*
X174426571Y-83335904D01*
X174521809Y-83383523D01*
%TO.C,R17*%
X175125142Y-91384380D02*
X174791809Y-90908190D01*
X174553714Y-91384380D02*
X174553714Y-90384380D01*
X174934666Y-90384380D01*
X175029904Y-90432000D01*
X175077523Y-90479619D01*
X175125142Y-90574857D01*
X175125142Y-90717714D01*
X175077523Y-90812952D01*
X175029904Y-90860571D01*
X174934666Y-90908190D01*
X174553714Y-90908190D01*
X176077523Y-91384380D02*
X175506095Y-91384380D01*
X175791809Y-91384380D02*
X175791809Y-90384380D01*
X175696571Y-90527238D01*
X175601333Y-90622476D01*
X175506095Y-90670095D01*
X176410857Y-90384380D02*
X177077523Y-90384380D01*
X176648952Y-91384380D01*
%TO.C,J6*%
X138350666Y-83780380D02*
X138350666Y-84494666D01*
X138303047Y-84637523D01*
X138207809Y-84732761D01*
X138064952Y-84780380D01*
X137969714Y-84780380D01*
X139255428Y-83780380D02*
X139064952Y-83780380D01*
X138969714Y-83828000D01*
X138922095Y-83875619D01*
X138826857Y-84018476D01*
X138779238Y-84208952D01*
X138779238Y-84589904D01*
X138826857Y-84685142D01*
X138874476Y-84732761D01*
X138969714Y-84780380D01*
X139160190Y-84780380D01*
X139255428Y-84732761D01*
X139303047Y-84685142D01*
X139350666Y-84589904D01*
X139350666Y-84351809D01*
X139303047Y-84256571D01*
X139255428Y-84208952D01*
X139160190Y-84161333D01*
X138969714Y-84161333D01*
X138874476Y-84208952D01*
X138826857Y-84256571D01*
X138779238Y-84351809D01*
%TO.C,J7*%
X171346666Y-92162380D02*
X171346666Y-92876666D01*
X171299047Y-93019523D01*
X171203809Y-93114761D01*
X171060952Y-93162380D01*
X170965714Y-93162380D01*
X171727619Y-92162380D02*
X172394285Y-92162380D01*
X171965714Y-93162380D01*
%TD*%
M02*
