%TF.GenerationSoftware,KiCad,Pcbnew,(5.1.12)-1*%
%TF.CreationDate,2022-08-10T11:31:23+05:30*%
%TF.ProjectId,AGV_SENSOR_PCB_2,4147565f-5345-44e5-934f-525f5043425f,rev?*%
%TF.SameCoordinates,Original*%
%TF.FileFunction,Legend,Bot*%
%TF.FilePolarity,Positive*%
%FSLAX46Y46*%
G04 Gerber Fmt 4.6, Leading zero omitted, Abs format (unit mm)*
G04 Created by KiCad (PCBNEW (5.1.12)-1) date 2022-08-10 11:31:23*
%MOMM*%
%LPD*%
G01*
G04 APERTURE LIST*
%ADD10C,0.120000*%
%ADD11C,0.150000*%
G04 APERTURE END LIST*
D10*
%TO.C,C13*%
X183361000Y-118163748D02*
X183361000Y-118686252D01*
X181891000Y-118163748D02*
X181891000Y-118686252D01*
%TO.C,C16*%
X177192000Y-100894248D02*
X177192000Y-101416752D01*
X178662000Y-100894248D02*
X178662000Y-101416752D01*
%TO.C,C19*%
X174661500Y-106926748D02*
X174661500Y-107449252D01*
X173191500Y-106926748D02*
X173191500Y-107449252D01*
%TO.C,Y2*%
X153532000Y-70426500D02*
X153732000Y-70426500D01*
X152632000Y-71026500D02*
X153532000Y-70426500D01*
X153532000Y-72326500D02*
X153732000Y-72326500D01*
X152632000Y-71726500D02*
X153532000Y-72326500D01*
X152632000Y-70176500D02*
X152632000Y-72576500D01*
X146232000Y-70176500D02*
X152632000Y-70176500D01*
X146232000Y-72576500D02*
X146232000Y-70176500D01*
X152632000Y-72576500D02*
X146232000Y-72576500D01*
%TO.C,C13*%
D11*
X181303142Y-117782142D02*
X181350761Y-117734523D01*
X181398380Y-117591666D01*
X181398380Y-117496428D01*
X181350761Y-117353571D01*
X181255523Y-117258333D01*
X181160285Y-117210714D01*
X180969809Y-117163095D01*
X180826952Y-117163095D01*
X180636476Y-117210714D01*
X180541238Y-117258333D01*
X180446000Y-117353571D01*
X180398380Y-117496428D01*
X180398380Y-117591666D01*
X180446000Y-117734523D01*
X180493619Y-117782142D01*
X181398380Y-118734523D02*
X181398380Y-118163095D01*
X181398380Y-118448809D02*
X180398380Y-118448809D01*
X180541238Y-118353571D01*
X180636476Y-118258333D01*
X180684095Y-118163095D01*
X180398380Y-119067857D02*
X180398380Y-119686904D01*
X180779333Y-119353571D01*
X180779333Y-119496428D01*
X180826952Y-119591666D01*
X180874571Y-119639285D01*
X180969809Y-119686904D01*
X181207904Y-119686904D01*
X181303142Y-119639285D01*
X181350761Y-119591666D01*
X181398380Y-119496428D01*
X181398380Y-119210714D01*
X181350761Y-119115476D01*
X181303142Y-119067857D01*
%TO.C,C16*%
X176604142Y-100512642D02*
X176651761Y-100465023D01*
X176699380Y-100322166D01*
X176699380Y-100226928D01*
X176651761Y-100084071D01*
X176556523Y-99988833D01*
X176461285Y-99941214D01*
X176270809Y-99893595D01*
X176127952Y-99893595D01*
X175937476Y-99941214D01*
X175842238Y-99988833D01*
X175747000Y-100084071D01*
X175699380Y-100226928D01*
X175699380Y-100322166D01*
X175747000Y-100465023D01*
X175794619Y-100512642D01*
X176699380Y-101465023D02*
X176699380Y-100893595D01*
X176699380Y-101179309D02*
X175699380Y-101179309D01*
X175842238Y-101084071D01*
X175937476Y-100988833D01*
X175985095Y-100893595D01*
X175699380Y-102322166D02*
X175699380Y-102131690D01*
X175747000Y-102036452D01*
X175794619Y-101988833D01*
X175937476Y-101893595D01*
X176127952Y-101845976D01*
X176508904Y-101845976D01*
X176604142Y-101893595D01*
X176651761Y-101941214D01*
X176699380Y-102036452D01*
X176699380Y-102226928D01*
X176651761Y-102322166D01*
X176604142Y-102369785D01*
X176508904Y-102417404D01*
X176270809Y-102417404D01*
X176175571Y-102369785D01*
X176127952Y-102322166D01*
X176080333Y-102226928D01*
X176080333Y-102036452D01*
X176127952Y-101941214D01*
X176175571Y-101893595D01*
X176270809Y-101845976D01*
%TO.C,C19*%
X172603642Y-106545142D02*
X172651261Y-106497523D01*
X172698880Y-106354666D01*
X172698880Y-106259428D01*
X172651261Y-106116571D01*
X172556023Y-106021333D01*
X172460785Y-105973714D01*
X172270309Y-105926095D01*
X172127452Y-105926095D01*
X171936976Y-105973714D01*
X171841738Y-106021333D01*
X171746500Y-106116571D01*
X171698880Y-106259428D01*
X171698880Y-106354666D01*
X171746500Y-106497523D01*
X171794119Y-106545142D01*
X172698880Y-107497523D02*
X172698880Y-106926095D01*
X172698880Y-107211809D02*
X171698880Y-107211809D01*
X171841738Y-107116571D01*
X171936976Y-107021333D01*
X171984595Y-106926095D01*
X172698880Y-107973714D02*
X172698880Y-108164190D01*
X172651261Y-108259428D01*
X172603642Y-108307047D01*
X172460785Y-108402285D01*
X172270309Y-108449904D01*
X171889357Y-108449904D01*
X171794119Y-108402285D01*
X171746500Y-108354666D01*
X171698880Y-108259428D01*
X171698880Y-108068952D01*
X171746500Y-107973714D01*
X171794119Y-107926095D01*
X171889357Y-107878476D01*
X172127452Y-107878476D01*
X172222690Y-107926095D01*
X172270309Y-107973714D01*
X172317928Y-108068952D01*
X172317928Y-108259428D01*
X172270309Y-108354666D01*
X172222690Y-108402285D01*
X172127452Y-108449904D01*
%TO.C,Y2*%
X153283190Y-73872690D02*
X153283190Y-74348880D01*
X153616523Y-73348880D02*
X153283190Y-73872690D01*
X152949857Y-73348880D01*
X152664142Y-73444119D02*
X152616523Y-73396500D01*
X152521285Y-73348880D01*
X152283190Y-73348880D01*
X152187952Y-73396500D01*
X152140333Y-73444119D01*
X152092714Y-73539357D01*
X152092714Y-73634595D01*
X152140333Y-73777452D01*
X152711761Y-74348880D01*
X152092714Y-74348880D01*
%TD*%
M02*
