M48
; DRILL file {KiCad (5.1.12)-1} date 08/10/22 11:31:27
; FORMAT={-:-/ absolute / inch / decimal}
; #@! TF.CreationDate,2022-08-10T11:31:27+05:30
; #@! TF.GenerationSoftware,Kicad,Pcbnew,(5.1.12)-1
; #@! TF.FileFunction,Plated,1,2,PTH
FMAT,2
INCH
T1C0.0157
T2C0.0197
T3C0.0315
T4C0.0394
T5C0.0472
%
G90
G05
T1
X5.1201Y-3.7019
X5.3991Y-3.7019
X5.46Y-2.76
X5.46Y-2.83
X5.46Y-2.9
X5.46Y-2.96
X5.46Y-3.02
X5.46Y-3.08
X5.46Y-3.14
X5.46Y-3.2
X5.46Y-3.27
X5.46Y-3.34
X5.46Y-3.4
X5.46Y-3.46
X5.46Y-3.52
X5.46Y-3.58
X5.46Y-3.8
X5.46Y-3.86
X5.46Y-3.91
X5.52Y-2.76
X5.58Y-2.76
X5.585Y-3.917
X5.64Y-2.76
X5.69Y-2.76
X5.75Y-2.76
X5.751Y-3.531
X5.76Y-4.11
X5.76Y-4.2
X5.76Y-4.29
X5.76Y-4.38
X5.81Y-2.76
X5.82Y-4.79
X5.85Y-4.96
X5.86Y-4.11
X5.86Y-4.19
X5.86Y-4.29
X5.86Y-4.38
X5.87Y-2.76
X5.87Y-4.79
X5.905Y-3.91
X5.93Y-2.76
X5.93Y-4.96
X6.13Y-3.89
X6.159Y-3.11
X6.161Y-3.156
X6.2Y-3.89
X6.24Y-3.74
X6.26Y-3.89
X6.28Y-3.58
X6.3Y-4.65
X6.316Y-2.976
X6.32Y-3.89
X6.38Y-3.78
X6.38Y-3.83
X6.38Y-3.89
X6.39Y-4.1
X6.39Y-4.19
X6.39Y-4.27
X6.396Y-3.082
X6.409Y-3.1286
X6.442Y-3.078
X6.46Y-3.17
X6.46Y-3.53
X6.47Y-4.1
X6.47Y-4.19
X6.47Y-4.26
X6.487Y-2.895
X6.51Y-3.522
X6.76Y-3.2
X6.76Y-3.29
X6.8Y-2.89
X6.82Y-3.21
X6.82Y-3.27
X6.87Y-3.57
X6.9Y-3.06
X6.927Y-3.598
X6.9295Y-3.0195
X6.9725Y-3.2935
X7.46Y-2.91
X7.46Y-2.97
X7.46Y-3.03
X7.46Y-3.09
X7.46Y-3.15
X7.46Y-3.22
X7.46Y-3.29
X7.46Y-3.36
X7.46Y-3.43
T2
X6.08Y-2.7727
X6.08Y-2.8475
T3
X5.622Y-4.7
X5.622Y-4.8496
X5.92Y-3.05
X5.92Y-3.2421
X6.9275Y-3.935
X6.9275Y-4.0334
X6.9325Y-4.1841
X6.9325Y-4.2825
X7.1Y-4.6
X7.1Y-4.7496
T4
X5.57Y-2.98
X5.57Y-3.08
X5.57Y-3.18
X5.57Y-3.28
X5.67Y-2.98
X5.67Y-3.08
X5.67Y-3.18
X5.67Y-3.28
X6.33Y-2.7975
X6.43Y-2.7975
X6.45Y-3.65
X6.53Y-2.7975
X6.55Y-3.65
X6.63Y-2.7975
X6.65Y-3.65
X6.73Y-2.7975
X6.875Y-2.7975
X6.975Y-2.7975
X7.075Y-2.7975
X7.1375Y-2.9316
X7.1375Y-3.1875
X7.3147Y-2.9316
X7.3147Y-3.1875
T5
X4.72Y-2.94
X4.72Y-4.7
X4.92Y-2.94
X4.92Y-4.7
X5.12Y-2.94
X5.12Y-4.7
X5.32Y-2.94
X5.32Y-4.7
X7.26Y-3.42
X7.26Y-3.62
X7.26Y-3.82
X7.26Y-4.02
T0
M30
