%TF.GenerationSoftware,KiCad,Pcbnew,(5.1.12)-1*%
%TF.CreationDate,2022-08-10T11:31:23+05:30*%
%TF.ProjectId,AGV_SENSOR_PCB_2,4147565f-5345-44e5-934f-525f5043425f,rev?*%
%TF.SameCoordinates,Original*%
%TF.FileFunction,Copper,L2,Bot*%
%TF.FilePolarity,Positive*%
%FSLAX46Y46*%
G04 Gerber Fmt 4.6, Leading zero omitted, Abs format (unit mm)*
G04 Created by KiCad (PCBNEW (5.1.12)-1) date 2022-08-10 11:31:23*
%MOMM*%
%LPD*%
G01*
G04 APERTURE LIST*
%TA.AperFunction,ComponentPad*%
%ADD10C,1.600000*%
%TD*%
%TA.AperFunction,ComponentPad*%
%ADD11R,1.600000X1.600000*%
%TD*%
%TA.AperFunction,ComponentPad*%
%ADD12R,1.700000X1.700000*%
%TD*%
%TA.AperFunction,ComponentPad*%
%ADD13O,1.700000X1.700000*%
%TD*%
%TA.AperFunction,ComponentPad*%
%ADD14O,1.800000X3.600000*%
%TD*%
%TA.AperFunction,ComponentPad*%
%ADD15O,3.600000X1.800000*%
%TD*%
%TA.AperFunction,ComponentPad*%
%ADD16C,1.700000*%
%TD*%
%TA.AperFunction,ComponentPad*%
%ADD17C,1.500000*%
%TD*%
%TA.AperFunction,ComponentPad*%
%ADD18C,1.000000*%
%TD*%
%TA.AperFunction,ViaPad*%
%ADD19C,0.800000*%
%TD*%
%TA.AperFunction,Conductor*%
%ADD20C,1.500000*%
%TD*%
%TA.AperFunction,Conductor*%
%ADD21C,0.540000*%
%TD*%
%TA.AperFunction,Conductor*%
%ADD22C,0.250000*%
%TD*%
%TA.AperFunction,Conductor*%
%ADD23C,0.354000*%
%TD*%
%TA.AperFunction,Conductor*%
%ADD24C,0.254000*%
%TD*%
%TA.AperFunction,Conductor*%
%ADD25C,0.100000*%
%TD*%
G04 APERTURE END LIST*
D10*
%TO.P,C10,2*%
%TO.N,GND*%
X142798800Y-123180000D03*
D11*
%TO.P,C10,1*%
%TO.N,+24V*%
X142798800Y-119380000D03*
%TD*%
%TO.P,C12,1*%
%TO.N,Net-(C12-Pad1)*%
X180340000Y-116840000D03*
D10*
%TO.P,C12,2*%
%TO.N,GND*%
X180340000Y-120640000D03*
%TD*%
%TO.P,C13,1*%
%TO.N,Net-(C12-Pad1)*%
%TA.AperFunction,SMDPad,CuDef*%
G36*
G01*
X182151000Y-116975000D02*
X183101000Y-116975000D01*
G75*
G02*
X183351000Y-117225000I0J-250000D01*
G01*
X183351000Y-117725000D01*
G75*
G02*
X183101000Y-117975000I-250000J0D01*
G01*
X182151000Y-117975000D01*
G75*
G02*
X181901000Y-117725000I0J250000D01*
G01*
X181901000Y-117225000D01*
G75*
G02*
X182151000Y-116975000I250000J0D01*
G01*
G37*
%TD.AperFunction*%
%TO.P,C13,2*%
%TO.N,GND*%
%TA.AperFunction,SMDPad,CuDef*%
G36*
G01*
X182151000Y-118875000D02*
X183101000Y-118875000D01*
G75*
G02*
X183351000Y-119125000I0J-250000D01*
G01*
X183351000Y-119625000D01*
G75*
G02*
X183101000Y-119875000I-250000J0D01*
G01*
X182151000Y-119875000D01*
G75*
G02*
X181901000Y-119625000I0J250000D01*
G01*
X181901000Y-119125000D01*
G75*
G02*
X182151000Y-118875000I250000J0D01*
G01*
G37*
%TD.AperFunction*%
%TD*%
%TO.P,C16,2*%
%TO.N,GND*%
%TA.AperFunction,SMDPad,CuDef*%
G36*
G01*
X177452000Y-101605500D02*
X178402000Y-101605500D01*
G75*
G02*
X178652000Y-101855500I0J-250000D01*
G01*
X178652000Y-102355500D01*
G75*
G02*
X178402000Y-102605500I-250000J0D01*
G01*
X177452000Y-102605500D01*
G75*
G02*
X177202000Y-102355500I0J250000D01*
G01*
X177202000Y-101855500D01*
G75*
G02*
X177452000Y-101605500I250000J0D01*
G01*
G37*
%TD.AperFunction*%
%TO.P,C16,1*%
%TO.N,Net-(C16-Pad1)*%
%TA.AperFunction,SMDPad,CuDef*%
G36*
G01*
X177452000Y-99705500D02*
X178402000Y-99705500D01*
G75*
G02*
X178652000Y-99955500I0J-250000D01*
G01*
X178652000Y-100455500D01*
G75*
G02*
X178402000Y-100705500I-250000J0D01*
G01*
X177452000Y-100705500D01*
G75*
G02*
X177202000Y-100455500I0J250000D01*
G01*
X177202000Y-99955500D01*
G75*
G02*
X177452000Y-99705500I250000J0D01*
G01*
G37*
%TD.AperFunction*%
%TD*%
D11*
%TO.P,C17,1*%
%TO.N,+5V*%
X176085500Y-106275500D03*
D10*
%TO.P,C17,2*%
%TO.N,GND*%
X176085500Y-108775500D03*
%TD*%
%TO.P,C18,2*%
%TO.N,GND*%
X175958500Y-102449000D03*
D11*
%TO.P,C18,1*%
%TO.N,Net-(C16-Pad1)*%
X175958500Y-99949000D03*
%TD*%
%TO.P,C19,1*%
%TO.N,+5V*%
%TA.AperFunction,SMDPad,CuDef*%
G36*
G01*
X173451500Y-105738000D02*
X174401500Y-105738000D01*
G75*
G02*
X174651500Y-105988000I0J-250000D01*
G01*
X174651500Y-106488000D01*
G75*
G02*
X174401500Y-106738000I-250000J0D01*
G01*
X173451500Y-106738000D01*
G75*
G02*
X173201500Y-106488000I0J250000D01*
G01*
X173201500Y-105988000D01*
G75*
G02*
X173451500Y-105738000I250000J0D01*
G01*
G37*
%TD.AperFunction*%
%TO.P,C19,2*%
%TO.N,GND*%
%TA.AperFunction,SMDPad,CuDef*%
G36*
G01*
X173451500Y-107638000D02*
X174401500Y-107638000D01*
G75*
G02*
X174651500Y-107888000I0J-250000D01*
G01*
X174651500Y-108388000D01*
G75*
G02*
X174401500Y-108638000I-250000J0D01*
G01*
X173451500Y-108638000D01*
G75*
G02*
X173201500Y-108388000I0J250000D01*
G01*
X173201500Y-107888000D01*
G75*
G02*
X173451500Y-107638000I250000J0D01*
G01*
G37*
%TD.AperFunction*%
%TD*%
D12*
%TO.P,J1,1*%
%TO.N,GND*%
X174625000Y-71056500D03*
D13*
%TO.P,J1,2*%
%TO.N,Net-(J1-Pad2)*%
X177165000Y-71056500D03*
%TO.P,J1,3*%
%TO.N,+3V3*%
X179705000Y-71056500D03*
%TD*%
D14*
%TO.P,J2,4*%
%TO.N,+24V*%
X119888000Y-119380000D03*
%TO.P,J2,3*%
%TO.N,GND*%
X124968000Y-119380000D03*
%TO.P,J2,2*%
%TO.N,B*%
X130048000Y-119380000D03*
%TO.P,J2,1*%
%TO.N,A*%
%TA.AperFunction,ComponentPad*%
G36*
G01*
X136028000Y-117830000D02*
X136028000Y-120930000D01*
G75*
G02*
X135778000Y-121180000I-250000J0D01*
G01*
X134478000Y-121180000D01*
G75*
G02*
X134228000Y-120930000I0J250000D01*
G01*
X134228000Y-117830000D01*
G75*
G02*
X134478000Y-117580000I250000J0D01*
G01*
X135778000Y-117580000D01*
G75*
G02*
X136028000Y-117830000I0J-250000D01*
G01*
G37*
%TD.AperFunction*%
%TD*%
%TO.P,J3,1*%
%TO.N,A*%
%TA.AperFunction,ComponentPad*%
G36*
G01*
X136028000Y-73126000D02*
X136028000Y-76226000D01*
G75*
G02*
X135778000Y-76476000I-250000J0D01*
G01*
X134478000Y-76476000D01*
G75*
G02*
X134228000Y-76226000I0J250000D01*
G01*
X134228000Y-73126000D01*
G75*
G02*
X134478000Y-72876000I250000J0D01*
G01*
X135778000Y-72876000D01*
G75*
G02*
X136028000Y-73126000I0J-250000D01*
G01*
G37*
%TD.AperFunction*%
%TO.P,J3,2*%
%TO.N,B*%
X130048000Y-74676000D03*
%TO.P,J3,3*%
%TO.N,GND*%
X124968000Y-74676000D03*
%TO.P,J3,4*%
%TO.N,+24V*%
X119888000Y-74676000D03*
%TD*%
%TO.P,J5,1*%
%TO.N,+5V*%
%TA.AperFunction,ComponentPad*%
G36*
G01*
X185954000Y-103008000D02*
X182854000Y-103008000D01*
G75*
G02*
X182604000Y-102758000I0J250000D01*
G01*
X182604000Y-101458000D01*
G75*
G02*
X182854000Y-101208000I250000J0D01*
G01*
X185954000Y-101208000D01*
G75*
G02*
X186204000Y-101458000I0J-250000D01*
G01*
X186204000Y-102758000D01*
G75*
G02*
X185954000Y-103008000I-250000J0D01*
G01*
G37*
%TD.AperFunction*%
D15*
%TO.P,J5,2*%
%TO.N,RX*%
X184404000Y-97028000D03*
%TO.P,J5,3*%
%TO.N,TX*%
X184404000Y-91948000D03*
%TO.P,J5,4*%
%TO.N,GND*%
X184404000Y-86868000D03*
%TD*%
D16*
%TO.P,SW1,4*%
%TO.N,GND*%
X185792500Y-74462500D03*
%TO.P,SW1,3*%
X185792500Y-80962500D03*
%TO.P,SW1,2*%
%TO.N,NRST*%
X181292500Y-74462500D03*
%TO.P,SW1,1*%
X181292500Y-80962500D03*
%TD*%
D17*
%TO.P,Y1,1*%
%TO.N,Net-(C1-Pad1)*%
X150368000Y-77470000D03*
%TO.P,Y1,2*%
%TO.N,Net-(C2-Pad1)*%
X150368000Y-82350000D03*
%TD*%
D18*
%TO.P,Y2,1*%
%TO.N,Net-(C3-Pad1)*%
X154432000Y-72326500D03*
%TO.P,Y2,2*%
%TO.N,Net-(C8-Pad1)*%
X154432000Y-70426500D03*
%TD*%
D12*
%TO.P,J4,1*%
%TO.N,+3V3*%
X160782000Y-71056500D03*
D13*
%TO.P,J4,2*%
%TO.N,Net-(J4-Pad2)*%
X163322000Y-71056500D03*
%TO.P,J4,3*%
%TO.N,Net-(J4-Pad3)*%
X165862000Y-71056500D03*
%TO.P,J4,4*%
%TO.N,NRST*%
X168402000Y-71056500D03*
%TO.P,J4,5*%
%TO.N,GND*%
X170942000Y-71056500D03*
%TD*%
D12*
%TO.P,J6,1*%
%TO.N,GND*%
X141478000Y-83312000D03*
D13*
%TO.P,J6,2*%
%TO.N,Net-(J6-Pad2)*%
X144018000Y-83312000D03*
%TO.P,J6,3*%
%TO.N,GND*%
X141478000Y-80772000D03*
%TO.P,J6,4*%
%TO.N,Net-(J6-Pad4)*%
X144018000Y-80772000D03*
%TO.P,J6,5*%
%TO.N,GND*%
X141478000Y-78232000D03*
%TO.P,J6,6*%
%TO.N,Net-(J6-Pad6)*%
X144018000Y-78232000D03*
%TO.P,J6,7*%
%TO.N,GND*%
X141478000Y-75692000D03*
%TO.P,J6,8*%
%TO.N,Net-(J6-Pad8)*%
X144018000Y-75692000D03*
%TD*%
D12*
%TO.P,J7,1*%
%TO.N,GND*%
X168910000Y-92710000D03*
D13*
%TO.P,J7,2*%
%TO.N,Net-(J7-Pad2)*%
X166370000Y-92710000D03*
%TO.P,J7,3*%
%TO.N,+3V3*%
X163830000Y-92710000D03*
%TD*%
D19*
%TO.N,GND*%
X156438600Y-78994000D03*
X156489400Y-80162400D03*
X146075400Y-89687400D03*
X141859000Y-99491800D03*
X149987000Y-99314000D03*
X165354000Y-89458800D03*
X160426401Y-75590401D03*
X162458400Y-78282800D03*
X160020000Y-118110000D03*
X146304000Y-111252000D03*
X148844000Y-111252000D03*
X146304000Y-108966000D03*
X148844000Y-108966000D03*
X146304000Y-106680000D03*
X148844000Y-106426000D03*
X146304000Y-104394000D03*
X148844000Y-104394000D03*
X162306000Y-104140000D03*
X164338000Y-104140000D03*
X162306000Y-106426000D03*
X164338000Y-106426000D03*
X162306000Y-108458000D03*
X164338000Y-108204000D03*
X147828000Y-121666000D03*
X149098000Y-121666000D03*
X148590000Y-125984000D03*
X150622000Y-125984000D03*
X164084000Y-80518000D03*
X175260000Y-77724000D03*
X172720000Y-73406000D03*
X162052000Y-96012000D03*
X162052000Y-97282000D03*
X162052000Y-98806000D03*
X160528000Y-98806000D03*
X159004000Y-98806000D03*
X157480000Y-98806000D03*
X155702000Y-98806000D03*
X138684000Y-96520000D03*
X138684000Y-98044000D03*
X138684000Y-99314000D03*
X138684000Y-90932000D03*
X138684000Y-89408000D03*
X138684000Y-87884000D03*
X138684000Y-86360000D03*
X138684000Y-84836000D03*
X138684000Y-83058000D03*
X138684000Y-81280000D03*
X138684000Y-79756000D03*
X138684000Y-78232000D03*
X138684000Y-76708000D03*
X138684000Y-75184000D03*
X138684000Y-73660000D03*
X138684000Y-71882000D03*
X138684000Y-70104000D03*
X140208000Y-70104000D03*
X141732000Y-70104000D03*
X143256000Y-70104000D03*
X144526000Y-70104000D03*
X146050000Y-70104000D03*
X147574000Y-70104000D03*
X149098000Y-70104000D03*
X150622000Y-70104000D03*
X189484000Y-73914000D03*
X189484000Y-75438000D03*
X189484000Y-76962000D03*
X189484000Y-78486000D03*
X189484000Y-80010000D03*
X189484000Y-81788000D03*
X189484000Y-83566000D03*
X189484000Y-85344000D03*
X189484000Y-87122000D03*
%TO.N,+3V3*%
X175945800Y-91389200D03*
X177101500Y-83654900D03*
X164769800Y-73533000D03*
X176010250Y-76696250D03*
%TO.N,NRST*%
X162788600Y-79466102D03*
%TO.N,RO*%
X159512000Y-90932000D03*
X158496000Y-94996000D03*
%TO.N,B*%
X137138400Y-94027000D03*
X130051800Y-94027000D03*
%TO.N,Net-(J4-Pad2)*%
X163626800Y-78181200D03*
%TO.N,Net-(J6-Pad2)*%
X171704000Y-83566000D03*
%TO.N,Net-(J6-Pad4)*%
X173228000Y-83058000D03*
%TO.N,Net-(J6-Pad6)*%
X173228000Y-81534000D03*
%TO.N,Net-(J6-Pad8)*%
X171704000Y-81280000D03*
X174498000Y-90678000D03*
%TO.N,Net-(J7-Pad2)*%
X164084000Y-89662000D03*
%TD*%
D20*
%TO.N,GND*%
X176302000Y-102105500D02*
X175958500Y-102449000D01*
X177927000Y-102105500D02*
X176302000Y-102105500D01*
X175448000Y-108138000D02*
X176085500Y-108775500D01*
X173926500Y-108138000D02*
X175448000Y-108138000D01*
D21*
X181605000Y-119375000D02*
X180340000Y-120640000D01*
X182626000Y-119375000D02*
X181605000Y-119375000D01*
D22*
%TO.N,+3V3*%
X179705000Y-71056500D02*
X182384700Y-71056500D01*
X182384700Y-71056500D02*
X183565800Y-72237600D01*
X183565800Y-72237600D02*
X183565800Y-82245200D01*
X183565800Y-82245200D02*
X182727600Y-83083400D01*
X182727600Y-83083400D02*
X177673000Y-83083400D01*
X175945800Y-84810600D02*
X175945800Y-91389200D01*
X177101500Y-83654900D02*
X175945800Y-84810600D01*
X177673000Y-83083400D02*
X177101500Y-83654900D01*
X164769800Y-73533000D02*
X168173400Y-76936600D01*
X168173400Y-76936600D02*
X168325800Y-77089000D01*
X172416750Y-76696250D02*
X176010250Y-76696250D01*
X171599000Y-77514000D02*
X172416750Y-76696250D01*
X168750800Y-77514000D02*
X171599000Y-77514000D01*
X168173400Y-76936600D02*
X168750800Y-77514000D01*
D23*
%TO.N,NRST*%
X168402000Y-71056500D02*
X168402000Y-72948800D01*
X169915700Y-74462500D02*
X181292500Y-74462500D01*
X168402000Y-72948800D02*
X169915700Y-74462500D01*
D22*
X179796102Y-79466102D02*
X181292500Y-80962500D01*
X162788600Y-79466102D02*
X179796102Y-79466102D01*
D21*
%TO.N,Net-(C12-Pad1)*%
X180975000Y-117475000D02*
X180340000Y-116840000D01*
X182626000Y-117475000D02*
X180975000Y-117475000D01*
D20*
%TO.N,+24V*%
X119888000Y-74676000D02*
X119888000Y-119380000D01*
%TO.N,Net-(C16-Pad1)*%
X176215000Y-100205500D02*
X175958500Y-99949000D01*
X177927000Y-100205500D02*
X176215000Y-100205500D01*
%TO.N,+5V*%
X176048000Y-106238000D02*
X176085500Y-106275500D01*
X173926500Y-106238000D02*
X176048000Y-106238000D01*
D22*
%TO.N,RO*%
X159512000Y-90932000D02*
X158496000Y-91948000D01*
X158496000Y-91948000D02*
X158496000Y-94996000D01*
D21*
%TO.N,B*%
X137138400Y-94027000D02*
X130051800Y-94027000D01*
D22*
%TO.N,Net-(J4-Pad2)*%
X163626800Y-71361300D02*
X163322000Y-71056500D01*
X163626800Y-78181200D02*
X163626800Y-71361300D01*
%TO.N,Net-(J6-Pad2)*%
X165608000Y-86106000D02*
X148844000Y-86106000D01*
X168656000Y-83058000D02*
X165608000Y-86106000D01*
X171196000Y-83058000D02*
X168656000Y-83058000D01*
X171704000Y-83566000D02*
X171196000Y-83058000D01*
X146050000Y-83312000D02*
X144018000Y-83312000D01*
X148844000Y-86106000D02*
X146050000Y-83312000D01*
%TO.N,Net-(J6-Pad4)*%
X173228000Y-83058000D02*
X172720000Y-82550000D01*
X172720000Y-82550000D02*
X168402000Y-82550000D01*
X144146410Y-80772000D02*
X144018000Y-80772000D01*
X149030399Y-85655989D02*
X144146410Y-80772000D01*
X165296011Y-85655989D02*
X149030399Y-85655989D01*
X168402000Y-82550000D02*
X165296011Y-85655989D01*
%TO.N,Net-(J6-Pad6)*%
X172756999Y-82005001D02*
X173228000Y-81534000D01*
X144018000Y-78232000D02*
X146558000Y-80772000D01*
X146558000Y-80772000D02*
X146558000Y-82547178D01*
X165109612Y-85205978D02*
X168310589Y-82005001D01*
X149216798Y-85205978D02*
X165109612Y-85205978D01*
X168310589Y-82005001D02*
X172756999Y-82005001D01*
X146558000Y-82547178D02*
X149216798Y-85205978D01*
%TO.N,Net-(J6-Pad8)*%
X144867999Y-76541999D02*
X144018000Y-75692000D01*
X171704000Y-81280000D02*
X168399180Y-81280000D01*
X147008010Y-78682010D02*
X144867999Y-76541999D01*
X168399180Y-81280000D02*
X164923213Y-84755967D01*
X147008010Y-82360779D02*
X147008010Y-78682010D01*
X149403197Y-84755967D02*
X147008010Y-82360779D01*
X164923213Y-84755967D02*
X149403197Y-84755967D01*
X172175001Y-80808999D02*
X174534999Y-80808999D01*
X171704000Y-81280000D02*
X172175001Y-80808999D01*
X174534999Y-80808999D02*
X175260000Y-81534000D01*
X175260000Y-81534000D02*
X175260000Y-84328000D01*
X175260000Y-84328000D02*
X174752000Y-84836000D01*
X174752000Y-84836000D02*
X174752000Y-87122000D01*
X174752000Y-87122000D02*
X174752000Y-90424000D01*
X174752000Y-90424000D02*
X174498000Y-90678000D01*
%TO.N,Net-(J7-Pad2)*%
X164084000Y-90424000D02*
X166370000Y-92710000D01*
X164084000Y-89662000D02*
X164084000Y-90424000D01*
%TD*%
D24*
%TO.N,GND*%
X186509500Y-69352560D02*
X186192560Y-69669500D01*
X185943543Y-70042181D01*
X185772016Y-70456282D01*
X185684573Y-70895890D01*
X185684573Y-71344110D01*
X185772016Y-71783718D01*
X185943543Y-72197819D01*
X186192560Y-72570500D01*
X186509500Y-72887440D01*
X186882181Y-73136457D01*
X187296282Y-73307984D01*
X187735890Y-73395427D01*
X188184110Y-73395427D01*
X188623718Y-73307984D01*
X189037819Y-73136457D01*
X189410500Y-72887440D01*
X189727440Y-72570500D01*
X189840001Y-72402040D01*
X189840001Y-88773000D01*
X180340000Y-88773000D01*
X180315224Y-88775440D01*
X180291399Y-88782667D01*
X180269443Y-88794403D01*
X180250197Y-88810197D01*
X180234403Y-88829443D01*
X180222667Y-88851399D01*
X180215440Y-88875224D01*
X180213000Y-88900000D01*
X180213000Y-93853000D01*
X170323407Y-93853000D01*
X170349502Y-93804180D01*
X170385812Y-93684482D01*
X170398072Y-93560000D01*
X170395000Y-92995750D01*
X170236250Y-92837000D01*
X169037000Y-92837000D01*
X169037000Y-92857000D01*
X168783000Y-92857000D01*
X168783000Y-92837000D01*
X168763000Y-92837000D01*
X168763000Y-92583000D01*
X168783000Y-92583000D01*
X168783000Y-91383750D01*
X169037000Y-91383750D01*
X169037000Y-92583000D01*
X170236250Y-92583000D01*
X170395000Y-92424250D01*
X170398072Y-91860000D01*
X170385812Y-91735518D01*
X170349502Y-91615820D01*
X170290537Y-91505506D01*
X170211185Y-91408815D01*
X170114494Y-91329463D01*
X170004180Y-91270498D01*
X169884482Y-91234188D01*
X169760000Y-91221928D01*
X169195750Y-91225000D01*
X169037000Y-91383750D01*
X168783000Y-91383750D01*
X168624250Y-91225000D01*
X168060000Y-91221928D01*
X167935518Y-91234188D01*
X167815820Y-91270498D01*
X167705506Y-91329463D01*
X167608815Y-91408815D01*
X167529463Y-91505506D01*
X167470498Y-91615820D01*
X167448487Y-91688380D01*
X167316632Y-91556525D01*
X167073411Y-91394010D01*
X166803158Y-91282068D01*
X166516260Y-91225000D01*
X166223740Y-91225000D01*
X166003592Y-91268790D01*
X164955484Y-90220683D01*
X165001205Y-90152256D01*
X165079226Y-89963898D01*
X165119000Y-89763939D01*
X165119000Y-89560061D01*
X165079226Y-89360102D01*
X165001205Y-89171744D01*
X164887937Y-89002226D01*
X164743774Y-88858063D01*
X164574256Y-88744795D01*
X164385898Y-88666774D01*
X164185939Y-88627000D01*
X163982061Y-88627000D01*
X163782102Y-88666774D01*
X163593744Y-88744795D01*
X163424226Y-88858063D01*
X163280063Y-89002226D01*
X163166795Y-89171744D01*
X163088774Y-89360102D01*
X163049000Y-89560061D01*
X163049000Y-89763939D01*
X163088774Y-89963898D01*
X163166795Y-90152256D01*
X163280063Y-90321774D01*
X163324000Y-90365711D01*
X163324000Y-90386678D01*
X163320324Y-90424000D01*
X163324000Y-90461322D01*
X163324000Y-90461333D01*
X163334997Y-90572986D01*
X163355251Y-90639754D01*
X163378454Y-90716246D01*
X163449026Y-90848276D01*
X163490609Y-90898944D01*
X163544000Y-90964001D01*
X163572998Y-90987799D01*
X163810199Y-91225000D01*
X163683740Y-91225000D01*
X163396842Y-91282068D01*
X163126589Y-91394010D01*
X162883368Y-91556525D01*
X162676525Y-91763368D01*
X162514010Y-92006589D01*
X162402068Y-92276842D01*
X162345000Y-92563740D01*
X162345000Y-92856260D01*
X162402068Y-93143158D01*
X162514010Y-93413411D01*
X162676525Y-93656632D01*
X162872893Y-93853000D01*
X162560000Y-93853000D01*
X162535224Y-93855440D01*
X162511399Y-93862667D01*
X162489443Y-93874403D01*
X162470197Y-93890197D01*
X162454403Y-93909443D01*
X162442667Y-93931399D01*
X162435440Y-93955224D01*
X162433000Y-93980000D01*
X162433000Y-99695000D01*
X127000000Y-99695000D01*
X126975224Y-99697440D01*
X126951399Y-99704667D01*
X126929443Y-99716403D01*
X126910197Y-99732197D01*
X126894403Y-99751443D01*
X126882667Y-99773399D01*
X126875440Y-99797224D01*
X126873000Y-99822000D01*
X126873000Y-121539000D01*
X125842351Y-121539000D01*
X125963606Y-121455210D01*
X126173748Y-121238396D01*
X126337554Y-120984751D01*
X126448729Y-120704023D01*
X126503000Y-120407000D01*
X126503000Y-119507000D01*
X125095000Y-119507000D01*
X125095000Y-119527000D01*
X124841000Y-119527000D01*
X124841000Y-119507000D01*
X123433000Y-119507000D01*
X123433000Y-120407000D01*
X123487271Y-120704023D01*
X123598446Y-120984751D01*
X123762252Y-121238396D01*
X123972394Y-121455210D01*
X124093649Y-121539000D01*
X122808394Y-121539000D01*
X122793151Y-118353000D01*
X123433000Y-118353000D01*
X123433000Y-119253000D01*
X124841000Y-119253000D01*
X124841000Y-117109622D01*
X125095000Y-117109622D01*
X125095000Y-119253000D01*
X126503000Y-119253000D01*
X126503000Y-118353000D01*
X126448729Y-118055977D01*
X126337554Y-117775249D01*
X126173748Y-117521604D01*
X125963606Y-117304790D01*
X125715204Y-117133138D01*
X125438087Y-117013245D01*
X125332740Y-116988964D01*
X125095000Y-117109622D01*
X124841000Y-117109622D01*
X124603260Y-116988964D01*
X124497913Y-117013245D01*
X124220796Y-117133138D01*
X123972394Y-117304790D01*
X123762252Y-117521604D01*
X123598446Y-117775249D01*
X123487271Y-118055977D01*
X123433000Y-118353000D01*
X122793151Y-118353000D01*
X122676272Y-93925061D01*
X129016800Y-93925061D01*
X129016800Y-94128939D01*
X129056574Y-94328898D01*
X129134595Y-94517256D01*
X129247863Y-94686774D01*
X129392026Y-94830937D01*
X129561544Y-94944205D01*
X129749902Y-95022226D01*
X129949861Y-95062000D01*
X130153739Y-95062000D01*
X130353698Y-95022226D01*
X130542056Y-94944205D01*
X130560322Y-94932000D01*
X136629878Y-94932000D01*
X136648144Y-94944205D01*
X136836502Y-95022226D01*
X137036461Y-95062000D01*
X137240339Y-95062000D01*
X137440298Y-95022226D01*
X137628656Y-94944205D01*
X137703702Y-94894061D01*
X157461000Y-94894061D01*
X157461000Y-95097939D01*
X157500774Y-95297898D01*
X157578795Y-95486256D01*
X157692063Y-95655774D01*
X157836226Y-95799937D01*
X158005744Y-95913205D01*
X158194102Y-95991226D01*
X158394061Y-96031000D01*
X158597939Y-96031000D01*
X158797898Y-95991226D01*
X158986256Y-95913205D01*
X159155774Y-95799937D01*
X159299937Y-95655774D01*
X159413205Y-95486256D01*
X159491226Y-95297898D01*
X159531000Y-95097939D01*
X159531000Y-94894061D01*
X159491226Y-94694102D01*
X159413205Y-94505744D01*
X159299937Y-94336226D01*
X159256000Y-94292289D01*
X159256000Y-92262801D01*
X159551802Y-91967000D01*
X159613939Y-91967000D01*
X159813898Y-91927226D01*
X160002256Y-91849205D01*
X160171774Y-91735937D01*
X160315937Y-91591774D01*
X160429205Y-91422256D01*
X160507226Y-91233898D01*
X160547000Y-91033939D01*
X160547000Y-90830061D01*
X160507226Y-90630102D01*
X160429205Y-90441744D01*
X160315937Y-90272226D01*
X160171774Y-90128063D01*
X160002256Y-90014795D01*
X159813898Y-89936774D01*
X159613939Y-89897000D01*
X159410061Y-89897000D01*
X159210102Y-89936774D01*
X159021744Y-90014795D01*
X158852226Y-90128063D01*
X158708063Y-90272226D01*
X158594795Y-90441744D01*
X158516774Y-90630102D01*
X158477000Y-90830061D01*
X158477000Y-90892198D01*
X157985002Y-91384196D01*
X157955999Y-91407999D01*
X157900871Y-91475174D01*
X157861026Y-91523724D01*
X157811799Y-91615820D01*
X157790454Y-91655754D01*
X157746997Y-91799015D01*
X157736000Y-91910668D01*
X157736000Y-91910678D01*
X157732324Y-91948000D01*
X157736000Y-91985323D01*
X157736001Y-94292288D01*
X157692063Y-94336226D01*
X157578795Y-94505744D01*
X157500774Y-94694102D01*
X157461000Y-94894061D01*
X137703702Y-94894061D01*
X137798174Y-94830937D01*
X137942337Y-94686774D01*
X138055605Y-94517256D01*
X138133626Y-94328898D01*
X138173400Y-94128939D01*
X138173400Y-93925061D01*
X138133626Y-93725102D01*
X138055605Y-93536744D01*
X137942337Y-93367226D01*
X137798174Y-93223063D01*
X137628656Y-93109795D01*
X137440298Y-93031774D01*
X137240339Y-92992000D01*
X137036461Y-92992000D01*
X136836502Y-93031774D01*
X136648144Y-93109795D01*
X136629878Y-93122000D01*
X130560322Y-93122000D01*
X130542056Y-93109795D01*
X130353698Y-93031774D01*
X130153739Y-92992000D01*
X129949861Y-92992000D01*
X129749902Y-93031774D01*
X129561544Y-93109795D01*
X129392026Y-93223063D01*
X129247863Y-93367226D01*
X129134595Y-93536744D01*
X129056574Y-93725102D01*
X129016800Y-93925061D01*
X122676272Y-93925061D01*
X122629559Y-84162000D01*
X139989928Y-84162000D01*
X140002188Y-84286482D01*
X140038498Y-84406180D01*
X140097463Y-84516494D01*
X140176815Y-84613185D01*
X140273506Y-84692537D01*
X140383820Y-84751502D01*
X140503518Y-84787812D01*
X140628000Y-84800072D01*
X141192250Y-84797000D01*
X141351000Y-84638250D01*
X141351000Y-83439000D01*
X140151750Y-83439000D01*
X139993000Y-83597750D01*
X139989928Y-84162000D01*
X122629559Y-84162000D01*
X122621425Y-82462000D01*
X139989928Y-82462000D01*
X139993000Y-83026250D01*
X140151750Y-83185000D01*
X141351000Y-83185000D01*
X141351000Y-80899000D01*
X140157845Y-80899000D01*
X140036524Y-81128890D01*
X140081175Y-81276099D01*
X140206359Y-81538920D01*
X140380412Y-81772269D01*
X140464466Y-81848034D01*
X140383820Y-81872498D01*
X140273506Y-81931463D01*
X140176815Y-82010815D01*
X140097463Y-82107506D01*
X140038498Y-82217820D01*
X140002188Y-82337518D01*
X139989928Y-82462000D01*
X122621425Y-82462000D01*
X122602893Y-78588890D01*
X140036524Y-78588890D01*
X140081175Y-78736099D01*
X140206359Y-78998920D01*
X140380412Y-79232269D01*
X140596645Y-79427178D01*
X140722255Y-79502000D01*
X140596645Y-79576822D01*
X140380412Y-79771731D01*
X140206359Y-80005080D01*
X140081175Y-80267901D01*
X140036524Y-80415110D01*
X140157845Y-80645000D01*
X141351000Y-80645000D01*
X141351000Y-78359000D01*
X140157845Y-78359000D01*
X140036524Y-78588890D01*
X122602893Y-78588890D01*
X122584778Y-74803000D01*
X123433000Y-74803000D01*
X123433000Y-75703000D01*
X123487271Y-76000023D01*
X123598446Y-76280751D01*
X123762252Y-76534396D01*
X123972394Y-76751210D01*
X124220796Y-76922862D01*
X124497913Y-77042755D01*
X124603260Y-77067036D01*
X124841000Y-76946378D01*
X124841000Y-74803000D01*
X125095000Y-74803000D01*
X125095000Y-76946378D01*
X125332740Y-77067036D01*
X125438087Y-77042755D01*
X125715204Y-76922862D01*
X125963606Y-76751210D01*
X126173748Y-76534396D01*
X126337554Y-76280751D01*
X126448729Y-76000023D01*
X126503000Y-75703000D01*
X126503000Y-74803000D01*
X125095000Y-74803000D01*
X124841000Y-74803000D01*
X123433000Y-74803000D01*
X122584778Y-74803000D01*
X122579257Y-73649000D01*
X123433000Y-73649000D01*
X123433000Y-74549000D01*
X124841000Y-74549000D01*
X124841000Y-72405622D01*
X125095000Y-72405622D01*
X125095000Y-74549000D01*
X126503000Y-74549000D01*
X126503000Y-73700592D01*
X128513000Y-73700592D01*
X128513000Y-75651407D01*
X128535210Y-75876912D01*
X128622983Y-76166260D01*
X128765519Y-76432926D01*
X128957339Y-76666661D01*
X129191073Y-76858481D01*
X129457739Y-77001017D01*
X129747087Y-77088790D01*
X130048000Y-77118427D01*
X130348912Y-77088790D01*
X130638260Y-77001017D01*
X130904926Y-76858481D01*
X131138661Y-76666661D01*
X131330481Y-76432927D01*
X131473017Y-76166261D01*
X131560790Y-75876913D01*
X131583000Y-75651408D01*
X131583000Y-73700592D01*
X131560790Y-73475087D01*
X131473017Y-73185739D01*
X131441086Y-73126000D01*
X133589928Y-73126000D01*
X133589928Y-76226000D01*
X133606992Y-76399254D01*
X133657528Y-76565850D01*
X133739595Y-76719386D01*
X133850038Y-76853962D01*
X133984614Y-76964405D01*
X134138150Y-77046472D01*
X134304746Y-77097008D01*
X134478000Y-77114072D01*
X135778000Y-77114072D01*
X135951254Y-77097008D01*
X136117850Y-77046472D01*
X136271386Y-76964405D01*
X136405962Y-76853962D01*
X136516405Y-76719386D01*
X136598472Y-76565850D01*
X136649008Y-76399254D01*
X136666072Y-76226000D01*
X136666072Y-76048890D01*
X140036524Y-76048890D01*
X140081175Y-76196099D01*
X140206359Y-76458920D01*
X140380412Y-76692269D01*
X140596645Y-76887178D01*
X140722255Y-76962000D01*
X140596645Y-77036822D01*
X140380412Y-77231731D01*
X140206359Y-77465080D01*
X140081175Y-77727901D01*
X140036524Y-77875110D01*
X140157845Y-78105000D01*
X141351000Y-78105000D01*
X141351000Y-75819000D01*
X140157845Y-75819000D01*
X140036524Y-76048890D01*
X136666072Y-76048890D01*
X136666072Y-75335110D01*
X140036524Y-75335110D01*
X140157845Y-75565000D01*
X141351000Y-75565000D01*
X141351000Y-74371186D01*
X141605000Y-74371186D01*
X141605000Y-75565000D01*
X141625000Y-75565000D01*
X141625000Y-75819000D01*
X141605000Y-75819000D01*
X141605000Y-78105000D01*
X141625000Y-78105000D01*
X141625000Y-78359000D01*
X141605000Y-78359000D01*
X141605000Y-80645000D01*
X141625000Y-80645000D01*
X141625000Y-80899000D01*
X141605000Y-80899000D01*
X141605000Y-83185000D01*
X141625000Y-83185000D01*
X141625000Y-83439000D01*
X141605000Y-83439000D01*
X141605000Y-84638250D01*
X141763750Y-84797000D01*
X142328000Y-84800072D01*
X142452482Y-84787812D01*
X142572180Y-84751502D01*
X142682494Y-84692537D01*
X142779185Y-84613185D01*
X142858537Y-84516494D01*
X142917502Y-84406180D01*
X142939513Y-84333620D01*
X143071368Y-84465475D01*
X143314589Y-84627990D01*
X143584842Y-84739932D01*
X143871740Y-84797000D01*
X144164260Y-84797000D01*
X144451158Y-84739932D01*
X144721411Y-84627990D01*
X144964632Y-84465475D01*
X145171475Y-84258632D01*
X145296178Y-84072000D01*
X145735199Y-84072000D01*
X148280201Y-86617003D01*
X148303999Y-86646001D01*
X148419724Y-86740974D01*
X148551753Y-86811546D01*
X148695014Y-86855003D01*
X148806667Y-86866000D01*
X148806675Y-86866000D01*
X148844000Y-86869676D01*
X148881325Y-86866000D01*
X165570678Y-86866000D01*
X165608000Y-86869676D01*
X165645322Y-86866000D01*
X165645333Y-86866000D01*
X165756986Y-86855003D01*
X165900247Y-86811546D01*
X166032276Y-86740974D01*
X166148001Y-86646001D01*
X166171804Y-86616997D01*
X168970802Y-83818000D01*
X170698849Y-83818000D01*
X170708774Y-83867898D01*
X170786795Y-84056256D01*
X170900063Y-84225774D01*
X171044226Y-84369937D01*
X171213744Y-84483205D01*
X171402102Y-84561226D01*
X171602061Y-84601000D01*
X171805939Y-84601000D01*
X172005898Y-84561226D01*
X172194256Y-84483205D01*
X172363774Y-84369937D01*
X172507937Y-84225774D01*
X172621205Y-84056256D01*
X172672763Y-83931786D01*
X172737744Y-83975205D01*
X172926102Y-84053226D01*
X173126061Y-84093000D01*
X173329939Y-84093000D01*
X173529898Y-84053226D01*
X173718256Y-83975205D01*
X173887774Y-83861937D01*
X174031937Y-83717774D01*
X174145205Y-83548256D01*
X174223226Y-83359898D01*
X174263000Y-83159939D01*
X174263000Y-82956061D01*
X174223226Y-82756102D01*
X174145205Y-82567744D01*
X174031937Y-82398226D01*
X173929711Y-82296000D01*
X174031937Y-82193774D01*
X174145205Y-82024256D01*
X174223226Y-81835898D01*
X174263000Y-81635939D01*
X174263000Y-81611801D01*
X174500000Y-81848802D01*
X174500001Y-84013198D01*
X174241002Y-84272197D01*
X174211999Y-84295999D01*
X174182708Y-84331691D01*
X174117026Y-84411724D01*
X174069610Y-84500432D01*
X174046454Y-84543754D01*
X174002997Y-84687015D01*
X173992000Y-84798668D01*
X173992000Y-84798678D01*
X173988324Y-84836000D01*
X173992000Y-84873323D01*
X173992001Y-87084658D01*
X173992000Y-87084668D01*
X173992001Y-89771314D01*
X173838226Y-89874063D01*
X173694063Y-90018226D01*
X173580795Y-90187744D01*
X173502774Y-90376102D01*
X173463000Y-90576061D01*
X173463000Y-90779939D01*
X173502774Y-90979898D01*
X173580795Y-91168256D01*
X173694063Y-91337774D01*
X173838226Y-91481937D01*
X174007744Y-91595205D01*
X174196102Y-91673226D01*
X174396061Y-91713000D01*
X174599939Y-91713000D01*
X174799898Y-91673226D01*
X174935820Y-91616925D01*
X174950574Y-91691098D01*
X175028595Y-91879456D01*
X175141863Y-92048974D01*
X175286026Y-92193137D01*
X175455544Y-92306405D01*
X175643902Y-92384426D01*
X175843861Y-92424200D01*
X176047739Y-92424200D01*
X176247698Y-92384426D01*
X176436056Y-92306405D01*
X176605574Y-92193137D01*
X176749737Y-92048974D01*
X176863005Y-91879456D01*
X176941026Y-91691098D01*
X176980800Y-91491139D01*
X176980800Y-91287261D01*
X176941026Y-91087302D01*
X176863005Y-90898944D01*
X176749737Y-90729426D01*
X176705800Y-90685489D01*
X176705800Y-87232740D01*
X182012964Y-87232740D01*
X182037245Y-87338087D01*
X182157138Y-87615204D01*
X182328790Y-87863606D01*
X182545604Y-88073748D01*
X182799249Y-88237554D01*
X183079977Y-88348729D01*
X183377000Y-88403000D01*
X184277000Y-88403000D01*
X184277000Y-86995000D01*
X184531000Y-86995000D01*
X184531000Y-88403000D01*
X185431000Y-88403000D01*
X185728023Y-88348729D01*
X186008751Y-88237554D01*
X186262396Y-88073748D01*
X186479210Y-87863606D01*
X186650862Y-87615204D01*
X186770755Y-87338087D01*
X186795036Y-87232740D01*
X186674378Y-86995000D01*
X184531000Y-86995000D01*
X184277000Y-86995000D01*
X182133622Y-86995000D01*
X182012964Y-87232740D01*
X176705800Y-87232740D01*
X176705800Y-86503260D01*
X182012964Y-86503260D01*
X182133622Y-86741000D01*
X184277000Y-86741000D01*
X184277000Y-85333000D01*
X184531000Y-85333000D01*
X184531000Y-86741000D01*
X186674378Y-86741000D01*
X186795036Y-86503260D01*
X186770755Y-86397913D01*
X186650862Y-86120796D01*
X186479210Y-85872394D01*
X186262396Y-85662252D01*
X186008751Y-85498446D01*
X185728023Y-85387271D01*
X185431000Y-85333000D01*
X184531000Y-85333000D01*
X184277000Y-85333000D01*
X183377000Y-85333000D01*
X183079977Y-85387271D01*
X182799249Y-85498446D01*
X182545604Y-85662252D01*
X182328790Y-85872394D01*
X182157138Y-86120796D01*
X182037245Y-86397913D01*
X182012964Y-86503260D01*
X176705800Y-86503260D01*
X176705800Y-85125401D01*
X177141302Y-84689900D01*
X177203439Y-84689900D01*
X177403398Y-84650126D01*
X177591756Y-84572105D01*
X177761274Y-84458837D01*
X177905437Y-84314674D01*
X178018705Y-84145156D01*
X178096726Y-83956798D01*
X178119282Y-83843400D01*
X182690278Y-83843400D01*
X182727600Y-83847076D01*
X182764922Y-83843400D01*
X182764933Y-83843400D01*
X182876586Y-83832403D01*
X183019847Y-83788946D01*
X183151876Y-83718374D01*
X183267601Y-83623401D01*
X183291403Y-83594398D01*
X184076803Y-82808999D01*
X184105801Y-82785201D01*
X184200774Y-82669476D01*
X184271346Y-82537447D01*
X184314803Y-82394186D01*
X184325800Y-82282533D01*
X184325800Y-82282523D01*
X184329476Y-82245200D01*
X184325800Y-82207877D01*
X184325800Y-81990897D01*
X184943708Y-81990897D01*
X185021343Y-82239972D01*
X185285383Y-82365871D01*
X185568911Y-82437839D01*
X185861031Y-82453111D01*
X186150519Y-82411099D01*
X186426247Y-82313419D01*
X186563657Y-82239972D01*
X186641292Y-81990897D01*
X185792500Y-81142105D01*
X184943708Y-81990897D01*
X184325800Y-81990897D01*
X184325800Y-81195792D01*
X184343901Y-81320519D01*
X184441581Y-81596247D01*
X184515028Y-81733657D01*
X184764103Y-81811292D01*
X185612895Y-80962500D01*
X185972105Y-80962500D01*
X186820897Y-81811292D01*
X187069972Y-81733657D01*
X187195871Y-81469617D01*
X187267839Y-81186089D01*
X187283111Y-80893969D01*
X187241099Y-80604481D01*
X187143419Y-80328753D01*
X187069972Y-80191343D01*
X186820897Y-80113708D01*
X185972105Y-80962500D01*
X185612895Y-80962500D01*
X184764103Y-80113708D01*
X184515028Y-80191343D01*
X184389129Y-80455383D01*
X184325800Y-80704876D01*
X184325800Y-79934103D01*
X184943708Y-79934103D01*
X185792500Y-80782895D01*
X186641292Y-79934103D01*
X186563657Y-79685028D01*
X186299617Y-79559129D01*
X186016089Y-79487161D01*
X185723969Y-79471889D01*
X185434481Y-79513901D01*
X185158753Y-79611581D01*
X185021343Y-79685028D01*
X184943708Y-79934103D01*
X184325800Y-79934103D01*
X184325800Y-75490897D01*
X184943708Y-75490897D01*
X185021343Y-75739972D01*
X185285383Y-75865871D01*
X185568911Y-75937839D01*
X185861031Y-75953111D01*
X186150519Y-75911099D01*
X186426247Y-75813419D01*
X186563657Y-75739972D01*
X186641292Y-75490897D01*
X185792500Y-74642105D01*
X184943708Y-75490897D01*
X184325800Y-75490897D01*
X184325800Y-74695792D01*
X184343901Y-74820519D01*
X184441581Y-75096247D01*
X184515028Y-75233657D01*
X184764103Y-75311292D01*
X185612895Y-74462500D01*
X185972105Y-74462500D01*
X186820897Y-75311292D01*
X187069972Y-75233657D01*
X187195871Y-74969617D01*
X187267839Y-74686089D01*
X187283111Y-74393969D01*
X187241099Y-74104481D01*
X187143419Y-73828753D01*
X187069972Y-73691343D01*
X186820897Y-73613708D01*
X185972105Y-74462500D01*
X185612895Y-74462500D01*
X184764103Y-73613708D01*
X184515028Y-73691343D01*
X184389129Y-73955383D01*
X184325800Y-74204876D01*
X184325800Y-73434103D01*
X184943708Y-73434103D01*
X185792500Y-74282895D01*
X186641292Y-73434103D01*
X186563657Y-73185028D01*
X186299617Y-73059129D01*
X186016089Y-72987161D01*
X185723969Y-72971889D01*
X185434481Y-73013901D01*
X185158753Y-73111581D01*
X185021343Y-73185028D01*
X184943708Y-73434103D01*
X184325800Y-73434103D01*
X184325800Y-72274925D01*
X184329476Y-72237600D01*
X184325800Y-72200275D01*
X184325800Y-72200267D01*
X184314803Y-72088614D01*
X184271346Y-71945353D01*
X184200774Y-71813324D01*
X184105801Y-71697599D01*
X184076804Y-71673802D01*
X182948504Y-70545503D01*
X182924701Y-70516499D01*
X182808976Y-70421526D01*
X182676947Y-70350954D01*
X182533686Y-70307497D01*
X182422033Y-70296500D01*
X182422022Y-70296500D01*
X182384700Y-70292824D01*
X182347378Y-70296500D01*
X180983178Y-70296500D01*
X180858475Y-70109868D01*
X180651632Y-69903025D01*
X180408411Y-69740510D01*
X180138158Y-69628568D01*
X179851260Y-69571500D01*
X179558740Y-69571500D01*
X179271842Y-69628568D01*
X179001589Y-69740510D01*
X178758368Y-69903025D01*
X178551525Y-70109868D01*
X178435000Y-70284260D01*
X178318475Y-70109868D01*
X178111632Y-69903025D01*
X177868411Y-69740510D01*
X177598158Y-69628568D01*
X177311260Y-69571500D01*
X177018740Y-69571500D01*
X176731842Y-69628568D01*
X176461589Y-69740510D01*
X176218368Y-69903025D01*
X176086513Y-70034880D01*
X176064502Y-69962320D01*
X176005537Y-69852006D01*
X175926185Y-69755315D01*
X175829494Y-69675963D01*
X175719180Y-69616998D01*
X175599482Y-69580688D01*
X175475000Y-69568428D01*
X174910750Y-69571500D01*
X174752000Y-69730250D01*
X174752000Y-70929500D01*
X174772000Y-70929500D01*
X174772000Y-71183500D01*
X174752000Y-71183500D01*
X174752000Y-72382750D01*
X174910750Y-72541500D01*
X175475000Y-72544572D01*
X175599482Y-72532312D01*
X175719180Y-72496002D01*
X175829494Y-72437037D01*
X175926185Y-72357685D01*
X176005537Y-72260994D01*
X176064502Y-72150680D01*
X176086513Y-72078120D01*
X176218368Y-72209975D01*
X176461589Y-72372490D01*
X176731842Y-72484432D01*
X177018740Y-72541500D01*
X177311260Y-72541500D01*
X177598158Y-72484432D01*
X177868411Y-72372490D01*
X178111632Y-72209975D01*
X178318475Y-72003132D01*
X178435000Y-71828740D01*
X178551525Y-72003132D01*
X178758368Y-72209975D01*
X179001589Y-72372490D01*
X179271842Y-72484432D01*
X179558740Y-72541500D01*
X179851260Y-72541500D01*
X180138158Y-72484432D01*
X180408411Y-72372490D01*
X180651632Y-72209975D01*
X180858475Y-72003132D01*
X180983178Y-71816500D01*
X182069899Y-71816500D01*
X182805800Y-72552402D01*
X182805801Y-81930397D01*
X182412799Y-82323400D01*
X181887488Y-82323400D01*
X181995911Y-82278490D01*
X182239132Y-82115975D01*
X182445975Y-81909132D01*
X182608490Y-81665911D01*
X182720432Y-81395658D01*
X182777500Y-81108760D01*
X182777500Y-80816240D01*
X182720432Y-80529342D01*
X182608490Y-80259089D01*
X182445975Y-80015868D01*
X182239132Y-79809025D01*
X181995911Y-79646510D01*
X181725658Y-79534568D01*
X181438760Y-79477500D01*
X181146240Y-79477500D01*
X180926092Y-79521291D01*
X180359906Y-78955105D01*
X180336103Y-78926101D01*
X180220378Y-78831128D01*
X180088349Y-78760556D01*
X179945088Y-78717099D01*
X179833435Y-78706102D01*
X179833424Y-78706102D01*
X179796102Y-78702426D01*
X179758780Y-78706102D01*
X164520855Y-78706102D01*
X164544005Y-78671456D01*
X164622026Y-78483098D01*
X164661800Y-78283139D01*
X164661800Y-78079261D01*
X164622026Y-77879302D01*
X164544005Y-77690944D01*
X164430737Y-77521426D01*
X164386800Y-77477489D01*
X164386800Y-74494632D01*
X164467902Y-74528226D01*
X164667861Y-74568000D01*
X164729999Y-74568000D01*
X167662397Y-77500399D01*
X167662402Y-77500403D01*
X168187000Y-78025002D01*
X168210799Y-78054001D01*
X168239797Y-78077799D01*
X168326523Y-78148974D01*
X168367744Y-78171007D01*
X168458553Y-78219546D01*
X168601814Y-78263003D01*
X168713467Y-78274000D01*
X168713477Y-78274000D01*
X168750800Y-78277676D01*
X168788123Y-78274000D01*
X171561678Y-78274000D01*
X171599000Y-78277676D01*
X171636322Y-78274000D01*
X171636333Y-78274000D01*
X171747986Y-78263003D01*
X171891247Y-78219546D01*
X172023276Y-78148974D01*
X172139001Y-78054001D01*
X172162803Y-78024998D01*
X172731552Y-77456250D01*
X175306539Y-77456250D01*
X175350476Y-77500187D01*
X175519994Y-77613455D01*
X175708352Y-77691476D01*
X175908311Y-77731250D01*
X176112189Y-77731250D01*
X176312148Y-77691476D01*
X176500506Y-77613455D01*
X176670024Y-77500187D01*
X176814187Y-77356024D01*
X176927455Y-77186506D01*
X177005476Y-76998148D01*
X177045250Y-76798189D01*
X177045250Y-76594311D01*
X177005476Y-76394352D01*
X176927455Y-76205994D01*
X176814187Y-76036476D01*
X176670024Y-75892313D01*
X176500506Y-75779045D01*
X176312148Y-75701024D01*
X176112189Y-75661250D01*
X175908311Y-75661250D01*
X175708352Y-75701024D01*
X175519994Y-75779045D01*
X175350476Y-75892313D01*
X175306539Y-75936250D01*
X172454072Y-75936250D01*
X172416749Y-75932574D01*
X172379426Y-75936250D01*
X172379417Y-75936250D01*
X172267764Y-75947247D01*
X172145793Y-75984246D01*
X172124503Y-75990704D01*
X171992473Y-76061276D01*
X171908833Y-76129918D01*
X171876749Y-76156249D01*
X171852951Y-76185248D01*
X171284199Y-76754000D01*
X169065602Y-76754000D01*
X168737203Y-76425602D01*
X168737199Y-76425597D01*
X165804800Y-73493199D01*
X165804800Y-73431061D01*
X165765026Y-73231102D01*
X165687005Y-73042744D01*
X165573737Y-72873226D01*
X165429574Y-72729063D01*
X165260056Y-72615795D01*
X165071698Y-72537774D01*
X164871739Y-72498000D01*
X164667861Y-72498000D01*
X164467902Y-72537774D01*
X164386800Y-72571368D01*
X164386800Y-72091807D01*
X164475475Y-72003132D01*
X164592000Y-71828740D01*
X164708525Y-72003132D01*
X164915368Y-72209975D01*
X165158589Y-72372490D01*
X165428842Y-72484432D01*
X165715740Y-72541500D01*
X166008260Y-72541500D01*
X166295158Y-72484432D01*
X166565411Y-72372490D01*
X166808632Y-72209975D01*
X167015475Y-72003132D01*
X167132000Y-71828740D01*
X167248525Y-72003132D01*
X167455368Y-72209975D01*
X167590001Y-72299934D01*
X167590001Y-72908919D01*
X167586073Y-72948800D01*
X167590001Y-72988681D01*
X167601751Y-73107980D01*
X167613439Y-73146510D01*
X167648182Y-73261042D01*
X167723581Y-73402104D01*
X167749842Y-73434103D01*
X167825053Y-73525748D01*
X167856030Y-73551171D01*
X169313329Y-75008470D01*
X169338752Y-75039448D01*
X169462395Y-75140919D01*
X169603458Y-75216319D01*
X169756520Y-75262750D01*
X169875819Y-75274500D01*
X169875828Y-75274500D01*
X169915699Y-75278427D01*
X169955570Y-75274500D01*
X180049067Y-75274500D01*
X180139025Y-75409132D01*
X180345868Y-75615975D01*
X180589089Y-75778490D01*
X180859342Y-75890432D01*
X181146240Y-75947500D01*
X181438760Y-75947500D01*
X181725658Y-75890432D01*
X181995911Y-75778490D01*
X182239132Y-75615975D01*
X182445975Y-75409132D01*
X182608490Y-75165911D01*
X182720432Y-74895658D01*
X182777500Y-74608760D01*
X182777500Y-74316240D01*
X182720432Y-74029342D01*
X182608490Y-73759089D01*
X182445975Y-73515868D01*
X182239132Y-73309025D01*
X181995911Y-73146510D01*
X181725658Y-73034568D01*
X181438760Y-72977500D01*
X181146240Y-72977500D01*
X180859342Y-73034568D01*
X180589089Y-73146510D01*
X180345868Y-73309025D01*
X180139025Y-73515868D01*
X180049067Y-73650500D01*
X170252041Y-73650500D01*
X169214000Y-72612460D01*
X169214000Y-72299933D01*
X169348632Y-72209975D01*
X169555475Y-72003132D01*
X169677195Y-71820966D01*
X169746822Y-71937855D01*
X169941731Y-72154088D01*
X170175080Y-72328141D01*
X170437901Y-72453325D01*
X170585110Y-72497976D01*
X170815000Y-72376655D01*
X170815000Y-71183500D01*
X171069000Y-71183500D01*
X171069000Y-72376655D01*
X171298890Y-72497976D01*
X171446099Y-72453325D01*
X171708920Y-72328141D01*
X171942269Y-72154088D01*
X172137178Y-71937855D01*
X172155855Y-71906500D01*
X173136928Y-71906500D01*
X173149188Y-72030982D01*
X173185498Y-72150680D01*
X173244463Y-72260994D01*
X173323815Y-72357685D01*
X173420506Y-72437037D01*
X173530820Y-72496002D01*
X173650518Y-72532312D01*
X173775000Y-72544572D01*
X174339250Y-72541500D01*
X174498000Y-72382750D01*
X174498000Y-71183500D01*
X173298750Y-71183500D01*
X173140000Y-71342250D01*
X173136928Y-71906500D01*
X172155855Y-71906500D01*
X172286157Y-71687752D01*
X172383481Y-71413391D01*
X172262814Y-71183500D01*
X171069000Y-71183500D01*
X170815000Y-71183500D01*
X170795000Y-71183500D01*
X170795000Y-70929500D01*
X170815000Y-70929500D01*
X170815000Y-69736345D01*
X171069000Y-69736345D01*
X171069000Y-70929500D01*
X172262814Y-70929500D01*
X172383481Y-70699609D01*
X172286157Y-70425248D01*
X172155856Y-70206500D01*
X173136928Y-70206500D01*
X173140000Y-70770750D01*
X173298750Y-70929500D01*
X174498000Y-70929500D01*
X174498000Y-69730250D01*
X174339250Y-69571500D01*
X173775000Y-69568428D01*
X173650518Y-69580688D01*
X173530820Y-69616998D01*
X173420506Y-69675963D01*
X173323815Y-69755315D01*
X173244463Y-69852006D01*
X173185498Y-69962320D01*
X173149188Y-70082018D01*
X173136928Y-70206500D01*
X172155856Y-70206500D01*
X172137178Y-70175145D01*
X171942269Y-69958912D01*
X171708920Y-69784859D01*
X171446099Y-69659675D01*
X171298890Y-69615024D01*
X171069000Y-69736345D01*
X170815000Y-69736345D01*
X170585110Y-69615024D01*
X170437901Y-69659675D01*
X170175080Y-69784859D01*
X169941731Y-69958912D01*
X169746822Y-70175145D01*
X169677195Y-70292034D01*
X169555475Y-70109868D01*
X169348632Y-69903025D01*
X169105411Y-69740510D01*
X168835158Y-69628568D01*
X168548260Y-69571500D01*
X168255740Y-69571500D01*
X167968842Y-69628568D01*
X167698589Y-69740510D01*
X167455368Y-69903025D01*
X167248525Y-70109868D01*
X167132000Y-70284260D01*
X167015475Y-70109868D01*
X166808632Y-69903025D01*
X166565411Y-69740510D01*
X166295158Y-69628568D01*
X166008260Y-69571500D01*
X165715740Y-69571500D01*
X165428842Y-69628568D01*
X165158589Y-69740510D01*
X164915368Y-69903025D01*
X164708525Y-70109868D01*
X164592000Y-70284260D01*
X164475475Y-70109868D01*
X164268632Y-69903025D01*
X164025411Y-69740510D01*
X163755158Y-69628568D01*
X163468260Y-69571500D01*
X163175740Y-69571500D01*
X162888842Y-69628568D01*
X162618589Y-69740510D01*
X162375368Y-69903025D01*
X162243513Y-70034880D01*
X162221502Y-69962320D01*
X162162537Y-69852006D01*
X162083185Y-69755315D01*
X161986494Y-69675963D01*
X161876180Y-69616998D01*
X161756482Y-69580688D01*
X161632000Y-69568428D01*
X159932000Y-69568428D01*
X159807518Y-69580688D01*
X159687820Y-69616998D01*
X159577506Y-69675963D01*
X159480815Y-69755315D01*
X159401463Y-69852006D01*
X159342498Y-69962320D01*
X159306188Y-70082018D01*
X159293928Y-70206500D01*
X159293928Y-71906500D01*
X159306188Y-72030982D01*
X159342498Y-72150680D01*
X159401463Y-72260994D01*
X159480815Y-72357685D01*
X159577506Y-72437037D01*
X159687820Y-72496002D01*
X159807518Y-72532312D01*
X159932000Y-72544572D01*
X161632000Y-72544572D01*
X161756482Y-72532312D01*
X161876180Y-72496002D01*
X161986494Y-72437037D01*
X162083185Y-72357685D01*
X162162537Y-72260994D01*
X162221502Y-72150680D01*
X162243513Y-72078120D01*
X162375368Y-72209975D01*
X162618589Y-72372490D01*
X162866801Y-72475302D01*
X162866800Y-77477489D01*
X162822863Y-77521426D01*
X162709595Y-77690944D01*
X162631574Y-77879302D01*
X162591800Y-78079261D01*
X162591800Y-78283139D01*
X162623722Y-78443621D01*
X162486702Y-78470876D01*
X162298344Y-78548897D01*
X162128826Y-78662165D01*
X161984663Y-78806328D01*
X161871395Y-78975846D01*
X161793374Y-79164204D01*
X161753600Y-79364163D01*
X161753600Y-79568041D01*
X161793374Y-79768000D01*
X161871395Y-79956358D01*
X161984663Y-80125876D01*
X162128826Y-80270039D01*
X162298344Y-80383307D01*
X162486702Y-80461328D01*
X162686661Y-80501102D01*
X162890539Y-80501102D01*
X163090498Y-80461328D01*
X163278856Y-80383307D01*
X163448374Y-80270039D01*
X163492311Y-80226102D01*
X171687269Y-80226102D01*
X171664242Y-80245000D01*
X171602061Y-80245000D01*
X171402102Y-80284774D01*
X171213744Y-80362795D01*
X171044226Y-80476063D01*
X171000289Y-80520000D01*
X168436505Y-80520000D01*
X168399180Y-80516324D01*
X168361855Y-80520000D01*
X168361847Y-80520000D01*
X168250194Y-80530997D01*
X168106933Y-80574454D01*
X167974904Y-80645026D01*
X167859179Y-80739999D01*
X167835381Y-80768997D01*
X164608412Y-83995967D01*
X149717999Y-83995967D01*
X147935621Y-82213589D01*
X148983000Y-82213589D01*
X148983000Y-82486411D01*
X149036225Y-82753989D01*
X149140629Y-83006043D01*
X149292201Y-83232886D01*
X149485114Y-83425799D01*
X149711957Y-83577371D01*
X149964011Y-83681775D01*
X150231589Y-83735000D01*
X150504411Y-83735000D01*
X150771989Y-83681775D01*
X151024043Y-83577371D01*
X151250886Y-83425799D01*
X151443799Y-83232886D01*
X151595371Y-83006043D01*
X151699775Y-82753989D01*
X151753000Y-82486411D01*
X151753000Y-82213589D01*
X151699775Y-81946011D01*
X151595371Y-81693957D01*
X151443799Y-81467114D01*
X151250886Y-81274201D01*
X151024043Y-81122629D01*
X150771989Y-81018225D01*
X150504411Y-80965000D01*
X150231589Y-80965000D01*
X149964011Y-81018225D01*
X149711957Y-81122629D01*
X149485114Y-81274201D01*
X149292201Y-81467114D01*
X149140629Y-81693957D01*
X149036225Y-81946011D01*
X148983000Y-82213589D01*
X147935621Y-82213589D01*
X147768010Y-82045978D01*
X147768010Y-78719343D01*
X147771687Y-78682010D01*
X147757013Y-78533024D01*
X147713556Y-78389763D01*
X147642984Y-78257734D01*
X147571809Y-78171007D01*
X147548011Y-78142009D01*
X147519013Y-78118211D01*
X146734391Y-77333589D01*
X148983000Y-77333589D01*
X148983000Y-77606411D01*
X149036225Y-77873989D01*
X149140629Y-78126043D01*
X149292201Y-78352886D01*
X149485114Y-78545799D01*
X149711957Y-78697371D01*
X149964011Y-78801775D01*
X150231589Y-78855000D01*
X150504411Y-78855000D01*
X150771989Y-78801775D01*
X151024043Y-78697371D01*
X151250886Y-78545799D01*
X151443799Y-78352886D01*
X151595371Y-78126043D01*
X151699775Y-77873989D01*
X151753000Y-77606411D01*
X151753000Y-77333589D01*
X151699775Y-77066011D01*
X151595371Y-76813957D01*
X151443799Y-76587114D01*
X151250886Y-76394201D01*
X151024043Y-76242629D01*
X150771989Y-76138225D01*
X150504411Y-76085000D01*
X150231589Y-76085000D01*
X149964011Y-76138225D01*
X149711957Y-76242629D01*
X149485114Y-76394201D01*
X149292201Y-76587114D01*
X149140629Y-76813957D01*
X149036225Y-77066011D01*
X148983000Y-77333589D01*
X146734391Y-77333589D01*
X145459209Y-76058408D01*
X145503000Y-75838260D01*
X145503000Y-75545740D01*
X145445932Y-75258842D01*
X145333990Y-74988589D01*
X145171475Y-74745368D01*
X144964632Y-74538525D01*
X144721411Y-74376010D01*
X144451158Y-74264068D01*
X144164260Y-74207000D01*
X143871740Y-74207000D01*
X143584842Y-74264068D01*
X143314589Y-74376010D01*
X143071368Y-74538525D01*
X142864525Y-74745368D01*
X142746900Y-74921406D01*
X142575588Y-74691731D01*
X142359355Y-74496822D01*
X142109252Y-74347843D01*
X141834891Y-74250519D01*
X141605000Y-74371186D01*
X141351000Y-74371186D01*
X141121109Y-74250519D01*
X140846748Y-74347843D01*
X140596645Y-74496822D01*
X140380412Y-74691731D01*
X140206359Y-74925080D01*
X140081175Y-75187901D01*
X140036524Y-75335110D01*
X136666072Y-75335110D01*
X136666072Y-73126000D01*
X136649008Y-72952746D01*
X136598472Y-72786150D01*
X136516405Y-72632614D01*
X136405962Y-72498038D01*
X136271386Y-72387595D01*
X136117850Y-72305528D01*
X135951254Y-72254992D01*
X135778000Y-72237928D01*
X134478000Y-72237928D01*
X134304746Y-72254992D01*
X134138150Y-72305528D01*
X133984614Y-72387595D01*
X133850038Y-72498038D01*
X133739595Y-72632614D01*
X133657528Y-72786150D01*
X133606992Y-72952746D01*
X133589928Y-73126000D01*
X131441086Y-73126000D01*
X131330481Y-72919073D01*
X131138661Y-72685339D01*
X130904927Y-72493519D01*
X130638261Y-72350983D01*
X130348913Y-72263210D01*
X130048000Y-72233573D01*
X129747088Y-72263210D01*
X129457740Y-72350983D01*
X129191074Y-72493519D01*
X128957340Y-72685339D01*
X128765520Y-72919073D01*
X128622984Y-73185739D01*
X128535211Y-73475087D01*
X128513000Y-73700592D01*
X126503000Y-73700592D01*
X126503000Y-73649000D01*
X126448729Y-73351977D01*
X126337554Y-73071249D01*
X126173748Y-72817604D01*
X125963606Y-72600790D01*
X125715204Y-72429138D01*
X125438087Y-72309245D01*
X125332740Y-72284964D01*
X125095000Y-72405622D01*
X124841000Y-72405622D01*
X124603260Y-72284964D01*
X124497913Y-72309245D01*
X124220796Y-72429138D01*
X123972394Y-72600790D01*
X123762252Y-72817604D01*
X123598446Y-73071249D01*
X123487271Y-73351977D01*
X123433000Y-73649000D01*
X122579257Y-73649000D01*
X122563303Y-70314712D01*
X153297000Y-70314712D01*
X153297000Y-70538288D01*
X153340617Y-70757567D01*
X153426176Y-70964124D01*
X153550388Y-71150020D01*
X153708480Y-71308112D01*
X153810830Y-71376500D01*
X153708480Y-71444888D01*
X153550388Y-71602980D01*
X153426176Y-71788876D01*
X153340617Y-71995433D01*
X153297000Y-72214712D01*
X153297000Y-72438288D01*
X153340617Y-72657567D01*
X153426176Y-72864124D01*
X153550388Y-73050020D01*
X153708480Y-73208112D01*
X153894376Y-73332324D01*
X154100933Y-73417883D01*
X154320212Y-73461500D01*
X154543788Y-73461500D01*
X154763067Y-73417883D01*
X154969624Y-73332324D01*
X155155520Y-73208112D01*
X155313612Y-73050020D01*
X155437824Y-72864124D01*
X155523383Y-72657567D01*
X155567000Y-72438288D01*
X155567000Y-72214712D01*
X155523383Y-71995433D01*
X155437824Y-71788876D01*
X155313612Y-71602980D01*
X155155520Y-71444888D01*
X155053170Y-71376500D01*
X155155520Y-71308112D01*
X155313612Y-71150020D01*
X155437824Y-70964124D01*
X155523383Y-70757567D01*
X155567000Y-70538288D01*
X155567000Y-70314712D01*
X155523383Y-70095433D01*
X155437824Y-69888876D01*
X155313612Y-69702980D01*
X155155520Y-69544888D01*
X154969624Y-69420676D01*
X154763067Y-69335117D01*
X154543788Y-69291500D01*
X154320212Y-69291500D01*
X154100933Y-69335117D01*
X153894376Y-69420676D01*
X153708480Y-69544888D01*
X153550388Y-69702980D01*
X153426176Y-69888876D01*
X153340617Y-70095433D01*
X153297000Y-70314712D01*
X122563303Y-70314712D01*
X122558160Y-69240000D01*
X186677958Y-69240000D01*
X186509500Y-69352560D01*
%TA.AperFunction,Conductor*%
D25*
G36*
X186509500Y-69352560D02*
G01*
X186192560Y-69669500D01*
X185943543Y-70042181D01*
X185772016Y-70456282D01*
X185684573Y-70895890D01*
X185684573Y-71344110D01*
X185772016Y-71783718D01*
X185943543Y-72197819D01*
X186192560Y-72570500D01*
X186509500Y-72887440D01*
X186882181Y-73136457D01*
X187296282Y-73307984D01*
X187735890Y-73395427D01*
X188184110Y-73395427D01*
X188623718Y-73307984D01*
X189037819Y-73136457D01*
X189410500Y-72887440D01*
X189727440Y-72570500D01*
X189840001Y-72402040D01*
X189840001Y-88773000D01*
X180340000Y-88773000D01*
X180315224Y-88775440D01*
X180291399Y-88782667D01*
X180269443Y-88794403D01*
X180250197Y-88810197D01*
X180234403Y-88829443D01*
X180222667Y-88851399D01*
X180215440Y-88875224D01*
X180213000Y-88900000D01*
X180213000Y-93853000D01*
X170323407Y-93853000D01*
X170349502Y-93804180D01*
X170385812Y-93684482D01*
X170398072Y-93560000D01*
X170395000Y-92995750D01*
X170236250Y-92837000D01*
X169037000Y-92837000D01*
X169037000Y-92857000D01*
X168783000Y-92857000D01*
X168783000Y-92837000D01*
X168763000Y-92837000D01*
X168763000Y-92583000D01*
X168783000Y-92583000D01*
X168783000Y-91383750D01*
X169037000Y-91383750D01*
X169037000Y-92583000D01*
X170236250Y-92583000D01*
X170395000Y-92424250D01*
X170398072Y-91860000D01*
X170385812Y-91735518D01*
X170349502Y-91615820D01*
X170290537Y-91505506D01*
X170211185Y-91408815D01*
X170114494Y-91329463D01*
X170004180Y-91270498D01*
X169884482Y-91234188D01*
X169760000Y-91221928D01*
X169195750Y-91225000D01*
X169037000Y-91383750D01*
X168783000Y-91383750D01*
X168624250Y-91225000D01*
X168060000Y-91221928D01*
X167935518Y-91234188D01*
X167815820Y-91270498D01*
X167705506Y-91329463D01*
X167608815Y-91408815D01*
X167529463Y-91505506D01*
X167470498Y-91615820D01*
X167448487Y-91688380D01*
X167316632Y-91556525D01*
X167073411Y-91394010D01*
X166803158Y-91282068D01*
X166516260Y-91225000D01*
X166223740Y-91225000D01*
X166003592Y-91268790D01*
X164955484Y-90220683D01*
X165001205Y-90152256D01*
X165079226Y-89963898D01*
X165119000Y-89763939D01*
X165119000Y-89560061D01*
X165079226Y-89360102D01*
X165001205Y-89171744D01*
X164887937Y-89002226D01*
X164743774Y-88858063D01*
X164574256Y-88744795D01*
X164385898Y-88666774D01*
X164185939Y-88627000D01*
X163982061Y-88627000D01*
X163782102Y-88666774D01*
X163593744Y-88744795D01*
X163424226Y-88858063D01*
X163280063Y-89002226D01*
X163166795Y-89171744D01*
X163088774Y-89360102D01*
X163049000Y-89560061D01*
X163049000Y-89763939D01*
X163088774Y-89963898D01*
X163166795Y-90152256D01*
X163280063Y-90321774D01*
X163324000Y-90365711D01*
X163324000Y-90386678D01*
X163320324Y-90424000D01*
X163324000Y-90461322D01*
X163324000Y-90461333D01*
X163334997Y-90572986D01*
X163355251Y-90639754D01*
X163378454Y-90716246D01*
X163449026Y-90848276D01*
X163490609Y-90898944D01*
X163544000Y-90964001D01*
X163572998Y-90987799D01*
X163810199Y-91225000D01*
X163683740Y-91225000D01*
X163396842Y-91282068D01*
X163126589Y-91394010D01*
X162883368Y-91556525D01*
X162676525Y-91763368D01*
X162514010Y-92006589D01*
X162402068Y-92276842D01*
X162345000Y-92563740D01*
X162345000Y-92856260D01*
X162402068Y-93143158D01*
X162514010Y-93413411D01*
X162676525Y-93656632D01*
X162872893Y-93853000D01*
X162560000Y-93853000D01*
X162535224Y-93855440D01*
X162511399Y-93862667D01*
X162489443Y-93874403D01*
X162470197Y-93890197D01*
X162454403Y-93909443D01*
X162442667Y-93931399D01*
X162435440Y-93955224D01*
X162433000Y-93980000D01*
X162433000Y-99695000D01*
X127000000Y-99695000D01*
X126975224Y-99697440D01*
X126951399Y-99704667D01*
X126929443Y-99716403D01*
X126910197Y-99732197D01*
X126894403Y-99751443D01*
X126882667Y-99773399D01*
X126875440Y-99797224D01*
X126873000Y-99822000D01*
X126873000Y-121539000D01*
X125842351Y-121539000D01*
X125963606Y-121455210D01*
X126173748Y-121238396D01*
X126337554Y-120984751D01*
X126448729Y-120704023D01*
X126503000Y-120407000D01*
X126503000Y-119507000D01*
X125095000Y-119507000D01*
X125095000Y-119527000D01*
X124841000Y-119527000D01*
X124841000Y-119507000D01*
X123433000Y-119507000D01*
X123433000Y-120407000D01*
X123487271Y-120704023D01*
X123598446Y-120984751D01*
X123762252Y-121238396D01*
X123972394Y-121455210D01*
X124093649Y-121539000D01*
X122808394Y-121539000D01*
X122793151Y-118353000D01*
X123433000Y-118353000D01*
X123433000Y-119253000D01*
X124841000Y-119253000D01*
X124841000Y-117109622D01*
X125095000Y-117109622D01*
X125095000Y-119253000D01*
X126503000Y-119253000D01*
X126503000Y-118353000D01*
X126448729Y-118055977D01*
X126337554Y-117775249D01*
X126173748Y-117521604D01*
X125963606Y-117304790D01*
X125715204Y-117133138D01*
X125438087Y-117013245D01*
X125332740Y-116988964D01*
X125095000Y-117109622D01*
X124841000Y-117109622D01*
X124603260Y-116988964D01*
X124497913Y-117013245D01*
X124220796Y-117133138D01*
X123972394Y-117304790D01*
X123762252Y-117521604D01*
X123598446Y-117775249D01*
X123487271Y-118055977D01*
X123433000Y-118353000D01*
X122793151Y-118353000D01*
X122676272Y-93925061D01*
X129016800Y-93925061D01*
X129016800Y-94128939D01*
X129056574Y-94328898D01*
X129134595Y-94517256D01*
X129247863Y-94686774D01*
X129392026Y-94830937D01*
X129561544Y-94944205D01*
X129749902Y-95022226D01*
X129949861Y-95062000D01*
X130153739Y-95062000D01*
X130353698Y-95022226D01*
X130542056Y-94944205D01*
X130560322Y-94932000D01*
X136629878Y-94932000D01*
X136648144Y-94944205D01*
X136836502Y-95022226D01*
X137036461Y-95062000D01*
X137240339Y-95062000D01*
X137440298Y-95022226D01*
X137628656Y-94944205D01*
X137703702Y-94894061D01*
X157461000Y-94894061D01*
X157461000Y-95097939D01*
X157500774Y-95297898D01*
X157578795Y-95486256D01*
X157692063Y-95655774D01*
X157836226Y-95799937D01*
X158005744Y-95913205D01*
X158194102Y-95991226D01*
X158394061Y-96031000D01*
X158597939Y-96031000D01*
X158797898Y-95991226D01*
X158986256Y-95913205D01*
X159155774Y-95799937D01*
X159299937Y-95655774D01*
X159413205Y-95486256D01*
X159491226Y-95297898D01*
X159531000Y-95097939D01*
X159531000Y-94894061D01*
X159491226Y-94694102D01*
X159413205Y-94505744D01*
X159299937Y-94336226D01*
X159256000Y-94292289D01*
X159256000Y-92262801D01*
X159551802Y-91967000D01*
X159613939Y-91967000D01*
X159813898Y-91927226D01*
X160002256Y-91849205D01*
X160171774Y-91735937D01*
X160315937Y-91591774D01*
X160429205Y-91422256D01*
X160507226Y-91233898D01*
X160547000Y-91033939D01*
X160547000Y-90830061D01*
X160507226Y-90630102D01*
X160429205Y-90441744D01*
X160315937Y-90272226D01*
X160171774Y-90128063D01*
X160002256Y-90014795D01*
X159813898Y-89936774D01*
X159613939Y-89897000D01*
X159410061Y-89897000D01*
X159210102Y-89936774D01*
X159021744Y-90014795D01*
X158852226Y-90128063D01*
X158708063Y-90272226D01*
X158594795Y-90441744D01*
X158516774Y-90630102D01*
X158477000Y-90830061D01*
X158477000Y-90892198D01*
X157985002Y-91384196D01*
X157955999Y-91407999D01*
X157900871Y-91475174D01*
X157861026Y-91523724D01*
X157811799Y-91615820D01*
X157790454Y-91655754D01*
X157746997Y-91799015D01*
X157736000Y-91910668D01*
X157736000Y-91910678D01*
X157732324Y-91948000D01*
X157736000Y-91985323D01*
X157736001Y-94292288D01*
X157692063Y-94336226D01*
X157578795Y-94505744D01*
X157500774Y-94694102D01*
X157461000Y-94894061D01*
X137703702Y-94894061D01*
X137798174Y-94830937D01*
X137942337Y-94686774D01*
X138055605Y-94517256D01*
X138133626Y-94328898D01*
X138173400Y-94128939D01*
X138173400Y-93925061D01*
X138133626Y-93725102D01*
X138055605Y-93536744D01*
X137942337Y-93367226D01*
X137798174Y-93223063D01*
X137628656Y-93109795D01*
X137440298Y-93031774D01*
X137240339Y-92992000D01*
X137036461Y-92992000D01*
X136836502Y-93031774D01*
X136648144Y-93109795D01*
X136629878Y-93122000D01*
X130560322Y-93122000D01*
X130542056Y-93109795D01*
X130353698Y-93031774D01*
X130153739Y-92992000D01*
X129949861Y-92992000D01*
X129749902Y-93031774D01*
X129561544Y-93109795D01*
X129392026Y-93223063D01*
X129247863Y-93367226D01*
X129134595Y-93536744D01*
X129056574Y-93725102D01*
X129016800Y-93925061D01*
X122676272Y-93925061D01*
X122629559Y-84162000D01*
X139989928Y-84162000D01*
X140002188Y-84286482D01*
X140038498Y-84406180D01*
X140097463Y-84516494D01*
X140176815Y-84613185D01*
X140273506Y-84692537D01*
X140383820Y-84751502D01*
X140503518Y-84787812D01*
X140628000Y-84800072D01*
X141192250Y-84797000D01*
X141351000Y-84638250D01*
X141351000Y-83439000D01*
X140151750Y-83439000D01*
X139993000Y-83597750D01*
X139989928Y-84162000D01*
X122629559Y-84162000D01*
X122621425Y-82462000D01*
X139989928Y-82462000D01*
X139993000Y-83026250D01*
X140151750Y-83185000D01*
X141351000Y-83185000D01*
X141351000Y-80899000D01*
X140157845Y-80899000D01*
X140036524Y-81128890D01*
X140081175Y-81276099D01*
X140206359Y-81538920D01*
X140380412Y-81772269D01*
X140464466Y-81848034D01*
X140383820Y-81872498D01*
X140273506Y-81931463D01*
X140176815Y-82010815D01*
X140097463Y-82107506D01*
X140038498Y-82217820D01*
X140002188Y-82337518D01*
X139989928Y-82462000D01*
X122621425Y-82462000D01*
X122602893Y-78588890D01*
X140036524Y-78588890D01*
X140081175Y-78736099D01*
X140206359Y-78998920D01*
X140380412Y-79232269D01*
X140596645Y-79427178D01*
X140722255Y-79502000D01*
X140596645Y-79576822D01*
X140380412Y-79771731D01*
X140206359Y-80005080D01*
X140081175Y-80267901D01*
X140036524Y-80415110D01*
X140157845Y-80645000D01*
X141351000Y-80645000D01*
X141351000Y-78359000D01*
X140157845Y-78359000D01*
X140036524Y-78588890D01*
X122602893Y-78588890D01*
X122584778Y-74803000D01*
X123433000Y-74803000D01*
X123433000Y-75703000D01*
X123487271Y-76000023D01*
X123598446Y-76280751D01*
X123762252Y-76534396D01*
X123972394Y-76751210D01*
X124220796Y-76922862D01*
X124497913Y-77042755D01*
X124603260Y-77067036D01*
X124841000Y-76946378D01*
X124841000Y-74803000D01*
X125095000Y-74803000D01*
X125095000Y-76946378D01*
X125332740Y-77067036D01*
X125438087Y-77042755D01*
X125715204Y-76922862D01*
X125963606Y-76751210D01*
X126173748Y-76534396D01*
X126337554Y-76280751D01*
X126448729Y-76000023D01*
X126503000Y-75703000D01*
X126503000Y-74803000D01*
X125095000Y-74803000D01*
X124841000Y-74803000D01*
X123433000Y-74803000D01*
X122584778Y-74803000D01*
X122579257Y-73649000D01*
X123433000Y-73649000D01*
X123433000Y-74549000D01*
X124841000Y-74549000D01*
X124841000Y-72405622D01*
X125095000Y-72405622D01*
X125095000Y-74549000D01*
X126503000Y-74549000D01*
X126503000Y-73700592D01*
X128513000Y-73700592D01*
X128513000Y-75651407D01*
X128535210Y-75876912D01*
X128622983Y-76166260D01*
X128765519Y-76432926D01*
X128957339Y-76666661D01*
X129191073Y-76858481D01*
X129457739Y-77001017D01*
X129747087Y-77088790D01*
X130048000Y-77118427D01*
X130348912Y-77088790D01*
X130638260Y-77001017D01*
X130904926Y-76858481D01*
X131138661Y-76666661D01*
X131330481Y-76432927D01*
X131473017Y-76166261D01*
X131560790Y-75876913D01*
X131583000Y-75651408D01*
X131583000Y-73700592D01*
X131560790Y-73475087D01*
X131473017Y-73185739D01*
X131441086Y-73126000D01*
X133589928Y-73126000D01*
X133589928Y-76226000D01*
X133606992Y-76399254D01*
X133657528Y-76565850D01*
X133739595Y-76719386D01*
X133850038Y-76853962D01*
X133984614Y-76964405D01*
X134138150Y-77046472D01*
X134304746Y-77097008D01*
X134478000Y-77114072D01*
X135778000Y-77114072D01*
X135951254Y-77097008D01*
X136117850Y-77046472D01*
X136271386Y-76964405D01*
X136405962Y-76853962D01*
X136516405Y-76719386D01*
X136598472Y-76565850D01*
X136649008Y-76399254D01*
X136666072Y-76226000D01*
X136666072Y-76048890D01*
X140036524Y-76048890D01*
X140081175Y-76196099D01*
X140206359Y-76458920D01*
X140380412Y-76692269D01*
X140596645Y-76887178D01*
X140722255Y-76962000D01*
X140596645Y-77036822D01*
X140380412Y-77231731D01*
X140206359Y-77465080D01*
X140081175Y-77727901D01*
X140036524Y-77875110D01*
X140157845Y-78105000D01*
X141351000Y-78105000D01*
X141351000Y-75819000D01*
X140157845Y-75819000D01*
X140036524Y-76048890D01*
X136666072Y-76048890D01*
X136666072Y-75335110D01*
X140036524Y-75335110D01*
X140157845Y-75565000D01*
X141351000Y-75565000D01*
X141351000Y-74371186D01*
X141605000Y-74371186D01*
X141605000Y-75565000D01*
X141625000Y-75565000D01*
X141625000Y-75819000D01*
X141605000Y-75819000D01*
X141605000Y-78105000D01*
X141625000Y-78105000D01*
X141625000Y-78359000D01*
X141605000Y-78359000D01*
X141605000Y-80645000D01*
X141625000Y-80645000D01*
X141625000Y-80899000D01*
X141605000Y-80899000D01*
X141605000Y-83185000D01*
X141625000Y-83185000D01*
X141625000Y-83439000D01*
X141605000Y-83439000D01*
X141605000Y-84638250D01*
X141763750Y-84797000D01*
X142328000Y-84800072D01*
X142452482Y-84787812D01*
X142572180Y-84751502D01*
X142682494Y-84692537D01*
X142779185Y-84613185D01*
X142858537Y-84516494D01*
X142917502Y-84406180D01*
X142939513Y-84333620D01*
X143071368Y-84465475D01*
X143314589Y-84627990D01*
X143584842Y-84739932D01*
X143871740Y-84797000D01*
X144164260Y-84797000D01*
X144451158Y-84739932D01*
X144721411Y-84627990D01*
X144964632Y-84465475D01*
X145171475Y-84258632D01*
X145296178Y-84072000D01*
X145735199Y-84072000D01*
X148280201Y-86617003D01*
X148303999Y-86646001D01*
X148419724Y-86740974D01*
X148551753Y-86811546D01*
X148695014Y-86855003D01*
X148806667Y-86866000D01*
X148806675Y-86866000D01*
X148844000Y-86869676D01*
X148881325Y-86866000D01*
X165570678Y-86866000D01*
X165608000Y-86869676D01*
X165645322Y-86866000D01*
X165645333Y-86866000D01*
X165756986Y-86855003D01*
X165900247Y-86811546D01*
X166032276Y-86740974D01*
X166148001Y-86646001D01*
X166171804Y-86616997D01*
X168970802Y-83818000D01*
X170698849Y-83818000D01*
X170708774Y-83867898D01*
X170786795Y-84056256D01*
X170900063Y-84225774D01*
X171044226Y-84369937D01*
X171213744Y-84483205D01*
X171402102Y-84561226D01*
X171602061Y-84601000D01*
X171805939Y-84601000D01*
X172005898Y-84561226D01*
X172194256Y-84483205D01*
X172363774Y-84369937D01*
X172507937Y-84225774D01*
X172621205Y-84056256D01*
X172672763Y-83931786D01*
X172737744Y-83975205D01*
X172926102Y-84053226D01*
X173126061Y-84093000D01*
X173329939Y-84093000D01*
X173529898Y-84053226D01*
X173718256Y-83975205D01*
X173887774Y-83861937D01*
X174031937Y-83717774D01*
X174145205Y-83548256D01*
X174223226Y-83359898D01*
X174263000Y-83159939D01*
X174263000Y-82956061D01*
X174223226Y-82756102D01*
X174145205Y-82567744D01*
X174031937Y-82398226D01*
X173929711Y-82296000D01*
X174031937Y-82193774D01*
X174145205Y-82024256D01*
X174223226Y-81835898D01*
X174263000Y-81635939D01*
X174263000Y-81611801D01*
X174500000Y-81848802D01*
X174500001Y-84013198D01*
X174241002Y-84272197D01*
X174211999Y-84295999D01*
X174182708Y-84331691D01*
X174117026Y-84411724D01*
X174069610Y-84500432D01*
X174046454Y-84543754D01*
X174002997Y-84687015D01*
X173992000Y-84798668D01*
X173992000Y-84798678D01*
X173988324Y-84836000D01*
X173992000Y-84873323D01*
X173992001Y-87084658D01*
X173992000Y-87084668D01*
X173992001Y-89771314D01*
X173838226Y-89874063D01*
X173694063Y-90018226D01*
X173580795Y-90187744D01*
X173502774Y-90376102D01*
X173463000Y-90576061D01*
X173463000Y-90779939D01*
X173502774Y-90979898D01*
X173580795Y-91168256D01*
X173694063Y-91337774D01*
X173838226Y-91481937D01*
X174007744Y-91595205D01*
X174196102Y-91673226D01*
X174396061Y-91713000D01*
X174599939Y-91713000D01*
X174799898Y-91673226D01*
X174935820Y-91616925D01*
X174950574Y-91691098D01*
X175028595Y-91879456D01*
X175141863Y-92048974D01*
X175286026Y-92193137D01*
X175455544Y-92306405D01*
X175643902Y-92384426D01*
X175843861Y-92424200D01*
X176047739Y-92424200D01*
X176247698Y-92384426D01*
X176436056Y-92306405D01*
X176605574Y-92193137D01*
X176749737Y-92048974D01*
X176863005Y-91879456D01*
X176941026Y-91691098D01*
X176980800Y-91491139D01*
X176980800Y-91287261D01*
X176941026Y-91087302D01*
X176863005Y-90898944D01*
X176749737Y-90729426D01*
X176705800Y-90685489D01*
X176705800Y-87232740D01*
X182012964Y-87232740D01*
X182037245Y-87338087D01*
X182157138Y-87615204D01*
X182328790Y-87863606D01*
X182545604Y-88073748D01*
X182799249Y-88237554D01*
X183079977Y-88348729D01*
X183377000Y-88403000D01*
X184277000Y-88403000D01*
X184277000Y-86995000D01*
X184531000Y-86995000D01*
X184531000Y-88403000D01*
X185431000Y-88403000D01*
X185728023Y-88348729D01*
X186008751Y-88237554D01*
X186262396Y-88073748D01*
X186479210Y-87863606D01*
X186650862Y-87615204D01*
X186770755Y-87338087D01*
X186795036Y-87232740D01*
X186674378Y-86995000D01*
X184531000Y-86995000D01*
X184277000Y-86995000D01*
X182133622Y-86995000D01*
X182012964Y-87232740D01*
X176705800Y-87232740D01*
X176705800Y-86503260D01*
X182012964Y-86503260D01*
X182133622Y-86741000D01*
X184277000Y-86741000D01*
X184277000Y-85333000D01*
X184531000Y-85333000D01*
X184531000Y-86741000D01*
X186674378Y-86741000D01*
X186795036Y-86503260D01*
X186770755Y-86397913D01*
X186650862Y-86120796D01*
X186479210Y-85872394D01*
X186262396Y-85662252D01*
X186008751Y-85498446D01*
X185728023Y-85387271D01*
X185431000Y-85333000D01*
X184531000Y-85333000D01*
X184277000Y-85333000D01*
X183377000Y-85333000D01*
X183079977Y-85387271D01*
X182799249Y-85498446D01*
X182545604Y-85662252D01*
X182328790Y-85872394D01*
X182157138Y-86120796D01*
X182037245Y-86397913D01*
X182012964Y-86503260D01*
X176705800Y-86503260D01*
X176705800Y-85125401D01*
X177141302Y-84689900D01*
X177203439Y-84689900D01*
X177403398Y-84650126D01*
X177591756Y-84572105D01*
X177761274Y-84458837D01*
X177905437Y-84314674D01*
X178018705Y-84145156D01*
X178096726Y-83956798D01*
X178119282Y-83843400D01*
X182690278Y-83843400D01*
X182727600Y-83847076D01*
X182764922Y-83843400D01*
X182764933Y-83843400D01*
X182876586Y-83832403D01*
X183019847Y-83788946D01*
X183151876Y-83718374D01*
X183267601Y-83623401D01*
X183291403Y-83594398D01*
X184076803Y-82808999D01*
X184105801Y-82785201D01*
X184200774Y-82669476D01*
X184271346Y-82537447D01*
X184314803Y-82394186D01*
X184325800Y-82282533D01*
X184325800Y-82282523D01*
X184329476Y-82245200D01*
X184325800Y-82207877D01*
X184325800Y-81990897D01*
X184943708Y-81990897D01*
X185021343Y-82239972D01*
X185285383Y-82365871D01*
X185568911Y-82437839D01*
X185861031Y-82453111D01*
X186150519Y-82411099D01*
X186426247Y-82313419D01*
X186563657Y-82239972D01*
X186641292Y-81990897D01*
X185792500Y-81142105D01*
X184943708Y-81990897D01*
X184325800Y-81990897D01*
X184325800Y-81195792D01*
X184343901Y-81320519D01*
X184441581Y-81596247D01*
X184515028Y-81733657D01*
X184764103Y-81811292D01*
X185612895Y-80962500D01*
X185972105Y-80962500D01*
X186820897Y-81811292D01*
X187069972Y-81733657D01*
X187195871Y-81469617D01*
X187267839Y-81186089D01*
X187283111Y-80893969D01*
X187241099Y-80604481D01*
X187143419Y-80328753D01*
X187069972Y-80191343D01*
X186820897Y-80113708D01*
X185972105Y-80962500D01*
X185612895Y-80962500D01*
X184764103Y-80113708D01*
X184515028Y-80191343D01*
X184389129Y-80455383D01*
X184325800Y-80704876D01*
X184325800Y-79934103D01*
X184943708Y-79934103D01*
X185792500Y-80782895D01*
X186641292Y-79934103D01*
X186563657Y-79685028D01*
X186299617Y-79559129D01*
X186016089Y-79487161D01*
X185723969Y-79471889D01*
X185434481Y-79513901D01*
X185158753Y-79611581D01*
X185021343Y-79685028D01*
X184943708Y-79934103D01*
X184325800Y-79934103D01*
X184325800Y-75490897D01*
X184943708Y-75490897D01*
X185021343Y-75739972D01*
X185285383Y-75865871D01*
X185568911Y-75937839D01*
X185861031Y-75953111D01*
X186150519Y-75911099D01*
X186426247Y-75813419D01*
X186563657Y-75739972D01*
X186641292Y-75490897D01*
X185792500Y-74642105D01*
X184943708Y-75490897D01*
X184325800Y-75490897D01*
X184325800Y-74695792D01*
X184343901Y-74820519D01*
X184441581Y-75096247D01*
X184515028Y-75233657D01*
X184764103Y-75311292D01*
X185612895Y-74462500D01*
X185972105Y-74462500D01*
X186820897Y-75311292D01*
X187069972Y-75233657D01*
X187195871Y-74969617D01*
X187267839Y-74686089D01*
X187283111Y-74393969D01*
X187241099Y-74104481D01*
X187143419Y-73828753D01*
X187069972Y-73691343D01*
X186820897Y-73613708D01*
X185972105Y-74462500D01*
X185612895Y-74462500D01*
X184764103Y-73613708D01*
X184515028Y-73691343D01*
X184389129Y-73955383D01*
X184325800Y-74204876D01*
X184325800Y-73434103D01*
X184943708Y-73434103D01*
X185792500Y-74282895D01*
X186641292Y-73434103D01*
X186563657Y-73185028D01*
X186299617Y-73059129D01*
X186016089Y-72987161D01*
X185723969Y-72971889D01*
X185434481Y-73013901D01*
X185158753Y-73111581D01*
X185021343Y-73185028D01*
X184943708Y-73434103D01*
X184325800Y-73434103D01*
X184325800Y-72274925D01*
X184329476Y-72237600D01*
X184325800Y-72200275D01*
X184325800Y-72200267D01*
X184314803Y-72088614D01*
X184271346Y-71945353D01*
X184200774Y-71813324D01*
X184105801Y-71697599D01*
X184076804Y-71673802D01*
X182948504Y-70545503D01*
X182924701Y-70516499D01*
X182808976Y-70421526D01*
X182676947Y-70350954D01*
X182533686Y-70307497D01*
X182422033Y-70296500D01*
X182422022Y-70296500D01*
X182384700Y-70292824D01*
X182347378Y-70296500D01*
X180983178Y-70296500D01*
X180858475Y-70109868D01*
X180651632Y-69903025D01*
X180408411Y-69740510D01*
X180138158Y-69628568D01*
X179851260Y-69571500D01*
X179558740Y-69571500D01*
X179271842Y-69628568D01*
X179001589Y-69740510D01*
X178758368Y-69903025D01*
X178551525Y-70109868D01*
X178435000Y-70284260D01*
X178318475Y-70109868D01*
X178111632Y-69903025D01*
X177868411Y-69740510D01*
X177598158Y-69628568D01*
X177311260Y-69571500D01*
X177018740Y-69571500D01*
X176731842Y-69628568D01*
X176461589Y-69740510D01*
X176218368Y-69903025D01*
X176086513Y-70034880D01*
X176064502Y-69962320D01*
X176005537Y-69852006D01*
X175926185Y-69755315D01*
X175829494Y-69675963D01*
X175719180Y-69616998D01*
X175599482Y-69580688D01*
X175475000Y-69568428D01*
X174910750Y-69571500D01*
X174752000Y-69730250D01*
X174752000Y-70929500D01*
X174772000Y-70929500D01*
X174772000Y-71183500D01*
X174752000Y-71183500D01*
X174752000Y-72382750D01*
X174910750Y-72541500D01*
X175475000Y-72544572D01*
X175599482Y-72532312D01*
X175719180Y-72496002D01*
X175829494Y-72437037D01*
X175926185Y-72357685D01*
X176005537Y-72260994D01*
X176064502Y-72150680D01*
X176086513Y-72078120D01*
X176218368Y-72209975D01*
X176461589Y-72372490D01*
X176731842Y-72484432D01*
X177018740Y-72541500D01*
X177311260Y-72541500D01*
X177598158Y-72484432D01*
X177868411Y-72372490D01*
X178111632Y-72209975D01*
X178318475Y-72003132D01*
X178435000Y-71828740D01*
X178551525Y-72003132D01*
X178758368Y-72209975D01*
X179001589Y-72372490D01*
X179271842Y-72484432D01*
X179558740Y-72541500D01*
X179851260Y-72541500D01*
X180138158Y-72484432D01*
X180408411Y-72372490D01*
X180651632Y-72209975D01*
X180858475Y-72003132D01*
X180983178Y-71816500D01*
X182069899Y-71816500D01*
X182805800Y-72552402D01*
X182805801Y-81930397D01*
X182412799Y-82323400D01*
X181887488Y-82323400D01*
X181995911Y-82278490D01*
X182239132Y-82115975D01*
X182445975Y-81909132D01*
X182608490Y-81665911D01*
X182720432Y-81395658D01*
X182777500Y-81108760D01*
X182777500Y-80816240D01*
X182720432Y-80529342D01*
X182608490Y-80259089D01*
X182445975Y-80015868D01*
X182239132Y-79809025D01*
X181995911Y-79646510D01*
X181725658Y-79534568D01*
X181438760Y-79477500D01*
X181146240Y-79477500D01*
X180926092Y-79521291D01*
X180359906Y-78955105D01*
X180336103Y-78926101D01*
X180220378Y-78831128D01*
X180088349Y-78760556D01*
X179945088Y-78717099D01*
X179833435Y-78706102D01*
X179833424Y-78706102D01*
X179796102Y-78702426D01*
X179758780Y-78706102D01*
X164520855Y-78706102D01*
X164544005Y-78671456D01*
X164622026Y-78483098D01*
X164661800Y-78283139D01*
X164661800Y-78079261D01*
X164622026Y-77879302D01*
X164544005Y-77690944D01*
X164430737Y-77521426D01*
X164386800Y-77477489D01*
X164386800Y-74494632D01*
X164467902Y-74528226D01*
X164667861Y-74568000D01*
X164729999Y-74568000D01*
X167662397Y-77500399D01*
X167662402Y-77500403D01*
X168187000Y-78025002D01*
X168210799Y-78054001D01*
X168239797Y-78077799D01*
X168326523Y-78148974D01*
X168367744Y-78171007D01*
X168458553Y-78219546D01*
X168601814Y-78263003D01*
X168713467Y-78274000D01*
X168713477Y-78274000D01*
X168750800Y-78277676D01*
X168788123Y-78274000D01*
X171561678Y-78274000D01*
X171599000Y-78277676D01*
X171636322Y-78274000D01*
X171636333Y-78274000D01*
X171747986Y-78263003D01*
X171891247Y-78219546D01*
X172023276Y-78148974D01*
X172139001Y-78054001D01*
X172162803Y-78024998D01*
X172731552Y-77456250D01*
X175306539Y-77456250D01*
X175350476Y-77500187D01*
X175519994Y-77613455D01*
X175708352Y-77691476D01*
X175908311Y-77731250D01*
X176112189Y-77731250D01*
X176312148Y-77691476D01*
X176500506Y-77613455D01*
X176670024Y-77500187D01*
X176814187Y-77356024D01*
X176927455Y-77186506D01*
X177005476Y-76998148D01*
X177045250Y-76798189D01*
X177045250Y-76594311D01*
X177005476Y-76394352D01*
X176927455Y-76205994D01*
X176814187Y-76036476D01*
X176670024Y-75892313D01*
X176500506Y-75779045D01*
X176312148Y-75701024D01*
X176112189Y-75661250D01*
X175908311Y-75661250D01*
X175708352Y-75701024D01*
X175519994Y-75779045D01*
X175350476Y-75892313D01*
X175306539Y-75936250D01*
X172454072Y-75936250D01*
X172416749Y-75932574D01*
X172379426Y-75936250D01*
X172379417Y-75936250D01*
X172267764Y-75947247D01*
X172145793Y-75984246D01*
X172124503Y-75990704D01*
X171992473Y-76061276D01*
X171908833Y-76129918D01*
X171876749Y-76156249D01*
X171852951Y-76185248D01*
X171284199Y-76754000D01*
X169065602Y-76754000D01*
X168737203Y-76425602D01*
X168737199Y-76425597D01*
X165804800Y-73493199D01*
X165804800Y-73431061D01*
X165765026Y-73231102D01*
X165687005Y-73042744D01*
X165573737Y-72873226D01*
X165429574Y-72729063D01*
X165260056Y-72615795D01*
X165071698Y-72537774D01*
X164871739Y-72498000D01*
X164667861Y-72498000D01*
X164467902Y-72537774D01*
X164386800Y-72571368D01*
X164386800Y-72091807D01*
X164475475Y-72003132D01*
X164592000Y-71828740D01*
X164708525Y-72003132D01*
X164915368Y-72209975D01*
X165158589Y-72372490D01*
X165428842Y-72484432D01*
X165715740Y-72541500D01*
X166008260Y-72541500D01*
X166295158Y-72484432D01*
X166565411Y-72372490D01*
X166808632Y-72209975D01*
X167015475Y-72003132D01*
X167132000Y-71828740D01*
X167248525Y-72003132D01*
X167455368Y-72209975D01*
X167590001Y-72299934D01*
X167590001Y-72908919D01*
X167586073Y-72948800D01*
X167590001Y-72988681D01*
X167601751Y-73107980D01*
X167613439Y-73146510D01*
X167648182Y-73261042D01*
X167723581Y-73402104D01*
X167749842Y-73434103D01*
X167825053Y-73525748D01*
X167856030Y-73551171D01*
X169313329Y-75008470D01*
X169338752Y-75039448D01*
X169462395Y-75140919D01*
X169603458Y-75216319D01*
X169756520Y-75262750D01*
X169875819Y-75274500D01*
X169875828Y-75274500D01*
X169915699Y-75278427D01*
X169955570Y-75274500D01*
X180049067Y-75274500D01*
X180139025Y-75409132D01*
X180345868Y-75615975D01*
X180589089Y-75778490D01*
X180859342Y-75890432D01*
X181146240Y-75947500D01*
X181438760Y-75947500D01*
X181725658Y-75890432D01*
X181995911Y-75778490D01*
X182239132Y-75615975D01*
X182445975Y-75409132D01*
X182608490Y-75165911D01*
X182720432Y-74895658D01*
X182777500Y-74608760D01*
X182777500Y-74316240D01*
X182720432Y-74029342D01*
X182608490Y-73759089D01*
X182445975Y-73515868D01*
X182239132Y-73309025D01*
X181995911Y-73146510D01*
X181725658Y-73034568D01*
X181438760Y-72977500D01*
X181146240Y-72977500D01*
X180859342Y-73034568D01*
X180589089Y-73146510D01*
X180345868Y-73309025D01*
X180139025Y-73515868D01*
X180049067Y-73650500D01*
X170252041Y-73650500D01*
X169214000Y-72612460D01*
X169214000Y-72299933D01*
X169348632Y-72209975D01*
X169555475Y-72003132D01*
X169677195Y-71820966D01*
X169746822Y-71937855D01*
X169941731Y-72154088D01*
X170175080Y-72328141D01*
X170437901Y-72453325D01*
X170585110Y-72497976D01*
X170815000Y-72376655D01*
X170815000Y-71183500D01*
X171069000Y-71183500D01*
X171069000Y-72376655D01*
X171298890Y-72497976D01*
X171446099Y-72453325D01*
X171708920Y-72328141D01*
X171942269Y-72154088D01*
X172137178Y-71937855D01*
X172155855Y-71906500D01*
X173136928Y-71906500D01*
X173149188Y-72030982D01*
X173185498Y-72150680D01*
X173244463Y-72260994D01*
X173323815Y-72357685D01*
X173420506Y-72437037D01*
X173530820Y-72496002D01*
X173650518Y-72532312D01*
X173775000Y-72544572D01*
X174339250Y-72541500D01*
X174498000Y-72382750D01*
X174498000Y-71183500D01*
X173298750Y-71183500D01*
X173140000Y-71342250D01*
X173136928Y-71906500D01*
X172155855Y-71906500D01*
X172286157Y-71687752D01*
X172383481Y-71413391D01*
X172262814Y-71183500D01*
X171069000Y-71183500D01*
X170815000Y-71183500D01*
X170795000Y-71183500D01*
X170795000Y-70929500D01*
X170815000Y-70929500D01*
X170815000Y-69736345D01*
X171069000Y-69736345D01*
X171069000Y-70929500D01*
X172262814Y-70929500D01*
X172383481Y-70699609D01*
X172286157Y-70425248D01*
X172155856Y-70206500D01*
X173136928Y-70206500D01*
X173140000Y-70770750D01*
X173298750Y-70929500D01*
X174498000Y-70929500D01*
X174498000Y-69730250D01*
X174339250Y-69571500D01*
X173775000Y-69568428D01*
X173650518Y-69580688D01*
X173530820Y-69616998D01*
X173420506Y-69675963D01*
X173323815Y-69755315D01*
X173244463Y-69852006D01*
X173185498Y-69962320D01*
X173149188Y-70082018D01*
X173136928Y-70206500D01*
X172155856Y-70206500D01*
X172137178Y-70175145D01*
X171942269Y-69958912D01*
X171708920Y-69784859D01*
X171446099Y-69659675D01*
X171298890Y-69615024D01*
X171069000Y-69736345D01*
X170815000Y-69736345D01*
X170585110Y-69615024D01*
X170437901Y-69659675D01*
X170175080Y-69784859D01*
X169941731Y-69958912D01*
X169746822Y-70175145D01*
X169677195Y-70292034D01*
X169555475Y-70109868D01*
X169348632Y-69903025D01*
X169105411Y-69740510D01*
X168835158Y-69628568D01*
X168548260Y-69571500D01*
X168255740Y-69571500D01*
X167968842Y-69628568D01*
X167698589Y-69740510D01*
X167455368Y-69903025D01*
X167248525Y-70109868D01*
X167132000Y-70284260D01*
X167015475Y-70109868D01*
X166808632Y-69903025D01*
X166565411Y-69740510D01*
X166295158Y-69628568D01*
X166008260Y-69571500D01*
X165715740Y-69571500D01*
X165428842Y-69628568D01*
X165158589Y-69740510D01*
X164915368Y-69903025D01*
X164708525Y-70109868D01*
X164592000Y-70284260D01*
X164475475Y-70109868D01*
X164268632Y-69903025D01*
X164025411Y-69740510D01*
X163755158Y-69628568D01*
X163468260Y-69571500D01*
X163175740Y-69571500D01*
X162888842Y-69628568D01*
X162618589Y-69740510D01*
X162375368Y-69903025D01*
X162243513Y-70034880D01*
X162221502Y-69962320D01*
X162162537Y-69852006D01*
X162083185Y-69755315D01*
X161986494Y-69675963D01*
X161876180Y-69616998D01*
X161756482Y-69580688D01*
X161632000Y-69568428D01*
X159932000Y-69568428D01*
X159807518Y-69580688D01*
X159687820Y-69616998D01*
X159577506Y-69675963D01*
X159480815Y-69755315D01*
X159401463Y-69852006D01*
X159342498Y-69962320D01*
X159306188Y-70082018D01*
X159293928Y-70206500D01*
X159293928Y-71906500D01*
X159306188Y-72030982D01*
X159342498Y-72150680D01*
X159401463Y-72260994D01*
X159480815Y-72357685D01*
X159577506Y-72437037D01*
X159687820Y-72496002D01*
X159807518Y-72532312D01*
X159932000Y-72544572D01*
X161632000Y-72544572D01*
X161756482Y-72532312D01*
X161876180Y-72496002D01*
X161986494Y-72437037D01*
X162083185Y-72357685D01*
X162162537Y-72260994D01*
X162221502Y-72150680D01*
X162243513Y-72078120D01*
X162375368Y-72209975D01*
X162618589Y-72372490D01*
X162866801Y-72475302D01*
X162866800Y-77477489D01*
X162822863Y-77521426D01*
X162709595Y-77690944D01*
X162631574Y-77879302D01*
X162591800Y-78079261D01*
X162591800Y-78283139D01*
X162623722Y-78443621D01*
X162486702Y-78470876D01*
X162298344Y-78548897D01*
X162128826Y-78662165D01*
X161984663Y-78806328D01*
X161871395Y-78975846D01*
X161793374Y-79164204D01*
X161753600Y-79364163D01*
X161753600Y-79568041D01*
X161793374Y-79768000D01*
X161871395Y-79956358D01*
X161984663Y-80125876D01*
X162128826Y-80270039D01*
X162298344Y-80383307D01*
X162486702Y-80461328D01*
X162686661Y-80501102D01*
X162890539Y-80501102D01*
X163090498Y-80461328D01*
X163278856Y-80383307D01*
X163448374Y-80270039D01*
X163492311Y-80226102D01*
X171687269Y-80226102D01*
X171664242Y-80245000D01*
X171602061Y-80245000D01*
X171402102Y-80284774D01*
X171213744Y-80362795D01*
X171044226Y-80476063D01*
X171000289Y-80520000D01*
X168436505Y-80520000D01*
X168399180Y-80516324D01*
X168361855Y-80520000D01*
X168361847Y-80520000D01*
X168250194Y-80530997D01*
X168106933Y-80574454D01*
X167974904Y-80645026D01*
X167859179Y-80739999D01*
X167835381Y-80768997D01*
X164608412Y-83995967D01*
X149717999Y-83995967D01*
X147935621Y-82213589D01*
X148983000Y-82213589D01*
X148983000Y-82486411D01*
X149036225Y-82753989D01*
X149140629Y-83006043D01*
X149292201Y-83232886D01*
X149485114Y-83425799D01*
X149711957Y-83577371D01*
X149964011Y-83681775D01*
X150231589Y-83735000D01*
X150504411Y-83735000D01*
X150771989Y-83681775D01*
X151024043Y-83577371D01*
X151250886Y-83425799D01*
X151443799Y-83232886D01*
X151595371Y-83006043D01*
X151699775Y-82753989D01*
X151753000Y-82486411D01*
X151753000Y-82213589D01*
X151699775Y-81946011D01*
X151595371Y-81693957D01*
X151443799Y-81467114D01*
X151250886Y-81274201D01*
X151024043Y-81122629D01*
X150771989Y-81018225D01*
X150504411Y-80965000D01*
X150231589Y-80965000D01*
X149964011Y-81018225D01*
X149711957Y-81122629D01*
X149485114Y-81274201D01*
X149292201Y-81467114D01*
X149140629Y-81693957D01*
X149036225Y-81946011D01*
X148983000Y-82213589D01*
X147935621Y-82213589D01*
X147768010Y-82045978D01*
X147768010Y-78719343D01*
X147771687Y-78682010D01*
X147757013Y-78533024D01*
X147713556Y-78389763D01*
X147642984Y-78257734D01*
X147571809Y-78171007D01*
X147548011Y-78142009D01*
X147519013Y-78118211D01*
X146734391Y-77333589D01*
X148983000Y-77333589D01*
X148983000Y-77606411D01*
X149036225Y-77873989D01*
X149140629Y-78126043D01*
X149292201Y-78352886D01*
X149485114Y-78545799D01*
X149711957Y-78697371D01*
X149964011Y-78801775D01*
X150231589Y-78855000D01*
X150504411Y-78855000D01*
X150771989Y-78801775D01*
X151024043Y-78697371D01*
X151250886Y-78545799D01*
X151443799Y-78352886D01*
X151595371Y-78126043D01*
X151699775Y-77873989D01*
X151753000Y-77606411D01*
X151753000Y-77333589D01*
X151699775Y-77066011D01*
X151595371Y-76813957D01*
X151443799Y-76587114D01*
X151250886Y-76394201D01*
X151024043Y-76242629D01*
X150771989Y-76138225D01*
X150504411Y-76085000D01*
X150231589Y-76085000D01*
X149964011Y-76138225D01*
X149711957Y-76242629D01*
X149485114Y-76394201D01*
X149292201Y-76587114D01*
X149140629Y-76813957D01*
X149036225Y-77066011D01*
X148983000Y-77333589D01*
X146734391Y-77333589D01*
X145459209Y-76058408D01*
X145503000Y-75838260D01*
X145503000Y-75545740D01*
X145445932Y-75258842D01*
X145333990Y-74988589D01*
X145171475Y-74745368D01*
X144964632Y-74538525D01*
X144721411Y-74376010D01*
X144451158Y-74264068D01*
X144164260Y-74207000D01*
X143871740Y-74207000D01*
X143584842Y-74264068D01*
X143314589Y-74376010D01*
X143071368Y-74538525D01*
X142864525Y-74745368D01*
X142746900Y-74921406D01*
X142575588Y-74691731D01*
X142359355Y-74496822D01*
X142109252Y-74347843D01*
X141834891Y-74250519D01*
X141605000Y-74371186D01*
X141351000Y-74371186D01*
X141121109Y-74250519D01*
X140846748Y-74347843D01*
X140596645Y-74496822D01*
X140380412Y-74691731D01*
X140206359Y-74925080D01*
X140081175Y-75187901D01*
X140036524Y-75335110D01*
X136666072Y-75335110D01*
X136666072Y-73126000D01*
X136649008Y-72952746D01*
X136598472Y-72786150D01*
X136516405Y-72632614D01*
X136405962Y-72498038D01*
X136271386Y-72387595D01*
X136117850Y-72305528D01*
X135951254Y-72254992D01*
X135778000Y-72237928D01*
X134478000Y-72237928D01*
X134304746Y-72254992D01*
X134138150Y-72305528D01*
X133984614Y-72387595D01*
X133850038Y-72498038D01*
X133739595Y-72632614D01*
X133657528Y-72786150D01*
X133606992Y-72952746D01*
X133589928Y-73126000D01*
X131441086Y-73126000D01*
X131330481Y-72919073D01*
X131138661Y-72685339D01*
X130904927Y-72493519D01*
X130638261Y-72350983D01*
X130348913Y-72263210D01*
X130048000Y-72233573D01*
X129747088Y-72263210D01*
X129457740Y-72350983D01*
X129191074Y-72493519D01*
X128957340Y-72685339D01*
X128765520Y-72919073D01*
X128622984Y-73185739D01*
X128535211Y-73475087D01*
X128513000Y-73700592D01*
X126503000Y-73700592D01*
X126503000Y-73649000D01*
X126448729Y-73351977D01*
X126337554Y-73071249D01*
X126173748Y-72817604D01*
X125963606Y-72600790D01*
X125715204Y-72429138D01*
X125438087Y-72309245D01*
X125332740Y-72284964D01*
X125095000Y-72405622D01*
X124841000Y-72405622D01*
X124603260Y-72284964D01*
X124497913Y-72309245D01*
X124220796Y-72429138D01*
X123972394Y-72600790D01*
X123762252Y-72817604D01*
X123598446Y-73071249D01*
X123487271Y-73351977D01*
X123433000Y-73649000D01*
X122579257Y-73649000D01*
X122563303Y-70314712D01*
X153297000Y-70314712D01*
X153297000Y-70538288D01*
X153340617Y-70757567D01*
X153426176Y-70964124D01*
X153550388Y-71150020D01*
X153708480Y-71308112D01*
X153810830Y-71376500D01*
X153708480Y-71444888D01*
X153550388Y-71602980D01*
X153426176Y-71788876D01*
X153340617Y-71995433D01*
X153297000Y-72214712D01*
X153297000Y-72438288D01*
X153340617Y-72657567D01*
X153426176Y-72864124D01*
X153550388Y-73050020D01*
X153708480Y-73208112D01*
X153894376Y-73332324D01*
X154100933Y-73417883D01*
X154320212Y-73461500D01*
X154543788Y-73461500D01*
X154763067Y-73417883D01*
X154969624Y-73332324D01*
X155155520Y-73208112D01*
X155313612Y-73050020D01*
X155437824Y-72864124D01*
X155523383Y-72657567D01*
X155567000Y-72438288D01*
X155567000Y-72214712D01*
X155523383Y-71995433D01*
X155437824Y-71788876D01*
X155313612Y-71602980D01*
X155155520Y-71444888D01*
X155053170Y-71376500D01*
X155155520Y-71308112D01*
X155313612Y-71150020D01*
X155437824Y-70964124D01*
X155523383Y-70757567D01*
X155567000Y-70538288D01*
X155567000Y-70314712D01*
X155523383Y-70095433D01*
X155437824Y-69888876D01*
X155313612Y-69702980D01*
X155155520Y-69544888D01*
X154969624Y-69420676D01*
X154763067Y-69335117D01*
X154543788Y-69291500D01*
X154320212Y-69291500D01*
X154100933Y-69335117D01*
X153894376Y-69420676D01*
X153708480Y-69544888D01*
X153550388Y-69702980D01*
X153426176Y-69888876D01*
X153340617Y-70095433D01*
X153297000Y-70314712D01*
X122563303Y-70314712D01*
X122558160Y-69240000D01*
X186677958Y-69240000D01*
X186509500Y-69352560D01*
G37*
%TD.AperFunction*%
%TD*%
D24*
%TO.N,GND*%
X180213000Y-110236000D02*
X180215440Y-110260776D01*
X180222667Y-110284601D01*
X180234403Y-110306557D01*
X180250197Y-110325803D01*
X180269443Y-110341597D01*
X180291399Y-110353333D01*
X180315224Y-110360560D01*
X180340000Y-110363000D01*
X187833000Y-110363000D01*
X187833000Y-122184573D01*
X187735890Y-122184573D01*
X187296282Y-122272016D01*
X186882181Y-122443543D01*
X186509500Y-122692560D01*
X186192560Y-123009500D01*
X185943543Y-123382181D01*
X185772016Y-123796282D01*
X185684573Y-124235890D01*
X185684573Y-124684110D01*
X185772016Y-125123718D01*
X185943543Y-125537819D01*
X186192560Y-125910500D01*
X186509500Y-126227440D01*
X186677958Y-126340000D01*
X146177000Y-126340000D01*
X146177000Y-121632702D01*
X179526903Y-121632702D01*
X179598486Y-121876671D01*
X179853996Y-121997571D01*
X180128184Y-122066300D01*
X180410512Y-122080217D01*
X180690130Y-122038787D01*
X180956292Y-121943603D01*
X181081514Y-121876671D01*
X181153097Y-121632702D01*
X180340000Y-120819605D01*
X179526903Y-121632702D01*
X146177000Y-121632702D01*
X146177000Y-120710512D01*
X178899783Y-120710512D01*
X178941213Y-120990130D01*
X179036397Y-121256292D01*
X179103329Y-121381514D01*
X179347298Y-121453097D01*
X180160395Y-120640000D01*
X179347298Y-119826903D01*
X179103329Y-119898486D01*
X178982429Y-120153996D01*
X178913700Y-120428184D01*
X178899783Y-120710512D01*
X146177000Y-120710512D01*
X146177000Y-119647298D01*
X179526903Y-119647298D01*
X180340000Y-120460395D01*
X180354143Y-120446253D01*
X180533748Y-120625858D01*
X180519605Y-120640000D01*
X181332702Y-121453097D01*
X181576671Y-121381514D01*
X181697571Y-121126004D01*
X181766300Y-120851816D01*
X181780217Y-120569488D01*
X181769737Y-120498755D01*
X181776518Y-120500812D01*
X181901000Y-120513072D01*
X182340250Y-120510000D01*
X182499000Y-120351250D01*
X182499000Y-119502000D01*
X182753000Y-119502000D01*
X182753000Y-120351250D01*
X182911750Y-120510000D01*
X183351000Y-120513072D01*
X183475482Y-120500812D01*
X183595180Y-120464502D01*
X183705494Y-120405537D01*
X183802185Y-120326185D01*
X183881537Y-120229494D01*
X183940502Y-120119180D01*
X183976812Y-119999482D01*
X183989072Y-119875000D01*
X183986000Y-119660750D01*
X183827250Y-119502000D01*
X182753000Y-119502000D01*
X182499000Y-119502000D01*
X181424750Y-119502000D01*
X181332549Y-119594202D01*
X181269370Y-119531023D01*
X181153097Y-119647296D01*
X181081514Y-119403329D01*
X180826004Y-119282429D01*
X180551816Y-119213700D01*
X180269488Y-119199783D01*
X179989870Y-119241213D01*
X179723708Y-119336397D01*
X179598486Y-119403329D01*
X179526903Y-119647298D01*
X146177000Y-119647298D01*
X146177000Y-116040000D01*
X178901928Y-116040000D01*
X178901928Y-117640000D01*
X178914188Y-117764482D01*
X178950498Y-117884180D01*
X179009463Y-117994494D01*
X179088815Y-118091185D01*
X179185506Y-118170537D01*
X179295820Y-118229502D01*
X179415518Y-118265812D01*
X179540000Y-118278072D01*
X180557617Y-118278072D01*
X180626996Y-118315156D01*
X180797589Y-118366905D01*
X180930548Y-118380000D01*
X180930558Y-118380000D01*
X180975000Y-118384377D01*
X181019442Y-118380000D01*
X181503204Y-118380000D01*
X181449815Y-118423815D01*
X181370463Y-118520506D01*
X181311498Y-118630820D01*
X181275188Y-118750518D01*
X181262928Y-118875000D01*
X181266000Y-119089250D01*
X181424750Y-119248000D01*
X182499000Y-119248000D01*
X182499000Y-119228000D01*
X182753000Y-119228000D01*
X182753000Y-119248000D01*
X183827250Y-119248000D01*
X183986000Y-119089250D01*
X183989072Y-118875000D01*
X183976812Y-118750518D01*
X183940502Y-118630820D01*
X183881537Y-118520506D01*
X183802185Y-118423815D01*
X183722406Y-118358342D01*
X183728962Y-118352962D01*
X183839405Y-118218386D01*
X183921472Y-118064850D01*
X183972008Y-117898254D01*
X183989072Y-117725000D01*
X183989072Y-117225000D01*
X183972008Y-117051746D01*
X183921472Y-116885150D01*
X183839405Y-116731614D01*
X183728962Y-116597038D01*
X183594386Y-116486595D01*
X183440850Y-116404528D01*
X183274254Y-116353992D01*
X183101000Y-116336928D01*
X182151000Y-116336928D01*
X181977746Y-116353992D01*
X181811150Y-116404528D01*
X181778072Y-116422209D01*
X181778072Y-116040000D01*
X181765812Y-115915518D01*
X181729502Y-115795820D01*
X181670537Y-115685506D01*
X181591185Y-115588815D01*
X181494494Y-115509463D01*
X181384180Y-115450498D01*
X181264482Y-115414188D01*
X181140000Y-115401928D01*
X179540000Y-115401928D01*
X179415518Y-115414188D01*
X179295820Y-115450498D01*
X179185506Y-115509463D01*
X179088815Y-115588815D01*
X179009463Y-115685506D01*
X178950498Y-115795820D01*
X178914188Y-115915518D01*
X178901928Y-116040000D01*
X146177000Y-116040000D01*
X146177000Y-115570000D01*
X146174560Y-115545224D01*
X146167333Y-115521399D01*
X146155597Y-115499443D01*
X146139803Y-115480197D01*
X146120557Y-115464403D01*
X146098601Y-115452667D01*
X146074776Y-115445440D01*
X146050000Y-115443000D01*
X127000000Y-115443000D01*
X126975224Y-115445440D01*
X126951399Y-115452667D01*
X126929443Y-115464403D01*
X126910197Y-115480197D01*
X126894403Y-115499443D01*
X126882667Y-115521399D01*
X126875440Y-115545224D01*
X126873000Y-115570000D01*
X126873000Y-121539000D01*
X125842351Y-121539000D01*
X125963606Y-121455210D01*
X126173748Y-121238396D01*
X126337554Y-120984751D01*
X126448729Y-120704023D01*
X126503000Y-120407000D01*
X126503000Y-119507000D01*
X125095000Y-119507000D01*
X125095000Y-119527000D01*
X124841000Y-119527000D01*
X124841000Y-119507000D01*
X123433000Y-119507000D01*
X123433000Y-120407000D01*
X123487271Y-120704023D01*
X123598446Y-120984751D01*
X123762252Y-121238396D01*
X123972394Y-121455210D01*
X124093649Y-121539000D01*
X122809000Y-121539000D01*
X122809000Y-118353000D01*
X123433000Y-118353000D01*
X123433000Y-119253000D01*
X124841000Y-119253000D01*
X124841000Y-117109622D01*
X125095000Y-117109622D01*
X125095000Y-119253000D01*
X126503000Y-119253000D01*
X126503000Y-118353000D01*
X126448729Y-118055977D01*
X126337554Y-117775249D01*
X126173748Y-117521604D01*
X125963606Y-117304790D01*
X125715204Y-117133138D01*
X125438087Y-117013245D01*
X125332740Y-116988964D01*
X125095000Y-117109622D01*
X124841000Y-117109622D01*
X124603260Y-116988964D01*
X124497913Y-117013245D01*
X124220796Y-117133138D01*
X123972394Y-117304790D01*
X123762252Y-117521604D01*
X123598446Y-117775249D01*
X123487271Y-118055977D01*
X123433000Y-118353000D01*
X122809000Y-118353000D01*
X122809000Y-111125000D01*
X129286000Y-111125000D01*
X129310776Y-111122560D01*
X129334601Y-111115333D01*
X129356557Y-111103597D01*
X129375803Y-111087803D01*
X129391597Y-111068557D01*
X129403333Y-111046601D01*
X129410560Y-111022776D01*
X129413000Y-110998000D01*
X129413000Y-109768202D01*
X175272403Y-109768202D01*
X175343986Y-110012171D01*
X175599496Y-110133071D01*
X175873684Y-110201800D01*
X176156012Y-110215717D01*
X176435630Y-110174287D01*
X176701792Y-110079103D01*
X176827014Y-110012171D01*
X176898597Y-109768202D01*
X176085500Y-108955105D01*
X175272403Y-109768202D01*
X129413000Y-109768202D01*
X129413000Y-108638000D01*
X172563428Y-108638000D01*
X172575688Y-108762482D01*
X172611998Y-108882180D01*
X172670963Y-108992494D01*
X172750315Y-109089185D01*
X172847006Y-109168537D01*
X172957320Y-109227502D01*
X173077018Y-109263812D01*
X173201500Y-109276072D01*
X173640750Y-109273000D01*
X173799500Y-109114250D01*
X173799500Y-108265000D01*
X172725250Y-108265000D01*
X172566500Y-108423750D01*
X172563428Y-108638000D01*
X129413000Y-108638000D01*
X129413000Y-106238000D01*
X172534799Y-106238000D01*
X172561540Y-106509507D01*
X172567472Y-106529063D01*
X172580492Y-106661254D01*
X172631028Y-106827850D01*
X172713095Y-106981386D01*
X172823538Y-107115962D01*
X172830094Y-107121342D01*
X172750315Y-107186815D01*
X172670963Y-107283506D01*
X172611998Y-107393820D01*
X172575688Y-107513518D01*
X172563428Y-107638000D01*
X172566500Y-107852250D01*
X172725250Y-108011000D01*
X173799500Y-108011000D01*
X173799500Y-107991000D01*
X174053500Y-107991000D01*
X174053500Y-108011000D01*
X174927170Y-108011000D01*
X174848829Y-108033986D01*
X174739520Y-108265000D01*
X174053500Y-108265000D01*
X174053500Y-109114250D01*
X174212250Y-109273000D01*
X174651500Y-109276072D01*
X174737485Y-109267603D01*
X174781897Y-109391792D01*
X174848829Y-109517014D01*
X175092798Y-109588597D01*
X175905895Y-108775500D01*
X176265105Y-108775500D01*
X177078202Y-109588597D01*
X177322171Y-109517014D01*
X177443071Y-109261504D01*
X177511800Y-108987316D01*
X177525717Y-108704988D01*
X177484287Y-108425370D01*
X177389103Y-108159208D01*
X177322171Y-108033986D01*
X177078202Y-107962403D01*
X176265105Y-108775500D01*
X175905895Y-108775500D01*
X175891753Y-108761358D01*
X176071358Y-108581753D01*
X176085500Y-108595895D01*
X176898597Y-107782798D01*
X176878285Y-107713572D01*
X176885500Y-107713572D01*
X177009982Y-107701312D01*
X177129680Y-107665002D01*
X177239994Y-107606037D01*
X177336685Y-107526685D01*
X177416037Y-107429994D01*
X177475002Y-107319680D01*
X177511312Y-107199982D01*
X177523572Y-107075500D01*
X177523572Y-105475500D01*
X177511312Y-105351018D01*
X177475002Y-105231320D01*
X177416037Y-105121006D01*
X177336685Y-105024315D01*
X177239994Y-104944963D01*
X177129680Y-104885998D01*
X177009982Y-104849688D01*
X176885500Y-104837428D01*
X175285500Y-104837428D01*
X175161018Y-104849688D01*
X175150100Y-104853000D01*
X173858463Y-104853000D01*
X173654993Y-104873040D01*
X173393919Y-104952236D01*
X173153312Y-105080843D01*
X172942419Y-105253919D01*
X172920911Y-105280127D01*
X172823538Y-105360038D01*
X172713095Y-105494614D01*
X172631028Y-105648150D01*
X172580492Y-105814746D01*
X172567472Y-105946937D01*
X172561540Y-105966493D01*
X172534799Y-106238000D01*
X129413000Y-106238000D01*
X129413000Y-103441702D01*
X175145403Y-103441702D01*
X175216986Y-103685671D01*
X175472496Y-103806571D01*
X175746684Y-103875300D01*
X176029012Y-103889217D01*
X176308630Y-103847787D01*
X176574792Y-103752603D01*
X176700014Y-103685671D01*
X176771597Y-103441702D01*
X175958500Y-102628605D01*
X175145403Y-103441702D01*
X129413000Y-103441702D01*
X129413000Y-102997000D01*
X164084000Y-102997000D01*
X164108776Y-102994560D01*
X164132601Y-102987333D01*
X164154557Y-102975597D01*
X164173803Y-102959803D01*
X164189597Y-102940557D01*
X164201333Y-102918601D01*
X164208560Y-102894776D01*
X164211000Y-102870000D01*
X164211000Y-102519512D01*
X174518283Y-102519512D01*
X174559713Y-102799130D01*
X174654897Y-103065292D01*
X174721829Y-103190514D01*
X174965798Y-103262097D01*
X175778895Y-102449000D01*
X174965798Y-101635903D01*
X174721829Y-101707486D01*
X174600929Y-101962996D01*
X174532200Y-102237184D01*
X174518283Y-102519512D01*
X164211000Y-102519512D01*
X164211000Y-99149000D01*
X174520428Y-99149000D01*
X174520428Y-100749000D01*
X174532688Y-100873482D01*
X174568998Y-100993180D01*
X174627963Y-101103494D01*
X174707315Y-101200185D01*
X174804006Y-101279537D01*
X174914320Y-101338502D01*
X175034018Y-101374812D01*
X175158500Y-101387072D01*
X175165715Y-101387072D01*
X175145403Y-101456298D01*
X175958500Y-102269395D01*
X175972643Y-102255253D01*
X176152248Y-102434858D01*
X176138105Y-102449000D01*
X176951202Y-103262097D01*
X177066999Y-103228121D01*
X177077518Y-103231312D01*
X177202000Y-103243572D01*
X177641250Y-103240500D01*
X177800000Y-103081750D01*
X177800000Y-102232500D01*
X178054000Y-102232500D01*
X178054000Y-103081750D01*
X178212750Y-103240500D01*
X178652000Y-103243572D01*
X178776482Y-103231312D01*
X178896180Y-103195002D01*
X179006494Y-103136037D01*
X179103185Y-103056685D01*
X179182537Y-102959994D01*
X179241502Y-102849680D01*
X179277812Y-102729982D01*
X179290072Y-102605500D01*
X179287000Y-102391250D01*
X179128250Y-102232500D01*
X178054000Y-102232500D01*
X177800000Y-102232500D01*
X177780000Y-102232500D01*
X177780000Y-101978500D01*
X177800000Y-101978500D01*
X177800000Y-101958500D01*
X178054000Y-101958500D01*
X178054000Y-101978500D01*
X179128250Y-101978500D01*
X179287000Y-101819750D01*
X179290072Y-101605500D01*
X179277812Y-101481018D01*
X179241502Y-101361320D01*
X179182537Y-101251006D01*
X179103185Y-101154315D01*
X179023406Y-101088842D01*
X179029962Y-101083462D01*
X179140405Y-100948886D01*
X179222472Y-100795350D01*
X179273008Y-100628754D01*
X179286028Y-100496563D01*
X179291960Y-100477007D01*
X179318701Y-100205500D01*
X179291960Y-99933993D01*
X179286028Y-99914437D01*
X179273008Y-99782246D01*
X179222472Y-99615650D01*
X179140405Y-99462114D01*
X179029962Y-99327538D01*
X178932589Y-99247627D01*
X178911081Y-99221419D01*
X178700188Y-99048343D01*
X178459581Y-98919736D01*
X178198507Y-98840540D01*
X177995037Y-98820500D01*
X177302931Y-98820500D01*
X177289037Y-98794506D01*
X177209685Y-98697815D01*
X177112994Y-98618463D01*
X177002680Y-98559498D01*
X176882982Y-98523188D01*
X176758500Y-98510928D01*
X175158500Y-98510928D01*
X175034018Y-98523188D01*
X174914320Y-98559498D01*
X174804006Y-98618463D01*
X174707315Y-98697815D01*
X174627963Y-98794506D01*
X174568998Y-98904820D01*
X174532688Y-99024518D01*
X174520428Y-99149000D01*
X164211000Y-99149000D01*
X164211000Y-96647000D01*
X180213000Y-96647000D01*
X180213000Y-110236000D01*
%TA.AperFunction,Conductor*%
D25*
G36*
X180213000Y-110236000D02*
G01*
X180215440Y-110260776D01*
X180222667Y-110284601D01*
X180234403Y-110306557D01*
X180250197Y-110325803D01*
X180269443Y-110341597D01*
X180291399Y-110353333D01*
X180315224Y-110360560D01*
X180340000Y-110363000D01*
X187833000Y-110363000D01*
X187833000Y-122184573D01*
X187735890Y-122184573D01*
X187296282Y-122272016D01*
X186882181Y-122443543D01*
X186509500Y-122692560D01*
X186192560Y-123009500D01*
X185943543Y-123382181D01*
X185772016Y-123796282D01*
X185684573Y-124235890D01*
X185684573Y-124684110D01*
X185772016Y-125123718D01*
X185943543Y-125537819D01*
X186192560Y-125910500D01*
X186509500Y-126227440D01*
X186677958Y-126340000D01*
X146177000Y-126340000D01*
X146177000Y-121632702D01*
X179526903Y-121632702D01*
X179598486Y-121876671D01*
X179853996Y-121997571D01*
X180128184Y-122066300D01*
X180410512Y-122080217D01*
X180690130Y-122038787D01*
X180956292Y-121943603D01*
X181081514Y-121876671D01*
X181153097Y-121632702D01*
X180340000Y-120819605D01*
X179526903Y-121632702D01*
X146177000Y-121632702D01*
X146177000Y-120710512D01*
X178899783Y-120710512D01*
X178941213Y-120990130D01*
X179036397Y-121256292D01*
X179103329Y-121381514D01*
X179347298Y-121453097D01*
X180160395Y-120640000D01*
X179347298Y-119826903D01*
X179103329Y-119898486D01*
X178982429Y-120153996D01*
X178913700Y-120428184D01*
X178899783Y-120710512D01*
X146177000Y-120710512D01*
X146177000Y-119647298D01*
X179526903Y-119647298D01*
X180340000Y-120460395D01*
X180354143Y-120446253D01*
X180533748Y-120625858D01*
X180519605Y-120640000D01*
X181332702Y-121453097D01*
X181576671Y-121381514D01*
X181697571Y-121126004D01*
X181766300Y-120851816D01*
X181780217Y-120569488D01*
X181769737Y-120498755D01*
X181776518Y-120500812D01*
X181901000Y-120513072D01*
X182340250Y-120510000D01*
X182499000Y-120351250D01*
X182499000Y-119502000D01*
X182753000Y-119502000D01*
X182753000Y-120351250D01*
X182911750Y-120510000D01*
X183351000Y-120513072D01*
X183475482Y-120500812D01*
X183595180Y-120464502D01*
X183705494Y-120405537D01*
X183802185Y-120326185D01*
X183881537Y-120229494D01*
X183940502Y-120119180D01*
X183976812Y-119999482D01*
X183989072Y-119875000D01*
X183986000Y-119660750D01*
X183827250Y-119502000D01*
X182753000Y-119502000D01*
X182499000Y-119502000D01*
X181424750Y-119502000D01*
X181332549Y-119594202D01*
X181269370Y-119531023D01*
X181153097Y-119647296D01*
X181081514Y-119403329D01*
X180826004Y-119282429D01*
X180551816Y-119213700D01*
X180269488Y-119199783D01*
X179989870Y-119241213D01*
X179723708Y-119336397D01*
X179598486Y-119403329D01*
X179526903Y-119647298D01*
X146177000Y-119647298D01*
X146177000Y-116040000D01*
X178901928Y-116040000D01*
X178901928Y-117640000D01*
X178914188Y-117764482D01*
X178950498Y-117884180D01*
X179009463Y-117994494D01*
X179088815Y-118091185D01*
X179185506Y-118170537D01*
X179295820Y-118229502D01*
X179415518Y-118265812D01*
X179540000Y-118278072D01*
X180557617Y-118278072D01*
X180626996Y-118315156D01*
X180797589Y-118366905D01*
X180930548Y-118380000D01*
X180930558Y-118380000D01*
X180975000Y-118384377D01*
X181019442Y-118380000D01*
X181503204Y-118380000D01*
X181449815Y-118423815D01*
X181370463Y-118520506D01*
X181311498Y-118630820D01*
X181275188Y-118750518D01*
X181262928Y-118875000D01*
X181266000Y-119089250D01*
X181424750Y-119248000D01*
X182499000Y-119248000D01*
X182499000Y-119228000D01*
X182753000Y-119228000D01*
X182753000Y-119248000D01*
X183827250Y-119248000D01*
X183986000Y-119089250D01*
X183989072Y-118875000D01*
X183976812Y-118750518D01*
X183940502Y-118630820D01*
X183881537Y-118520506D01*
X183802185Y-118423815D01*
X183722406Y-118358342D01*
X183728962Y-118352962D01*
X183839405Y-118218386D01*
X183921472Y-118064850D01*
X183972008Y-117898254D01*
X183989072Y-117725000D01*
X183989072Y-117225000D01*
X183972008Y-117051746D01*
X183921472Y-116885150D01*
X183839405Y-116731614D01*
X183728962Y-116597038D01*
X183594386Y-116486595D01*
X183440850Y-116404528D01*
X183274254Y-116353992D01*
X183101000Y-116336928D01*
X182151000Y-116336928D01*
X181977746Y-116353992D01*
X181811150Y-116404528D01*
X181778072Y-116422209D01*
X181778072Y-116040000D01*
X181765812Y-115915518D01*
X181729502Y-115795820D01*
X181670537Y-115685506D01*
X181591185Y-115588815D01*
X181494494Y-115509463D01*
X181384180Y-115450498D01*
X181264482Y-115414188D01*
X181140000Y-115401928D01*
X179540000Y-115401928D01*
X179415518Y-115414188D01*
X179295820Y-115450498D01*
X179185506Y-115509463D01*
X179088815Y-115588815D01*
X179009463Y-115685506D01*
X178950498Y-115795820D01*
X178914188Y-115915518D01*
X178901928Y-116040000D01*
X146177000Y-116040000D01*
X146177000Y-115570000D01*
X146174560Y-115545224D01*
X146167333Y-115521399D01*
X146155597Y-115499443D01*
X146139803Y-115480197D01*
X146120557Y-115464403D01*
X146098601Y-115452667D01*
X146074776Y-115445440D01*
X146050000Y-115443000D01*
X127000000Y-115443000D01*
X126975224Y-115445440D01*
X126951399Y-115452667D01*
X126929443Y-115464403D01*
X126910197Y-115480197D01*
X126894403Y-115499443D01*
X126882667Y-115521399D01*
X126875440Y-115545224D01*
X126873000Y-115570000D01*
X126873000Y-121539000D01*
X125842351Y-121539000D01*
X125963606Y-121455210D01*
X126173748Y-121238396D01*
X126337554Y-120984751D01*
X126448729Y-120704023D01*
X126503000Y-120407000D01*
X126503000Y-119507000D01*
X125095000Y-119507000D01*
X125095000Y-119527000D01*
X124841000Y-119527000D01*
X124841000Y-119507000D01*
X123433000Y-119507000D01*
X123433000Y-120407000D01*
X123487271Y-120704023D01*
X123598446Y-120984751D01*
X123762252Y-121238396D01*
X123972394Y-121455210D01*
X124093649Y-121539000D01*
X122809000Y-121539000D01*
X122809000Y-118353000D01*
X123433000Y-118353000D01*
X123433000Y-119253000D01*
X124841000Y-119253000D01*
X124841000Y-117109622D01*
X125095000Y-117109622D01*
X125095000Y-119253000D01*
X126503000Y-119253000D01*
X126503000Y-118353000D01*
X126448729Y-118055977D01*
X126337554Y-117775249D01*
X126173748Y-117521604D01*
X125963606Y-117304790D01*
X125715204Y-117133138D01*
X125438087Y-117013245D01*
X125332740Y-116988964D01*
X125095000Y-117109622D01*
X124841000Y-117109622D01*
X124603260Y-116988964D01*
X124497913Y-117013245D01*
X124220796Y-117133138D01*
X123972394Y-117304790D01*
X123762252Y-117521604D01*
X123598446Y-117775249D01*
X123487271Y-118055977D01*
X123433000Y-118353000D01*
X122809000Y-118353000D01*
X122809000Y-111125000D01*
X129286000Y-111125000D01*
X129310776Y-111122560D01*
X129334601Y-111115333D01*
X129356557Y-111103597D01*
X129375803Y-111087803D01*
X129391597Y-111068557D01*
X129403333Y-111046601D01*
X129410560Y-111022776D01*
X129413000Y-110998000D01*
X129413000Y-109768202D01*
X175272403Y-109768202D01*
X175343986Y-110012171D01*
X175599496Y-110133071D01*
X175873684Y-110201800D01*
X176156012Y-110215717D01*
X176435630Y-110174287D01*
X176701792Y-110079103D01*
X176827014Y-110012171D01*
X176898597Y-109768202D01*
X176085500Y-108955105D01*
X175272403Y-109768202D01*
X129413000Y-109768202D01*
X129413000Y-108638000D01*
X172563428Y-108638000D01*
X172575688Y-108762482D01*
X172611998Y-108882180D01*
X172670963Y-108992494D01*
X172750315Y-109089185D01*
X172847006Y-109168537D01*
X172957320Y-109227502D01*
X173077018Y-109263812D01*
X173201500Y-109276072D01*
X173640750Y-109273000D01*
X173799500Y-109114250D01*
X173799500Y-108265000D01*
X172725250Y-108265000D01*
X172566500Y-108423750D01*
X172563428Y-108638000D01*
X129413000Y-108638000D01*
X129413000Y-106238000D01*
X172534799Y-106238000D01*
X172561540Y-106509507D01*
X172567472Y-106529063D01*
X172580492Y-106661254D01*
X172631028Y-106827850D01*
X172713095Y-106981386D01*
X172823538Y-107115962D01*
X172830094Y-107121342D01*
X172750315Y-107186815D01*
X172670963Y-107283506D01*
X172611998Y-107393820D01*
X172575688Y-107513518D01*
X172563428Y-107638000D01*
X172566500Y-107852250D01*
X172725250Y-108011000D01*
X173799500Y-108011000D01*
X173799500Y-107991000D01*
X174053500Y-107991000D01*
X174053500Y-108011000D01*
X174927170Y-108011000D01*
X174848829Y-108033986D01*
X174739520Y-108265000D01*
X174053500Y-108265000D01*
X174053500Y-109114250D01*
X174212250Y-109273000D01*
X174651500Y-109276072D01*
X174737485Y-109267603D01*
X174781897Y-109391792D01*
X174848829Y-109517014D01*
X175092798Y-109588597D01*
X175905895Y-108775500D01*
X176265105Y-108775500D01*
X177078202Y-109588597D01*
X177322171Y-109517014D01*
X177443071Y-109261504D01*
X177511800Y-108987316D01*
X177525717Y-108704988D01*
X177484287Y-108425370D01*
X177389103Y-108159208D01*
X177322171Y-108033986D01*
X177078202Y-107962403D01*
X176265105Y-108775500D01*
X175905895Y-108775500D01*
X175891753Y-108761358D01*
X176071358Y-108581753D01*
X176085500Y-108595895D01*
X176898597Y-107782798D01*
X176878285Y-107713572D01*
X176885500Y-107713572D01*
X177009982Y-107701312D01*
X177129680Y-107665002D01*
X177239994Y-107606037D01*
X177336685Y-107526685D01*
X177416037Y-107429994D01*
X177475002Y-107319680D01*
X177511312Y-107199982D01*
X177523572Y-107075500D01*
X177523572Y-105475500D01*
X177511312Y-105351018D01*
X177475002Y-105231320D01*
X177416037Y-105121006D01*
X177336685Y-105024315D01*
X177239994Y-104944963D01*
X177129680Y-104885998D01*
X177009982Y-104849688D01*
X176885500Y-104837428D01*
X175285500Y-104837428D01*
X175161018Y-104849688D01*
X175150100Y-104853000D01*
X173858463Y-104853000D01*
X173654993Y-104873040D01*
X173393919Y-104952236D01*
X173153312Y-105080843D01*
X172942419Y-105253919D01*
X172920911Y-105280127D01*
X172823538Y-105360038D01*
X172713095Y-105494614D01*
X172631028Y-105648150D01*
X172580492Y-105814746D01*
X172567472Y-105946937D01*
X172561540Y-105966493D01*
X172534799Y-106238000D01*
X129413000Y-106238000D01*
X129413000Y-103441702D01*
X175145403Y-103441702D01*
X175216986Y-103685671D01*
X175472496Y-103806571D01*
X175746684Y-103875300D01*
X176029012Y-103889217D01*
X176308630Y-103847787D01*
X176574792Y-103752603D01*
X176700014Y-103685671D01*
X176771597Y-103441702D01*
X175958500Y-102628605D01*
X175145403Y-103441702D01*
X129413000Y-103441702D01*
X129413000Y-102997000D01*
X164084000Y-102997000D01*
X164108776Y-102994560D01*
X164132601Y-102987333D01*
X164154557Y-102975597D01*
X164173803Y-102959803D01*
X164189597Y-102940557D01*
X164201333Y-102918601D01*
X164208560Y-102894776D01*
X164211000Y-102870000D01*
X164211000Y-102519512D01*
X174518283Y-102519512D01*
X174559713Y-102799130D01*
X174654897Y-103065292D01*
X174721829Y-103190514D01*
X174965798Y-103262097D01*
X175778895Y-102449000D01*
X174965798Y-101635903D01*
X174721829Y-101707486D01*
X174600929Y-101962996D01*
X174532200Y-102237184D01*
X174518283Y-102519512D01*
X164211000Y-102519512D01*
X164211000Y-99149000D01*
X174520428Y-99149000D01*
X174520428Y-100749000D01*
X174532688Y-100873482D01*
X174568998Y-100993180D01*
X174627963Y-101103494D01*
X174707315Y-101200185D01*
X174804006Y-101279537D01*
X174914320Y-101338502D01*
X175034018Y-101374812D01*
X175158500Y-101387072D01*
X175165715Y-101387072D01*
X175145403Y-101456298D01*
X175958500Y-102269395D01*
X175972643Y-102255253D01*
X176152248Y-102434858D01*
X176138105Y-102449000D01*
X176951202Y-103262097D01*
X177066999Y-103228121D01*
X177077518Y-103231312D01*
X177202000Y-103243572D01*
X177641250Y-103240500D01*
X177800000Y-103081750D01*
X177800000Y-102232500D01*
X178054000Y-102232500D01*
X178054000Y-103081750D01*
X178212750Y-103240500D01*
X178652000Y-103243572D01*
X178776482Y-103231312D01*
X178896180Y-103195002D01*
X179006494Y-103136037D01*
X179103185Y-103056685D01*
X179182537Y-102959994D01*
X179241502Y-102849680D01*
X179277812Y-102729982D01*
X179290072Y-102605500D01*
X179287000Y-102391250D01*
X179128250Y-102232500D01*
X178054000Y-102232500D01*
X177800000Y-102232500D01*
X177780000Y-102232500D01*
X177780000Y-101978500D01*
X177800000Y-101978500D01*
X177800000Y-101958500D01*
X178054000Y-101958500D01*
X178054000Y-101978500D01*
X179128250Y-101978500D01*
X179287000Y-101819750D01*
X179290072Y-101605500D01*
X179277812Y-101481018D01*
X179241502Y-101361320D01*
X179182537Y-101251006D01*
X179103185Y-101154315D01*
X179023406Y-101088842D01*
X179029962Y-101083462D01*
X179140405Y-100948886D01*
X179222472Y-100795350D01*
X179273008Y-100628754D01*
X179286028Y-100496563D01*
X179291960Y-100477007D01*
X179318701Y-100205500D01*
X179291960Y-99933993D01*
X179286028Y-99914437D01*
X179273008Y-99782246D01*
X179222472Y-99615650D01*
X179140405Y-99462114D01*
X179029962Y-99327538D01*
X178932589Y-99247627D01*
X178911081Y-99221419D01*
X178700188Y-99048343D01*
X178459581Y-98919736D01*
X178198507Y-98840540D01*
X177995037Y-98820500D01*
X177302931Y-98820500D01*
X177289037Y-98794506D01*
X177209685Y-98697815D01*
X177112994Y-98618463D01*
X177002680Y-98559498D01*
X176882982Y-98523188D01*
X176758500Y-98510928D01*
X175158500Y-98510928D01*
X175034018Y-98523188D01*
X174914320Y-98559498D01*
X174804006Y-98618463D01*
X174707315Y-98697815D01*
X174627963Y-98794506D01*
X174568998Y-98904820D01*
X174532688Y-99024518D01*
X174520428Y-99149000D01*
X164211000Y-99149000D01*
X164211000Y-96647000D01*
X180213000Y-96647000D01*
X180213000Y-110236000D01*
G37*
%TD.AperFunction*%
%TD*%
D24*
%TO.N,+24V*%
X121031000Y-72752864D02*
X120883606Y-72600790D01*
X120635204Y-72429138D01*
X120358087Y-72309245D01*
X120252740Y-72284964D01*
X120015000Y-72405622D01*
X120015000Y-74549000D01*
X120035000Y-74549000D01*
X120035000Y-74803000D01*
X120015000Y-74803000D01*
X120015000Y-76946378D01*
X120252740Y-77067036D01*
X120358087Y-77042755D01*
X120635204Y-76922862D01*
X120883606Y-76751210D01*
X121031000Y-76599136D01*
X121031000Y-117456864D01*
X120883606Y-117304790D01*
X120635204Y-117133138D01*
X120358087Y-117013245D01*
X120252740Y-116988964D01*
X120015000Y-117109622D01*
X120015000Y-119253000D01*
X120035000Y-119253000D01*
X120035000Y-119507000D01*
X120015000Y-119507000D01*
X120015000Y-121650378D01*
X120252740Y-121771036D01*
X120358087Y-121746755D01*
X120635204Y-121626862D01*
X120883606Y-121455210D01*
X121031000Y-121303136D01*
X121031000Y-124714000D01*
X121033440Y-124738776D01*
X121040667Y-124762601D01*
X121052403Y-124784557D01*
X121068197Y-124803803D01*
X121087443Y-124819597D01*
X121109399Y-124831333D01*
X121133224Y-124838560D01*
X121158000Y-124841000D01*
X137922000Y-124841000D01*
X137946776Y-124838560D01*
X137970601Y-124831333D01*
X137992557Y-124819597D01*
X138011803Y-124803803D01*
X138027597Y-124784557D01*
X138039333Y-124762601D01*
X138046560Y-124738776D01*
X138049000Y-124714000D01*
X138049000Y-118580000D01*
X141360728Y-118580000D01*
X141363800Y-119094250D01*
X141522550Y-119253000D01*
X142671800Y-119253000D01*
X142671800Y-118103750D01*
X142925800Y-118103750D01*
X142925800Y-119253000D01*
X144075050Y-119253000D01*
X144233800Y-119094250D01*
X144236872Y-118580000D01*
X144224612Y-118455518D01*
X144188302Y-118335820D01*
X144129337Y-118225506D01*
X144049985Y-118128815D01*
X143953294Y-118049463D01*
X143842980Y-117990498D01*
X143723282Y-117954188D01*
X143598800Y-117941928D01*
X143084550Y-117945000D01*
X142925800Y-118103750D01*
X142671800Y-118103750D01*
X142513050Y-117945000D01*
X141998800Y-117941928D01*
X141874318Y-117954188D01*
X141754620Y-117990498D01*
X141644306Y-118049463D01*
X141547615Y-118128815D01*
X141468263Y-118225506D01*
X141409298Y-118335820D01*
X141372988Y-118455518D01*
X141360728Y-118580000D01*
X138049000Y-118580000D01*
X138049000Y-117475000D01*
X144907000Y-117475000D01*
X144907000Y-120777000D01*
X143818262Y-120777000D01*
X143842980Y-120769502D01*
X143953294Y-120710537D01*
X144049985Y-120631185D01*
X144129337Y-120534494D01*
X144188302Y-120424180D01*
X144224612Y-120304482D01*
X144236872Y-120180000D01*
X144233800Y-119665750D01*
X144075050Y-119507000D01*
X142925800Y-119507000D01*
X142925800Y-119527000D01*
X142671800Y-119527000D01*
X142671800Y-119507000D01*
X141522550Y-119507000D01*
X141363800Y-119665750D01*
X141360728Y-120180000D01*
X141372988Y-120304482D01*
X141409298Y-120424180D01*
X141468263Y-120534494D01*
X141547615Y-120631185D01*
X141644306Y-120710537D01*
X141754620Y-120769502D01*
X141779338Y-120777000D01*
X139954000Y-120777000D01*
X139929224Y-120779440D01*
X139905399Y-120786667D01*
X139883443Y-120798403D01*
X139864197Y-120814197D01*
X139848403Y-120833443D01*
X139836667Y-120855399D01*
X139829440Y-120879224D01*
X139827000Y-120904000D01*
X139827000Y-126340000D01*
X118491000Y-126340000D01*
X118491000Y-120915447D01*
X118518446Y-120984751D01*
X118682252Y-121238396D01*
X118892394Y-121455210D01*
X119140796Y-121626862D01*
X119417913Y-121746755D01*
X119523260Y-121771036D01*
X119761000Y-121650378D01*
X119761000Y-119507000D01*
X119741000Y-119507000D01*
X119741000Y-119253000D01*
X119761000Y-119253000D01*
X119761000Y-117109622D01*
X119523260Y-116988964D01*
X119417913Y-117013245D01*
X119140796Y-117133138D01*
X118892394Y-117304790D01*
X118682252Y-117521604D01*
X118518446Y-117775249D01*
X118491000Y-117844553D01*
X118491000Y-76211447D01*
X118518446Y-76280751D01*
X118682252Y-76534396D01*
X118892394Y-76751210D01*
X119140796Y-76922862D01*
X119417913Y-77042755D01*
X119523260Y-77067036D01*
X119761000Y-76946378D01*
X119761000Y-74803000D01*
X119741000Y-74803000D01*
X119741000Y-74549000D01*
X119761000Y-74549000D01*
X119761000Y-72405622D01*
X119523260Y-72284964D01*
X119417913Y-72309245D01*
X119140796Y-72429138D01*
X118892394Y-72600790D01*
X118682252Y-72817604D01*
X118518446Y-73071249D01*
X118491000Y-73140553D01*
X118491000Y-71611857D01*
X121031000Y-71265493D01*
X121031000Y-72752864D01*
%TA.AperFunction,Conductor*%
D25*
G36*
X121031000Y-72752864D02*
G01*
X120883606Y-72600790D01*
X120635204Y-72429138D01*
X120358087Y-72309245D01*
X120252740Y-72284964D01*
X120015000Y-72405622D01*
X120015000Y-74549000D01*
X120035000Y-74549000D01*
X120035000Y-74803000D01*
X120015000Y-74803000D01*
X120015000Y-76946378D01*
X120252740Y-77067036D01*
X120358087Y-77042755D01*
X120635204Y-76922862D01*
X120883606Y-76751210D01*
X121031000Y-76599136D01*
X121031000Y-117456864D01*
X120883606Y-117304790D01*
X120635204Y-117133138D01*
X120358087Y-117013245D01*
X120252740Y-116988964D01*
X120015000Y-117109622D01*
X120015000Y-119253000D01*
X120035000Y-119253000D01*
X120035000Y-119507000D01*
X120015000Y-119507000D01*
X120015000Y-121650378D01*
X120252740Y-121771036D01*
X120358087Y-121746755D01*
X120635204Y-121626862D01*
X120883606Y-121455210D01*
X121031000Y-121303136D01*
X121031000Y-124714000D01*
X121033440Y-124738776D01*
X121040667Y-124762601D01*
X121052403Y-124784557D01*
X121068197Y-124803803D01*
X121087443Y-124819597D01*
X121109399Y-124831333D01*
X121133224Y-124838560D01*
X121158000Y-124841000D01*
X137922000Y-124841000D01*
X137946776Y-124838560D01*
X137970601Y-124831333D01*
X137992557Y-124819597D01*
X138011803Y-124803803D01*
X138027597Y-124784557D01*
X138039333Y-124762601D01*
X138046560Y-124738776D01*
X138049000Y-124714000D01*
X138049000Y-118580000D01*
X141360728Y-118580000D01*
X141363800Y-119094250D01*
X141522550Y-119253000D01*
X142671800Y-119253000D01*
X142671800Y-118103750D01*
X142925800Y-118103750D01*
X142925800Y-119253000D01*
X144075050Y-119253000D01*
X144233800Y-119094250D01*
X144236872Y-118580000D01*
X144224612Y-118455518D01*
X144188302Y-118335820D01*
X144129337Y-118225506D01*
X144049985Y-118128815D01*
X143953294Y-118049463D01*
X143842980Y-117990498D01*
X143723282Y-117954188D01*
X143598800Y-117941928D01*
X143084550Y-117945000D01*
X142925800Y-118103750D01*
X142671800Y-118103750D01*
X142513050Y-117945000D01*
X141998800Y-117941928D01*
X141874318Y-117954188D01*
X141754620Y-117990498D01*
X141644306Y-118049463D01*
X141547615Y-118128815D01*
X141468263Y-118225506D01*
X141409298Y-118335820D01*
X141372988Y-118455518D01*
X141360728Y-118580000D01*
X138049000Y-118580000D01*
X138049000Y-117475000D01*
X144907000Y-117475000D01*
X144907000Y-120777000D01*
X143818262Y-120777000D01*
X143842980Y-120769502D01*
X143953294Y-120710537D01*
X144049985Y-120631185D01*
X144129337Y-120534494D01*
X144188302Y-120424180D01*
X144224612Y-120304482D01*
X144236872Y-120180000D01*
X144233800Y-119665750D01*
X144075050Y-119507000D01*
X142925800Y-119507000D01*
X142925800Y-119527000D01*
X142671800Y-119527000D01*
X142671800Y-119507000D01*
X141522550Y-119507000D01*
X141363800Y-119665750D01*
X141360728Y-120180000D01*
X141372988Y-120304482D01*
X141409298Y-120424180D01*
X141468263Y-120534494D01*
X141547615Y-120631185D01*
X141644306Y-120710537D01*
X141754620Y-120769502D01*
X141779338Y-120777000D01*
X139954000Y-120777000D01*
X139929224Y-120779440D01*
X139905399Y-120786667D01*
X139883443Y-120798403D01*
X139864197Y-120814197D01*
X139848403Y-120833443D01*
X139836667Y-120855399D01*
X139829440Y-120879224D01*
X139827000Y-120904000D01*
X139827000Y-126340000D01*
X118491000Y-126340000D01*
X118491000Y-120915447D01*
X118518446Y-120984751D01*
X118682252Y-121238396D01*
X118892394Y-121455210D01*
X119140796Y-121626862D01*
X119417913Y-121746755D01*
X119523260Y-121771036D01*
X119761000Y-121650378D01*
X119761000Y-119507000D01*
X119741000Y-119507000D01*
X119741000Y-119253000D01*
X119761000Y-119253000D01*
X119761000Y-117109622D01*
X119523260Y-116988964D01*
X119417913Y-117013245D01*
X119140796Y-117133138D01*
X118892394Y-117304790D01*
X118682252Y-117521604D01*
X118518446Y-117775249D01*
X118491000Y-117844553D01*
X118491000Y-76211447D01*
X118518446Y-76280751D01*
X118682252Y-76534396D01*
X118892394Y-76751210D01*
X119140796Y-76922862D01*
X119417913Y-77042755D01*
X119523260Y-77067036D01*
X119761000Y-76946378D01*
X119761000Y-74803000D01*
X119741000Y-74803000D01*
X119741000Y-74549000D01*
X119761000Y-74549000D01*
X119761000Y-72405622D01*
X119523260Y-72284964D01*
X119417913Y-72309245D01*
X119140796Y-72429138D01*
X118892394Y-72600790D01*
X118682252Y-72817604D01*
X118518446Y-73071249D01*
X118491000Y-73140553D01*
X118491000Y-71611857D01*
X121031000Y-71265493D01*
X121031000Y-72752864D01*
G37*
%TD.AperFunction*%
%TD*%
M02*
