%TF.GenerationSoftware,KiCad,Pcbnew,(5.1.12)-1*%
%TF.CreationDate,2022-08-10T11:31:23+05:30*%
%TF.ProjectId,AGV_SENSOR_PCB_2,4147565f-5345-44e5-934f-525f5043425f,rev?*%
%TF.SameCoordinates,Original*%
%TF.FileFunction,Soldermask,Top*%
%TF.FilePolarity,Negative*%
%FSLAX46Y46*%
G04 Gerber Fmt 4.6, Leading zero omitted, Abs format (unit mm)*
G04 Created by KiCad (PCBNEW (5.1.12)-1) date 2022-08-10 11:31:23*
%MOMM*%
%LPD*%
G01*
G04 APERTURE LIST*
%ADD10C,1.600000*%
%ADD11R,1.600000X1.600000*%
%ADD12R,1.440000X1.480000*%
%ADD13R,1.525000X0.650000*%
%ADD14R,1.700000X1.700000*%
%ADD15O,1.700000X1.700000*%
%ADD16O,1.800000X3.600000*%
%ADD17O,3.600000X1.800000*%
%ADD18R,2.900000X5.400000*%
%ADD19C,1.700000*%
%ADD20R,1.100000X4.600000*%
%ADD21R,10.800000X9.400000*%
%ADD22R,3.800000X2.000000*%
%ADD23R,1.500000X2.000000*%
%ADD24C,1.500000*%
%ADD25C,1.000000*%
G04 APERTURE END LIST*
%TO.C,U1*%
G36*
G01*
X160200000Y-77589000D02*
X160200000Y-77439000D01*
G75*
G02*
X160275000Y-77364000I75000J0D01*
G01*
X161600000Y-77364000D01*
G75*
G02*
X161675000Y-77439000I0J-75000D01*
G01*
X161675000Y-77589000D01*
G75*
G02*
X161600000Y-77664000I-75000J0D01*
G01*
X160275000Y-77664000D01*
G75*
G02*
X160200000Y-77589000I0J75000D01*
G01*
G37*
G36*
G01*
X160200000Y-78089000D02*
X160200000Y-77939000D01*
G75*
G02*
X160275000Y-77864000I75000J0D01*
G01*
X161600000Y-77864000D01*
G75*
G02*
X161675000Y-77939000I0J-75000D01*
G01*
X161675000Y-78089000D01*
G75*
G02*
X161600000Y-78164000I-75000J0D01*
G01*
X160275000Y-78164000D01*
G75*
G02*
X160200000Y-78089000I0J75000D01*
G01*
G37*
G36*
G01*
X160200000Y-78589000D02*
X160200000Y-78439000D01*
G75*
G02*
X160275000Y-78364000I75000J0D01*
G01*
X161600000Y-78364000D01*
G75*
G02*
X161675000Y-78439000I0J-75000D01*
G01*
X161675000Y-78589000D01*
G75*
G02*
X161600000Y-78664000I-75000J0D01*
G01*
X160275000Y-78664000D01*
G75*
G02*
X160200000Y-78589000I0J75000D01*
G01*
G37*
G36*
G01*
X160200000Y-79089000D02*
X160200000Y-78939000D01*
G75*
G02*
X160275000Y-78864000I75000J0D01*
G01*
X161600000Y-78864000D01*
G75*
G02*
X161675000Y-78939000I0J-75000D01*
G01*
X161675000Y-79089000D01*
G75*
G02*
X161600000Y-79164000I-75000J0D01*
G01*
X160275000Y-79164000D01*
G75*
G02*
X160200000Y-79089000I0J75000D01*
G01*
G37*
G36*
G01*
X160200000Y-79589000D02*
X160200000Y-79439000D01*
G75*
G02*
X160275000Y-79364000I75000J0D01*
G01*
X161600000Y-79364000D01*
G75*
G02*
X161675000Y-79439000I0J-75000D01*
G01*
X161675000Y-79589000D01*
G75*
G02*
X161600000Y-79664000I-75000J0D01*
G01*
X160275000Y-79664000D01*
G75*
G02*
X160200000Y-79589000I0J75000D01*
G01*
G37*
G36*
G01*
X160200000Y-80089000D02*
X160200000Y-79939000D01*
G75*
G02*
X160275000Y-79864000I75000J0D01*
G01*
X161600000Y-79864000D01*
G75*
G02*
X161675000Y-79939000I0J-75000D01*
G01*
X161675000Y-80089000D01*
G75*
G02*
X161600000Y-80164000I-75000J0D01*
G01*
X160275000Y-80164000D01*
G75*
G02*
X160200000Y-80089000I0J75000D01*
G01*
G37*
G36*
G01*
X160200000Y-80589000D02*
X160200000Y-80439000D01*
G75*
G02*
X160275000Y-80364000I75000J0D01*
G01*
X161600000Y-80364000D01*
G75*
G02*
X161675000Y-80439000I0J-75000D01*
G01*
X161675000Y-80589000D01*
G75*
G02*
X161600000Y-80664000I-75000J0D01*
G01*
X160275000Y-80664000D01*
G75*
G02*
X160200000Y-80589000I0J75000D01*
G01*
G37*
G36*
G01*
X160200000Y-81089000D02*
X160200000Y-80939000D01*
G75*
G02*
X160275000Y-80864000I75000J0D01*
G01*
X161600000Y-80864000D01*
G75*
G02*
X161675000Y-80939000I0J-75000D01*
G01*
X161675000Y-81089000D01*
G75*
G02*
X161600000Y-81164000I-75000J0D01*
G01*
X160275000Y-81164000D01*
G75*
G02*
X160200000Y-81089000I0J75000D01*
G01*
G37*
G36*
G01*
X160200000Y-81589000D02*
X160200000Y-81439000D01*
G75*
G02*
X160275000Y-81364000I75000J0D01*
G01*
X161600000Y-81364000D01*
G75*
G02*
X161675000Y-81439000I0J-75000D01*
G01*
X161675000Y-81589000D01*
G75*
G02*
X161600000Y-81664000I-75000J0D01*
G01*
X160275000Y-81664000D01*
G75*
G02*
X160200000Y-81589000I0J75000D01*
G01*
G37*
G36*
G01*
X160200000Y-82089000D02*
X160200000Y-81939000D01*
G75*
G02*
X160275000Y-81864000I75000J0D01*
G01*
X161600000Y-81864000D01*
G75*
G02*
X161675000Y-81939000I0J-75000D01*
G01*
X161675000Y-82089000D01*
G75*
G02*
X161600000Y-82164000I-75000J0D01*
G01*
X160275000Y-82164000D01*
G75*
G02*
X160200000Y-82089000I0J75000D01*
G01*
G37*
G36*
G01*
X160200000Y-82589000D02*
X160200000Y-82439000D01*
G75*
G02*
X160275000Y-82364000I75000J0D01*
G01*
X161600000Y-82364000D01*
G75*
G02*
X161675000Y-82439000I0J-75000D01*
G01*
X161675000Y-82589000D01*
G75*
G02*
X161600000Y-82664000I-75000J0D01*
G01*
X160275000Y-82664000D01*
G75*
G02*
X160200000Y-82589000I0J75000D01*
G01*
G37*
G36*
G01*
X160200000Y-83089000D02*
X160200000Y-82939000D01*
G75*
G02*
X160275000Y-82864000I75000J0D01*
G01*
X161600000Y-82864000D01*
G75*
G02*
X161675000Y-82939000I0J-75000D01*
G01*
X161675000Y-83089000D01*
G75*
G02*
X161600000Y-83164000I-75000J0D01*
G01*
X160275000Y-83164000D01*
G75*
G02*
X160200000Y-83089000I0J75000D01*
G01*
G37*
G36*
G01*
X162200000Y-85089000D02*
X162200000Y-83764000D01*
G75*
G02*
X162275000Y-83689000I75000J0D01*
G01*
X162425000Y-83689000D01*
G75*
G02*
X162500000Y-83764000I0J-75000D01*
G01*
X162500000Y-85089000D01*
G75*
G02*
X162425000Y-85164000I-75000J0D01*
G01*
X162275000Y-85164000D01*
G75*
G02*
X162200000Y-85089000I0J75000D01*
G01*
G37*
G36*
G01*
X162700000Y-85089000D02*
X162700000Y-83764000D01*
G75*
G02*
X162775000Y-83689000I75000J0D01*
G01*
X162925000Y-83689000D01*
G75*
G02*
X163000000Y-83764000I0J-75000D01*
G01*
X163000000Y-85089000D01*
G75*
G02*
X162925000Y-85164000I-75000J0D01*
G01*
X162775000Y-85164000D01*
G75*
G02*
X162700000Y-85089000I0J75000D01*
G01*
G37*
G36*
G01*
X163200000Y-85089000D02*
X163200000Y-83764000D01*
G75*
G02*
X163275000Y-83689000I75000J0D01*
G01*
X163425000Y-83689000D01*
G75*
G02*
X163500000Y-83764000I0J-75000D01*
G01*
X163500000Y-85089000D01*
G75*
G02*
X163425000Y-85164000I-75000J0D01*
G01*
X163275000Y-85164000D01*
G75*
G02*
X163200000Y-85089000I0J75000D01*
G01*
G37*
G36*
G01*
X163700000Y-85089000D02*
X163700000Y-83764000D01*
G75*
G02*
X163775000Y-83689000I75000J0D01*
G01*
X163925000Y-83689000D01*
G75*
G02*
X164000000Y-83764000I0J-75000D01*
G01*
X164000000Y-85089000D01*
G75*
G02*
X163925000Y-85164000I-75000J0D01*
G01*
X163775000Y-85164000D01*
G75*
G02*
X163700000Y-85089000I0J75000D01*
G01*
G37*
G36*
G01*
X164200000Y-85089000D02*
X164200000Y-83764000D01*
G75*
G02*
X164275000Y-83689000I75000J0D01*
G01*
X164425000Y-83689000D01*
G75*
G02*
X164500000Y-83764000I0J-75000D01*
G01*
X164500000Y-85089000D01*
G75*
G02*
X164425000Y-85164000I-75000J0D01*
G01*
X164275000Y-85164000D01*
G75*
G02*
X164200000Y-85089000I0J75000D01*
G01*
G37*
G36*
G01*
X164700000Y-85089000D02*
X164700000Y-83764000D01*
G75*
G02*
X164775000Y-83689000I75000J0D01*
G01*
X164925000Y-83689000D01*
G75*
G02*
X165000000Y-83764000I0J-75000D01*
G01*
X165000000Y-85089000D01*
G75*
G02*
X164925000Y-85164000I-75000J0D01*
G01*
X164775000Y-85164000D01*
G75*
G02*
X164700000Y-85089000I0J75000D01*
G01*
G37*
G36*
G01*
X165200000Y-85089000D02*
X165200000Y-83764000D01*
G75*
G02*
X165275000Y-83689000I75000J0D01*
G01*
X165425000Y-83689000D01*
G75*
G02*
X165500000Y-83764000I0J-75000D01*
G01*
X165500000Y-85089000D01*
G75*
G02*
X165425000Y-85164000I-75000J0D01*
G01*
X165275000Y-85164000D01*
G75*
G02*
X165200000Y-85089000I0J75000D01*
G01*
G37*
G36*
G01*
X165700000Y-85089000D02*
X165700000Y-83764000D01*
G75*
G02*
X165775000Y-83689000I75000J0D01*
G01*
X165925000Y-83689000D01*
G75*
G02*
X166000000Y-83764000I0J-75000D01*
G01*
X166000000Y-85089000D01*
G75*
G02*
X165925000Y-85164000I-75000J0D01*
G01*
X165775000Y-85164000D01*
G75*
G02*
X165700000Y-85089000I0J75000D01*
G01*
G37*
G36*
G01*
X166200000Y-85089000D02*
X166200000Y-83764000D01*
G75*
G02*
X166275000Y-83689000I75000J0D01*
G01*
X166425000Y-83689000D01*
G75*
G02*
X166500000Y-83764000I0J-75000D01*
G01*
X166500000Y-85089000D01*
G75*
G02*
X166425000Y-85164000I-75000J0D01*
G01*
X166275000Y-85164000D01*
G75*
G02*
X166200000Y-85089000I0J75000D01*
G01*
G37*
G36*
G01*
X166700000Y-85089000D02*
X166700000Y-83764000D01*
G75*
G02*
X166775000Y-83689000I75000J0D01*
G01*
X166925000Y-83689000D01*
G75*
G02*
X167000000Y-83764000I0J-75000D01*
G01*
X167000000Y-85089000D01*
G75*
G02*
X166925000Y-85164000I-75000J0D01*
G01*
X166775000Y-85164000D01*
G75*
G02*
X166700000Y-85089000I0J75000D01*
G01*
G37*
G36*
G01*
X167200000Y-85089000D02*
X167200000Y-83764000D01*
G75*
G02*
X167275000Y-83689000I75000J0D01*
G01*
X167425000Y-83689000D01*
G75*
G02*
X167500000Y-83764000I0J-75000D01*
G01*
X167500000Y-85089000D01*
G75*
G02*
X167425000Y-85164000I-75000J0D01*
G01*
X167275000Y-85164000D01*
G75*
G02*
X167200000Y-85089000I0J75000D01*
G01*
G37*
G36*
G01*
X167700000Y-85089000D02*
X167700000Y-83764000D01*
G75*
G02*
X167775000Y-83689000I75000J0D01*
G01*
X167925000Y-83689000D01*
G75*
G02*
X168000000Y-83764000I0J-75000D01*
G01*
X168000000Y-85089000D01*
G75*
G02*
X167925000Y-85164000I-75000J0D01*
G01*
X167775000Y-85164000D01*
G75*
G02*
X167700000Y-85089000I0J75000D01*
G01*
G37*
G36*
G01*
X168525000Y-83089000D02*
X168525000Y-82939000D01*
G75*
G02*
X168600000Y-82864000I75000J0D01*
G01*
X169925000Y-82864000D01*
G75*
G02*
X170000000Y-82939000I0J-75000D01*
G01*
X170000000Y-83089000D01*
G75*
G02*
X169925000Y-83164000I-75000J0D01*
G01*
X168600000Y-83164000D01*
G75*
G02*
X168525000Y-83089000I0J75000D01*
G01*
G37*
G36*
G01*
X168525000Y-82589000D02*
X168525000Y-82439000D01*
G75*
G02*
X168600000Y-82364000I75000J0D01*
G01*
X169925000Y-82364000D01*
G75*
G02*
X170000000Y-82439000I0J-75000D01*
G01*
X170000000Y-82589000D01*
G75*
G02*
X169925000Y-82664000I-75000J0D01*
G01*
X168600000Y-82664000D01*
G75*
G02*
X168525000Y-82589000I0J75000D01*
G01*
G37*
G36*
G01*
X168525000Y-82089000D02*
X168525000Y-81939000D01*
G75*
G02*
X168600000Y-81864000I75000J0D01*
G01*
X169925000Y-81864000D01*
G75*
G02*
X170000000Y-81939000I0J-75000D01*
G01*
X170000000Y-82089000D01*
G75*
G02*
X169925000Y-82164000I-75000J0D01*
G01*
X168600000Y-82164000D01*
G75*
G02*
X168525000Y-82089000I0J75000D01*
G01*
G37*
G36*
G01*
X168525000Y-81589000D02*
X168525000Y-81439000D01*
G75*
G02*
X168600000Y-81364000I75000J0D01*
G01*
X169925000Y-81364000D01*
G75*
G02*
X170000000Y-81439000I0J-75000D01*
G01*
X170000000Y-81589000D01*
G75*
G02*
X169925000Y-81664000I-75000J0D01*
G01*
X168600000Y-81664000D01*
G75*
G02*
X168525000Y-81589000I0J75000D01*
G01*
G37*
G36*
G01*
X168525000Y-81089000D02*
X168525000Y-80939000D01*
G75*
G02*
X168600000Y-80864000I75000J0D01*
G01*
X169925000Y-80864000D01*
G75*
G02*
X170000000Y-80939000I0J-75000D01*
G01*
X170000000Y-81089000D01*
G75*
G02*
X169925000Y-81164000I-75000J0D01*
G01*
X168600000Y-81164000D01*
G75*
G02*
X168525000Y-81089000I0J75000D01*
G01*
G37*
G36*
G01*
X168525000Y-80589000D02*
X168525000Y-80439000D01*
G75*
G02*
X168600000Y-80364000I75000J0D01*
G01*
X169925000Y-80364000D01*
G75*
G02*
X170000000Y-80439000I0J-75000D01*
G01*
X170000000Y-80589000D01*
G75*
G02*
X169925000Y-80664000I-75000J0D01*
G01*
X168600000Y-80664000D01*
G75*
G02*
X168525000Y-80589000I0J75000D01*
G01*
G37*
G36*
G01*
X168525000Y-80089000D02*
X168525000Y-79939000D01*
G75*
G02*
X168600000Y-79864000I75000J0D01*
G01*
X169925000Y-79864000D01*
G75*
G02*
X170000000Y-79939000I0J-75000D01*
G01*
X170000000Y-80089000D01*
G75*
G02*
X169925000Y-80164000I-75000J0D01*
G01*
X168600000Y-80164000D01*
G75*
G02*
X168525000Y-80089000I0J75000D01*
G01*
G37*
G36*
G01*
X168525000Y-79589000D02*
X168525000Y-79439000D01*
G75*
G02*
X168600000Y-79364000I75000J0D01*
G01*
X169925000Y-79364000D01*
G75*
G02*
X170000000Y-79439000I0J-75000D01*
G01*
X170000000Y-79589000D01*
G75*
G02*
X169925000Y-79664000I-75000J0D01*
G01*
X168600000Y-79664000D01*
G75*
G02*
X168525000Y-79589000I0J75000D01*
G01*
G37*
G36*
G01*
X168525000Y-79089000D02*
X168525000Y-78939000D01*
G75*
G02*
X168600000Y-78864000I75000J0D01*
G01*
X169925000Y-78864000D01*
G75*
G02*
X170000000Y-78939000I0J-75000D01*
G01*
X170000000Y-79089000D01*
G75*
G02*
X169925000Y-79164000I-75000J0D01*
G01*
X168600000Y-79164000D01*
G75*
G02*
X168525000Y-79089000I0J75000D01*
G01*
G37*
G36*
G01*
X168525000Y-78589000D02*
X168525000Y-78439000D01*
G75*
G02*
X168600000Y-78364000I75000J0D01*
G01*
X169925000Y-78364000D01*
G75*
G02*
X170000000Y-78439000I0J-75000D01*
G01*
X170000000Y-78589000D01*
G75*
G02*
X169925000Y-78664000I-75000J0D01*
G01*
X168600000Y-78664000D01*
G75*
G02*
X168525000Y-78589000I0J75000D01*
G01*
G37*
G36*
G01*
X168525000Y-78089000D02*
X168525000Y-77939000D01*
G75*
G02*
X168600000Y-77864000I75000J0D01*
G01*
X169925000Y-77864000D01*
G75*
G02*
X170000000Y-77939000I0J-75000D01*
G01*
X170000000Y-78089000D01*
G75*
G02*
X169925000Y-78164000I-75000J0D01*
G01*
X168600000Y-78164000D01*
G75*
G02*
X168525000Y-78089000I0J75000D01*
G01*
G37*
G36*
G01*
X168525000Y-77589000D02*
X168525000Y-77439000D01*
G75*
G02*
X168600000Y-77364000I75000J0D01*
G01*
X169925000Y-77364000D01*
G75*
G02*
X170000000Y-77439000I0J-75000D01*
G01*
X170000000Y-77589000D01*
G75*
G02*
X169925000Y-77664000I-75000J0D01*
G01*
X168600000Y-77664000D01*
G75*
G02*
X168525000Y-77589000I0J75000D01*
G01*
G37*
G36*
G01*
X167700000Y-76764000D02*
X167700000Y-75439000D01*
G75*
G02*
X167775000Y-75364000I75000J0D01*
G01*
X167925000Y-75364000D01*
G75*
G02*
X168000000Y-75439000I0J-75000D01*
G01*
X168000000Y-76764000D01*
G75*
G02*
X167925000Y-76839000I-75000J0D01*
G01*
X167775000Y-76839000D01*
G75*
G02*
X167700000Y-76764000I0J75000D01*
G01*
G37*
G36*
G01*
X167200000Y-76764000D02*
X167200000Y-75439000D01*
G75*
G02*
X167275000Y-75364000I75000J0D01*
G01*
X167425000Y-75364000D01*
G75*
G02*
X167500000Y-75439000I0J-75000D01*
G01*
X167500000Y-76764000D01*
G75*
G02*
X167425000Y-76839000I-75000J0D01*
G01*
X167275000Y-76839000D01*
G75*
G02*
X167200000Y-76764000I0J75000D01*
G01*
G37*
G36*
G01*
X166700000Y-76764000D02*
X166700000Y-75439000D01*
G75*
G02*
X166775000Y-75364000I75000J0D01*
G01*
X166925000Y-75364000D01*
G75*
G02*
X167000000Y-75439000I0J-75000D01*
G01*
X167000000Y-76764000D01*
G75*
G02*
X166925000Y-76839000I-75000J0D01*
G01*
X166775000Y-76839000D01*
G75*
G02*
X166700000Y-76764000I0J75000D01*
G01*
G37*
G36*
G01*
X166200000Y-76764000D02*
X166200000Y-75439000D01*
G75*
G02*
X166275000Y-75364000I75000J0D01*
G01*
X166425000Y-75364000D01*
G75*
G02*
X166500000Y-75439000I0J-75000D01*
G01*
X166500000Y-76764000D01*
G75*
G02*
X166425000Y-76839000I-75000J0D01*
G01*
X166275000Y-76839000D01*
G75*
G02*
X166200000Y-76764000I0J75000D01*
G01*
G37*
G36*
G01*
X165700000Y-76764000D02*
X165700000Y-75439000D01*
G75*
G02*
X165775000Y-75364000I75000J0D01*
G01*
X165925000Y-75364000D01*
G75*
G02*
X166000000Y-75439000I0J-75000D01*
G01*
X166000000Y-76764000D01*
G75*
G02*
X165925000Y-76839000I-75000J0D01*
G01*
X165775000Y-76839000D01*
G75*
G02*
X165700000Y-76764000I0J75000D01*
G01*
G37*
G36*
G01*
X165200000Y-76764000D02*
X165200000Y-75439000D01*
G75*
G02*
X165275000Y-75364000I75000J0D01*
G01*
X165425000Y-75364000D01*
G75*
G02*
X165500000Y-75439000I0J-75000D01*
G01*
X165500000Y-76764000D01*
G75*
G02*
X165425000Y-76839000I-75000J0D01*
G01*
X165275000Y-76839000D01*
G75*
G02*
X165200000Y-76764000I0J75000D01*
G01*
G37*
G36*
G01*
X164700000Y-76764000D02*
X164700000Y-75439000D01*
G75*
G02*
X164775000Y-75364000I75000J0D01*
G01*
X164925000Y-75364000D01*
G75*
G02*
X165000000Y-75439000I0J-75000D01*
G01*
X165000000Y-76764000D01*
G75*
G02*
X164925000Y-76839000I-75000J0D01*
G01*
X164775000Y-76839000D01*
G75*
G02*
X164700000Y-76764000I0J75000D01*
G01*
G37*
G36*
G01*
X164200000Y-76764000D02*
X164200000Y-75439000D01*
G75*
G02*
X164275000Y-75364000I75000J0D01*
G01*
X164425000Y-75364000D01*
G75*
G02*
X164500000Y-75439000I0J-75000D01*
G01*
X164500000Y-76764000D01*
G75*
G02*
X164425000Y-76839000I-75000J0D01*
G01*
X164275000Y-76839000D01*
G75*
G02*
X164200000Y-76764000I0J75000D01*
G01*
G37*
G36*
G01*
X163700000Y-76764000D02*
X163700000Y-75439000D01*
G75*
G02*
X163775000Y-75364000I75000J0D01*
G01*
X163925000Y-75364000D01*
G75*
G02*
X164000000Y-75439000I0J-75000D01*
G01*
X164000000Y-76764000D01*
G75*
G02*
X163925000Y-76839000I-75000J0D01*
G01*
X163775000Y-76839000D01*
G75*
G02*
X163700000Y-76764000I0J75000D01*
G01*
G37*
G36*
G01*
X163200000Y-76764000D02*
X163200000Y-75439000D01*
G75*
G02*
X163275000Y-75364000I75000J0D01*
G01*
X163425000Y-75364000D01*
G75*
G02*
X163500000Y-75439000I0J-75000D01*
G01*
X163500000Y-76764000D01*
G75*
G02*
X163425000Y-76839000I-75000J0D01*
G01*
X163275000Y-76839000D01*
G75*
G02*
X163200000Y-76764000I0J75000D01*
G01*
G37*
G36*
G01*
X162700000Y-76764000D02*
X162700000Y-75439000D01*
G75*
G02*
X162775000Y-75364000I75000J0D01*
G01*
X162925000Y-75364000D01*
G75*
G02*
X163000000Y-75439000I0J-75000D01*
G01*
X163000000Y-76764000D01*
G75*
G02*
X162925000Y-76839000I-75000J0D01*
G01*
X162775000Y-76839000D01*
G75*
G02*
X162700000Y-76764000I0J75000D01*
G01*
G37*
G36*
G01*
X162200000Y-76764000D02*
X162200000Y-75439000D01*
G75*
G02*
X162275000Y-75364000I75000J0D01*
G01*
X162425000Y-75364000D01*
G75*
G02*
X162500000Y-75439000I0J-75000D01*
G01*
X162500000Y-76764000D01*
G75*
G02*
X162425000Y-76839000I-75000J0D01*
G01*
X162275000Y-76839000D01*
G75*
G02*
X162200000Y-76764000I0J75000D01*
G01*
G37*
%TD*%
%TO.C,C1*%
G36*
G01*
X154338000Y-76401000D02*
X155288000Y-76401000D01*
G75*
G02*
X155538000Y-76651000I0J-250000D01*
G01*
X155538000Y-77151000D01*
G75*
G02*
X155288000Y-77401000I-250000J0D01*
G01*
X154338000Y-77401000D01*
G75*
G02*
X154088000Y-77151000I0J250000D01*
G01*
X154088000Y-76651000D01*
G75*
G02*
X154338000Y-76401000I250000J0D01*
G01*
G37*
G36*
G01*
X154338000Y-78301000D02*
X155288000Y-78301000D01*
G75*
G02*
X155538000Y-78551000I0J-250000D01*
G01*
X155538000Y-79051000D01*
G75*
G02*
X155288000Y-79301000I-250000J0D01*
G01*
X154338000Y-79301000D01*
G75*
G02*
X154088000Y-79051000I0J250000D01*
G01*
X154088000Y-78551000D01*
G75*
G02*
X154338000Y-78301000I250000J0D01*
G01*
G37*
%TD*%
%TO.C,C2*%
G36*
G01*
X155288000Y-80957000D02*
X154338000Y-80957000D01*
G75*
G02*
X154088000Y-80707000I0J250000D01*
G01*
X154088000Y-80207000D01*
G75*
G02*
X154338000Y-79957000I250000J0D01*
G01*
X155288000Y-79957000D01*
G75*
G02*
X155538000Y-80207000I0J-250000D01*
G01*
X155538000Y-80707000D01*
G75*
G02*
X155288000Y-80957000I-250000J0D01*
G01*
G37*
G36*
G01*
X155288000Y-82857000D02*
X154338000Y-82857000D01*
G75*
G02*
X154088000Y-82607000I0J250000D01*
G01*
X154088000Y-82107000D01*
G75*
G02*
X154338000Y-81857000I250000J0D01*
G01*
X155288000Y-81857000D01*
G75*
G02*
X155538000Y-82107000I0J-250000D01*
G01*
X155538000Y-82607000D01*
G75*
G02*
X155288000Y-82857000I-250000J0D01*
G01*
G37*
%TD*%
%TO.C,C3*%
G36*
G01*
X155646500Y-72865000D02*
X155646500Y-71915000D01*
G75*
G02*
X155896500Y-71665000I250000J0D01*
G01*
X156396500Y-71665000D01*
G75*
G02*
X156646500Y-71915000I0J-250000D01*
G01*
X156646500Y-72865000D01*
G75*
G02*
X156396500Y-73115000I-250000J0D01*
G01*
X155896500Y-73115000D01*
G75*
G02*
X155646500Y-72865000I0J250000D01*
G01*
G37*
G36*
G01*
X157546500Y-72865000D02*
X157546500Y-71915000D01*
G75*
G02*
X157796500Y-71665000I250000J0D01*
G01*
X158296500Y-71665000D01*
G75*
G02*
X158546500Y-71915000I0J-250000D01*
G01*
X158546500Y-72865000D01*
G75*
G02*
X158296500Y-73115000I-250000J0D01*
G01*
X157796500Y-73115000D01*
G75*
G02*
X157546500Y-72865000I0J250000D01*
G01*
G37*
%TD*%
%TO.C,C4*%
G36*
G01*
X162806000Y-73439000D02*
X162806000Y-74389000D01*
G75*
G02*
X162556000Y-74639000I-250000J0D01*
G01*
X162056000Y-74639000D01*
G75*
G02*
X161806000Y-74389000I0J250000D01*
G01*
X161806000Y-73439000D01*
G75*
G02*
X162056000Y-73189000I250000J0D01*
G01*
X162556000Y-73189000D01*
G75*
G02*
X162806000Y-73439000I0J-250000D01*
G01*
G37*
G36*
G01*
X160906000Y-73439000D02*
X160906000Y-74389000D01*
G75*
G02*
X160656000Y-74639000I-250000J0D01*
G01*
X160156000Y-74639000D01*
G75*
G02*
X159906000Y-74389000I0J250000D01*
G01*
X159906000Y-73439000D01*
G75*
G02*
X160156000Y-73189000I250000J0D01*
G01*
X160656000Y-73189000D01*
G75*
G02*
X160906000Y-73439000I0J-250000D01*
G01*
G37*
%TD*%
%TO.C,C5*%
G36*
G01*
X166425500Y-86774000D02*
X166425500Y-87724000D01*
G75*
G02*
X166175500Y-87974000I-250000J0D01*
G01*
X165675500Y-87974000D01*
G75*
G02*
X165425500Y-87724000I0J250000D01*
G01*
X165425500Y-86774000D01*
G75*
G02*
X165675500Y-86524000I250000J0D01*
G01*
X166175500Y-86524000D01*
G75*
G02*
X166425500Y-86774000I0J-250000D01*
G01*
G37*
G36*
G01*
X168325500Y-86774000D02*
X168325500Y-87724000D01*
G75*
G02*
X168075500Y-87974000I-250000J0D01*
G01*
X167575500Y-87974000D01*
G75*
G02*
X167325500Y-87724000I0J250000D01*
G01*
X167325500Y-86774000D01*
G75*
G02*
X167575500Y-86524000I250000J0D01*
G01*
X168075500Y-86524000D01*
G75*
G02*
X168325500Y-86774000I0J-250000D01*
G01*
G37*
%TD*%
%TO.C,C6*%
G36*
G01*
X172499000Y-75512000D02*
X173449000Y-75512000D01*
G75*
G02*
X173699000Y-75762000I0J-250000D01*
G01*
X173699000Y-76262000D01*
G75*
G02*
X173449000Y-76512000I-250000J0D01*
G01*
X172499000Y-76512000D01*
G75*
G02*
X172249000Y-76262000I0J250000D01*
G01*
X172249000Y-75762000D01*
G75*
G02*
X172499000Y-75512000I250000J0D01*
G01*
G37*
G36*
G01*
X172499000Y-77412000D02*
X173449000Y-77412000D01*
G75*
G02*
X173699000Y-77662000I0J-250000D01*
G01*
X173699000Y-78162000D01*
G75*
G02*
X173449000Y-78412000I-250000J0D01*
G01*
X172499000Y-78412000D01*
G75*
G02*
X172249000Y-78162000I0J250000D01*
G01*
X172249000Y-77662000D01*
G75*
G02*
X172499000Y-77412000I250000J0D01*
G01*
G37*
%TD*%
%TO.C,C7*%
G36*
G01*
X184153000Y-72611000D02*
X184153000Y-71661000D01*
G75*
G02*
X184403000Y-71411000I250000J0D01*
G01*
X184903000Y-71411000D01*
G75*
G02*
X185153000Y-71661000I0J-250000D01*
G01*
X185153000Y-72611000D01*
G75*
G02*
X184903000Y-72861000I-250000J0D01*
G01*
X184403000Y-72861000D01*
G75*
G02*
X184153000Y-72611000I0J250000D01*
G01*
G37*
G36*
G01*
X182253000Y-72611000D02*
X182253000Y-71661000D01*
G75*
G02*
X182503000Y-71411000I250000J0D01*
G01*
X183003000Y-71411000D01*
G75*
G02*
X183253000Y-71661000I0J-250000D01*
G01*
X183253000Y-72611000D01*
G75*
G02*
X183003000Y-72861000I-250000J0D01*
G01*
X182503000Y-72861000D01*
G75*
G02*
X182253000Y-72611000I0J250000D01*
G01*
G37*
%TD*%
%TO.C,C8*%
G36*
G01*
X157549000Y-70769500D02*
X157549000Y-69819500D01*
G75*
G02*
X157799000Y-69569500I250000J0D01*
G01*
X158299000Y-69569500D01*
G75*
G02*
X158549000Y-69819500I0J-250000D01*
G01*
X158549000Y-70769500D01*
G75*
G02*
X158299000Y-71019500I-250000J0D01*
G01*
X157799000Y-71019500D01*
G75*
G02*
X157549000Y-70769500I0J250000D01*
G01*
G37*
G36*
G01*
X155649000Y-70769500D02*
X155649000Y-69819500D01*
G75*
G02*
X155899000Y-69569500I250000J0D01*
G01*
X156399000Y-69569500D01*
G75*
G02*
X156649000Y-69819500I0J-250000D01*
G01*
X156649000Y-70769500D01*
G75*
G02*
X156399000Y-71019500I-250000J0D01*
G01*
X155899000Y-71019500D01*
G75*
G02*
X155649000Y-70769500I0J250000D01*
G01*
G37*
%TD*%
%TO.C,C9*%
G36*
G01*
X169040000Y-112870000D02*
X169040000Y-111920000D01*
G75*
G02*
X169290000Y-111670000I250000J0D01*
G01*
X169790000Y-111670000D01*
G75*
G02*
X170040000Y-111920000I0J-250000D01*
G01*
X170040000Y-112870000D01*
G75*
G02*
X169790000Y-113120000I-250000J0D01*
G01*
X169290000Y-113120000D01*
G75*
G02*
X169040000Y-112870000I0J250000D01*
G01*
G37*
G36*
G01*
X167140000Y-112870000D02*
X167140000Y-111920000D01*
G75*
G02*
X167390000Y-111670000I250000J0D01*
G01*
X167890000Y-111670000D01*
G75*
G02*
X168140000Y-111920000I0J-250000D01*
G01*
X168140000Y-112870000D01*
G75*
G02*
X167890000Y-113120000I-250000J0D01*
G01*
X167390000Y-113120000D01*
G75*
G02*
X167140000Y-112870000I0J250000D01*
G01*
G37*
%TD*%
D10*
%TO.C,C10*%
X142798800Y-123180000D03*
D11*
X142798800Y-119380000D03*
%TD*%
%TO.C,C11*%
G36*
G01*
X148051500Y-119515000D02*
X149001500Y-119515000D01*
G75*
G02*
X149251500Y-119765000I0J-250000D01*
G01*
X149251500Y-120265000D01*
G75*
G02*
X149001500Y-120515000I-250000J0D01*
G01*
X148051500Y-120515000D01*
G75*
G02*
X147801500Y-120265000I0J250000D01*
G01*
X147801500Y-119765000D01*
G75*
G02*
X148051500Y-119515000I250000J0D01*
G01*
G37*
G36*
G01*
X148051500Y-117615000D02*
X149001500Y-117615000D01*
G75*
G02*
X149251500Y-117865000I0J-250000D01*
G01*
X149251500Y-118365000D01*
G75*
G02*
X149001500Y-118615000I-250000J0D01*
G01*
X148051500Y-118615000D01*
G75*
G02*
X147801500Y-118365000I0J250000D01*
G01*
X147801500Y-117865000D01*
G75*
G02*
X148051500Y-117615000I250000J0D01*
G01*
G37*
%TD*%
%TO.C,C12*%
X180340000Y-116840000D03*
D10*
X180340000Y-120640000D03*
%TD*%
%TO.C,C14*%
G36*
G01*
X146608500Y-97061000D02*
X146608500Y-98011000D01*
G75*
G02*
X146358500Y-98261000I-250000J0D01*
G01*
X145858500Y-98261000D01*
G75*
G02*
X145608500Y-98011000I0J250000D01*
G01*
X145608500Y-97061000D01*
G75*
G02*
X145858500Y-96811000I250000J0D01*
G01*
X146358500Y-96811000D01*
G75*
G02*
X146608500Y-97061000I0J-250000D01*
G01*
G37*
G36*
G01*
X144708500Y-97061000D02*
X144708500Y-98011000D01*
G75*
G02*
X144458500Y-98261000I-250000J0D01*
G01*
X143958500Y-98261000D01*
G75*
G02*
X143708500Y-98011000I0J250000D01*
G01*
X143708500Y-97061000D01*
G75*
G02*
X143958500Y-96811000I250000J0D01*
G01*
X144458500Y-96811000D01*
G75*
G02*
X144708500Y-97061000I0J-250000D01*
G01*
G37*
%TD*%
%TO.C,C15*%
G36*
G01*
X147797500Y-96914000D02*
X148747500Y-96914000D01*
G75*
G02*
X148997500Y-97164000I0J-250000D01*
G01*
X148997500Y-97664000D01*
G75*
G02*
X148747500Y-97914000I-250000J0D01*
G01*
X147797500Y-97914000D01*
G75*
G02*
X147547500Y-97664000I0J250000D01*
G01*
X147547500Y-97164000D01*
G75*
G02*
X147797500Y-96914000I250000J0D01*
G01*
G37*
G36*
G01*
X147797500Y-98814000D02*
X148747500Y-98814000D01*
G75*
G02*
X148997500Y-99064000I0J-250000D01*
G01*
X148997500Y-99564000D01*
G75*
G02*
X148747500Y-99814000I-250000J0D01*
G01*
X147797500Y-99814000D01*
G75*
G02*
X147547500Y-99564000I0J250000D01*
G01*
X147547500Y-99064000D01*
G75*
G02*
X147797500Y-98814000I250000J0D01*
G01*
G37*
%TD*%
D11*
%TO.C,C17*%
X176085500Y-106275500D03*
D10*
X176085500Y-108775500D03*
%TD*%
%TO.C,C18*%
X175958500Y-102449000D03*
D11*
X175958500Y-99949000D03*
%TD*%
D12*
%TO.C,D1*%
X149549200Y-124053600D03*
X153879200Y-124053600D03*
%TD*%
%TO.C,D2*%
G36*
G01*
X179208750Y-79862500D02*
X178296250Y-79862500D01*
G75*
G02*
X178052500Y-79618750I0J243750D01*
G01*
X178052500Y-79131250D01*
G75*
G02*
X178296250Y-78887500I243750J0D01*
G01*
X179208750Y-78887500D01*
G75*
G02*
X179452500Y-79131250I0J-243750D01*
G01*
X179452500Y-79618750D01*
G75*
G02*
X179208750Y-79862500I-243750J0D01*
G01*
G37*
G36*
G01*
X179208750Y-77987500D02*
X178296250Y-77987500D01*
G75*
G02*
X178052500Y-77743750I0J243750D01*
G01*
X178052500Y-77256250D01*
G75*
G02*
X178296250Y-77012500I243750J0D01*
G01*
X179208750Y-77012500D01*
G75*
G02*
X179452500Y-77256250I0J-243750D01*
G01*
X179452500Y-77743750D01*
G75*
G02*
X179208750Y-77987500I-243750J0D01*
G01*
G37*
%TD*%
D13*
%TO.C,IC1*%
X151365500Y-94932500D03*
X151365500Y-93662500D03*
X151365500Y-92392500D03*
X151365500Y-91122500D03*
X145941500Y-91122500D03*
X145941500Y-92392500D03*
X145941500Y-93662500D03*
X145941500Y-94932500D03*
%TD*%
D14*
%TO.C,J1*%
X174625000Y-71056500D03*
D15*
X177165000Y-71056500D03*
X179705000Y-71056500D03*
%TD*%
D16*
%TO.C,J2*%
X119888000Y-119380000D03*
X124968000Y-119380000D03*
X130048000Y-119380000D03*
G36*
G01*
X136028000Y-117830000D02*
X136028000Y-120930000D01*
G75*
G02*
X135778000Y-121180000I-250000J0D01*
G01*
X134478000Y-121180000D01*
G75*
G02*
X134228000Y-120930000I0J250000D01*
G01*
X134228000Y-117830000D01*
G75*
G02*
X134478000Y-117580000I250000J0D01*
G01*
X135778000Y-117580000D01*
G75*
G02*
X136028000Y-117830000I0J-250000D01*
G01*
G37*
%TD*%
%TO.C,J3*%
G36*
G01*
X136028000Y-73126000D02*
X136028000Y-76226000D01*
G75*
G02*
X135778000Y-76476000I-250000J0D01*
G01*
X134478000Y-76476000D01*
G75*
G02*
X134228000Y-76226000I0J250000D01*
G01*
X134228000Y-73126000D01*
G75*
G02*
X134478000Y-72876000I250000J0D01*
G01*
X135778000Y-72876000D01*
G75*
G02*
X136028000Y-73126000I0J-250000D01*
G01*
G37*
X130048000Y-74676000D03*
X124968000Y-74676000D03*
X119888000Y-74676000D03*
%TD*%
%TO.C,J5*%
G36*
G01*
X185954000Y-103008000D02*
X182854000Y-103008000D01*
G75*
G02*
X182604000Y-102758000I0J250000D01*
G01*
X182604000Y-101458000D01*
G75*
G02*
X182854000Y-101208000I250000J0D01*
G01*
X185954000Y-101208000D01*
G75*
G02*
X186204000Y-101458000I0J-250000D01*
G01*
X186204000Y-102758000D01*
G75*
G02*
X185954000Y-103008000I-250000J0D01*
G01*
G37*
D17*
X184404000Y-97028000D03*
X184404000Y-91948000D03*
X184404000Y-86868000D03*
%TD*%
D18*
%TO.C,L1*%
X163960000Y-120205500D03*
X173860000Y-120205500D03*
%TD*%
%TO.C,R1*%
G36*
G01*
X179266001Y-81705500D02*
X178365999Y-81705500D01*
G75*
G02*
X178116000Y-81455501I0J249999D01*
G01*
X178116000Y-80930499D01*
G75*
G02*
X178365999Y-80680500I249999J0D01*
G01*
X179266001Y-80680500D01*
G75*
G02*
X179516000Y-80930499I0J-249999D01*
G01*
X179516000Y-81455501D01*
G75*
G02*
X179266001Y-81705500I-249999J0D01*
G01*
G37*
G36*
G01*
X179266001Y-83530500D02*
X178365999Y-83530500D01*
G75*
G02*
X178116000Y-83280501I0J249999D01*
G01*
X178116000Y-82755499D01*
G75*
G02*
X178365999Y-82505500I249999J0D01*
G01*
X179266001Y-82505500D01*
G75*
G02*
X179516000Y-82755499I0J-249999D01*
G01*
X179516000Y-83280501D01*
G75*
G02*
X179266001Y-83530500I-249999J0D01*
G01*
G37*
%TD*%
%TO.C,R2*%
G36*
G01*
X168129000Y-109785999D02*
X168129000Y-110686001D01*
G75*
G02*
X167879001Y-110936000I-249999J0D01*
G01*
X167353999Y-110936000D01*
G75*
G02*
X167104000Y-110686001I0J249999D01*
G01*
X167104000Y-109785999D01*
G75*
G02*
X167353999Y-109536000I249999J0D01*
G01*
X167879001Y-109536000D01*
G75*
G02*
X168129000Y-109785999I0J-249999D01*
G01*
G37*
G36*
G01*
X169954000Y-109785999D02*
X169954000Y-110686001D01*
G75*
G02*
X169704001Y-110936000I-249999J0D01*
G01*
X169178999Y-110936000D01*
G75*
G02*
X168929000Y-110686001I0J249999D01*
G01*
X168929000Y-109785999D01*
G75*
G02*
X169178999Y-109536000I249999J0D01*
G01*
X169704001Y-109536000D01*
G75*
G02*
X169954000Y-109785999I0J-249999D01*
G01*
G37*
%TD*%
%TO.C,R3*%
G36*
G01*
X154108999Y-90610000D02*
X155009001Y-90610000D01*
G75*
G02*
X155259000Y-90859999I0J-249999D01*
G01*
X155259000Y-91385001D01*
G75*
G02*
X155009001Y-91635000I-249999J0D01*
G01*
X154108999Y-91635000D01*
G75*
G02*
X153859000Y-91385001I0J249999D01*
G01*
X153859000Y-90859999D01*
G75*
G02*
X154108999Y-90610000I249999J0D01*
G01*
G37*
G36*
G01*
X154108999Y-88785000D02*
X155009001Y-88785000D01*
G75*
G02*
X155259000Y-89034999I0J-249999D01*
G01*
X155259000Y-89560001D01*
G75*
G02*
X155009001Y-89810000I-249999J0D01*
G01*
X154108999Y-89810000D01*
G75*
G02*
X153859000Y-89560001I0J249999D01*
G01*
X153859000Y-89034999D01*
G75*
G02*
X154108999Y-88785000I249999J0D01*
G01*
G37*
%TD*%
%TO.C,R4*%
G36*
G01*
X151689500Y-88640499D02*
X151689500Y-89540501D01*
G75*
G02*
X151439501Y-89790500I-249999J0D01*
G01*
X150914499Y-89790500D01*
G75*
G02*
X150664500Y-89540501I0J249999D01*
G01*
X150664500Y-88640499D01*
G75*
G02*
X150914499Y-88390500I249999J0D01*
G01*
X151439501Y-88390500D01*
G75*
G02*
X151689500Y-88640499I0J-249999D01*
G01*
G37*
G36*
G01*
X149864500Y-88640499D02*
X149864500Y-89540501D01*
G75*
G02*
X149614501Y-89790500I-249999J0D01*
G01*
X149089499Y-89790500D01*
G75*
G02*
X148839500Y-89540501I0J249999D01*
G01*
X148839500Y-88640499D01*
G75*
G02*
X149089499Y-88390500I249999J0D01*
G01*
X149614501Y-88390500D01*
G75*
G02*
X149864500Y-88640499I0J-249999D01*
G01*
G37*
%TD*%
%TO.C,R5*%
G36*
G01*
X155009001Y-97270000D02*
X154108999Y-97270000D01*
G75*
G02*
X153859000Y-97020001I0J249999D01*
G01*
X153859000Y-96494999D01*
G75*
G02*
X154108999Y-96245000I249999J0D01*
G01*
X155009001Y-96245000D01*
G75*
G02*
X155259000Y-96494999I0J-249999D01*
G01*
X155259000Y-97020001D01*
G75*
G02*
X155009001Y-97270000I-249999J0D01*
G01*
G37*
G36*
G01*
X155009001Y-95445000D02*
X154108999Y-95445000D01*
G75*
G02*
X153859000Y-95195001I0J249999D01*
G01*
X153859000Y-94669999D01*
G75*
G02*
X154108999Y-94420000I249999J0D01*
G01*
X155009001Y-94420000D01*
G75*
G02*
X155259000Y-94669999I0J-249999D01*
G01*
X155259000Y-95195001D01*
G75*
G02*
X155009001Y-95445000I-249999J0D01*
G01*
G37*
%TD*%
%TO.C,R6*%
G36*
G01*
X141408999Y-89403500D02*
X142309001Y-89403500D01*
G75*
G02*
X142559000Y-89653499I0J-249999D01*
G01*
X142559000Y-90178501D01*
G75*
G02*
X142309001Y-90428500I-249999J0D01*
G01*
X141408999Y-90428500D01*
G75*
G02*
X141159000Y-90178501I0J249999D01*
G01*
X141159000Y-89653499D01*
G75*
G02*
X141408999Y-89403500I249999J0D01*
G01*
G37*
G36*
G01*
X141408999Y-87578500D02*
X142309001Y-87578500D01*
G75*
G02*
X142559000Y-87828499I0J-249999D01*
G01*
X142559000Y-88353501D01*
G75*
G02*
X142309001Y-88603500I-249999J0D01*
G01*
X141408999Y-88603500D01*
G75*
G02*
X141159000Y-88353501I0J249999D01*
G01*
X141159000Y-87828499D01*
G75*
G02*
X141408999Y-87578500I249999J0D01*
G01*
G37*
%TD*%
%TO.C,R7*%
G36*
G01*
X183953999Y-107611500D02*
X184854001Y-107611500D01*
G75*
G02*
X185104000Y-107861499I0J-249999D01*
G01*
X185104000Y-108386501D01*
G75*
G02*
X184854001Y-108636500I-249999J0D01*
G01*
X183953999Y-108636500D01*
G75*
G02*
X183704000Y-108386501I0J249999D01*
G01*
X183704000Y-107861499D01*
G75*
G02*
X183953999Y-107611500I249999J0D01*
G01*
G37*
G36*
G01*
X183953999Y-105786500D02*
X184854001Y-105786500D01*
G75*
G02*
X185104000Y-106036499I0J-249999D01*
G01*
X185104000Y-106561501D01*
G75*
G02*
X184854001Y-106811500I-249999J0D01*
G01*
X183953999Y-106811500D01*
G75*
G02*
X183704000Y-106561501I0J249999D01*
G01*
X183704000Y-106036499D01*
G75*
G02*
X183953999Y-105786500I249999J0D01*
G01*
G37*
%TD*%
%TO.C,R8*%
G36*
G01*
X164967499Y-110017500D02*
X165867501Y-110017500D01*
G75*
G02*
X166117500Y-110267499I0J-249999D01*
G01*
X166117500Y-110792501D01*
G75*
G02*
X165867501Y-111042500I-249999J0D01*
G01*
X164967499Y-111042500D01*
G75*
G02*
X164717500Y-110792501I0J249999D01*
G01*
X164717500Y-110267499D01*
G75*
G02*
X164967499Y-110017500I249999J0D01*
G01*
G37*
G36*
G01*
X164967499Y-111842500D02*
X165867501Y-111842500D01*
G75*
G02*
X166117500Y-112092499I0J-249999D01*
G01*
X166117500Y-112617501D01*
G75*
G02*
X165867501Y-112867500I-249999J0D01*
G01*
X164967499Y-112867500D01*
G75*
G02*
X164717500Y-112617501I0J249999D01*
G01*
X164717500Y-112092499D01*
G75*
G02*
X164967499Y-111842500I249999J0D01*
G01*
G37*
%TD*%
%TO.C,R9*%
G36*
G01*
X142309001Y-94539500D02*
X141408999Y-94539500D01*
G75*
G02*
X141159000Y-94289501I0J249999D01*
G01*
X141159000Y-93764499D01*
G75*
G02*
X141408999Y-93514500I249999J0D01*
G01*
X142309001Y-93514500D01*
G75*
G02*
X142559000Y-93764499I0J-249999D01*
G01*
X142559000Y-94289501D01*
G75*
G02*
X142309001Y-94539500I-249999J0D01*
G01*
G37*
G36*
G01*
X142309001Y-92714500D02*
X141408999Y-92714500D01*
G75*
G02*
X141159000Y-92464501I0J249999D01*
G01*
X141159000Y-91939499D01*
G75*
G02*
X141408999Y-91689500I249999J0D01*
G01*
X142309001Y-91689500D01*
G75*
G02*
X142559000Y-91939499I0J-249999D01*
G01*
X142559000Y-92464501D01*
G75*
G02*
X142309001Y-92714500I-249999J0D01*
G01*
G37*
%TD*%
%TO.C,R10*%
G36*
G01*
X141408999Y-95516000D02*
X142309001Y-95516000D01*
G75*
G02*
X142559000Y-95765999I0J-249999D01*
G01*
X142559000Y-96291001D01*
G75*
G02*
X142309001Y-96541000I-249999J0D01*
G01*
X141408999Y-96541000D01*
G75*
G02*
X141159000Y-96291001I0J249999D01*
G01*
X141159000Y-95765999D01*
G75*
G02*
X141408999Y-95516000I249999J0D01*
G01*
G37*
G36*
G01*
X141408999Y-97341000D02*
X142309001Y-97341000D01*
G75*
G02*
X142559000Y-97590999I0J-249999D01*
G01*
X142559000Y-98116001D01*
G75*
G02*
X142309001Y-98366000I-249999J0D01*
G01*
X141408999Y-98366000D01*
G75*
G02*
X141159000Y-98116001I0J249999D01*
G01*
X141159000Y-97590999D01*
G75*
G02*
X141408999Y-97341000I249999J0D01*
G01*
G37*
%TD*%
%TO.C,R11*%
G36*
G01*
X175495799Y-92529600D02*
X176395801Y-92529600D01*
G75*
G02*
X176645800Y-92779599I0J-249999D01*
G01*
X176645800Y-93304601D01*
G75*
G02*
X176395801Y-93554600I-249999J0D01*
G01*
X175495799Y-93554600D01*
G75*
G02*
X175245800Y-93304601I0J249999D01*
G01*
X175245800Y-92779599D01*
G75*
G02*
X175495799Y-92529600I249999J0D01*
G01*
G37*
G36*
G01*
X175495799Y-94354600D02*
X176395801Y-94354600D01*
G75*
G02*
X176645800Y-94604599I0J-249999D01*
G01*
X176645800Y-95129601D01*
G75*
G02*
X176395801Y-95379600I-249999J0D01*
G01*
X175495799Y-95379600D01*
G75*
G02*
X175245800Y-95129601I0J249999D01*
G01*
X175245800Y-94604599D01*
G75*
G02*
X175495799Y-94354600I249999J0D01*
G01*
G37*
%TD*%
%TO.C,R12*%
G36*
G01*
X179202501Y-76291500D02*
X178302499Y-76291500D01*
G75*
G02*
X178052500Y-76041501I0J249999D01*
G01*
X178052500Y-75516499D01*
G75*
G02*
X178302499Y-75266500I249999J0D01*
G01*
X179202501Y-75266500D01*
G75*
G02*
X179452500Y-75516499I0J-249999D01*
G01*
X179452500Y-76041501D01*
G75*
G02*
X179202501Y-76291500I-249999J0D01*
G01*
G37*
G36*
G01*
X179202501Y-74466500D02*
X178302499Y-74466500D01*
G75*
G02*
X178052500Y-74216501I0J249999D01*
G01*
X178052500Y-73691499D01*
G75*
G02*
X178302499Y-73441500I249999J0D01*
G01*
X179202501Y-73441500D01*
G75*
G02*
X179452500Y-73691499I0J-249999D01*
G01*
X179452500Y-74216501D01*
G75*
G02*
X179202501Y-74466500I-249999J0D01*
G01*
G37*
%TD*%
%TO.C,R13*%
G36*
G01*
X176208000Y-74491001D02*
X176208000Y-73590999D01*
G75*
G02*
X176457999Y-73341000I249999J0D01*
G01*
X176983001Y-73341000D01*
G75*
G02*
X177233000Y-73590999I0J-249999D01*
G01*
X177233000Y-74491001D01*
G75*
G02*
X176983001Y-74741000I-249999J0D01*
G01*
X176457999Y-74741000D01*
G75*
G02*
X176208000Y-74491001I0J249999D01*
G01*
G37*
G36*
G01*
X174383000Y-74491001D02*
X174383000Y-73590999D01*
G75*
G02*
X174632999Y-73341000I249999J0D01*
G01*
X175158001Y-73341000D01*
G75*
G02*
X175408000Y-73590999I0J-249999D01*
G01*
X175408000Y-74491001D01*
G75*
G02*
X175158001Y-74741000I-249999J0D01*
G01*
X174632999Y-74741000D01*
G75*
G02*
X174383000Y-74491001I0J249999D01*
G01*
G37*
%TD*%
D19*
%TO.C,SW1*%
X185792500Y-74462500D03*
X185792500Y-80962500D03*
X181292500Y-74462500D03*
X181292500Y-80962500D03*
%TD*%
D20*
%TO.C,U2*%
X152097000Y-118110000D03*
X153797000Y-118110000D03*
X155497000Y-118110000D03*
X157197000Y-118110000D03*
X158897000Y-118110000D03*
D21*
X155497000Y-108960000D03*
%TD*%
D22*
%TO.C,U3*%
X168959500Y-99935500D03*
D23*
X168959500Y-106235500D03*
X171259500Y-106235500D03*
X166659500Y-106235500D03*
%TD*%
D24*
%TO.C,Y1*%
X150368000Y-77470000D03*
X150368000Y-82350000D03*
%TD*%
D25*
%TO.C,Y2*%
X154432000Y-72326500D03*
X154432000Y-70426500D03*
%TD*%
D14*
%TO.C,J4*%
X160782000Y-71056500D03*
D15*
X163322000Y-71056500D03*
X165862000Y-71056500D03*
X168402000Y-71056500D03*
X170942000Y-71056500D03*
%TD*%
%TO.C,R14*%
G36*
G01*
X170122001Y-88697500D02*
X169221999Y-88697500D01*
G75*
G02*
X168972000Y-88447501I0J249999D01*
G01*
X168972000Y-87922499D01*
G75*
G02*
X169221999Y-87672500I249999J0D01*
G01*
X170122001Y-87672500D01*
G75*
G02*
X170372000Y-87922499I0J-249999D01*
G01*
X170372000Y-88447501D01*
G75*
G02*
X170122001Y-88697500I-249999J0D01*
G01*
G37*
G36*
G01*
X170122001Y-86872500D02*
X169221999Y-86872500D01*
G75*
G02*
X168972000Y-86622501I0J249999D01*
G01*
X168972000Y-86097499D01*
G75*
G02*
X169221999Y-85847500I249999J0D01*
G01*
X170122001Y-85847500D01*
G75*
G02*
X170372000Y-86097499I0J-249999D01*
G01*
X170372000Y-86622501D01*
G75*
G02*
X170122001Y-86872500I-249999J0D01*
G01*
G37*
%TD*%
%TO.C,R15*%
G36*
G01*
X172154001Y-86872500D02*
X171253999Y-86872500D01*
G75*
G02*
X171004000Y-86622501I0J249999D01*
G01*
X171004000Y-86097499D01*
G75*
G02*
X171253999Y-85847500I249999J0D01*
G01*
X172154001Y-85847500D01*
G75*
G02*
X172404000Y-86097499I0J-249999D01*
G01*
X172404000Y-86622501D01*
G75*
G02*
X172154001Y-86872500I-249999J0D01*
G01*
G37*
G36*
G01*
X172154001Y-88697500D02*
X171253999Y-88697500D01*
G75*
G02*
X171004000Y-88447501I0J249999D01*
G01*
X171004000Y-87922499D01*
G75*
G02*
X171253999Y-87672500I249999J0D01*
G01*
X172154001Y-87672500D01*
G75*
G02*
X172404000Y-87922499I0J-249999D01*
G01*
X172404000Y-88447501D01*
G75*
G02*
X172154001Y-88697500I-249999J0D01*
G01*
G37*
%TD*%
%TO.C,R16*%
G36*
G01*
X174186001Y-88801000D02*
X173285999Y-88801000D01*
G75*
G02*
X173036000Y-88551001I0J249999D01*
G01*
X173036000Y-88025999D01*
G75*
G02*
X173285999Y-87776000I249999J0D01*
G01*
X174186001Y-87776000D01*
G75*
G02*
X174436000Y-88025999I0J-249999D01*
G01*
X174436000Y-88551001D01*
G75*
G02*
X174186001Y-88801000I-249999J0D01*
G01*
G37*
G36*
G01*
X174186001Y-86976000D02*
X173285999Y-86976000D01*
G75*
G02*
X173036000Y-86726001I0J249999D01*
G01*
X173036000Y-86200999D01*
G75*
G02*
X173285999Y-85951000I249999J0D01*
G01*
X174186001Y-85951000D01*
G75*
G02*
X174436000Y-86200999I0J-249999D01*
G01*
X174436000Y-86726001D01*
G75*
G02*
X174186001Y-86976000I-249999J0D01*
G01*
G37*
%TD*%
%TO.C,R17*%
G36*
G01*
X172762500Y-91128001D02*
X172762500Y-90227999D01*
G75*
G02*
X173012499Y-89978000I249999J0D01*
G01*
X173537501Y-89978000D01*
G75*
G02*
X173787500Y-90227999I0J-249999D01*
G01*
X173787500Y-91128001D01*
G75*
G02*
X173537501Y-91378000I-249999J0D01*
G01*
X173012499Y-91378000D01*
G75*
G02*
X172762500Y-91128001I0J249999D01*
G01*
G37*
G36*
G01*
X170937500Y-91128001D02*
X170937500Y-90227999D01*
G75*
G02*
X171187499Y-89978000I249999J0D01*
G01*
X171712501Y-89978000D01*
G75*
G02*
X171962500Y-90227999I0J-249999D01*
G01*
X171962500Y-91128001D01*
G75*
G02*
X171712501Y-91378000I-249999J0D01*
G01*
X171187499Y-91378000D01*
G75*
G02*
X170937500Y-91128001I0J249999D01*
G01*
G37*
%TD*%
D14*
%TO.C,J6*%
X141478000Y-83312000D03*
D15*
X144018000Y-83312000D03*
X141478000Y-80772000D03*
X144018000Y-80772000D03*
X141478000Y-78232000D03*
X144018000Y-78232000D03*
X141478000Y-75692000D03*
X144018000Y-75692000D03*
%TD*%
D14*
%TO.C,J7*%
X168910000Y-92710000D03*
D15*
X166370000Y-92710000D03*
X163830000Y-92710000D03*
%TD*%
M02*
