%TF.GenerationSoftware,KiCad,Pcbnew,(5.1.12)-1*%
%TF.CreationDate,2022-08-10T11:31:23+05:30*%
%TF.ProjectId,AGV_SENSOR_PCB_2,4147565f-5345-44e5-934f-525f5043425f,rev?*%
%TF.SameCoordinates,Original*%
%TF.FileFunction,Copper,L1,Top*%
%TF.FilePolarity,Positive*%
%FSLAX46Y46*%
G04 Gerber Fmt 4.6, Leading zero omitted, Abs format (unit mm)*
G04 Created by KiCad (PCBNEW (5.1.12)-1) date 2022-08-10 11:31:23*
%MOMM*%
%LPD*%
G01*
G04 APERTURE LIST*
%TA.AperFunction,ComponentPad*%
%ADD10C,1.600000*%
%TD*%
%TA.AperFunction,ComponentPad*%
%ADD11R,1.600000X1.600000*%
%TD*%
%TA.AperFunction,SMDPad,CuDef*%
%ADD12R,1.440000X1.480000*%
%TD*%
%TA.AperFunction,SMDPad,CuDef*%
%ADD13R,1.525000X0.650000*%
%TD*%
%TA.AperFunction,ComponentPad*%
%ADD14R,1.700000X1.700000*%
%TD*%
%TA.AperFunction,ComponentPad*%
%ADD15O,1.700000X1.700000*%
%TD*%
%TA.AperFunction,ComponentPad*%
%ADD16O,1.800000X3.600000*%
%TD*%
%TA.AperFunction,ComponentPad*%
%ADD17O,3.600000X1.800000*%
%TD*%
%TA.AperFunction,SMDPad,CuDef*%
%ADD18R,2.900000X5.400000*%
%TD*%
%TA.AperFunction,ComponentPad*%
%ADD19C,1.700000*%
%TD*%
%TA.AperFunction,SMDPad,CuDef*%
%ADD20R,1.100000X4.600000*%
%TD*%
%TA.AperFunction,SMDPad,CuDef*%
%ADD21R,10.800000X9.400000*%
%TD*%
%TA.AperFunction,SMDPad,CuDef*%
%ADD22R,3.800000X2.000000*%
%TD*%
%TA.AperFunction,SMDPad,CuDef*%
%ADD23R,1.500000X2.000000*%
%TD*%
%TA.AperFunction,ComponentPad*%
%ADD24C,1.500000*%
%TD*%
%TA.AperFunction,ComponentPad*%
%ADD25C,1.000000*%
%TD*%
%TA.AperFunction,ViaPad*%
%ADD26C,0.800000*%
%TD*%
%TA.AperFunction,Conductor*%
%ADD27C,0.250000*%
%TD*%
%TA.AperFunction,Conductor*%
%ADD28C,0.540000*%
%TD*%
%TA.AperFunction,Conductor*%
%ADD29C,0.354000*%
%TD*%
%TA.AperFunction,Conductor*%
%ADD30C,0.950000*%
%TD*%
%TA.AperFunction,Conductor*%
%ADD31C,0.254000*%
%TD*%
%TA.AperFunction,Conductor*%
%ADD32C,0.100000*%
%TD*%
G04 APERTURE END LIST*
%TO.P,U1,1*%
%TO.N,+3V3*%
%TA.AperFunction,SMDPad,CuDef*%
G36*
G01*
X160200000Y-77589000D02*
X160200000Y-77439000D01*
G75*
G02*
X160275000Y-77364000I75000J0D01*
G01*
X161600000Y-77364000D01*
G75*
G02*
X161675000Y-77439000I0J-75000D01*
G01*
X161675000Y-77589000D01*
G75*
G02*
X161600000Y-77664000I-75000J0D01*
G01*
X160275000Y-77664000D01*
G75*
G02*
X160200000Y-77589000I0J75000D01*
G01*
G37*
%TD.AperFunction*%
%TO.P,U1,2*%
%TO.N,N/C*%
%TA.AperFunction,SMDPad,CuDef*%
G36*
G01*
X160200000Y-78089000D02*
X160200000Y-77939000D01*
G75*
G02*
X160275000Y-77864000I75000J0D01*
G01*
X161600000Y-77864000D01*
G75*
G02*
X161675000Y-77939000I0J-75000D01*
G01*
X161675000Y-78089000D01*
G75*
G02*
X161600000Y-78164000I-75000J0D01*
G01*
X160275000Y-78164000D01*
G75*
G02*
X160200000Y-78089000I0J75000D01*
G01*
G37*
%TD.AperFunction*%
%TO.P,U1,3*%
%TO.N,Net-(C3-Pad1)*%
%TA.AperFunction,SMDPad,CuDef*%
G36*
G01*
X160200000Y-78589000D02*
X160200000Y-78439000D01*
G75*
G02*
X160275000Y-78364000I75000J0D01*
G01*
X161600000Y-78364000D01*
G75*
G02*
X161675000Y-78439000I0J-75000D01*
G01*
X161675000Y-78589000D01*
G75*
G02*
X161600000Y-78664000I-75000J0D01*
G01*
X160275000Y-78664000D01*
G75*
G02*
X160200000Y-78589000I0J75000D01*
G01*
G37*
%TD.AperFunction*%
%TO.P,U1,4*%
%TO.N,Net-(C8-Pad1)*%
%TA.AperFunction,SMDPad,CuDef*%
G36*
G01*
X160200000Y-79089000D02*
X160200000Y-78939000D01*
G75*
G02*
X160275000Y-78864000I75000J0D01*
G01*
X161600000Y-78864000D01*
G75*
G02*
X161675000Y-78939000I0J-75000D01*
G01*
X161675000Y-79089000D01*
G75*
G02*
X161600000Y-79164000I-75000J0D01*
G01*
X160275000Y-79164000D01*
G75*
G02*
X160200000Y-79089000I0J75000D01*
G01*
G37*
%TD.AperFunction*%
%TO.P,U1,5*%
%TO.N,Net-(C1-Pad1)*%
%TA.AperFunction,SMDPad,CuDef*%
G36*
G01*
X160200000Y-79589000D02*
X160200000Y-79439000D01*
G75*
G02*
X160275000Y-79364000I75000J0D01*
G01*
X161600000Y-79364000D01*
G75*
G02*
X161675000Y-79439000I0J-75000D01*
G01*
X161675000Y-79589000D01*
G75*
G02*
X161600000Y-79664000I-75000J0D01*
G01*
X160275000Y-79664000D01*
G75*
G02*
X160200000Y-79589000I0J75000D01*
G01*
G37*
%TD.AperFunction*%
%TO.P,U1,6*%
%TO.N,Net-(C2-Pad1)*%
%TA.AperFunction,SMDPad,CuDef*%
G36*
G01*
X160200000Y-80089000D02*
X160200000Y-79939000D01*
G75*
G02*
X160275000Y-79864000I75000J0D01*
G01*
X161600000Y-79864000D01*
G75*
G02*
X161675000Y-79939000I0J-75000D01*
G01*
X161675000Y-80089000D01*
G75*
G02*
X161600000Y-80164000I-75000J0D01*
G01*
X160275000Y-80164000D01*
G75*
G02*
X160200000Y-80089000I0J75000D01*
G01*
G37*
%TD.AperFunction*%
%TO.P,U1,7*%
%TO.N,NRST*%
%TA.AperFunction,SMDPad,CuDef*%
G36*
G01*
X160200000Y-80589000D02*
X160200000Y-80439000D01*
G75*
G02*
X160275000Y-80364000I75000J0D01*
G01*
X161600000Y-80364000D01*
G75*
G02*
X161675000Y-80439000I0J-75000D01*
G01*
X161675000Y-80589000D01*
G75*
G02*
X161600000Y-80664000I-75000J0D01*
G01*
X160275000Y-80664000D01*
G75*
G02*
X160200000Y-80589000I0J75000D01*
G01*
G37*
%TD.AperFunction*%
%TO.P,U1,8*%
%TO.N,GND*%
%TA.AperFunction,SMDPad,CuDef*%
G36*
G01*
X160200000Y-81089000D02*
X160200000Y-80939000D01*
G75*
G02*
X160275000Y-80864000I75000J0D01*
G01*
X161600000Y-80864000D01*
G75*
G02*
X161675000Y-80939000I0J-75000D01*
G01*
X161675000Y-81089000D01*
G75*
G02*
X161600000Y-81164000I-75000J0D01*
G01*
X160275000Y-81164000D01*
G75*
G02*
X160200000Y-81089000I0J75000D01*
G01*
G37*
%TD.AperFunction*%
%TO.P,U1,9*%
%TO.N,+3V3*%
%TA.AperFunction,SMDPad,CuDef*%
G36*
G01*
X160200000Y-81589000D02*
X160200000Y-81439000D01*
G75*
G02*
X160275000Y-81364000I75000J0D01*
G01*
X161600000Y-81364000D01*
G75*
G02*
X161675000Y-81439000I0J-75000D01*
G01*
X161675000Y-81589000D01*
G75*
G02*
X161600000Y-81664000I-75000J0D01*
G01*
X160275000Y-81664000D01*
G75*
G02*
X160200000Y-81589000I0J75000D01*
G01*
G37*
%TD.AperFunction*%
%TO.P,U1,10*%
%TO.N,N/C*%
%TA.AperFunction,SMDPad,CuDef*%
G36*
G01*
X160200000Y-82089000D02*
X160200000Y-81939000D01*
G75*
G02*
X160275000Y-81864000I75000J0D01*
G01*
X161600000Y-81864000D01*
G75*
G02*
X161675000Y-81939000I0J-75000D01*
G01*
X161675000Y-82089000D01*
G75*
G02*
X161600000Y-82164000I-75000J0D01*
G01*
X160275000Y-82164000D01*
G75*
G02*
X160200000Y-82089000I0J75000D01*
G01*
G37*
%TD.AperFunction*%
%TO.P,U1,11*%
%TA.AperFunction,SMDPad,CuDef*%
G36*
G01*
X160200000Y-82589000D02*
X160200000Y-82439000D01*
G75*
G02*
X160275000Y-82364000I75000J0D01*
G01*
X161600000Y-82364000D01*
G75*
G02*
X161675000Y-82439000I0J-75000D01*
G01*
X161675000Y-82589000D01*
G75*
G02*
X161600000Y-82664000I-75000J0D01*
G01*
X160275000Y-82664000D01*
G75*
G02*
X160200000Y-82589000I0J75000D01*
G01*
G37*
%TD.AperFunction*%
%TO.P,U1,12*%
%TO.N,DI*%
%TA.AperFunction,SMDPad,CuDef*%
G36*
G01*
X160200000Y-83089000D02*
X160200000Y-82939000D01*
G75*
G02*
X160275000Y-82864000I75000J0D01*
G01*
X161600000Y-82864000D01*
G75*
G02*
X161675000Y-82939000I0J-75000D01*
G01*
X161675000Y-83089000D01*
G75*
G02*
X161600000Y-83164000I-75000J0D01*
G01*
X160275000Y-83164000D01*
G75*
G02*
X160200000Y-83089000I0J75000D01*
G01*
G37*
%TD.AperFunction*%
%TO.P,U1,13*%
%TO.N,RO*%
%TA.AperFunction,SMDPad,CuDef*%
G36*
G01*
X162200000Y-85089000D02*
X162200000Y-83764000D01*
G75*
G02*
X162275000Y-83689000I75000J0D01*
G01*
X162425000Y-83689000D01*
G75*
G02*
X162500000Y-83764000I0J-75000D01*
G01*
X162500000Y-85089000D01*
G75*
G02*
X162425000Y-85164000I-75000J0D01*
G01*
X162275000Y-85164000D01*
G75*
G02*
X162200000Y-85089000I0J75000D01*
G01*
G37*
%TD.AperFunction*%
%TO.P,U1,14*%
%TO.N,DE*%
%TA.AperFunction,SMDPad,CuDef*%
G36*
G01*
X162700000Y-85089000D02*
X162700000Y-83764000D01*
G75*
G02*
X162775000Y-83689000I75000J0D01*
G01*
X162925000Y-83689000D01*
G75*
G02*
X163000000Y-83764000I0J-75000D01*
G01*
X163000000Y-85089000D01*
G75*
G02*
X162925000Y-85164000I-75000J0D01*
G01*
X162775000Y-85164000D01*
G75*
G02*
X162700000Y-85089000I0J75000D01*
G01*
G37*
%TD.AperFunction*%
%TO.P,U1,15*%
%TO.N,N/C*%
%TA.AperFunction,SMDPad,CuDef*%
G36*
G01*
X163200000Y-85089000D02*
X163200000Y-83764000D01*
G75*
G02*
X163275000Y-83689000I75000J0D01*
G01*
X163425000Y-83689000D01*
G75*
G02*
X163500000Y-83764000I0J-75000D01*
G01*
X163500000Y-85089000D01*
G75*
G02*
X163425000Y-85164000I-75000J0D01*
G01*
X163275000Y-85164000D01*
G75*
G02*
X163200000Y-85089000I0J75000D01*
G01*
G37*
%TD.AperFunction*%
%TO.P,U1,16*%
%TA.AperFunction,SMDPad,CuDef*%
G36*
G01*
X163700000Y-85089000D02*
X163700000Y-83764000D01*
G75*
G02*
X163775000Y-83689000I75000J0D01*
G01*
X163925000Y-83689000D01*
G75*
G02*
X164000000Y-83764000I0J-75000D01*
G01*
X164000000Y-85089000D01*
G75*
G02*
X163925000Y-85164000I-75000J0D01*
G01*
X163775000Y-85164000D01*
G75*
G02*
X163700000Y-85089000I0J75000D01*
G01*
G37*
%TD.AperFunction*%
%TO.P,U1,17*%
%TA.AperFunction,SMDPad,CuDef*%
G36*
G01*
X164200000Y-85089000D02*
X164200000Y-83764000D01*
G75*
G02*
X164275000Y-83689000I75000J0D01*
G01*
X164425000Y-83689000D01*
G75*
G02*
X164500000Y-83764000I0J-75000D01*
G01*
X164500000Y-85089000D01*
G75*
G02*
X164425000Y-85164000I-75000J0D01*
G01*
X164275000Y-85164000D01*
G75*
G02*
X164200000Y-85089000I0J75000D01*
G01*
G37*
%TD.AperFunction*%
%TO.P,U1,18*%
%TA.AperFunction,SMDPad,CuDef*%
G36*
G01*
X164700000Y-85089000D02*
X164700000Y-83764000D01*
G75*
G02*
X164775000Y-83689000I75000J0D01*
G01*
X164925000Y-83689000D01*
G75*
G02*
X165000000Y-83764000I0J-75000D01*
G01*
X165000000Y-85089000D01*
G75*
G02*
X164925000Y-85164000I-75000J0D01*
G01*
X164775000Y-85164000D01*
G75*
G02*
X164700000Y-85089000I0J75000D01*
G01*
G37*
%TD.AperFunction*%
%TO.P,U1,19*%
%TA.AperFunction,SMDPad,CuDef*%
G36*
G01*
X165200000Y-85089000D02*
X165200000Y-83764000D01*
G75*
G02*
X165275000Y-83689000I75000J0D01*
G01*
X165425000Y-83689000D01*
G75*
G02*
X165500000Y-83764000I0J-75000D01*
G01*
X165500000Y-85089000D01*
G75*
G02*
X165425000Y-85164000I-75000J0D01*
G01*
X165275000Y-85164000D01*
G75*
G02*
X165200000Y-85089000I0J75000D01*
G01*
G37*
%TD.AperFunction*%
%TO.P,U1,20*%
%TO.N,Net-(J7-Pad2)*%
%TA.AperFunction,SMDPad,CuDef*%
G36*
G01*
X165700000Y-85089000D02*
X165700000Y-83764000D01*
G75*
G02*
X165775000Y-83689000I75000J0D01*
G01*
X165925000Y-83689000D01*
G75*
G02*
X166000000Y-83764000I0J-75000D01*
G01*
X166000000Y-85089000D01*
G75*
G02*
X165925000Y-85164000I-75000J0D01*
G01*
X165775000Y-85164000D01*
G75*
G02*
X165700000Y-85089000I0J75000D01*
G01*
G37*
%TD.AperFunction*%
%TO.P,U1,21*%
%TO.N,N/C*%
%TA.AperFunction,SMDPad,CuDef*%
G36*
G01*
X166200000Y-85089000D02*
X166200000Y-83764000D01*
G75*
G02*
X166275000Y-83689000I75000J0D01*
G01*
X166425000Y-83689000D01*
G75*
G02*
X166500000Y-83764000I0J-75000D01*
G01*
X166500000Y-85089000D01*
G75*
G02*
X166425000Y-85164000I-75000J0D01*
G01*
X166275000Y-85164000D01*
G75*
G02*
X166200000Y-85089000I0J75000D01*
G01*
G37*
%TD.AperFunction*%
%TO.P,U1,22*%
%TA.AperFunction,SMDPad,CuDef*%
G36*
G01*
X166700000Y-85089000D02*
X166700000Y-83764000D01*
G75*
G02*
X166775000Y-83689000I75000J0D01*
G01*
X166925000Y-83689000D01*
G75*
G02*
X167000000Y-83764000I0J-75000D01*
G01*
X167000000Y-85089000D01*
G75*
G02*
X166925000Y-85164000I-75000J0D01*
G01*
X166775000Y-85164000D01*
G75*
G02*
X166700000Y-85089000I0J75000D01*
G01*
G37*
%TD.AperFunction*%
%TO.P,U1,23*%
%TO.N,GND*%
%TA.AperFunction,SMDPad,CuDef*%
G36*
G01*
X167200000Y-85089000D02*
X167200000Y-83764000D01*
G75*
G02*
X167275000Y-83689000I75000J0D01*
G01*
X167425000Y-83689000D01*
G75*
G02*
X167500000Y-83764000I0J-75000D01*
G01*
X167500000Y-85089000D01*
G75*
G02*
X167425000Y-85164000I-75000J0D01*
G01*
X167275000Y-85164000D01*
G75*
G02*
X167200000Y-85089000I0J75000D01*
G01*
G37*
%TD.AperFunction*%
%TO.P,U1,24*%
%TO.N,+3V3*%
%TA.AperFunction,SMDPad,CuDef*%
G36*
G01*
X167700000Y-85089000D02*
X167700000Y-83764000D01*
G75*
G02*
X167775000Y-83689000I75000J0D01*
G01*
X167925000Y-83689000D01*
G75*
G02*
X168000000Y-83764000I0J-75000D01*
G01*
X168000000Y-85089000D01*
G75*
G02*
X167925000Y-85164000I-75000J0D01*
G01*
X167775000Y-85164000D01*
G75*
G02*
X167700000Y-85089000I0J75000D01*
G01*
G37*
%TD.AperFunction*%
%TO.P,U1,25*%
%TO.N,Net-(J6-Pad2)*%
%TA.AperFunction,SMDPad,CuDef*%
G36*
G01*
X168525000Y-83089000D02*
X168525000Y-82939000D01*
G75*
G02*
X168600000Y-82864000I75000J0D01*
G01*
X169925000Y-82864000D01*
G75*
G02*
X170000000Y-82939000I0J-75000D01*
G01*
X170000000Y-83089000D01*
G75*
G02*
X169925000Y-83164000I-75000J0D01*
G01*
X168600000Y-83164000D01*
G75*
G02*
X168525000Y-83089000I0J75000D01*
G01*
G37*
%TD.AperFunction*%
%TO.P,U1,26*%
%TO.N,Net-(J6-Pad4)*%
%TA.AperFunction,SMDPad,CuDef*%
G36*
G01*
X168525000Y-82589000D02*
X168525000Y-82439000D01*
G75*
G02*
X168600000Y-82364000I75000J0D01*
G01*
X169925000Y-82364000D01*
G75*
G02*
X170000000Y-82439000I0J-75000D01*
G01*
X170000000Y-82589000D01*
G75*
G02*
X169925000Y-82664000I-75000J0D01*
G01*
X168600000Y-82664000D01*
G75*
G02*
X168525000Y-82589000I0J75000D01*
G01*
G37*
%TD.AperFunction*%
%TO.P,U1,27*%
%TO.N,Net-(J6-Pad6)*%
%TA.AperFunction,SMDPad,CuDef*%
G36*
G01*
X168525000Y-82089000D02*
X168525000Y-81939000D01*
G75*
G02*
X168600000Y-81864000I75000J0D01*
G01*
X169925000Y-81864000D01*
G75*
G02*
X170000000Y-81939000I0J-75000D01*
G01*
X170000000Y-82089000D01*
G75*
G02*
X169925000Y-82164000I-75000J0D01*
G01*
X168600000Y-82164000D01*
G75*
G02*
X168525000Y-82089000I0J75000D01*
G01*
G37*
%TD.AperFunction*%
%TO.P,U1,28*%
%TO.N,Net-(J6-Pad8)*%
%TA.AperFunction,SMDPad,CuDef*%
G36*
G01*
X168525000Y-81589000D02*
X168525000Y-81439000D01*
G75*
G02*
X168600000Y-81364000I75000J0D01*
G01*
X169925000Y-81364000D01*
G75*
G02*
X170000000Y-81439000I0J-75000D01*
G01*
X170000000Y-81589000D01*
G75*
G02*
X169925000Y-81664000I-75000J0D01*
G01*
X168600000Y-81664000D01*
G75*
G02*
X168525000Y-81589000I0J75000D01*
G01*
G37*
%TD.AperFunction*%
%TO.P,U1,29*%
%TO.N,N/C*%
%TA.AperFunction,SMDPad,CuDef*%
G36*
G01*
X168525000Y-81089000D02*
X168525000Y-80939000D01*
G75*
G02*
X168600000Y-80864000I75000J0D01*
G01*
X169925000Y-80864000D01*
G75*
G02*
X170000000Y-80939000I0J-75000D01*
G01*
X170000000Y-81089000D01*
G75*
G02*
X169925000Y-81164000I-75000J0D01*
G01*
X168600000Y-81164000D01*
G75*
G02*
X168525000Y-81089000I0J75000D01*
G01*
G37*
%TD.AperFunction*%
%TO.P,U1,30*%
%TO.N,RX*%
%TA.AperFunction,SMDPad,CuDef*%
G36*
G01*
X168525000Y-80589000D02*
X168525000Y-80439000D01*
G75*
G02*
X168600000Y-80364000I75000J0D01*
G01*
X169925000Y-80364000D01*
G75*
G02*
X170000000Y-80439000I0J-75000D01*
G01*
X170000000Y-80589000D01*
G75*
G02*
X169925000Y-80664000I-75000J0D01*
G01*
X168600000Y-80664000D01*
G75*
G02*
X168525000Y-80589000I0J75000D01*
G01*
G37*
%TD.AperFunction*%
%TO.P,U1,31*%
%TO.N,TX*%
%TA.AperFunction,SMDPad,CuDef*%
G36*
G01*
X168525000Y-80089000D02*
X168525000Y-79939000D01*
G75*
G02*
X168600000Y-79864000I75000J0D01*
G01*
X169925000Y-79864000D01*
G75*
G02*
X170000000Y-79939000I0J-75000D01*
G01*
X170000000Y-80089000D01*
G75*
G02*
X169925000Y-80164000I-75000J0D01*
G01*
X168600000Y-80164000D01*
G75*
G02*
X168525000Y-80089000I0J75000D01*
G01*
G37*
%TD.AperFunction*%
%TO.P,U1,32*%
%TO.N,Net-(D2-Pad1)*%
%TA.AperFunction,SMDPad,CuDef*%
G36*
G01*
X168525000Y-79589000D02*
X168525000Y-79439000D01*
G75*
G02*
X168600000Y-79364000I75000J0D01*
G01*
X169925000Y-79364000D01*
G75*
G02*
X170000000Y-79439000I0J-75000D01*
G01*
X170000000Y-79589000D01*
G75*
G02*
X169925000Y-79664000I-75000J0D01*
G01*
X168600000Y-79664000D01*
G75*
G02*
X168525000Y-79589000I0J75000D01*
G01*
G37*
%TD.AperFunction*%
%TO.P,U1,33*%
%TO.N,N/C*%
%TA.AperFunction,SMDPad,CuDef*%
G36*
G01*
X168525000Y-79089000D02*
X168525000Y-78939000D01*
G75*
G02*
X168600000Y-78864000I75000J0D01*
G01*
X169925000Y-78864000D01*
G75*
G02*
X170000000Y-78939000I0J-75000D01*
G01*
X170000000Y-79089000D01*
G75*
G02*
X169925000Y-79164000I-75000J0D01*
G01*
X168600000Y-79164000D01*
G75*
G02*
X168525000Y-79089000I0J75000D01*
G01*
G37*
%TD.AperFunction*%
%TO.P,U1,34*%
%TO.N,Net-(J4-Pad2)*%
%TA.AperFunction,SMDPad,CuDef*%
G36*
G01*
X168525000Y-78589000D02*
X168525000Y-78439000D01*
G75*
G02*
X168600000Y-78364000I75000J0D01*
G01*
X169925000Y-78364000D01*
G75*
G02*
X170000000Y-78439000I0J-75000D01*
G01*
X170000000Y-78589000D01*
G75*
G02*
X169925000Y-78664000I-75000J0D01*
G01*
X168600000Y-78664000D01*
G75*
G02*
X168525000Y-78589000I0J75000D01*
G01*
G37*
%TD.AperFunction*%
%TO.P,U1,35*%
%TO.N,GND*%
%TA.AperFunction,SMDPad,CuDef*%
G36*
G01*
X168525000Y-78089000D02*
X168525000Y-77939000D01*
G75*
G02*
X168600000Y-77864000I75000J0D01*
G01*
X169925000Y-77864000D01*
G75*
G02*
X170000000Y-77939000I0J-75000D01*
G01*
X170000000Y-78089000D01*
G75*
G02*
X169925000Y-78164000I-75000J0D01*
G01*
X168600000Y-78164000D01*
G75*
G02*
X168525000Y-78089000I0J75000D01*
G01*
G37*
%TD.AperFunction*%
%TO.P,U1,36*%
%TO.N,+3V3*%
%TA.AperFunction,SMDPad,CuDef*%
G36*
G01*
X168525000Y-77589000D02*
X168525000Y-77439000D01*
G75*
G02*
X168600000Y-77364000I75000J0D01*
G01*
X169925000Y-77364000D01*
G75*
G02*
X170000000Y-77439000I0J-75000D01*
G01*
X170000000Y-77589000D01*
G75*
G02*
X169925000Y-77664000I-75000J0D01*
G01*
X168600000Y-77664000D01*
G75*
G02*
X168525000Y-77589000I0J75000D01*
G01*
G37*
%TD.AperFunction*%
%TO.P,U1,37*%
%TO.N,Net-(J4-Pad3)*%
%TA.AperFunction,SMDPad,CuDef*%
G36*
G01*
X167700000Y-76764000D02*
X167700000Y-75439000D01*
G75*
G02*
X167775000Y-75364000I75000J0D01*
G01*
X167925000Y-75364000D01*
G75*
G02*
X168000000Y-75439000I0J-75000D01*
G01*
X168000000Y-76764000D01*
G75*
G02*
X167925000Y-76839000I-75000J0D01*
G01*
X167775000Y-76839000D01*
G75*
G02*
X167700000Y-76764000I0J75000D01*
G01*
G37*
%TD.AperFunction*%
%TO.P,U1,38*%
%TO.N,N/C*%
%TA.AperFunction,SMDPad,CuDef*%
G36*
G01*
X167200000Y-76764000D02*
X167200000Y-75439000D01*
G75*
G02*
X167275000Y-75364000I75000J0D01*
G01*
X167425000Y-75364000D01*
G75*
G02*
X167500000Y-75439000I0J-75000D01*
G01*
X167500000Y-76764000D01*
G75*
G02*
X167425000Y-76839000I-75000J0D01*
G01*
X167275000Y-76839000D01*
G75*
G02*
X167200000Y-76764000I0J75000D01*
G01*
G37*
%TD.AperFunction*%
%TO.P,U1,39*%
%TA.AperFunction,SMDPad,CuDef*%
G36*
G01*
X166700000Y-76764000D02*
X166700000Y-75439000D01*
G75*
G02*
X166775000Y-75364000I75000J0D01*
G01*
X166925000Y-75364000D01*
G75*
G02*
X167000000Y-75439000I0J-75000D01*
G01*
X167000000Y-76764000D01*
G75*
G02*
X166925000Y-76839000I-75000J0D01*
G01*
X166775000Y-76839000D01*
G75*
G02*
X166700000Y-76764000I0J75000D01*
G01*
G37*
%TD.AperFunction*%
%TO.P,U1,40*%
%TA.AperFunction,SMDPad,CuDef*%
G36*
G01*
X166200000Y-76764000D02*
X166200000Y-75439000D01*
G75*
G02*
X166275000Y-75364000I75000J0D01*
G01*
X166425000Y-75364000D01*
G75*
G02*
X166500000Y-75439000I0J-75000D01*
G01*
X166500000Y-76764000D01*
G75*
G02*
X166425000Y-76839000I-75000J0D01*
G01*
X166275000Y-76839000D01*
G75*
G02*
X166200000Y-76764000I0J75000D01*
G01*
G37*
%TD.AperFunction*%
%TO.P,U1,41*%
%TA.AperFunction,SMDPad,CuDef*%
G36*
G01*
X165700000Y-76764000D02*
X165700000Y-75439000D01*
G75*
G02*
X165775000Y-75364000I75000J0D01*
G01*
X165925000Y-75364000D01*
G75*
G02*
X166000000Y-75439000I0J-75000D01*
G01*
X166000000Y-76764000D01*
G75*
G02*
X165925000Y-76839000I-75000J0D01*
G01*
X165775000Y-76839000D01*
G75*
G02*
X165700000Y-76764000I0J75000D01*
G01*
G37*
%TD.AperFunction*%
%TO.P,U1,42*%
%TA.AperFunction,SMDPad,CuDef*%
G36*
G01*
X165200000Y-76764000D02*
X165200000Y-75439000D01*
G75*
G02*
X165275000Y-75364000I75000J0D01*
G01*
X165425000Y-75364000D01*
G75*
G02*
X165500000Y-75439000I0J-75000D01*
G01*
X165500000Y-76764000D01*
G75*
G02*
X165425000Y-76839000I-75000J0D01*
G01*
X165275000Y-76839000D01*
G75*
G02*
X165200000Y-76764000I0J75000D01*
G01*
G37*
%TD.AperFunction*%
%TO.P,U1,43*%
%TA.AperFunction,SMDPad,CuDef*%
G36*
G01*
X164700000Y-76764000D02*
X164700000Y-75439000D01*
G75*
G02*
X164775000Y-75364000I75000J0D01*
G01*
X164925000Y-75364000D01*
G75*
G02*
X165000000Y-75439000I0J-75000D01*
G01*
X165000000Y-76764000D01*
G75*
G02*
X164925000Y-76839000I-75000J0D01*
G01*
X164775000Y-76839000D01*
G75*
G02*
X164700000Y-76764000I0J75000D01*
G01*
G37*
%TD.AperFunction*%
%TO.P,U1,44*%
%TO.N,Net-(J1-Pad2)*%
%TA.AperFunction,SMDPad,CuDef*%
G36*
G01*
X164200000Y-76764000D02*
X164200000Y-75439000D01*
G75*
G02*
X164275000Y-75364000I75000J0D01*
G01*
X164425000Y-75364000D01*
G75*
G02*
X164500000Y-75439000I0J-75000D01*
G01*
X164500000Y-76764000D01*
G75*
G02*
X164425000Y-76839000I-75000J0D01*
G01*
X164275000Y-76839000D01*
G75*
G02*
X164200000Y-76764000I0J75000D01*
G01*
G37*
%TD.AperFunction*%
%TO.P,U1,45*%
%TO.N,N/C*%
%TA.AperFunction,SMDPad,CuDef*%
G36*
G01*
X163700000Y-76764000D02*
X163700000Y-75439000D01*
G75*
G02*
X163775000Y-75364000I75000J0D01*
G01*
X163925000Y-75364000D01*
G75*
G02*
X164000000Y-75439000I0J-75000D01*
G01*
X164000000Y-76764000D01*
G75*
G02*
X163925000Y-76839000I-75000J0D01*
G01*
X163775000Y-76839000D01*
G75*
G02*
X163700000Y-76764000I0J75000D01*
G01*
G37*
%TD.AperFunction*%
%TO.P,U1,46*%
%TA.AperFunction,SMDPad,CuDef*%
G36*
G01*
X163200000Y-76764000D02*
X163200000Y-75439000D01*
G75*
G02*
X163275000Y-75364000I75000J0D01*
G01*
X163425000Y-75364000D01*
G75*
G02*
X163500000Y-75439000I0J-75000D01*
G01*
X163500000Y-76764000D01*
G75*
G02*
X163425000Y-76839000I-75000J0D01*
G01*
X163275000Y-76839000D01*
G75*
G02*
X163200000Y-76764000I0J75000D01*
G01*
G37*
%TD.AperFunction*%
%TO.P,U1,47*%
%TO.N,GND*%
%TA.AperFunction,SMDPad,CuDef*%
G36*
G01*
X162700000Y-76764000D02*
X162700000Y-75439000D01*
G75*
G02*
X162775000Y-75364000I75000J0D01*
G01*
X162925000Y-75364000D01*
G75*
G02*
X163000000Y-75439000I0J-75000D01*
G01*
X163000000Y-76764000D01*
G75*
G02*
X162925000Y-76839000I-75000J0D01*
G01*
X162775000Y-76839000D01*
G75*
G02*
X162700000Y-76764000I0J75000D01*
G01*
G37*
%TD.AperFunction*%
%TO.P,U1,48*%
%TO.N,+3V3*%
%TA.AperFunction,SMDPad,CuDef*%
G36*
G01*
X162200000Y-76764000D02*
X162200000Y-75439000D01*
G75*
G02*
X162275000Y-75364000I75000J0D01*
G01*
X162425000Y-75364000D01*
G75*
G02*
X162500000Y-75439000I0J-75000D01*
G01*
X162500000Y-76764000D01*
G75*
G02*
X162425000Y-76839000I-75000J0D01*
G01*
X162275000Y-76839000D01*
G75*
G02*
X162200000Y-76764000I0J75000D01*
G01*
G37*
%TD.AperFunction*%
%TD*%
%TO.P,C1,1*%
%TO.N,Net-(C1-Pad1)*%
%TA.AperFunction,SMDPad,CuDef*%
G36*
G01*
X154338000Y-76401000D02*
X155288000Y-76401000D01*
G75*
G02*
X155538000Y-76651000I0J-250000D01*
G01*
X155538000Y-77151000D01*
G75*
G02*
X155288000Y-77401000I-250000J0D01*
G01*
X154338000Y-77401000D01*
G75*
G02*
X154088000Y-77151000I0J250000D01*
G01*
X154088000Y-76651000D01*
G75*
G02*
X154338000Y-76401000I250000J0D01*
G01*
G37*
%TD.AperFunction*%
%TO.P,C1,2*%
%TO.N,GND*%
%TA.AperFunction,SMDPad,CuDef*%
G36*
G01*
X154338000Y-78301000D02*
X155288000Y-78301000D01*
G75*
G02*
X155538000Y-78551000I0J-250000D01*
G01*
X155538000Y-79051000D01*
G75*
G02*
X155288000Y-79301000I-250000J0D01*
G01*
X154338000Y-79301000D01*
G75*
G02*
X154088000Y-79051000I0J250000D01*
G01*
X154088000Y-78551000D01*
G75*
G02*
X154338000Y-78301000I250000J0D01*
G01*
G37*
%TD.AperFunction*%
%TD*%
%TO.P,C2,2*%
%TO.N,GND*%
%TA.AperFunction,SMDPad,CuDef*%
G36*
G01*
X155288000Y-80957000D02*
X154338000Y-80957000D01*
G75*
G02*
X154088000Y-80707000I0J250000D01*
G01*
X154088000Y-80207000D01*
G75*
G02*
X154338000Y-79957000I250000J0D01*
G01*
X155288000Y-79957000D01*
G75*
G02*
X155538000Y-80207000I0J-250000D01*
G01*
X155538000Y-80707000D01*
G75*
G02*
X155288000Y-80957000I-250000J0D01*
G01*
G37*
%TD.AperFunction*%
%TO.P,C2,1*%
%TO.N,Net-(C2-Pad1)*%
%TA.AperFunction,SMDPad,CuDef*%
G36*
G01*
X155288000Y-82857000D02*
X154338000Y-82857000D01*
G75*
G02*
X154088000Y-82607000I0J250000D01*
G01*
X154088000Y-82107000D01*
G75*
G02*
X154338000Y-81857000I250000J0D01*
G01*
X155288000Y-81857000D01*
G75*
G02*
X155538000Y-82107000I0J-250000D01*
G01*
X155538000Y-82607000D01*
G75*
G02*
X155288000Y-82857000I-250000J0D01*
G01*
G37*
%TD.AperFunction*%
%TD*%
%TO.P,C3,1*%
%TO.N,Net-(C3-Pad1)*%
%TA.AperFunction,SMDPad,CuDef*%
G36*
G01*
X155646500Y-72865000D02*
X155646500Y-71915000D01*
G75*
G02*
X155896500Y-71665000I250000J0D01*
G01*
X156396500Y-71665000D01*
G75*
G02*
X156646500Y-71915000I0J-250000D01*
G01*
X156646500Y-72865000D01*
G75*
G02*
X156396500Y-73115000I-250000J0D01*
G01*
X155896500Y-73115000D01*
G75*
G02*
X155646500Y-72865000I0J250000D01*
G01*
G37*
%TD.AperFunction*%
%TO.P,C3,2*%
%TO.N,GND*%
%TA.AperFunction,SMDPad,CuDef*%
G36*
G01*
X157546500Y-72865000D02*
X157546500Y-71915000D01*
G75*
G02*
X157796500Y-71665000I250000J0D01*
G01*
X158296500Y-71665000D01*
G75*
G02*
X158546500Y-71915000I0J-250000D01*
G01*
X158546500Y-72865000D01*
G75*
G02*
X158296500Y-73115000I-250000J0D01*
G01*
X157796500Y-73115000D01*
G75*
G02*
X157546500Y-72865000I0J250000D01*
G01*
G37*
%TD.AperFunction*%
%TD*%
%TO.P,C4,1*%
%TO.N,+3V3*%
%TA.AperFunction,SMDPad,CuDef*%
G36*
G01*
X162806000Y-73439000D02*
X162806000Y-74389000D01*
G75*
G02*
X162556000Y-74639000I-250000J0D01*
G01*
X162056000Y-74639000D01*
G75*
G02*
X161806000Y-74389000I0J250000D01*
G01*
X161806000Y-73439000D01*
G75*
G02*
X162056000Y-73189000I250000J0D01*
G01*
X162556000Y-73189000D01*
G75*
G02*
X162806000Y-73439000I0J-250000D01*
G01*
G37*
%TD.AperFunction*%
%TO.P,C4,2*%
%TO.N,GND*%
%TA.AperFunction,SMDPad,CuDef*%
G36*
G01*
X160906000Y-73439000D02*
X160906000Y-74389000D01*
G75*
G02*
X160656000Y-74639000I-250000J0D01*
G01*
X160156000Y-74639000D01*
G75*
G02*
X159906000Y-74389000I0J250000D01*
G01*
X159906000Y-73439000D01*
G75*
G02*
X160156000Y-73189000I250000J0D01*
G01*
X160656000Y-73189000D01*
G75*
G02*
X160906000Y-73439000I0J-250000D01*
G01*
G37*
%TD.AperFunction*%
%TD*%
%TO.P,C5,2*%
%TO.N,GND*%
%TA.AperFunction,SMDPad,CuDef*%
G36*
G01*
X166425500Y-86774000D02*
X166425500Y-87724000D01*
G75*
G02*
X166175500Y-87974000I-250000J0D01*
G01*
X165675500Y-87974000D01*
G75*
G02*
X165425500Y-87724000I0J250000D01*
G01*
X165425500Y-86774000D01*
G75*
G02*
X165675500Y-86524000I250000J0D01*
G01*
X166175500Y-86524000D01*
G75*
G02*
X166425500Y-86774000I0J-250000D01*
G01*
G37*
%TD.AperFunction*%
%TO.P,C5,1*%
%TO.N,+3V3*%
%TA.AperFunction,SMDPad,CuDef*%
G36*
G01*
X168325500Y-86774000D02*
X168325500Y-87724000D01*
G75*
G02*
X168075500Y-87974000I-250000J0D01*
G01*
X167575500Y-87974000D01*
G75*
G02*
X167325500Y-87724000I0J250000D01*
G01*
X167325500Y-86774000D01*
G75*
G02*
X167575500Y-86524000I250000J0D01*
G01*
X168075500Y-86524000D01*
G75*
G02*
X168325500Y-86774000I0J-250000D01*
G01*
G37*
%TD.AperFunction*%
%TD*%
%TO.P,C6,1*%
%TO.N,+3V3*%
%TA.AperFunction,SMDPad,CuDef*%
G36*
G01*
X172499000Y-75512000D02*
X173449000Y-75512000D01*
G75*
G02*
X173699000Y-75762000I0J-250000D01*
G01*
X173699000Y-76262000D01*
G75*
G02*
X173449000Y-76512000I-250000J0D01*
G01*
X172499000Y-76512000D01*
G75*
G02*
X172249000Y-76262000I0J250000D01*
G01*
X172249000Y-75762000D01*
G75*
G02*
X172499000Y-75512000I250000J0D01*
G01*
G37*
%TD.AperFunction*%
%TO.P,C6,2*%
%TO.N,GND*%
%TA.AperFunction,SMDPad,CuDef*%
G36*
G01*
X172499000Y-77412000D02*
X173449000Y-77412000D01*
G75*
G02*
X173699000Y-77662000I0J-250000D01*
G01*
X173699000Y-78162000D01*
G75*
G02*
X173449000Y-78412000I-250000J0D01*
G01*
X172499000Y-78412000D01*
G75*
G02*
X172249000Y-78162000I0J250000D01*
G01*
X172249000Y-77662000D01*
G75*
G02*
X172499000Y-77412000I250000J0D01*
G01*
G37*
%TD.AperFunction*%
%TD*%
%TO.P,C7,2*%
%TO.N,GND*%
%TA.AperFunction,SMDPad,CuDef*%
G36*
G01*
X184153000Y-72611000D02*
X184153000Y-71661000D01*
G75*
G02*
X184403000Y-71411000I250000J0D01*
G01*
X184903000Y-71411000D01*
G75*
G02*
X185153000Y-71661000I0J-250000D01*
G01*
X185153000Y-72611000D01*
G75*
G02*
X184903000Y-72861000I-250000J0D01*
G01*
X184403000Y-72861000D01*
G75*
G02*
X184153000Y-72611000I0J250000D01*
G01*
G37*
%TD.AperFunction*%
%TO.P,C7,1*%
%TO.N,NRST*%
%TA.AperFunction,SMDPad,CuDef*%
G36*
G01*
X182253000Y-72611000D02*
X182253000Y-71661000D01*
G75*
G02*
X182503000Y-71411000I250000J0D01*
G01*
X183003000Y-71411000D01*
G75*
G02*
X183253000Y-71661000I0J-250000D01*
G01*
X183253000Y-72611000D01*
G75*
G02*
X183003000Y-72861000I-250000J0D01*
G01*
X182503000Y-72861000D01*
G75*
G02*
X182253000Y-72611000I0J250000D01*
G01*
G37*
%TD.AperFunction*%
%TD*%
%TO.P,C8,2*%
%TO.N,GND*%
%TA.AperFunction,SMDPad,CuDef*%
G36*
G01*
X157549000Y-70769500D02*
X157549000Y-69819500D01*
G75*
G02*
X157799000Y-69569500I250000J0D01*
G01*
X158299000Y-69569500D01*
G75*
G02*
X158549000Y-69819500I0J-250000D01*
G01*
X158549000Y-70769500D01*
G75*
G02*
X158299000Y-71019500I-250000J0D01*
G01*
X157799000Y-71019500D01*
G75*
G02*
X157549000Y-70769500I0J250000D01*
G01*
G37*
%TD.AperFunction*%
%TO.P,C8,1*%
%TO.N,Net-(C8-Pad1)*%
%TA.AperFunction,SMDPad,CuDef*%
G36*
G01*
X155649000Y-70769500D02*
X155649000Y-69819500D01*
G75*
G02*
X155899000Y-69569500I250000J0D01*
G01*
X156399000Y-69569500D01*
G75*
G02*
X156649000Y-69819500I0J-250000D01*
G01*
X156649000Y-70769500D01*
G75*
G02*
X156399000Y-71019500I-250000J0D01*
G01*
X155899000Y-71019500D01*
G75*
G02*
X155649000Y-70769500I0J250000D01*
G01*
G37*
%TD.AperFunction*%
%TD*%
%TO.P,C9,2*%
%TO.N,Net-(C12-Pad1)*%
%TA.AperFunction,SMDPad,CuDef*%
G36*
G01*
X169040000Y-112870000D02*
X169040000Y-111920000D01*
G75*
G02*
X169290000Y-111670000I250000J0D01*
G01*
X169790000Y-111670000D01*
G75*
G02*
X170040000Y-111920000I0J-250000D01*
G01*
X170040000Y-112870000D01*
G75*
G02*
X169790000Y-113120000I-250000J0D01*
G01*
X169290000Y-113120000D01*
G75*
G02*
X169040000Y-112870000I0J250000D01*
G01*
G37*
%TD.AperFunction*%
%TO.P,C9,1*%
%TO.N,Net-(C9-Pad1)*%
%TA.AperFunction,SMDPad,CuDef*%
G36*
G01*
X167140000Y-112870000D02*
X167140000Y-111920000D01*
G75*
G02*
X167390000Y-111670000I250000J0D01*
G01*
X167890000Y-111670000D01*
G75*
G02*
X168140000Y-111920000I0J-250000D01*
G01*
X168140000Y-112870000D01*
G75*
G02*
X167890000Y-113120000I-250000J0D01*
G01*
X167390000Y-113120000D01*
G75*
G02*
X167140000Y-112870000I0J250000D01*
G01*
G37*
%TD.AperFunction*%
%TD*%
D10*
%TO.P,C10,2*%
%TO.N,GND*%
X142798800Y-123180000D03*
D11*
%TO.P,C10,1*%
%TO.N,+24V*%
X142798800Y-119380000D03*
%TD*%
%TO.P,C11,2*%
%TO.N,GND*%
%TA.AperFunction,SMDPad,CuDef*%
G36*
G01*
X148051500Y-119515000D02*
X149001500Y-119515000D01*
G75*
G02*
X149251500Y-119765000I0J-250000D01*
G01*
X149251500Y-120265000D01*
G75*
G02*
X149001500Y-120515000I-250000J0D01*
G01*
X148051500Y-120515000D01*
G75*
G02*
X147801500Y-120265000I0J250000D01*
G01*
X147801500Y-119765000D01*
G75*
G02*
X148051500Y-119515000I250000J0D01*
G01*
G37*
%TD.AperFunction*%
%TO.P,C11,1*%
%TO.N,+24V*%
%TA.AperFunction,SMDPad,CuDef*%
G36*
G01*
X148051500Y-117615000D02*
X149001500Y-117615000D01*
G75*
G02*
X149251500Y-117865000I0J-250000D01*
G01*
X149251500Y-118365000D01*
G75*
G02*
X149001500Y-118615000I-250000J0D01*
G01*
X148051500Y-118615000D01*
G75*
G02*
X147801500Y-118365000I0J250000D01*
G01*
X147801500Y-117865000D01*
G75*
G02*
X148051500Y-117615000I250000J0D01*
G01*
G37*
%TD.AperFunction*%
%TD*%
%TO.P,C12,1*%
%TO.N,Net-(C12-Pad1)*%
X180340000Y-116840000D03*
D10*
%TO.P,C12,2*%
%TO.N,GND*%
X180340000Y-120640000D03*
%TD*%
%TO.P,C14,1*%
%TO.N,+3V3*%
%TA.AperFunction,SMDPad,CuDef*%
G36*
G01*
X146608500Y-97061000D02*
X146608500Y-98011000D01*
G75*
G02*
X146358500Y-98261000I-250000J0D01*
G01*
X145858500Y-98261000D01*
G75*
G02*
X145608500Y-98011000I0J250000D01*
G01*
X145608500Y-97061000D01*
G75*
G02*
X145858500Y-96811000I250000J0D01*
G01*
X146358500Y-96811000D01*
G75*
G02*
X146608500Y-97061000I0J-250000D01*
G01*
G37*
%TD.AperFunction*%
%TO.P,C14,2*%
%TO.N,GND*%
%TA.AperFunction,SMDPad,CuDef*%
G36*
G01*
X144708500Y-97061000D02*
X144708500Y-98011000D01*
G75*
G02*
X144458500Y-98261000I-250000J0D01*
G01*
X143958500Y-98261000D01*
G75*
G02*
X143708500Y-98011000I0J250000D01*
G01*
X143708500Y-97061000D01*
G75*
G02*
X143958500Y-96811000I250000J0D01*
G01*
X144458500Y-96811000D01*
G75*
G02*
X144708500Y-97061000I0J-250000D01*
G01*
G37*
%TD.AperFunction*%
%TD*%
%TO.P,C15,1*%
%TO.N,+3V3*%
%TA.AperFunction,SMDPad,CuDef*%
G36*
G01*
X147797500Y-96914000D02*
X148747500Y-96914000D01*
G75*
G02*
X148997500Y-97164000I0J-250000D01*
G01*
X148997500Y-97664000D01*
G75*
G02*
X148747500Y-97914000I-250000J0D01*
G01*
X147797500Y-97914000D01*
G75*
G02*
X147547500Y-97664000I0J250000D01*
G01*
X147547500Y-97164000D01*
G75*
G02*
X147797500Y-96914000I250000J0D01*
G01*
G37*
%TD.AperFunction*%
%TO.P,C15,2*%
%TO.N,GND*%
%TA.AperFunction,SMDPad,CuDef*%
G36*
G01*
X147797500Y-98814000D02*
X148747500Y-98814000D01*
G75*
G02*
X148997500Y-99064000I0J-250000D01*
G01*
X148997500Y-99564000D01*
G75*
G02*
X148747500Y-99814000I-250000J0D01*
G01*
X147797500Y-99814000D01*
G75*
G02*
X147547500Y-99564000I0J250000D01*
G01*
X147547500Y-99064000D01*
G75*
G02*
X147797500Y-98814000I250000J0D01*
G01*
G37*
%TD.AperFunction*%
%TD*%
D11*
%TO.P,C17,1*%
%TO.N,+5V*%
X176085500Y-106275500D03*
D10*
%TO.P,C17,2*%
%TO.N,GND*%
X176085500Y-108775500D03*
%TD*%
%TO.P,C18,2*%
%TO.N,GND*%
X175958500Y-102449000D03*
D11*
%TO.P,C18,1*%
%TO.N,Net-(C16-Pad1)*%
X175958500Y-99949000D03*
%TD*%
D12*
%TO.P,D1,1*%
%TO.N,GND*%
X149549200Y-124053600D03*
%TO.P,D1,2*%
%TO.N,Net-(D1-Pad2)*%
X153879200Y-124053600D03*
%TD*%
%TO.P,D2,1*%
%TO.N,Net-(D2-Pad1)*%
%TA.AperFunction,SMDPad,CuDef*%
G36*
G01*
X179208750Y-79862500D02*
X178296250Y-79862500D01*
G75*
G02*
X178052500Y-79618750I0J243750D01*
G01*
X178052500Y-79131250D01*
G75*
G02*
X178296250Y-78887500I243750J0D01*
G01*
X179208750Y-78887500D01*
G75*
G02*
X179452500Y-79131250I0J-243750D01*
G01*
X179452500Y-79618750D01*
G75*
G02*
X179208750Y-79862500I-243750J0D01*
G01*
G37*
%TD.AperFunction*%
%TO.P,D2,2*%
%TO.N,Net-(D2-Pad2)*%
%TA.AperFunction,SMDPad,CuDef*%
G36*
G01*
X179208750Y-77987500D02*
X178296250Y-77987500D01*
G75*
G02*
X178052500Y-77743750I0J243750D01*
G01*
X178052500Y-77256250D01*
G75*
G02*
X178296250Y-77012500I243750J0D01*
G01*
X179208750Y-77012500D01*
G75*
G02*
X179452500Y-77256250I0J-243750D01*
G01*
X179452500Y-77743750D01*
G75*
G02*
X179208750Y-77987500I-243750J0D01*
G01*
G37*
%TD.AperFunction*%
%TD*%
D13*
%TO.P,IC1,1*%
%TO.N,RO*%
X151365500Y-94932500D03*
%TO.P,IC1,2*%
%TO.N,DE*%
X151365500Y-93662500D03*
%TO.P,IC1,3*%
X151365500Y-92392500D03*
%TO.P,IC1,4*%
%TO.N,DI*%
X151365500Y-91122500D03*
%TO.P,IC1,5*%
%TO.N,GND*%
X145941500Y-91122500D03*
%TO.P,IC1,6*%
%TO.N,A*%
X145941500Y-92392500D03*
%TO.P,IC1,7*%
%TO.N,B*%
X145941500Y-93662500D03*
%TO.P,IC1,8*%
%TO.N,+3V3*%
X145941500Y-94932500D03*
%TD*%
D14*
%TO.P,J1,1*%
%TO.N,GND*%
X174625000Y-71056500D03*
D15*
%TO.P,J1,2*%
%TO.N,Net-(J1-Pad2)*%
X177165000Y-71056500D03*
%TO.P,J1,3*%
%TO.N,+3V3*%
X179705000Y-71056500D03*
%TD*%
D16*
%TO.P,J2,4*%
%TO.N,+24V*%
X119888000Y-119380000D03*
%TO.P,J2,3*%
%TO.N,GND*%
X124968000Y-119380000D03*
%TO.P,J2,2*%
%TO.N,B*%
X130048000Y-119380000D03*
%TO.P,J2,1*%
%TO.N,A*%
%TA.AperFunction,ComponentPad*%
G36*
G01*
X136028000Y-117830000D02*
X136028000Y-120930000D01*
G75*
G02*
X135778000Y-121180000I-250000J0D01*
G01*
X134478000Y-121180000D01*
G75*
G02*
X134228000Y-120930000I0J250000D01*
G01*
X134228000Y-117830000D01*
G75*
G02*
X134478000Y-117580000I250000J0D01*
G01*
X135778000Y-117580000D01*
G75*
G02*
X136028000Y-117830000I0J-250000D01*
G01*
G37*
%TD.AperFunction*%
%TD*%
%TO.P,J3,1*%
%TO.N,A*%
%TA.AperFunction,ComponentPad*%
G36*
G01*
X136028000Y-73126000D02*
X136028000Y-76226000D01*
G75*
G02*
X135778000Y-76476000I-250000J0D01*
G01*
X134478000Y-76476000D01*
G75*
G02*
X134228000Y-76226000I0J250000D01*
G01*
X134228000Y-73126000D01*
G75*
G02*
X134478000Y-72876000I250000J0D01*
G01*
X135778000Y-72876000D01*
G75*
G02*
X136028000Y-73126000I0J-250000D01*
G01*
G37*
%TD.AperFunction*%
%TO.P,J3,2*%
%TO.N,B*%
X130048000Y-74676000D03*
%TO.P,J3,3*%
%TO.N,GND*%
X124968000Y-74676000D03*
%TO.P,J3,4*%
%TO.N,+24V*%
X119888000Y-74676000D03*
%TD*%
%TO.P,J5,1*%
%TO.N,+5V*%
%TA.AperFunction,ComponentPad*%
G36*
G01*
X185954000Y-103008000D02*
X182854000Y-103008000D01*
G75*
G02*
X182604000Y-102758000I0J250000D01*
G01*
X182604000Y-101458000D01*
G75*
G02*
X182854000Y-101208000I250000J0D01*
G01*
X185954000Y-101208000D01*
G75*
G02*
X186204000Y-101458000I0J-250000D01*
G01*
X186204000Y-102758000D01*
G75*
G02*
X185954000Y-103008000I-250000J0D01*
G01*
G37*
%TD.AperFunction*%
D17*
%TO.P,J5,2*%
%TO.N,RX*%
X184404000Y-97028000D03*
%TO.P,J5,3*%
%TO.N,TX*%
X184404000Y-91948000D03*
%TO.P,J5,4*%
%TO.N,GND*%
X184404000Y-86868000D03*
%TD*%
D18*
%TO.P,L1,1*%
%TO.N,Net-(D1-Pad2)*%
X163960000Y-120205500D03*
%TO.P,L1,2*%
%TO.N,Net-(C12-Pad1)*%
X173860000Y-120205500D03*
%TD*%
%TO.P,R1,2*%
%TO.N,NRST*%
%TA.AperFunction,SMDPad,CuDef*%
G36*
G01*
X179266001Y-81705500D02*
X178365999Y-81705500D01*
G75*
G02*
X178116000Y-81455501I0J249999D01*
G01*
X178116000Y-80930499D01*
G75*
G02*
X178365999Y-80680500I249999J0D01*
G01*
X179266001Y-80680500D01*
G75*
G02*
X179516000Y-80930499I0J-249999D01*
G01*
X179516000Y-81455501D01*
G75*
G02*
X179266001Y-81705500I-249999J0D01*
G01*
G37*
%TD.AperFunction*%
%TO.P,R1,1*%
%TO.N,+3V3*%
%TA.AperFunction,SMDPad,CuDef*%
G36*
G01*
X179266001Y-83530500D02*
X178365999Y-83530500D01*
G75*
G02*
X178116000Y-83280501I0J249999D01*
G01*
X178116000Y-82755499D01*
G75*
G02*
X178365999Y-82505500I249999J0D01*
G01*
X179266001Y-82505500D01*
G75*
G02*
X179516000Y-82755499I0J-249999D01*
G01*
X179516000Y-83280501D01*
G75*
G02*
X179266001Y-83530500I-249999J0D01*
G01*
G37*
%TD.AperFunction*%
%TD*%
%TO.P,R2,2*%
%TO.N,Net-(C9-Pad1)*%
%TA.AperFunction,SMDPad,CuDef*%
G36*
G01*
X168129000Y-109785999D02*
X168129000Y-110686001D01*
G75*
G02*
X167879001Y-110936000I-249999J0D01*
G01*
X167353999Y-110936000D01*
G75*
G02*
X167104000Y-110686001I0J249999D01*
G01*
X167104000Y-109785999D01*
G75*
G02*
X167353999Y-109536000I249999J0D01*
G01*
X167879001Y-109536000D01*
G75*
G02*
X168129000Y-109785999I0J-249999D01*
G01*
G37*
%TD.AperFunction*%
%TO.P,R2,1*%
%TO.N,Net-(C12-Pad1)*%
%TA.AperFunction,SMDPad,CuDef*%
G36*
G01*
X169954000Y-109785999D02*
X169954000Y-110686001D01*
G75*
G02*
X169704001Y-110936000I-249999J0D01*
G01*
X169178999Y-110936000D01*
G75*
G02*
X168929000Y-110686001I0J249999D01*
G01*
X168929000Y-109785999D01*
G75*
G02*
X169178999Y-109536000I249999J0D01*
G01*
X169704001Y-109536000D01*
G75*
G02*
X169954000Y-109785999I0J-249999D01*
G01*
G37*
%TD.AperFunction*%
%TD*%
%TO.P,R3,2*%
%TO.N,DI*%
%TA.AperFunction,SMDPad,CuDef*%
G36*
G01*
X154108999Y-90610000D02*
X155009001Y-90610000D01*
G75*
G02*
X155259000Y-90859999I0J-249999D01*
G01*
X155259000Y-91385001D01*
G75*
G02*
X155009001Y-91635000I-249999J0D01*
G01*
X154108999Y-91635000D01*
G75*
G02*
X153859000Y-91385001I0J249999D01*
G01*
X153859000Y-90859999D01*
G75*
G02*
X154108999Y-90610000I249999J0D01*
G01*
G37*
%TD.AperFunction*%
%TO.P,R3,1*%
%TO.N,+3V3*%
%TA.AperFunction,SMDPad,CuDef*%
G36*
G01*
X154108999Y-88785000D02*
X155009001Y-88785000D01*
G75*
G02*
X155259000Y-89034999I0J-249999D01*
G01*
X155259000Y-89560001D01*
G75*
G02*
X155009001Y-89810000I-249999J0D01*
G01*
X154108999Y-89810000D01*
G75*
G02*
X153859000Y-89560001I0J249999D01*
G01*
X153859000Y-89034999D01*
G75*
G02*
X154108999Y-88785000I249999J0D01*
G01*
G37*
%TD.AperFunction*%
%TD*%
%TO.P,R4,1*%
%TO.N,+3V3*%
%TA.AperFunction,SMDPad,CuDef*%
G36*
G01*
X151689500Y-88640499D02*
X151689500Y-89540501D01*
G75*
G02*
X151439501Y-89790500I-249999J0D01*
G01*
X150914499Y-89790500D01*
G75*
G02*
X150664500Y-89540501I0J249999D01*
G01*
X150664500Y-88640499D01*
G75*
G02*
X150914499Y-88390500I249999J0D01*
G01*
X151439501Y-88390500D01*
G75*
G02*
X151689500Y-88640499I0J-249999D01*
G01*
G37*
%TD.AperFunction*%
%TO.P,R4,2*%
%TO.N,DE*%
%TA.AperFunction,SMDPad,CuDef*%
G36*
G01*
X149864500Y-88640499D02*
X149864500Y-89540501D01*
G75*
G02*
X149614501Y-89790500I-249999J0D01*
G01*
X149089499Y-89790500D01*
G75*
G02*
X148839500Y-89540501I0J249999D01*
G01*
X148839500Y-88640499D01*
G75*
G02*
X149089499Y-88390500I249999J0D01*
G01*
X149614501Y-88390500D01*
G75*
G02*
X149864500Y-88640499I0J-249999D01*
G01*
G37*
%TD.AperFunction*%
%TD*%
%TO.P,R5,1*%
%TO.N,+3V3*%
%TA.AperFunction,SMDPad,CuDef*%
G36*
G01*
X155009001Y-97270000D02*
X154108999Y-97270000D01*
G75*
G02*
X153859000Y-97020001I0J249999D01*
G01*
X153859000Y-96494999D01*
G75*
G02*
X154108999Y-96245000I249999J0D01*
G01*
X155009001Y-96245000D01*
G75*
G02*
X155259000Y-96494999I0J-249999D01*
G01*
X155259000Y-97020001D01*
G75*
G02*
X155009001Y-97270000I-249999J0D01*
G01*
G37*
%TD.AperFunction*%
%TO.P,R5,2*%
%TO.N,RO*%
%TA.AperFunction,SMDPad,CuDef*%
G36*
G01*
X155009001Y-95445000D02*
X154108999Y-95445000D01*
G75*
G02*
X153859000Y-95195001I0J249999D01*
G01*
X153859000Y-94669999D01*
G75*
G02*
X154108999Y-94420000I249999J0D01*
G01*
X155009001Y-94420000D01*
G75*
G02*
X155259000Y-94669999I0J-249999D01*
G01*
X155259000Y-95195001D01*
G75*
G02*
X155009001Y-95445000I-249999J0D01*
G01*
G37*
%TD.AperFunction*%
%TD*%
%TO.P,R6,2*%
%TO.N,A*%
%TA.AperFunction,SMDPad,CuDef*%
G36*
G01*
X141408999Y-89403500D02*
X142309001Y-89403500D01*
G75*
G02*
X142559000Y-89653499I0J-249999D01*
G01*
X142559000Y-90178501D01*
G75*
G02*
X142309001Y-90428500I-249999J0D01*
G01*
X141408999Y-90428500D01*
G75*
G02*
X141159000Y-90178501I0J249999D01*
G01*
X141159000Y-89653499D01*
G75*
G02*
X141408999Y-89403500I249999J0D01*
G01*
G37*
%TD.AperFunction*%
%TO.P,R6,1*%
%TO.N,+3V3*%
%TA.AperFunction,SMDPad,CuDef*%
G36*
G01*
X141408999Y-87578500D02*
X142309001Y-87578500D01*
G75*
G02*
X142559000Y-87828499I0J-249999D01*
G01*
X142559000Y-88353501D01*
G75*
G02*
X142309001Y-88603500I-249999J0D01*
G01*
X141408999Y-88603500D01*
G75*
G02*
X141159000Y-88353501I0J249999D01*
G01*
X141159000Y-87828499D01*
G75*
G02*
X141408999Y-87578500I249999J0D01*
G01*
G37*
%TD.AperFunction*%
%TD*%
%TO.P,R7,2*%
%TO.N,Net-(C12-Pad1)*%
%TA.AperFunction,SMDPad,CuDef*%
G36*
G01*
X183953999Y-107611500D02*
X184854001Y-107611500D01*
G75*
G02*
X185104000Y-107861499I0J-249999D01*
G01*
X185104000Y-108386501D01*
G75*
G02*
X184854001Y-108636500I-249999J0D01*
G01*
X183953999Y-108636500D01*
G75*
G02*
X183704000Y-108386501I0J249999D01*
G01*
X183704000Y-107861499D01*
G75*
G02*
X183953999Y-107611500I249999J0D01*
G01*
G37*
%TD.AperFunction*%
%TO.P,R7,1*%
%TO.N,+5V*%
%TA.AperFunction,SMDPad,CuDef*%
G36*
G01*
X183953999Y-105786500D02*
X184854001Y-105786500D01*
G75*
G02*
X185104000Y-106036499I0J-249999D01*
G01*
X185104000Y-106561501D01*
G75*
G02*
X184854001Y-106811500I-249999J0D01*
G01*
X183953999Y-106811500D01*
G75*
G02*
X183704000Y-106561501I0J249999D01*
G01*
X183704000Y-106036499D01*
G75*
G02*
X183953999Y-105786500I249999J0D01*
G01*
G37*
%TD.AperFunction*%
%TD*%
%TO.P,R8,1*%
%TO.N,GND*%
%TA.AperFunction,SMDPad,CuDef*%
G36*
G01*
X164967499Y-110017500D02*
X165867501Y-110017500D01*
G75*
G02*
X166117500Y-110267499I0J-249999D01*
G01*
X166117500Y-110792501D01*
G75*
G02*
X165867501Y-111042500I-249999J0D01*
G01*
X164967499Y-111042500D01*
G75*
G02*
X164717500Y-110792501I0J249999D01*
G01*
X164717500Y-110267499D01*
G75*
G02*
X164967499Y-110017500I249999J0D01*
G01*
G37*
%TD.AperFunction*%
%TO.P,R8,2*%
%TO.N,Net-(C9-Pad1)*%
%TA.AperFunction,SMDPad,CuDef*%
G36*
G01*
X164967499Y-111842500D02*
X165867501Y-111842500D01*
G75*
G02*
X166117500Y-112092499I0J-249999D01*
G01*
X166117500Y-112617501D01*
G75*
G02*
X165867501Y-112867500I-249999J0D01*
G01*
X164967499Y-112867500D01*
G75*
G02*
X164717500Y-112617501I0J249999D01*
G01*
X164717500Y-112092499D01*
G75*
G02*
X164967499Y-111842500I249999J0D01*
G01*
G37*
%TD.AperFunction*%
%TD*%
%TO.P,R9,1*%
%TO.N,B*%
%TA.AperFunction,SMDPad,CuDef*%
G36*
G01*
X142309001Y-94539500D02*
X141408999Y-94539500D01*
G75*
G02*
X141159000Y-94289501I0J249999D01*
G01*
X141159000Y-93764499D01*
G75*
G02*
X141408999Y-93514500I249999J0D01*
G01*
X142309001Y-93514500D01*
G75*
G02*
X142559000Y-93764499I0J-249999D01*
G01*
X142559000Y-94289501D01*
G75*
G02*
X142309001Y-94539500I-249999J0D01*
G01*
G37*
%TD.AperFunction*%
%TO.P,R9,2*%
%TO.N,A*%
%TA.AperFunction,SMDPad,CuDef*%
G36*
G01*
X142309001Y-92714500D02*
X141408999Y-92714500D01*
G75*
G02*
X141159000Y-92464501I0J249999D01*
G01*
X141159000Y-91939499D01*
G75*
G02*
X141408999Y-91689500I249999J0D01*
G01*
X142309001Y-91689500D01*
G75*
G02*
X142559000Y-91939499I0J-249999D01*
G01*
X142559000Y-92464501D01*
G75*
G02*
X142309001Y-92714500I-249999J0D01*
G01*
G37*
%TD.AperFunction*%
%TD*%
%TO.P,R10,1*%
%TO.N,B*%
%TA.AperFunction,SMDPad,CuDef*%
G36*
G01*
X141408999Y-95516000D02*
X142309001Y-95516000D01*
G75*
G02*
X142559000Y-95765999I0J-249999D01*
G01*
X142559000Y-96291001D01*
G75*
G02*
X142309001Y-96541000I-249999J0D01*
G01*
X141408999Y-96541000D01*
G75*
G02*
X141159000Y-96291001I0J249999D01*
G01*
X141159000Y-95765999D01*
G75*
G02*
X141408999Y-95516000I249999J0D01*
G01*
G37*
%TD.AperFunction*%
%TO.P,R10,2*%
%TO.N,GND*%
%TA.AperFunction,SMDPad,CuDef*%
G36*
G01*
X141408999Y-97341000D02*
X142309001Y-97341000D01*
G75*
G02*
X142559000Y-97590999I0J-249999D01*
G01*
X142559000Y-98116001D01*
G75*
G02*
X142309001Y-98366000I-249999J0D01*
G01*
X141408999Y-98366000D01*
G75*
G02*
X141159000Y-98116001I0J249999D01*
G01*
X141159000Y-97590999D01*
G75*
G02*
X141408999Y-97341000I249999J0D01*
G01*
G37*
%TD.AperFunction*%
%TD*%
%TO.P,R11,1*%
%TO.N,+3V3*%
%TA.AperFunction,SMDPad,CuDef*%
G36*
G01*
X175495799Y-92529600D02*
X176395801Y-92529600D01*
G75*
G02*
X176645800Y-92779599I0J-249999D01*
G01*
X176645800Y-93304601D01*
G75*
G02*
X176395801Y-93554600I-249999J0D01*
G01*
X175495799Y-93554600D01*
G75*
G02*
X175245800Y-93304601I0J249999D01*
G01*
X175245800Y-92779599D01*
G75*
G02*
X175495799Y-92529600I249999J0D01*
G01*
G37*
%TD.AperFunction*%
%TO.P,R11,2*%
%TO.N,Net-(C16-Pad1)*%
%TA.AperFunction,SMDPad,CuDef*%
G36*
G01*
X175495799Y-94354600D02*
X176395801Y-94354600D01*
G75*
G02*
X176645800Y-94604599I0J-249999D01*
G01*
X176645800Y-95129601D01*
G75*
G02*
X176395801Y-95379600I-249999J0D01*
G01*
X175495799Y-95379600D01*
G75*
G02*
X175245800Y-95129601I0J249999D01*
G01*
X175245800Y-94604599D01*
G75*
G02*
X175495799Y-94354600I249999J0D01*
G01*
G37*
%TD.AperFunction*%
%TD*%
%TO.P,R12,1*%
%TO.N,Net-(D2-Pad2)*%
%TA.AperFunction,SMDPad,CuDef*%
G36*
G01*
X179202501Y-76291500D02*
X178302499Y-76291500D01*
G75*
G02*
X178052500Y-76041501I0J249999D01*
G01*
X178052500Y-75516499D01*
G75*
G02*
X178302499Y-75266500I249999J0D01*
G01*
X179202501Y-75266500D01*
G75*
G02*
X179452500Y-75516499I0J-249999D01*
G01*
X179452500Y-76041501D01*
G75*
G02*
X179202501Y-76291500I-249999J0D01*
G01*
G37*
%TD.AperFunction*%
%TO.P,R12,2*%
%TO.N,+3V3*%
%TA.AperFunction,SMDPad,CuDef*%
G36*
G01*
X179202501Y-74466500D02*
X178302499Y-74466500D01*
G75*
G02*
X178052500Y-74216501I0J249999D01*
G01*
X178052500Y-73691499D01*
G75*
G02*
X178302499Y-73441500I249999J0D01*
G01*
X179202501Y-73441500D01*
G75*
G02*
X179452500Y-73691499I0J-249999D01*
G01*
X179452500Y-74216501D01*
G75*
G02*
X179202501Y-74466500I-249999J0D01*
G01*
G37*
%TD.AperFunction*%
%TD*%
%TO.P,R13,2*%
%TO.N,Net-(J1-Pad2)*%
%TA.AperFunction,SMDPad,CuDef*%
G36*
G01*
X176208000Y-74491001D02*
X176208000Y-73590999D01*
G75*
G02*
X176457999Y-73341000I249999J0D01*
G01*
X176983001Y-73341000D01*
G75*
G02*
X177233000Y-73590999I0J-249999D01*
G01*
X177233000Y-74491001D01*
G75*
G02*
X176983001Y-74741000I-249999J0D01*
G01*
X176457999Y-74741000D01*
G75*
G02*
X176208000Y-74491001I0J249999D01*
G01*
G37*
%TD.AperFunction*%
%TO.P,R13,1*%
%TO.N,GND*%
%TA.AperFunction,SMDPad,CuDef*%
G36*
G01*
X174383000Y-74491001D02*
X174383000Y-73590999D01*
G75*
G02*
X174632999Y-73341000I249999J0D01*
G01*
X175158001Y-73341000D01*
G75*
G02*
X175408000Y-73590999I0J-249999D01*
G01*
X175408000Y-74491001D01*
G75*
G02*
X175158001Y-74741000I-249999J0D01*
G01*
X174632999Y-74741000D01*
G75*
G02*
X174383000Y-74491001I0J249999D01*
G01*
G37*
%TD.AperFunction*%
%TD*%
D19*
%TO.P,SW1,4*%
%TO.N,GND*%
X185792500Y-74462500D03*
%TO.P,SW1,3*%
X185792500Y-80962500D03*
%TO.P,SW1,2*%
%TO.N,NRST*%
X181292500Y-74462500D03*
%TO.P,SW1,1*%
X181292500Y-80962500D03*
%TD*%
D20*
%TO.P,U2,1*%
%TO.N,+24V*%
X152097000Y-118110000D03*
%TO.P,U2,2*%
%TO.N,Net-(D1-Pad2)*%
X153797000Y-118110000D03*
%TO.P,U2,3*%
%TO.N,GND*%
X155497000Y-118110000D03*
%TO.P,U2,4*%
%TO.N,Net-(C9-Pad1)*%
X157197000Y-118110000D03*
%TO.P,U2,5*%
%TO.N,GND*%
X158897000Y-118110000D03*
D21*
%TO.P,U2,3*%
X155497000Y-108960000D03*
%TD*%
D22*
%TO.P,U3,2*%
%TO.N,Net-(C16-Pad1)*%
X168959500Y-99935500D03*
D23*
X168959500Y-106235500D03*
%TO.P,U3,3*%
%TO.N,+5V*%
X171259500Y-106235500D03*
%TO.P,U3,1*%
%TO.N,GND*%
X166659500Y-106235500D03*
%TD*%
D24*
%TO.P,Y1,1*%
%TO.N,Net-(C1-Pad1)*%
X150368000Y-77470000D03*
%TO.P,Y1,2*%
%TO.N,Net-(C2-Pad1)*%
X150368000Y-82350000D03*
%TD*%
D25*
%TO.P,Y2,1*%
%TO.N,Net-(C3-Pad1)*%
X154432000Y-72326500D03*
%TO.P,Y2,2*%
%TO.N,Net-(C8-Pad1)*%
X154432000Y-70426500D03*
%TD*%
D14*
%TO.P,J4,1*%
%TO.N,+3V3*%
X160782000Y-71056500D03*
D15*
%TO.P,J4,2*%
%TO.N,Net-(J4-Pad2)*%
X163322000Y-71056500D03*
%TO.P,J4,3*%
%TO.N,Net-(J4-Pad3)*%
X165862000Y-71056500D03*
%TO.P,J4,4*%
%TO.N,NRST*%
X168402000Y-71056500D03*
%TO.P,J4,5*%
%TO.N,GND*%
X170942000Y-71056500D03*
%TD*%
%TO.P,R14,1*%
%TO.N,+3V3*%
%TA.AperFunction,SMDPad,CuDef*%
G36*
G01*
X170122001Y-88697500D02*
X169221999Y-88697500D01*
G75*
G02*
X168972000Y-88447501I0J249999D01*
G01*
X168972000Y-87922499D01*
G75*
G02*
X169221999Y-87672500I249999J0D01*
G01*
X170122001Y-87672500D01*
G75*
G02*
X170372000Y-87922499I0J-249999D01*
G01*
X170372000Y-88447501D01*
G75*
G02*
X170122001Y-88697500I-249999J0D01*
G01*
G37*
%TD.AperFunction*%
%TO.P,R14,2*%
%TO.N,Net-(J6-Pad2)*%
%TA.AperFunction,SMDPad,CuDef*%
G36*
G01*
X170122001Y-86872500D02*
X169221999Y-86872500D01*
G75*
G02*
X168972000Y-86622501I0J249999D01*
G01*
X168972000Y-86097499D01*
G75*
G02*
X169221999Y-85847500I249999J0D01*
G01*
X170122001Y-85847500D01*
G75*
G02*
X170372000Y-86097499I0J-249999D01*
G01*
X170372000Y-86622501D01*
G75*
G02*
X170122001Y-86872500I-249999J0D01*
G01*
G37*
%TD.AperFunction*%
%TD*%
%TO.P,R15,2*%
%TO.N,Net-(J6-Pad4)*%
%TA.AperFunction,SMDPad,CuDef*%
G36*
G01*
X172154001Y-86872500D02*
X171253999Y-86872500D01*
G75*
G02*
X171004000Y-86622501I0J249999D01*
G01*
X171004000Y-86097499D01*
G75*
G02*
X171253999Y-85847500I249999J0D01*
G01*
X172154001Y-85847500D01*
G75*
G02*
X172404000Y-86097499I0J-249999D01*
G01*
X172404000Y-86622501D01*
G75*
G02*
X172154001Y-86872500I-249999J0D01*
G01*
G37*
%TD.AperFunction*%
%TO.P,R15,1*%
%TO.N,+3V3*%
%TA.AperFunction,SMDPad,CuDef*%
G36*
G01*
X172154001Y-88697500D02*
X171253999Y-88697500D01*
G75*
G02*
X171004000Y-88447501I0J249999D01*
G01*
X171004000Y-87922499D01*
G75*
G02*
X171253999Y-87672500I249999J0D01*
G01*
X172154001Y-87672500D01*
G75*
G02*
X172404000Y-87922499I0J-249999D01*
G01*
X172404000Y-88447501D01*
G75*
G02*
X172154001Y-88697500I-249999J0D01*
G01*
G37*
%TD.AperFunction*%
%TD*%
%TO.P,R16,1*%
%TO.N,+3V3*%
%TA.AperFunction,SMDPad,CuDef*%
G36*
G01*
X174186001Y-88801000D02*
X173285999Y-88801000D01*
G75*
G02*
X173036000Y-88551001I0J249999D01*
G01*
X173036000Y-88025999D01*
G75*
G02*
X173285999Y-87776000I249999J0D01*
G01*
X174186001Y-87776000D01*
G75*
G02*
X174436000Y-88025999I0J-249999D01*
G01*
X174436000Y-88551001D01*
G75*
G02*
X174186001Y-88801000I-249999J0D01*
G01*
G37*
%TD.AperFunction*%
%TO.P,R16,2*%
%TO.N,Net-(J6-Pad6)*%
%TA.AperFunction,SMDPad,CuDef*%
G36*
G01*
X174186001Y-86976000D02*
X173285999Y-86976000D01*
G75*
G02*
X173036000Y-86726001I0J249999D01*
G01*
X173036000Y-86200999D01*
G75*
G02*
X173285999Y-85951000I249999J0D01*
G01*
X174186001Y-85951000D01*
G75*
G02*
X174436000Y-86200999I0J-249999D01*
G01*
X174436000Y-86726001D01*
G75*
G02*
X174186001Y-86976000I-249999J0D01*
G01*
G37*
%TD.AperFunction*%
%TD*%
%TO.P,R17,2*%
%TO.N,Net-(J6-Pad8)*%
%TA.AperFunction,SMDPad,CuDef*%
G36*
G01*
X172762500Y-91128001D02*
X172762500Y-90227999D01*
G75*
G02*
X173012499Y-89978000I249999J0D01*
G01*
X173537501Y-89978000D01*
G75*
G02*
X173787500Y-90227999I0J-249999D01*
G01*
X173787500Y-91128001D01*
G75*
G02*
X173537501Y-91378000I-249999J0D01*
G01*
X173012499Y-91378000D01*
G75*
G02*
X172762500Y-91128001I0J249999D01*
G01*
G37*
%TD.AperFunction*%
%TO.P,R17,1*%
%TO.N,+3V3*%
%TA.AperFunction,SMDPad,CuDef*%
G36*
G01*
X170937500Y-91128001D02*
X170937500Y-90227999D01*
G75*
G02*
X171187499Y-89978000I249999J0D01*
G01*
X171712501Y-89978000D01*
G75*
G02*
X171962500Y-90227999I0J-249999D01*
G01*
X171962500Y-91128001D01*
G75*
G02*
X171712501Y-91378000I-249999J0D01*
G01*
X171187499Y-91378000D01*
G75*
G02*
X170937500Y-91128001I0J249999D01*
G01*
G37*
%TD.AperFunction*%
%TD*%
D14*
%TO.P,J6,1*%
%TO.N,GND*%
X141478000Y-83312000D03*
D15*
%TO.P,J6,2*%
%TO.N,Net-(J6-Pad2)*%
X144018000Y-83312000D03*
%TO.P,J6,3*%
%TO.N,GND*%
X141478000Y-80772000D03*
%TO.P,J6,4*%
%TO.N,Net-(J6-Pad4)*%
X144018000Y-80772000D03*
%TO.P,J6,5*%
%TO.N,GND*%
X141478000Y-78232000D03*
%TO.P,J6,6*%
%TO.N,Net-(J6-Pad6)*%
X144018000Y-78232000D03*
%TO.P,J6,7*%
%TO.N,GND*%
X141478000Y-75692000D03*
%TO.P,J6,8*%
%TO.N,Net-(J6-Pad8)*%
X144018000Y-75692000D03*
%TD*%
D14*
%TO.P,J7,1*%
%TO.N,GND*%
X168910000Y-92710000D03*
D15*
%TO.P,J7,2*%
%TO.N,Net-(J7-Pad2)*%
X166370000Y-92710000D03*
%TO.P,J7,3*%
%TO.N,+3V3*%
X163830000Y-92710000D03*
%TD*%
D26*
%TO.N,GND*%
X156438600Y-78994000D03*
X156489400Y-80162400D03*
X146075400Y-89687400D03*
X141859000Y-99491800D03*
X149987000Y-99314000D03*
X165354000Y-89458800D03*
X160426401Y-75590401D03*
X162458400Y-78282800D03*
X160020000Y-118110000D03*
X146304000Y-111252000D03*
X148844000Y-111252000D03*
X146304000Y-108966000D03*
X148844000Y-108966000D03*
X146304000Y-106680000D03*
X148844000Y-106426000D03*
X146304000Y-104394000D03*
X148844000Y-104394000D03*
X162306000Y-104140000D03*
X164338000Y-104140000D03*
X162306000Y-106426000D03*
X164338000Y-106426000D03*
X162306000Y-108458000D03*
X164338000Y-108204000D03*
X147828000Y-121666000D03*
X149098000Y-121666000D03*
X148590000Y-125984000D03*
X150622000Y-125984000D03*
X164084000Y-80518000D03*
X175260000Y-77724000D03*
X172720000Y-73406000D03*
X162052000Y-96012000D03*
X162052000Y-97282000D03*
X162052000Y-98806000D03*
X160528000Y-98806000D03*
X159004000Y-98806000D03*
X157480000Y-98806000D03*
X155702000Y-98806000D03*
X138684000Y-96520000D03*
X138684000Y-98044000D03*
X138684000Y-99314000D03*
X138684000Y-90932000D03*
X138684000Y-89408000D03*
X138684000Y-87884000D03*
X138684000Y-86360000D03*
X138684000Y-84836000D03*
X138684000Y-83058000D03*
X138684000Y-81280000D03*
X138684000Y-79756000D03*
X138684000Y-78232000D03*
X138684000Y-76708000D03*
X138684000Y-75184000D03*
X138684000Y-73660000D03*
X138684000Y-71882000D03*
X138684000Y-70104000D03*
X140208000Y-70104000D03*
X141732000Y-70104000D03*
X143256000Y-70104000D03*
X144526000Y-70104000D03*
X146050000Y-70104000D03*
X147574000Y-70104000D03*
X149098000Y-70104000D03*
X150622000Y-70104000D03*
X189484000Y-73914000D03*
X189484000Y-75438000D03*
X189484000Y-76962000D03*
X189484000Y-78486000D03*
X189484000Y-80010000D03*
X189484000Y-81788000D03*
X189484000Y-83566000D03*
X189484000Y-85344000D03*
X189484000Y-87122000D03*
%TO.N,+3V3*%
X175945800Y-91389200D03*
X177101500Y-83654900D03*
X164769800Y-73533000D03*
X176010250Y-76696250D03*
%TO.N,NRST*%
X162788600Y-79466102D03*
%TO.N,RO*%
X159512000Y-90932000D03*
X158496000Y-94996000D03*
%TO.N,B*%
X137138400Y-94027000D03*
X130051800Y-94027000D03*
%TO.N,Net-(J4-Pad2)*%
X163626800Y-78181200D03*
%TO.N,Net-(J6-Pad2)*%
X171704000Y-83566000D03*
%TO.N,Net-(J6-Pad4)*%
X173228000Y-83058000D03*
%TO.N,Net-(J6-Pad6)*%
X173228000Y-81534000D03*
%TO.N,Net-(J6-Pad8)*%
X171704000Y-81280000D03*
X174498000Y-90678000D03*
%TO.N,Net-(J7-Pad2)*%
X164084000Y-89662000D03*
%TD*%
D27*
%TO.N,Net-(C1-Pad1)*%
X154244000Y-77470000D02*
X154813000Y-76901000D01*
X150368000Y-77470000D02*
X154244000Y-77470000D01*
X154813000Y-76901000D02*
X156149000Y-76901000D01*
X158762000Y-79514000D02*
X160937500Y-79514000D01*
X156149000Y-76901000D02*
X158762000Y-79514000D01*
%TO.N,GND*%
X154813000Y-78801000D02*
X154813000Y-80457000D01*
X154813000Y-78801000D02*
X156245600Y-78801000D01*
X156245600Y-78801000D02*
X156438600Y-78994000D01*
X154813000Y-80457000D02*
X156194800Y-80457000D01*
X156194800Y-80457000D02*
X156489400Y-80162400D01*
X145941500Y-91122500D02*
X145941500Y-89821300D01*
X145941500Y-89821300D02*
X146075400Y-89687400D01*
X143891000Y-97853500D02*
X144208500Y-97536000D01*
X141859000Y-97853500D02*
X143891000Y-97853500D01*
X144208500Y-97536000D02*
X144208500Y-98894900D01*
X144627600Y-99314000D02*
X148272500Y-99314000D01*
X144208500Y-98894900D02*
X144627600Y-99314000D01*
X141859000Y-97853500D02*
X141859000Y-99491800D01*
X148272500Y-99314000D02*
X149987000Y-99314000D01*
X167325010Y-85849490D02*
X165925500Y-87249000D01*
X167350000Y-84567200D02*
X167325010Y-84592190D01*
X167325010Y-84592190D02*
X167325010Y-85849490D01*
X167350000Y-84426500D02*
X167350000Y-84567200D01*
X165925500Y-87249000D02*
X165925500Y-88887300D01*
X165925500Y-88887300D02*
X165354000Y-89458800D01*
X174895500Y-71327000D02*
X174625000Y-71056500D01*
X174895500Y-74041000D02*
X174895500Y-71327000D01*
X158049000Y-72387500D02*
X158046500Y-72390000D01*
X158049000Y-70294500D02*
X158049000Y-72387500D01*
X158882000Y-72390000D02*
X160406000Y-73914000D01*
X158046500Y-72390000D02*
X158882000Y-72390000D01*
X160406000Y-73914000D02*
X160406000Y-75570000D01*
X160406000Y-75570000D02*
X160426401Y-75590401D01*
X184653000Y-73323000D02*
X185792500Y-74462500D01*
X184653000Y-72136000D02*
X184653000Y-73323000D01*
X160997200Y-81014000D02*
X161022190Y-81038990D01*
X160937500Y-81014000D02*
X160997200Y-81014000D01*
X162850000Y-76101500D02*
X162850000Y-77891200D01*
X162850000Y-77891200D02*
X162458400Y-78282800D01*
D28*
X155497000Y-118110000D02*
X155497000Y-108960000D01*
D29*
X158897000Y-118110000D02*
X160020000Y-118110000D01*
D27*
X160937500Y-81014000D02*
X163588000Y-81014000D01*
X163588000Y-81014000D02*
X164084000Y-80518000D01*
X172872000Y-78014000D02*
X172974000Y-77912000D01*
X169262500Y-78014000D02*
X172872000Y-78014000D01*
X172974000Y-77912000D02*
X175072000Y-77912000D01*
X175072000Y-77912000D02*
X175260000Y-77724000D01*
X174895500Y-74041000D02*
X173101000Y-74041000D01*
X173101000Y-74041000D02*
X172720000Y-73660000D01*
X172720000Y-73660000D02*
X172720000Y-73406000D01*
%TO.N,Net-(C2-Pad1)*%
X160937500Y-80014000D02*
X158873000Y-80014000D01*
X156530000Y-82357000D02*
X154813000Y-82357000D01*
X158873000Y-80014000D02*
X156530000Y-82357000D01*
X154806000Y-82350000D02*
X154813000Y-82357000D01*
X150368000Y-82350000D02*
X154806000Y-82350000D01*
%TO.N,Net-(C3-Pad1)*%
X156083000Y-72326500D02*
X156146500Y-72390000D01*
X154432000Y-72326500D02*
X156083000Y-72326500D01*
X160134298Y-78514000D02*
X160937500Y-78514000D01*
X159414410Y-78514000D02*
X160134298Y-78514000D01*
X154432000Y-73531590D02*
X159414410Y-78514000D01*
X154432000Y-72326500D02*
X154432000Y-73531590D01*
%TO.N,+3V3*%
X160782000Y-72390000D02*
X162306000Y-73914000D01*
X160782000Y-71056500D02*
X160782000Y-72390000D01*
X162350000Y-73958000D02*
X162306000Y-73914000D01*
X162350000Y-76101500D02*
X162350000Y-73958000D01*
X178752500Y-72009000D02*
X179705000Y-71056500D01*
X178752500Y-73954000D02*
X178752500Y-72009000D01*
X154352000Y-89090500D02*
X154559000Y-89297500D01*
X151177000Y-89090500D02*
X154352000Y-89090500D01*
X145941500Y-97369000D02*
X146108500Y-97536000D01*
X145941500Y-94932500D02*
X145941500Y-97369000D01*
X146230500Y-97414000D02*
X146108500Y-97536000D01*
X148272500Y-97414000D02*
X146230500Y-97414000D01*
X153902500Y-97414000D02*
X154559000Y-96757500D01*
X148272500Y-97414000D02*
X153902500Y-97414000D01*
X162350000Y-77273600D02*
X162350000Y-76101500D01*
X162109600Y-77514000D02*
X162350000Y-77273600D01*
X160937500Y-77514000D02*
X161855600Y-77514000D01*
X161855600Y-77514000D02*
X162109600Y-77514000D01*
X151177000Y-89090500D02*
X151177000Y-87804000D01*
X151177000Y-87804000D02*
X150672800Y-87299800D01*
X142650200Y-87299800D02*
X141859000Y-88091000D01*
X150672800Y-87299800D02*
X142650200Y-87299800D01*
X175945800Y-91389200D02*
X175945800Y-93042100D01*
X178816000Y-83018000D02*
X177713000Y-83018000D01*
X177101500Y-83629500D02*
X177101500Y-83654900D01*
X177713000Y-83018000D02*
X177101500Y-83629500D01*
X164388800Y-73914000D02*
X164769800Y-73533000D01*
X162306000Y-73914000D02*
X164388800Y-73914000D01*
X160937500Y-81514000D02*
X166604000Y-81514000D01*
X167850000Y-82760000D02*
X167850000Y-84426500D01*
X166604000Y-81514000D02*
X167850000Y-82760000D01*
X141859000Y-88091000D02*
X146511000Y-88091000D01*
X146511000Y-88091000D02*
X147828000Y-89408000D01*
X147828000Y-96969500D02*
X148272500Y-97414000D01*
X147828000Y-89408000D02*
X147828000Y-96969500D01*
X167850000Y-87224500D02*
X167825500Y-87249000D01*
X167850000Y-84426500D02*
X167850000Y-87224500D01*
X171704000Y-90424000D02*
X171450000Y-90678000D01*
X171704000Y-88185000D02*
X171704000Y-90424000D01*
X173632500Y-88185000D02*
X173736000Y-88288500D01*
X169672000Y-88185000D02*
X173632500Y-88185000D01*
X173736000Y-88288500D02*
X174902500Y-88288500D01*
X175945800Y-89331800D02*
X175945800Y-91389200D01*
X174902500Y-88288500D02*
X175945800Y-89331800D01*
X167825500Y-87249000D02*
X168714500Y-88138000D01*
X169625000Y-88138000D02*
X169672000Y-88185000D01*
X168714500Y-88138000D02*
X169625000Y-88138000D01*
X178752500Y-73954000D02*
X176010250Y-76696250D01*
X170136000Y-77514000D02*
X169262500Y-77514000D01*
X171704000Y-75946000D02*
X170136000Y-77514000D01*
X174752000Y-75946000D02*
X171704000Y-75946000D01*
X175502250Y-76696250D02*
X174752000Y-75946000D01*
X176010250Y-76696250D02*
X175502250Y-76696250D01*
X167825500Y-88714500D02*
X167825500Y-87249000D01*
X159782500Y-96757500D02*
X167825500Y-88714500D01*
X154559000Y-96757500D02*
X159782500Y-96757500D01*
%TO.N,NRST*%
X181062000Y-81193000D02*
X181292500Y-80962500D01*
X178816000Y-81193000D02*
X181062000Y-81193000D01*
X181292500Y-74462500D02*
X181292500Y-80962500D01*
X182753000Y-73002000D02*
X181292500Y-74462500D01*
X182753000Y-72136000D02*
X182753000Y-73002000D01*
X161740702Y-80514000D02*
X162788600Y-79466102D01*
X160937500Y-80514000D02*
X161740702Y-80514000D01*
%TO.N,Net-(C8-Pad1)*%
X156017000Y-70426500D02*
X156149000Y-70294500D01*
X154432000Y-70426500D02*
X156017000Y-70426500D01*
X153728500Y-70426500D02*
X154432000Y-70426500D01*
X153289000Y-70866000D02*
X153728500Y-70426500D01*
X153289000Y-73025000D02*
X153289000Y-70866000D01*
X159278000Y-79014000D02*
X153289000Y-73025000D01*
X160937500Y-79014000D02*
X159278000Y-79014000D01*
D28*
%TO.N,Net-(C12-Pad1)*%
X169441500Y-112296500D02*
X169540000Y-112395000D01*
X169441500Y-110236000D02*
X169441500Y-112296500D01*
X169540000Y-112395000D02*
X177927000Y-112395000D01*
X180340000Y-114808000D02*
X180340000Y-116840000D01*
X177927000Y-112395000D02*
X180340000Y-114808000D01*
D30*
X184404000Y-108124000D02*
X184404000Y-114300000D01*
X181864000Y-116840000D02*
X180340000Y-116840000D01*
X184404000Y-114300000D02*
X181864000Y-116840000D01*
D27*
%TO.N,Net-(C9-Pad1)*%
X161544000Y-114300000D02*
X161544000Y-112776000D01*
X161544000Y-112776000D02*
X161965000Y-112355000D01*
X161290000Y-114554000D02*
X161544000Y-114300000D01*
X157988000Y-114554000D02*
X161290000Y-114554000D01*
X157197000Y-115345000D02*
X157988000Y-114554000D01*
X161965000Y-112355000D02*
X165417500Y-112355000D01*
X157197000Y-118110000D02*
X157197000Y-115345000D01*
X167600000Y-112355000D02*
X167640000Y-112395000D01*
X165417500Y-112355000D02*
X167600000Y-112355000D01*
X167616500Y-112371500D02*
X167640000Y-112395000D01*
X167616500Y-110236000D02*
X167616500Y-112371500D01*
D30*
%TO.N,+24V*%
X140970000Y-119380000D02*
X142798800Y-119380000D01*
D27*
%TO.N,Net-(C16-Pad1)*%
X175945800Y-99936300D02*
X175958500Y-99949000D01*
D28*
X168973000Y-99949000D02*
X168959500Y-99935500D01*
X175958500Y-99949000D02*
X168973000Y-99949000D01*
X168959500Y-99935500D02*
X168959500Y-106235500D01*
X175958500Y-94879800D02*
X175945800Y-94867100D01*
X175958500Y-99949000D02*
X175958500Y-94879800D01*
%TO.N,+5V*%
X176045500Y-106235500D02*
X176085500Y-106275500D01*
X171259500Y-106235500D02*
X176045500Y-106235500D01*
D30*
X184404000Y-102108000D02*
X184404000Y-106299000D01*
X184380500Y-106275500D02*
X184404000Y-106299000D01*
X176085500Y-106275500D02*
X184380500Y-106275500D01*
D27*
%TO.N,Net-(D2-Pad1)*%
X178613500Y-79514000D02*
X178752500Y-79375000D01*
X169262500Y-79514000D02*
X178613500Y-79514000D01*
%TO.N,Net-(D2-Pad2)*%
X178752500Y-75779000D02*
X178752500Y-77500000D01*
%TO.N,RO*%
X151365500Y-94932500D02*
X154559000Y-94932500D01*
X162350000Y-84426500D02*
X162350000Y-88094000D01*
X162350000Y-88094000D02*
X159512000Y-90932000D01*
X154622500Y-94996000D02*
X154559000Y-94932500D01*
X158496000Y-94996000D02*
X154622500Y-94996000D01*
%TO.N,DE*%
X151365500Y-92392500D02*
X151365500Y-93662500D01*
X149352000Y-89090500D02*
X149352000Y-92138500D01*
X149606000Y-92392500D02*
X151365500Y-92392500D01*
X149352000Y-92138500D02*
X149606000Y-92392500D01*
X160083500Y-92392500D02*
X151365500Y-92392500D01*
X162850000Y-89626000D02*
X160083500Y-92392500D01*
X162850000Y-84426500D02*
X162850000Y-89626000D01*
%TO.N,DI*%
X151365500Y-91122500D02*
X154559000Y-91122500D01*
X160937500Y-83014000D02*
X158032000Y-83014000D01*
X158032000Y-83014000D02*
X156718000Y-84328000D01*
X156718000Y-84328000D02*
X156718000Y-90424000D01*
X156019500Y-91122500D02*
X154559000Y-91122500D01*
X156718000Y-90424000D02*
X156019500Y-91122500D01*
%TO.N,A*%
X141859000Y-89916000D02*
X141859000Y-92202000D01*
X145751000Y-92202000D02*
X145941500Y-92392500D01*
X141859000Y-92202000D02*
X145751000Y-92202000D01*
D28*
X135432800Y-92202000D02*
X135128000Y-92506800D01*
X141859000Y-92202000D02*
X135432800Y-92202000D01*
X135128000Y-92506800D02*
X135128000Y-119380000D01*
X135128000Y-74676000D02*
X135128000Y-92506800D01*
D27*
%TO.N,B*%
X142223500Y-93662500D02*
X141859000Y-94027000D01*
X145941500Y-93662500D02*
X142223500Y-93662500D01*
X141859000Y-94027000D02*
X141859000Y-96028500D01*
D28*
X130048000Y-119380000D02*
X130048000Y-74676000D01*
X141859000Y-94027000D02*
X137138400Y-94027000D01*
D27*
%TO.N,Net-(J1-Pad2)*%
X176720500Y-71501000D02*
X177165000Y-71056500D01*
X176720500Y-74041000D02*
X176720500Y-71501000D01*
X176720500Y-74815700D02*
X176720500Y-74041000D01*
X176352200Y-75184000D02*
X176720500Y-74815700D01*
X170152888Y-75184000D02*
X176352200Y-75184000D01*
X167917688Y-77419200D02*
X170152888Y-75184000D01*
X164864498Y-77419200D02*
X167917688Y-77419200D01*
X164350000Y-76904702D02*
X164864498Y-77419200D01*
X164350000Y-76101500D02*
X164350000Y-76904702D01*
%TO.N,Net-(J4-Pad3)*%
X167850000Y-74822500D02*
X167850000Y-76101500D01*
X165862000Y-72834500D02*
X167850000Y-74822500D01*
X165862000Y-71056500D02*
X165862000Y-72834500D01*
%TO.N,Net-(J4-Pad2)*%
X169262500Y-78514000D02*
X163959600Y-78514000D01*
X163959600Y-78514000D02*
X163626800Y-78181200D01*
%TO.N,RX*%
X175002000Y-80514000D02*
X169262500Y-80514000D01*
X175260000Y-80772000D02*
X175002000Y-80514000D01*
X175260000Y-86614000D02*
X175260000Y-80772000D01*
X184404000Y-95758000D02*
X175260000Y-86614000D01*
X184404000Y-97028000D02*
X184404000Y-95758000D01*
%TO.N,TX*%
X181610000Y-91948000D02*
X184404000Y-91948000D01*
X175710011Y-86048011D02*
X181610000Y-91948000D01*
X175710011Y-80585600D02*
X175710011Y-86048011D01*
X175138411Y-80014000D02*
X175710011Y-80585600D01*
X169262500Y-80014000D02*
X175138411Y-80014000D01*
%TO.N,Net-(J6-Pad2)*%
X169262500Y-83014000D02*
X171406000Y-83014000D01*
X171704000Y-83312000D02*
X171704000Y-83566000D01*
X171406000Y-83014000D02*
X171704000Y-83312000D01*
X169672000Y-85598000D02*
X169672000Y-86614000D01*
X171704000Y-83566000D02*
X169672000Y-85598000D01*
%TO.N,Net-(J6-Pad4)*%
X169262500Y-82514000D02*
X172684000Y-82514000D01*
X172684000Y-82514000D02*
X173228000Y-83058000D01*
X171704000Y-85344000D02*
X171704000Y-86360000D01*
X173228000Y-83820000D02*
X171704000Y-85344000D01*
X173228000Y-83058000D02*
X173228000Y-83820000D01*
%TO.N,Net-(J6-Pad6)*%
X169262500Y-82014000D02*
X172748000Y-82014000D01*
X172748000Y-82014000D02*
X173228000Y-81534000D01*
X174752000Y-83312000D02*
X173689000Y-84375000D01*
X174752000Y-81730010D02*
X174752000Y-83312000D01*
X174555990Y-81534000D02*
X174752000Y-81730010D01*
X173689000Y-84375000D02*
X173689000Y-86614000D01*
X173228000Y-81534000D02*
X174555990Y-81534000D01*
%TO.N,Net-(J6-Pad8)*%
X169262500Y-81514000D02*
X171470000Y-81514000D01*
X171470000Y-81514000D02*
X171704000Y-81280000D01*
X174498000Y-90678000D02*
X173275000Y-90678000D01*
%TO.N,Net-(J7-Pad2)*%
X165850000Y-84426500D02*
X165850000Y-85610000D01*
X165850000Y-85610000D02*
X164084000Y-87376000D01*
X164084000Y-87376000D02*
X164084000Y-89662000D01*
%TD*%
D31*
%TO.N,+24V*%
X150908928Y-115810000D02*
X150912000Y-117824250D01*
X151070750Y-117983000D01*
X151970000Y-117983000D01*
X151970000Y-117963000D01*
X152224000Y-117963000D01*
X152224000Y-117983000D01*
X152244000Y-117983000D01*
X152244000Y-118237000D01*
X152224000Y-118237000D01*
X152224000Y-118257000D01*
X151970000Y-118257000D01*
X151970000Y-118237000D01*
X151070750Y-118237000D01*
X150912000Y-118395750D01*
X150908928Y-120410000D01*
X150920057Y-120523000D01*
X150495000Y-120523000D01*
X150495000Y-118618000D01*
X150492560Y-118593224D01*
X150485333Y-118569399D01*
X150473597Y-118547443D01*
X150457803Y-118528197D01*
X150438557Y-118512403D01*
X150416601Y-118500667D01*
X150392776Y-118493440D01*
X150368000Y-118491000D01*
X149887794Y-118491000D01*
X149886500Y-118400750D01*
X149727750Y-118242000D01*
X148653500Y-118242000D01*
X148653500Y-118262000D01*
X148399500Y-118262000D01*
X148399500Y-118242000D01*
X147325250Y-118242000D01*
X147166500Y-118400750D01*
X147165206Y-118491000D01*
X144780000Y-118491000D01*
X144755224Y-118493440D01*
X144731399Y-118500667D01*
X144709443Y-118512403D01*
X144690197Y-118528197D01*
X144674403Y-118547443D01*
X144662667Y-118569399D01*
X144655440Y-118593224D01*
X144653000Y-118618000D01*
X144653000Y-120777000D01*
X143818262Y-120777000D01*
X143842980Y-120769502D01*
X143953294Y-120710537D01*
X144049985Y-120631185D01*
X144129337Y-120534494D01*
X144188302Y-120424180D01*
X144224612Y-120304482D01*
X144236872Y-120180000D01*
X144233800Y-119665750D01*
X144075050Y-119507000D01*
X142925800Y-119507000D01*
X142925800Y-119527000D01*
X142671800Y-119527000D01*
X142671800Y-119507000D01*
X141522550Y-119507000D01*
X141363800Y-119665750D01*
X141360728Y-120180000D01*
X141372988Y-120304482D01*
X141409298Y-120424180D01*
X141468263Y-120534494D01*
X141547615Y-120631185D01*
X141644306Y-120710537D01*
X141754620Y-120769502D01*
X141779338Y-120777000D01*
X139065000Y-120777000D01*
X139065000Y-118580000D01*
X141360728Y-118580000D01*
X141363800Y-119094250D01*
X141522550Y-119253000D01*
X142671800Y-119253000D01*
X142671800Y-118103750D01*
X142925800Y-118103750D01*
X142925800Y-119253000D01*
X144075050Y-119253000D01*
X144233800Y-119094250D01*
X144236872Y-118580000D01*
X144224612Y-118455518D01*
X144188302Y-118335820D01*
X144129337Y-118225506D01*
X144049985Y-118128815D01*
X143953294Y-118049463D01*
X143842980Y-117990498D01*
X143723282Y-117954188D01*
X143598800Y-117941928D01*
X143084550Y-117945000D01*
X142925800Y-118103750D01*
X142671800Y-118103750D01*
X142513050Y-117945000D01*
X141998800Y-117941928D01*
X141874318Y-117954188D01*
X141754620Y-117990498D01*
X141644306Y-118049463D01*
X141547615Y-118128815D01*
X141468263Y-118225506D01*
X141409298Y-118335820D01*
X141372988Y-118455518D01*
X141360728Y-118580000D01*
X139065000Y-118580000D01*
X139065000Y-117615000D01*
X147163428Y-117615000D01*
X147166500Y-117829250D01*
X147325250Y-117988000D01*
X148399500Y-117988000D01*
X148399500Y-117138750D01*
X148653500Y-117138750D01*
X148653500Y-117988000D01*
X149727750Y-117988000D01*
X149886500Y-117829250D01*
X149889572Y-117615000D01*
X149877312Y-117490518D01*
X149841002Y-117370820D01*
X149782037Y-117260506D01*
X149702685Y-117163815D01*
X149605994Y-117084463D01*
X149495680Y-117025498D01*
X149375982Y-116989188D01*
X149251500Y-116976928D01*
X148812250Y-116980000D01*
X148653500Y-117138750D01*
X148399500Y-117138750D01*
X148240750Y-116980000D01*
X147801500Y-116976928D01*
X147677018Y-116989188D01*
X147557320Y-117025498D01*
X147447006Y-117084463D01*
X147350315Y-117163815D01*
X147270963Y-117260506D01*
X147211998Y-117370820D01*
X147175688Y-117490518D01*
X147163428Y-117615000D01*
X139065000Y-117615000D01*
X139065000Y-115697000D01*
X150920057Y-115697000D01*
X150908928Y-115810000D01*
%TA.AperFunction,Conductor*%
D32*
G36*
X150908928Y-115810000D02*
G01*
X150912000Y-117824250D01*
X151070750Y-117983000D01*
X151970000Y-117983000D01*
X151970000Y-117963000D01*
X152224000Y-117963000D01*
X152224000Y-117983000D01*
X152244000Y-117983000D01*
X152244000Y-118237000D01*
X152224000Y-118237000D01*
X152224000Y-118257000D01*
X151970000Y-118257000D01*
X151970000Y-118237000D01*
X151070750Y-118237000D01*
X150912000Y-118395750D01*
X150908928Y-120410000D01*
X150920057Y-120523000D01*
X150495000Y-120523000D01*
X150495000Y-118618000D01*
X150492560Y-118593224D01*
X150485333Y-118569399D01*
X150473597Y-118547443D01*
X150457803Y-118528197D01*
X150438557Y-118512403D01*
X150416601Y-118500667D01*
X150392776Y-118493440D01*
X150368000Y-118491000D01*
X149887794Y-118491000D01*
X149886500Y-118400750D01*
X149727750Y-118242000D01*
X148653500Y-118242000D01*
X148653500Y-118262000D01*
X148399500Y-118262000D01*
X148399500Y-118242000D01*
X147325250Y-118242000D01*
X147166500Y-118400750D01*
X147165206Y-118491000D01*
X144780000Y-118491000D01*
X144755224Y-118493440D01*
X144731399Y-118500667D01*
X144709443Y-118512403D01*
X144690197Y-118528197D01*
X144674403Y-118547443D01*
X144662667Y-118569399D01*
X144655440Y-118593224D01*
X144653000Y-118618000D01*
X144653000Y-120777000D01*
X143818262Y-120777000D01*
X143842980Y-120769502D01*
X143953294Y-120710537D01*
X144049985Y-120631185D01*
X144129337Y-120534494D01*
X144188302Y-120424180D01*
X144224612Y-120304482D01*
X144236872Y-120180000D01*
X144233800Y-119665750D01*
X144075050Y-119507000D01*
X142925800Y-119507000D01*
X142925800Y-119527000D01*
X142671800Y-119527000D01*
X142671800Y-119507000D01*
X141522550Y-119507000D01*
X141363800Y-119665750D01*
X141360728Y-120180000D01*
X141372988Y-120304482D01*
X141409298Y-120424180D01*
X141468263Y-120534494D01*
X141547615Y-120631185D01*
X141644306Y-120710537D01*
X141754620Y-120769502D01*
X141779338Y-120777000D01*
X139065000Y-120777000D01*
X139065000Y-118580000D01*
X141360728Y-118580000D01*
X141363800Y-119094250D01*
X141522550Y-119253000D01*
X142671800Y-119253000D01*
X142671800Y-118103750D01*
X142925800Y-118103750D01*
X142925800Y-119253000D01*
X144075050Y-119253000D01*
X144233800Y-119094250D01*
X144236872Y-118580000D01*
X144224612Y-118455518D01*
X144188302Y-118335820D01*
X144129337Y-118225506D01*
X144049985Y-118128815D01*
X143953294Y-118049463D01*
X143842980Y-117990498D01*
X143723282Y-117954188D01*
X143598800Y-117941928D01*
X143084550Y-117945000D01*
X142925800Y-118103750D01*
X142671800Y-118103750D01*
X142513050Y-117945000D01*
X141998800Y-117941928D01*
X141874318Y-117954188D01*
X141754620Y-117990498D01*
X141644306Y-118049463D01*
X141547615Y-118128815D01*
X141468263Y-118225506D01*
X141409298Y-118335820D01*
X141372988Y-118455518D01*
X141360728Y-118580000D01*
X139065000Y-118580000D01*
X139065000Y-117615000D01*
X147163428Y-117615000D01*
X147166500Y-117829250D01*
X147325250Y-117988000D01*
X148399500Y-117988000D01*
X148399500Y-117138750D01*
X148653500Y-117138750D01*
X148653500Y-117988000D01*
X149727750Y-117988000D01*
X149886500Y-117829250D01*
X149889572Y-117615000D01*
X149877312Y-117490518D01*
X149841002Y-117370820D01*
X149782037Y-117260506D01*
X149702685Y-117163815D01*
X149605994Y-117084463D01*
X149495680Y-117025498D01*
X149375982Y-116989188D01*
X149251500Y-116976928D01*
X148812250Y-116980000D01*
X148653500Y-117138750D01*
X148399500Y-117138750D01*
X148240750Y-116980000D01*
X147801500Y-116976928D01*
X147677018Y-116989188D01*
X147557320Y-117025498D01*
X147447006Y-117084463D01*
X147350315Y-117163815D01*
X147270963Y-117260506D01*
X147211998Y-117370820D01*
X147175688Y-117490518D01*
X147163428Y-117615000D01*
X139065000Y-117615000D01*
X139065000Y-115697000D01*
X150920057Y-115697000D01*
X150908928Y-115810000D01*
G37*
%TD.AperFunction*%
%TD*%
D31*
%TO.N,Net-(D1-Pad2)*%
X166497000Y-126111000D02*
X153289000Y-126111000D01*
X153289000Y-125430754D01*
X153593450Y-125428600D01*
X153752200Y-125269850D01*
X153752200Y-124180600D01*
X154006200Y-124180600D01*
X154006200Y-125269850D01*
X154164950Y-125428600D01*
X154599200Y-125431672D01*
X154723682Y-125419412D01*
X154843380Y-125383102D01*
X154953694Y-125324137D01*
X155050385Y-125244785D01*
X155129737Y-125148094D01*
X155188702Y-125037780D01*
X155225012Y-124918082D01*
X155237272Y-124793600D01*
X155234200Y-124339350D01*
X155075450Y-124180600D01*
X154006200Y-124180600D01*
X153752200Y-124180600D01*
X153732200Y-124180600D01*
X153732200Y-123926600D01*
X153752200Y-123926600D01*
X153752200Y-122837350D01*
X154006200Y-122837350D01*
X154006200Y-123926600D01*
X155075450Y-123926600D01*
X155234200Y-123767850D01*
X155237272Y-123313600D01*
X155225012Y-123189118D01*
X155188702Y-123069420D01*
X155129737Y-122959106D01*
X155085744Y-122905500D01*
X161871928Y-122905500D01*
X161884188Y-123029982D01*
X161920498Y-123149680D01*
X161979463Y-123259994D01*
X162058815Y-123356685D01*
X162155506Y-123436037D01*
X162265820Y-123495002D01*
X162385518Y-123531312D01*
X162510000Y-123543572D01*
X163674250Y-123540500D01*
X163833000Y-123381750D01*
X163833000Y-120332500D01*
X164087000Y-120332500D01*
X164087000Y-123381750D01*
X164245750Y-123540500D01*
X165410000Y-123543572D01*
X165534482Y-123531312D01*
X165654180Y-123495002D01*
X165764494Y-123436037D01*
X165861185Y-123356685D01*
X165940537Y-123259994D01*
X165999502Y-123149680D01*
X166035812Y-123029982D01*
X166048072Y-122905500D01*
X166045000Y-120491250D01*
X165886250Y-120332500D01*
X164087000Y-120332500D01*
X163833000Y-120332500D01*
X162033750Y-120332500D01*
X161875000Y-120491250D01*
X161871928Y-122905500D01*
X155085744Y-122905500D01*
X155050385Y-122862415D01*
X154953694Y-122783063D01*
X154843380Y-122724098D01*
X154723682Y-122687788D01*
X154599200Y-122675528D01*
X154164950Y-122678600D01*
X154006200Y-122837350D01*
X153752200Y-122837350D01*
X153593450Y-122678600D01*
X153289000Y-122676446D01*
X153289000Y-121047584D01*
X153511250Y-121045000D01*
X153670000Y-120886250D01*
X153670000Y-118237000D01*
X153650000Y-118237000D01*
X153650000Y-117983000D01*
X153670000Y-117983000D01*
X153670000Y-117963000D01*
X153924000Y-117963000D01*
X153924000Y-117983000D01*
X153944000Y-117983000D01*
X153944000Y-118237000D01*
X153924000Y-118237000D01*
X153924000Y-120886250D01*
X154082750Y-121045000D01*
X154305000Y-121047584D01*
X154305000Y-121920000D01*
X154307440Y-121944776D01*
X154314667Y-121968601D01*
X154326403Y-121990557D01*
X154342197Y-122009803D01*
X154361443Y-122025597D01*
X154383399Y-122037333D01*
X154407224Y-122044560D01*
X154432000Y-122047000D01*
X161544000Y-122047000D01*
X161568776Y-122044560D01*
X161592601Y-122037333D01*
X161614557Y-122025597D01*
X161633803Y-122009803D01*
X161649597Y-121990557D01*
X161661333Y-121968601D01*
X161668560Y-121944776D01*
X161671000Y-121920000D01*
X161671000Y-117505500D01*
X161871928Y-117505500D01*
X161875000Y-119919750D01*
X162033750Y-120078500D01*
X163833000Y-120078500D01*
X163833000Y-117029250D01*
X164087000Y-117029250D01*
X164087000Y-120078500D01*
X165886250Y-120078500D01*
X166045000Y-119919750D01*
X166048072Y-117505500D01*
X166035812Y-117381018D01*
X165999502Y-117261320D01*
X165940537Y-117151006D01*
X165861185Y-117054315D01*
X165764494Y-116974963D01*
X165654180Y-116915998D01*
X165534482Y-116879688D01*
X165410000Y-116867428D01*
X164245750Y-116870500D01*
X164087000Y-117029250D01*
X163833000Y-117029250D01*
X163674250Y-116870500D01*
X162510000Y-116867428D01*
X162385518Y-116879688D01*
X162265820Y-116915998D01*
X162155506Y-116974963D01*
X162058815Y-117054315D01*
X161979463Y-117151006D01*
X161920498Y-117261320D01*
X161884188Y-117381018D01*
X161871928Y-117505500D01*
X161671000Y-117505500D01*
X161671000Y-115443000D01*
X166497000Y-115443000D01*
X166497000Y-126111000D01*
%TA.AperFunction,Conductor*%
D32*
G36*
X166497000Y-126111000D02*
G01*
X153289000Y-126111000D01*
X153289000Y-125430754D01*
X153593450Y-125428600D01*
X153752200Y-125269850D01*
X153752200Y-124180600D01*
X154006200Y-124180600D01*
X154006200Y-125269850D01*
X154164950Y-125428600D01*
X154599200Y-125431672D01*
X154723682Y-125419412D01*
X154843380Y-125383102D01*
X154953694Y-125324137D01*
X155050385Y-125244785D01*
X155129737Y-125148094D01*
X155188702Y-125037780D01*
X155225012Y-124918082D01*
X155237272Y-124793600D01*
X155234200Y-124339350D01*
X155075450Y-124180600D01*
X154006200Y-124180600D01*
X153752200Y-124180600D01*
X153732200Y-124180600D01*
X153732200Y-123926600D01*
X153752200Y-123926600D01*
X153752200Y-122837350D01*
X154006200Y-122837350D01*
X154006200Y-123926600D01*
X155075450Y-123926600D01*
X155234200Y-123767850D01*
X155237272Y-123313600D01*
X155225012Y-123189118D01*
X155188702Y-123069420D01*
X155129737Y-122959106D01*
X155085744Y-122905500D01*
X161871928Y-122905500D01*
X161884188Y-123029982D01*
X161920498Y-123149680D01*
X161979463Y-123259994D01*
X162058815Y-123356685D01*
X162155506Y-123436037D01*
X162265820Y-123495002D01*
X162385518Y-123531312D01*
X162510000Y-123543572D01*
X163674250Y-123540500D01*
X163833000Y-123381750D01*
X163833000Y-120332500D01*
X164087000Y-120332500D01*
X164087000Y-123381750D01*
X164245750Y-123540500D01*
X165410000Y-123543572D01*
X165534482Y-123531312D01*
X165654180Y-123495002D01*
X165764494Y-123436037D01*
X165861185Y-123356685D01*
X165940537Y-123259994D01*
X165999502Y-123149680D01*
X166035812Y-123029982D01*
X166048072Y-122905500D01*
X166045000Y-120491250D01*
X165886250Y-120332500D01*
X164087000Y-120332500D01*
X163833000Y-120332500D01*
X162033750Y-120332500D01*
X161875000Y-120491250D01*
X161871928Y-122905500D01*
X155085744Y-122905500D01*
X155050385Y-122862415D01*
X154953694Y-122783063D01*
X154843380Y-122724098D01*
X154723682Y-122687788D01*
X154599200Y-122675528D01*
X154164950Y-122678600D01*
X154006200Y-122837350D01*
X153752200Y-122837350D01*
X153593450Y-122678600D01*
X153289000Y-122676446D01*
X153289000Y-121047584D01*
X153511250Y-121045000D01*
X153670000Y-120886250D01*
X153670000Y-118237000D01*
X153650000Y-118237000D01*
X153650000Y-117983000D01*
X153670000Y-117983000D01*
X153670000Y-117963000D01*
X153924000Y-117963000D01*
X153924000Y-117983000D01*
X153944000Y-117983000D01*
X153944000Y-118237000D01*
X153924000Y-118237000D01*
X153924000Y-120886250D01*
X154082750Y-121045000D01*
X154305000Y-121047584D01*
X154305000Y-121920000D01*
X154307440Y-121944776D01*
X154314667Y-121968601D01*
X154326403Y-121990557D01*
X154342197Y-122009803D01*
X154361443Y-122025597D01*
X154383399Y-122037333D01*
X154407224Y-122044560D01*
X154432000Y-122047000D01*
X161544000Y-122047000D01*
X161568776Y-122044560D01*
X161592601Y-122037333D01*
X161614557Y-122025597D01*
X161633803Y-122009803D01*
X161649597Y-121990557D01*
X161661333Y-121968601D01*
X161668560Y-121944776D01*
X161671000Y-121920000D01*
X161671000Y-117505500D01*
X161871928Y-117505500D01*
X161875000Y-119919750D01*
X162033750Y-120078500D01*
X163833000Y-120078500D01*
X163833000Y-117029250D01*
X164087000Y-117029250D01*
X164087000Y-120078500D01*
X165886250Y-120078500D01*
X166045000Y-119919750D01*
X166048072Y-117505500D01*
X166035812Y-117381018D01*
X165999502Y-117261320D01*
X165940537Y-117151006D01*
X165861185Y-117054315D01*
X165764494Y-116974963D01*
X165654180Y-116915998D01*
X165534482Y-116879688D01*
X165410000Y-116867428D01*
X164245750Y-116870500D01*
X164087000Y-117029250D01*
X163833000Y-117029250D01*
X163674250Y-116870500D01*
X162510000Y-116867428D01*
X162385518Y-116879688D01*
X162265820Y-116915998D01*
X162155506Y-116974963D01*
X162058815Y-117054315D01*
X161979463Y-117151006D01*
X161920498Y-117261320D01*
X161884188Y-117381018D01*
X161871928Y-117505500D01*
X161671000Y-117505500D01*
X161671000Y-115443000D01*
X166497000Y-115443000D01*
X166497000Y-126111000D01*
G37*
%TD.AperFunction*%
%TD*%
D31*
%TO.N,Net-(C12-Pad1)*%
X179295820Y-115450498D02*
X179185506Y-115509463D01*
X179088815Y-115588815D01*
X179009463Y-115685506D01*
X178950498Y-115795820D01*
X178914188Y-115915518D01*
X178901928Y-116040000D01*
X178905000Y-116554250D01*
X179063750Y-116713000D01*
X180213000Y-116713000D01*
X180213000Y-116693000D01*
X180467000Y-116693000D01*
X180467000Y-116713000D01*
X180487000Y-116713000D01*
X180487000Y-116967000D01*
X180467000Y-116967000D01*
X180467000Y-118116250D01*
X180625750Y-118275000D01*
X181140000Y-118278072D01*
X181264482Y-118265812D01*
X181384180Y-118229502D01*
X181494494Y-118170537D01*
X181591185Y-118091185D01*
X181670537Y-117994494D01*
X181729502Y-117884180D01*
X181737000Y-117859462D01*
X181737000Y-118491000D01*
X177292000Y-118491000D01*
X177267224Y-118493440D01*
X177243399Y-118500667D01*
X177221443Y-118512403D01*
X177202197Y-118528197D01*
X177186403Y-118547443D01*
X177174667Y-118569399D01*
X177167440Y-118593224D01*
X177165000Y-118618000D01*
X177165000Y-124333000D01*
X171069000Y-124333000D01*
X171069000Y-122905500D01*
X171771928Y-122905500D01*
X171784188Y-123029982D01*
X171820498Y-123149680D01*
X171879463Y-123259994D01*
X171958815Y-123356685D01*
X172055506Y-123436037D01*
X172165820Y-123495002D01*
X172285518Y-123531312D01*
X172410000Y-123543572D01*
X173574250Y-123540500D01*
X173733000Y-123381750D01*
X173733000Y-120332500D01*
X173987000Y-120332500D01*
X173987000Y-123381750D01*
X174145750Y-123540500D01*
X175310000Y-123543572D01*
X175434482Y-123531312D01*
X175554180Y-123495002D01*
X175664494Y-123436037D01*
X175761185Y-123356685D01*
X175840537Y-123259994D01*
X175899502Y-123149680D01*
X175935812Y-123029982D01*
X175948072Y-122905500D01*
X175945000Y-120491250D01*
X175786250Y-120332500D01*
X173987000Y-120332500D01*
X173733000Y-120332500D01*
X171933750Y-120332500D01*
X171775000Y-120491250D01*
X171771928Y-122905500D01*
X171069000Y-122905500D01*
X171069000Y-117505500D01*
X171771928Y-117505500D01*
X171775000Y-119919750D01*
X171933750Y-120078500D01*
X173733000Y-120078500D01*
X173733000Y-117029250D01*
X173987000Y-117029250D01*
X173987000Y-120078500D01*
X175786250Y-120078500D01*
X175945000Y-119919750D01*
X175947900Y-117640000D01*
X178901928Y-117640000D01*
X178914188Y-117764482D01*
X178950498Y-117884180D01*
X179009463Y-117994494D01*
X179088815Y-118091185D01*
X179185506Y-118170537D01*
X179295820Y-118229502D01*
X179415518Y-118265812D01*
X179540000Y-118278072D01*
X180054250Y-118275000D01*
X180213000Y-118116250D01*
X180213000Y-116967000D01*
X179063750Y-116967000D01*
X178905000Y-117125750D01*
X178901928Y-117640000D01*
X175947900Y-117640000D01*
X175948072Y-117505500D01*
X175935812Y-117381018D01*
X175899502Y-117261320D01*
X175840537Y-117151006D01*
X175761185Y-117054315D01*
X175664494Y-116974963D01*
X175554180Y-116915998D01*
X175434482Y-116879688D01*
X175310000Y-116867428D01*
X174145750Y-116870500D01*
X173987000Y-117029250D01*
X173733000Y-117029250D01*
X173574250Y-116870500D01*
X172410000Y-116867428D01*
X172285518Y-116879688D01*
X172165820Y-116915998D01*
X172055506Y-116974963D01*
X171958815Y-117054315D01*
X171879463Y-117151006D01*
X171820498Y-117261320D01*
X171784188Y-117381018D01*
X171771928Y-117505500D01*
X171069000Y-117505500D01*
X171069000Y-115443000D01*
X179320538Y-115443000D01*
X179295820Y-115450498D01*
%TA.AperFunction,Conductor*%
D32*
G36*
X179295820Y-115450498D02*
G01*
X179185506Y-115509463D01*
X179088815Y-115588815D01*
X179009463Y-115685506D01*
X178950498Y-115795820D01*
X178914188Y-115915518D01*
X178901928Y-116040000D01*
X178905000Y-116554250D01*
X179063750Y-116713000D01*
X180213000Y-116713000D01*
X180213000Y-116693000D01*
X180467000Y-116693000D01*
X180467000Y-116713000D01*
X180487000Y-116713000D01*
X180487000Y-116967000D01*
X180467000Y-116967000D01*
X180467000Y-118116250D01*
X180625750Y-118275000D01*
X181140000Y-118278072D01*
X181264482Y-118265812D01*
X181384180Y-118229502D01*
X181494494Y-118170537D01*
X181591185Y-118091185D01*
X181670537Y-117994494D01*
X181729502Y-117884180D01*
X181737000Y-117859462D01*
X181737000Y-118491000D01*
X177292000Y-118491000D01*
X177267224Y-118493440D01*
X177243399Y-118500667D01*
X177221443Y-118512403D01*
X177202197Y-118528197D01*
X177186403Y-118547443D01*
X177174667Y-118569399D01*
X177167440Y-118593224D01*
X177165000Y-118618000D01*
X177165000Y-124333000D01*
X171069000Y-124333000D01*
X171069000Y-122905500D01*
X171771928Y-122905500D01*
X171784188Y-123029982D01*
X171820498Y-123149680D01*
X171879463Y-123259994D01*
X171958815Y-123356685D01*
X172055506Y-123436037D01*
X172165820Y-123495002D01*
X172285518Y-123531312D01*
X172410000Y-123543572D01*
X173574250Y-123540500D01*
X173733000Y-123381750D01*
X173733000Y-120332500D01*
X173987000Y-120332500D01*
X173987000Y-123381750D01*
X174145750Y-123540500D01*
X175310000Y-123543572D01*
X175434482Y-123531312D01*
X175554180Y-123495002D01*
X175664494Y-123436037D01*
X175761185Y-123356685D01*
X175840537Y-123259994D01*
X175899502Y-123149680D01*
X175935812Y-123029982D01*
X175948072Y-122905500D01*
X175945000Y-120491250D01*
X175786250Y-120332500D01*
X173987000Y-120332500D01*
X173733000Y-120332500D01*
X171933750Y-120332500D01*
X171775000Y-120491250D01*
X171771928Y-122905500D01*
X171069000Y-122905500D01*
X171069000Y-117505500D01*
X171771928Y-117505500D01*
X171775000Y-119919750D01*
X171933750Y-120078500D01*
X173733000Y-120078500D01*
X173733000Y-117029250D01*
X173987000Y-117029250D01*
X173987000Y-120078500D01*
X175786250Y-120078500D01*
X175945000Y-119919750D01*
X175947900Y-117640000D01*
X178901928Y-117640000D01*
X178914188Y-117764482D01*
X178950498Y-117884180D01*
X179009463Y-117994494D01*
X179088815Y-118091185D01*
X179185506Y-118170537D01*
X179295820Y-118229502D01*
X179415518Y-118265812D01*
X179540000Y-118278072D01*
X180054250Y-118275000D01*
X180213000Y-118116250D01*
X180213000Y-116967000D01*
X179063750Y-116967000D01*
X178905000Y-117125750D01*
X178901928Y-117640000D01*
X175947900Y-117640000D01*
X175948072Y-117505500D01*
X175935812Y-117381018D01*
X175899502Y-117261320D01*
X175840537Y-117151006D01*
X175761185Y-117054315D01*
X175664494Y-116974963D01*
X175554180Y-116915998D01*
X175434482Y-116879688D01*
X175310000Y-116867428D01*
X174145750Y-116870500D01*
X173987000Y-117029250D01*
X173733000Y-117029250D01*
X173574250Y-116870500D01*
X172410000Y-116867428D01*
X172285518Y-116879688D01*
X172165820Y-116915998D01*
X172055506Y-116974963D01*
X171958815Y-117054315D01*
X171879463Y-117151006D01*
X171820498Y-117261320D01*
X171784188Y-117381018D01*
X171771928Y-117505500D01*
X171069000Y-117505500D01*
X171069000Y-115443000D01*
X179320538Y-115443000D01*
X179295820Y-115450498D01*
G37*
%TD.AperFunction*%
%TD*%
D31*
%TO.N,GND*%
X148653500Y-119888000D02*
X148673500Y-119888000D01*
X148673500Y-120142000D01*
X148653500Y-120142000D01*
X148653500Y-120991250D01*
X148812250Y-121150000D01*
X149251500Y-121153072D01*
X149375982Y-121140812D01*
X149479000Y-121109562D01*
X149479000Y-122428000D01*
X149481440Y-122452776D01*
X149488667Y-122476601D01*
X149500403Y-122498557D01*
X149516197Y-122517803D01*
X149535443Y-122533597D01*
X149557399Y-122545333D01*
X149581224Y-122552560D01*
X149606000Y-122555000D01*
X151003000Y-122555000D01*
X151003000Y-126340000D01*
X141859000Y-126340000D01*
X141859000Y-124793600D01*
X148191128Y-124793600D01*
X148203388Y-124918082D01*
X148239698Y-125037780D01*
X148298663Y-125148094D01*
X148378015Y-125244785D01*
X148474706Y-125324137D01*
X148585020Y-125383102D01*
X148704718Y-125419412D01*
X148829200Y-125431672D01*
X149263450Y-125428600D01*
X149422200Y-125269850D01*
X149422200Y-124180600D01*
X149676200Y-124180600D01*
X149676200Y-125269850D01*
X149834950Y-125428600D01*
X150269200Y-125431672D01*
X150393682Y-125419412D01*
X150513380Y-125383102D01*
X150623694Y-125324137D01*
X150720385Y-125244785D01*
X150799737Y-125148094D01*
X150858702Y-125037780D01*
X150895012Y-124918082D01*
X150907272Y-124793600D01*
X150904200Y-124339350D01*
X150745450Y-124180600D01*
X149676200Y-124180600D01*
X149422200Y-124180600D01*
X148352950Y-124180600D01*
X148194200Y-124339350D01*
X148191128Y-124793600D01*
X141859000Y-124793600D01*
X141859000Y-124278547D01*
X141869430Y-124288977D01*
X141985703Y-124172704D01*
X142057286Y-124416671D01*
X142312796Y-124537571D01*
X142586984Y-124606300D01*
X142869312Y-124620217D01*
X143148930Y-124578787D01*
X143415092Y-124483603D01*
X143540314Y-124416671D01*
X143611897Y-124172702D01*
X142798800Y-123359605D01*
X142784658Y-123373748D01*
X142605053Y-123194143D01*
X142619195Y-123180000D01*
X142978405Y-123180000D01*
X143791502Y-123993097D01*
X144035471Y-123921514D01*
X144156371Y-123666004D01*
X144225100Y-123391816D01*
X144228955Y-123313600D01*
X148191128Y-123313600D01*
X148194200Y-123767850D01*
X148352950Y-123926600D01*
X149422200Y-123926600D01*
X149422200Y-122837350D01*
X149676200Y-122837350D01*
X149676200Y-123926600D01*
X150745450Y-123926600D01*
X150904200Y-123767850D01*
X150907272Y-123313600D01*
X150895012Y-123189118D01*
X150858702Y-123069420D01*
X150799737Y-122959106D01*
X150720385Y-122862415D01*
X150623694Y-122783063D01*
X150513380Y-122724098D01*
X150393682Y-122687788D01*
X150269200Y-122675528D01*
X149834950Y-122678600D01*
X149676200Y-122837350D01*
X149422200Y-122837350D01*
X149263450Y-122678600D01*
X148829200Y-122675528D01*
X148704718Y-122687788D01*
X148585020Y-122724098D01*
X148474706Y-122783063D01*
X148378015Y-122862415D01*
X148298663Y-122959106D01*
X148239698Y-123069420D01*
X148203388Y-123189118D01*
X148191128Y-123313600D01*
X144228955Y-123313600D01*
X144239017Y-123109488D01*
X144197587Y-122829870D01*
X144102403Y-122563708D01*
X144035471Y-122438486D01*
X143791502Y-122366903D01*
X142978405Y-123180000D01*
X142619195Y-123180000D01*
X142605053Y-123165858D01*
X142784658Y-122986253D01*
X142798800Y-123000395D01*
X143611897Y-122187298D01*
X143570732Y-122047000D01*
X147066000Y-122047000D01*
X147090776Y-122044560D01*
X147114601Y-122037333D01*
X147136557Y-122025597D01*
X147155803Y-122009803D01*
X147171597Y-121990557D01*
X147183333Y-121968601D01*
X147190560Y-121944776D01*
X147193000Y-121920000D01*
X147193000Y-120696552D01*
X147211998Y-120759180D01*
X147270963Y-120869494D01*
X147350315Y-120966185D01*
X147447006Y-121045537D01*
X147557320Y-121104502D01*
X147677018Y-121140812D01*
X147801500Y-121153072D01*
X148240750Y-121150000D01*
X148399500Y-120991250D01*
X148399500Y-120142000D01*
X148379500Y-120142000D01*
X148379500Y-119888000D01*
X148399500Y-119888000D01*
X148399500Y-119868000D01*
X148653500Y-119868000D01*
X148653500Y-119888000D01*
%TA.AperFunction,Conductor*%
D32*
G36*
X148653500Y-119888000D02*
G01*
X148673500Y-119888000D01*
X148673500Y-120142000D01*
X148653500Y-120142000D01*
X148653500Y-120991250D01*
X148812250Y-121150000D01*
X149251500Y-121153072D01*
X149375982Y-121140812D01*
X149479000Y-121109562D01*
X149479000Y-122428000D01*
X149481440Y-122452776D01*
X149488667Y-122476601D01*
X149500403Y-122498557D01*
X149516197Y-122517803D01*
X149535443Y-122533597D01*
X149557399Y-122545333D01*
X149581224Y-122552560D01*
X149606000Y-122555000D01*
X151003000Y-122555000D01*
X151003000Y-126340000D01*
X141859000Y-126340000D01*
X141859000Y-124793600D01*
X148191128Y-124793600D01*
X148203388Y-124918082D01*
X148239698Y-125037780D01*
X148298663Y-125148094D01*
X148378015Y-125244785D01*
X148474706Y-125324137D01*
X148585020Y-125383102D01*
X148704718Y-125419412D01*
X148829200Y-125431672D01*
X149263450Y-125428600D01*
X149422200Y-125269850D01*
X149422200Y-124180600D01*
X149676200Y-124180600D01*
X149676200Y-125269850D01*
X149834950Y-125428600D01*
X150269200Y-125431672D01*
X150393682Y-125419412D01*
X150513380Y-125383102D01*
X150623694Y-125324137D01*
X150720385Y-125244785D01*
X150799737Y-125148094D01*
X150858702Y-125037780D01*
X150895012Y-124918082D01*
X150907272Y-124793600D01*
X150904200Y-124339350D01*
X150745450Y-124180600D01*
X149676200Y-124180600D01*
X149422200Y-124180600D01*
X148352950Y-124180600D01*
X148194200Y-124339350D01*
X148191128Y-124793600D01*
X141859000Y-124793600D01*
X141859000Y-124278547D01*
X141869430Y-124288977D01*
X141985703Y-124172704D01*
X142057286Y-124416671D01*
X142312796Y-124537571D01*
X142586984Y-124606300D01*
X142869312Y-124620217D01*
X143148930Y-124578787D01*
X143415092Y-124483603D01*
X143540314Y-124416671D01*
X143611897Y-124172702D01*
X142798800Y-123359605D01*
X142784658Y-123373748D01*
X142605053Y-123194143D01*
X142619195Y-123180000D01*
X142978405Y-123180000D01*
X143791502Y-123993097D01*
X144035471Y-123921514D01*
X144156371Y-123666004D01*
X144225100Y-123391816D01*
X144228955Y-123313600D01*
X148191128Y-123313600D01*
X148194200Y-123767850D01*
X148352950Y-123926600D01*
X149422200Y-123926600D01*
X149422200Y-122837350D01*
X149676200Y-122837350D01*
X149676200Y-123926600D01*
X150745450Y-123926600D01*
X150904200Y-123767850D01*
X150907272Y-123313600D01*
X150895012Y-123189118D01*
X150858702Y-123069420D01*
X150799737Y-122959106D01*
X150720385Y-122862415D01*
X150623694Y-122783063D01*
X150513380Y-122724098D01*
X150393682Y-122687788D01*
X150269200Y-122675528D01*
X149834950Y-122678600D01*
X149676200Y-122837350D01*
X149422200Y-122837350D01*
X149263450Y-122678600D01*
X148829200Y-122675528D01*
X148704718Y-122687788D01*
X148585020Y-122724098D01*
X148474706Y-122783063D01*
X148378015Y-122862415D01*
X148298663Y-122959106D01*
X148239698Y-123069420D01*
X148203388Y-123189118D01*
X148191128Y-123313600D01*
X144228955Y-123313600D01*
X144239017Y-123109488D01*
X144197587Y-122829870D01*
X144102403Y-122563708D01*
X144035471Y-122438486D01*
X143791502Y-122366903D01*
X142978405Y-123180000D01*
X142619195Y-123180000D01*
X142605053Y-123165858D01*
X142784658Y-122986253D01*
X142798800Y-123000395D01*
X143611897Y-122187298D01*
X143570732Y-122047000D01*
X147066000Y-122047000D01*
X147090776Y-122044560D01*
X147114601Y-122037333D01*
X147136557Y-122025597D01*
X147155803Y-122009803D01*
X147171597Y-121990557D01*
X147183333Y-121968601D01*
X147190560Y-121944776D01*
X147193000Y-121920000D01*
X147193000Y-120696552D01*
X147211998Y-120759180D01*
X147270963Y-120869494D01*
X147350315Y-120966185D01*
X147447006Y-121045537D01*
X147557320Y-121104502D01*
X147677018Y-121140812D01*
X147801500Y-121153072D01*
X148240750Y-121150000D01*
X148399500Y-120991250D01*
X148399500Y-120142000D01*
X148379500Y-120142000D01*
X148379500Y-119888000D01*
X148399500Y-119888000D01*
X148399500Y-119868000D01*
X148653500Y-119868000D01*
X148653500Y-119888000D01*
G37*
%TD.AperFunction*%
%TD*%
D31*
%TO.N,GND*%
X167259000Y-104598424D02*
X166945250Y-104600500D01*
X166786500Y-104759250D01*
X166786500Y-106108500D01*
X166806500Y-106108500D01*
X166806500Y-106362500D01*
X166786500Y-106362500D01*
X166786500Y-107711750D01*
X166945250Y-107870500D01*
X167259000Y-107872576D01*
X167259000Y-107950000D01*
X167261440Y-107974776D01*
X167268667Y-107998601D01*
X167280403Y-108020557D01*
X167296197Y-108039803D01*
X167315443Y-108055597D01*
X167337399Y-108067333D01*
X167361224Y-108074560D01*
X167386000Y-108077000D01*
X174828476Y-108077000D01*
X174727929Y-108289496D01*
X174659200Y-108563684D01*
X174645283Y-108846012D01*
X174686713Y-109125630D01*
X174781897Y-109391792D01*
X174848829Y-109517014D01*
X175092796Y-109588597D01*
X175080393Y-109601000D01*
X173101000Y-109601000D01*
X173101000Y-108966000D01*
X173098560Y-108941224D01*
X173091333Y-108917399D01*
X173079597Y-108895443D01*
X173063803Y-108876197D01*
X173044557Y-108860403D01*
X173022601Y-108848667D01*
X172998776Y-108841440D01*
X172974000Y-108839000D01*
X166370000Y-108839000D01*
X166345224Y-108841440D01*
X166321399Y-108848667D01*
X166299443Y-108860403D01*
X166280197Y-108876197D01*
X166264403Y-108895443D01*
X166252667Y-108917399D01*
X166245440Y-108941224D01*
X166243000Y-108966000D01*
X166243000Y-109391997D01*
X166241982Y-109391688D01*
X166117500Y-109379428D01*
X165703250Y-109382500D01*
X165544500Y-109541250D01*
X165544500Y-110403000D01*
X165564500Y-110403000D01*
X165564500Y-110657000D01*
X165544500Y-110657000D01*
X165544500Y-110677000D01*
X165290500Y-110677000D01*
X165290500Y-110657000D01*
X164241250Y-110657000D01*
X164082500Y-110815750D01*
X164081751Y-110871000D01*
X161533131Y-110871000D01*
X161532538Y-110017500D01*
X164079428Y-110017500D01*
X164082500Y-110244250D01*
X164241250Y-110403000D01*
X165290500Y-110403000D01*
X165290500Y-109541250D01*
X165131750Y-109382500D01*
X164717500Y-109379428D01*
X164593018Y-109391688D01*
X164473320Y-109427998D01*
X164363006Y-109486963D01*
X164266315Y-109566315D01*
X164186963Y-109663006D01*
X164127998Y-109773320D01*
X164091688Y-109893018D01*
X164079428Y-110017500D01*
X161532538Y-110017500D01*
X161532000Y-109245750D01*
X161373250Y-109087000D01*
X155624000Y-109087000D01*
X155624000Y-109107000D01*
X155370000Y-109107000D01*
X155370000Y-109087000D01*
X149620750Y-109087000D01*
X149462000Y-109245750D01*
X149460204Y-111826914D01*
X145923000Y-111884901D01*
X145923000Y-104260000D01*
X149458928Y-104260000D01*
X149462000Y-108674250D01*
X149620750Y-108833000D01*
X155370000Y-108833000D01*
X155370000Y-103783750D01*
X155624000Y-103783750D01*
X155624000Y-108833000D01*
X161373250Y-108833000D01*
X161532000Y-108674250D01*
X161533001Y-107235500D01*
X165271428Y-107235500D01*
X165283688Y-107359982D01*
X165319998Y-107479680D01*
X165378963Y-107589994D01*
X165458315Y-107686685D01*
X165555006Y-107766037D01*
X165665320Y-107825002D01*
X165785018Y-107861312D01*
X165909500Y-107873572D01*
X166373750Y-107870500D01*
X166532500Y-107711750D01*
X166532500Y-106362500D01*
X165433250Y-106362500D01*
X165274500Y-106521250D01*
X165271428Y-107235500D01*
X161533001Y-107235500D01*
X161534393Y-105235500D01*
X165271428Y-105235500D01*
X165274500Y-105949750D01*
X165433250Y-106108500D01*
X166532500Y-106108500D01*
X166532500Y-104759250D01*
X166373750Y-104600500D01*
X165909500Y-104597428D01*
X165785018Y-104609688D01*
X165665320Y-104645998D01*
X165555006Y-104704963D01*
X165458315Y-104784315D01*
X165378963Y-104881006D01*
X165319998Y-104991320D01*
X165283688Y-105111018D01*
X165271428Y-105235500D01*
X161534393Y-105235500D01*
X161535072Y-104260000D01*
X161522812Y-104135518D01*
X161486502Y-104015820D01*
X161427537Y-103905506D01*
X161348185Y-103808815D01*
X161251494Y-103729463D01*
X161141180Y-103670498D01*
X161021482Y-103634188D01*
X160897000Y-103621928D01*
X155782750Y-103625000D01*
X155624000Y-103783750D01*
X155370000Y-103783750D01*
X155211250Y-103625000D01*
X150097000Y-103621928D01*
X149972518Y-103634188D01*
X149852820Y-103670498D01*
X149742506Y-103729463D01*
X149645815Y-103808815D01*
X149566463Y-103905506D01*
X149507498Y-104015820D01*
X149471188Y-104135518D01*
X149458928Y-104260000D01*
X145923000Y-104260000D01*
X145923000Y-102997000D01*
X167259000Y-102997000D01*
X167259000Y-104598424D01*
%TA.AperFunction,Conductor*%
D32*
G36*
X167259000Y-104598424D02*
G01*
X166945250Y-104600500D01*
X166786500Y-104759250D01*
X166786500Y-106108500D01*
X166806500Y-106108500D01*
X166806500Y-106362500D01*
X166786500Y-106362500D01*
X166786500Y-107711750D01*
X166945250Y-107870500D01*
X167259000Y-107872576D01*
X167259000Y-107950000D01*
X167261440Y-107974776D01*
X167268667Y-107998601D01*
X167280403Y-108020557D01*
X167296197Y-108039803D01*
X167315443Y-108055597D01*
X167337399Y-108067333D01*
X167361224Y-108074560D01*
X167386000Y-108077000D01*
X174828476Y-108077000D01*
X174727929Y-108289496D01*
X174659200Y-108563684D01*
X174645283Y-108846012D01*
X174686713Y-109125630D01*
X174781897Y-109391792D01*
X174848829Y-109517014D01*
X175092796Y-109588597D01*
X175080393Y-109601000D01*
X173101000Y-109601000D01*
X173101000Y-108966000D01*
X173098560Y-108941224D01*
X173091333Y-108917399D01*
X173079597Y-108895443D01*
X173063803Y-108876197D01*
X173044557Y-108860403D01*
X173022601Y-108848667D01*
X172998776Y-108841440D01*
X172974000Y-108839000D01*
X166370000Y-108839000D01*
X166345224Y-108841440D01*
X166321399Y-108848667D01*
X166299443Y-108860403D01*
X166280197Y-108876197D01*
X166264403Y-108895443D01*
X166252667Y-108917399D01*
X166245440Y-108941224D01*
X166243000Y-108966000D01*
X166243000Y-109391997D01*
X166241982Y-109391688D01*
X166117500Y-109379428D01*
X165703250Y-109382500D01*
X165544500Y-109541250D01*
X165544500Y-110403000D01*
X165564500Y-110403000D01*
X165564500Y-110657000D01*
X165544500Y-110657000D01*
X165544500Y-110677000D01*
X165290500Y-110677000D01*
X165290500Y-110657000D01*
X164241250Y-110657000D01*
X164082500Y-110815750D01*
X164081751Y-110871000D01*
X161533131Y-110871000D01*
X161532538Y-110017500D01*
X164079428Y-110017500D01*
X164082500Y-110244250D01*
X164241250Y-110403000D01*
X165290500Y-110403000D01*
X165290500Y-109541250D01*
X165131750Y-109382500D01*
X164717500Y-109379428D01*
X164593018Y-109391688D01*
X164473320Y-109427998D01*
X164363006Y-109486963D01*
X164266315Y-109566315D01*
X164186963Y-109663006D01*
X164127998Y-109773320D01*
X164091688Y-109893018D01*
X164079428Y-110017500D01*
X161532538Y-110017500D01*
X161532000Y-109245750D01*
X161373250Y-109087000D01*
X155624000Y-109087000D01*
X155624000Y-109107000D01*
X155370000Y-109107000D01*
X155370000Y-109087000D01*
X149620750Y-109087000D01*
X149462000Y-109245750D01*
X149460204Y-111826914D01*
X145923000Y-111884901D01*
X145923000Y-104260000D01*
X149458928Y-104260000D01*
X149462000Y-108674250D01*
X149620750Y-108833000D01*
X155370000Y-108833000D01*
X155370000Y-103783750D01*
X155624000Y-103783750D01*
X155624000Y-108833000D01*
X161373250Y-108833000D01*
X161532000Y-108674250D01*
X161533001Y-107235500D01*
X165271428Y-107235500D01*
X165283688Y-107359982D01*
X165319998Y-107479680D01*
X165378963Y-107589994D01*
X165458315Y-107686685D01*
X165555006Y-107766037D01*
X165665320Y-107825002D01*
X165785018Y-107861312D01*
X165909500Y-107873572D01*
X166373750Y-107870500D01*
X166532500Y-107711750D01*
X166532500Y-106362500D01*
X165433250Y-106362500D01*
X165274500Y-106521250D01*
X165271428Y-107235500D01*
X161533001Y-107235500D01*
X161534393Y-105235500D01*
X165271428Y-105235500D01*
X165274500Y-105949750D01*
X165433250Y-106108500D01*
X166532500Y-106108500D01*
X166532500Y-104759250D01*
X166373750Y-104600500D01*
X165909500Y-104597428D01*
X165785018Y-104609688D01*
X165665320Y-104645998D01*
X165555006Y-104704963D01*
X165458315Y-104784315D01*
X165378963Y-104881006D01*
X165319998Y-104991320D01*
X165283688Y-105111018D01*
X165271428Y-105235500D01*
X161534393Y-105235500D01*
X161535072Y-104260000D01*
X161522812Y-104135518D01*
X161486502Y-104015820D01*
X161427537Y-103905506D01*
X161348185Y-103808815D01*
X161251494Y-103729463D01*
X161141180Y-103670498D01*
X161021482Y-103634188D01*
X160897000Y-103621928D01*
X155782750Y-103625000D01*
X155624000Y-103783750D01*
X155370000Y-103783750D01*
X155211250Y-103625000D01*
X150097000Y-103621928D01*
X149972518Y-103634188D01*
X149852820Y-103670498D01*
X149742506Y-103729463D01*
X149645815Y-103808815D01*
X149566463Y-103905506D01*
X149507498Y-104015820D01*
X149471188Y-104135518D01*
X149458928Y-104260000D01*
X145923000Y-104260000D01*
X145923000Y-102997000D01*
X167259000Y-102997000D01*
X167259000Y-104598424D01*
G37*
%TD.AperFunction*%
D31*
X176279248Y-108761358D02*
X176265105Y-108775500D01*
X176279248Y-108789643D01*
X176099643Y-108969248D01*
X176085500Y-108955105D01*
X176071358Y-108969248D01*
X175891753Y-108789643D01*
X175905895Y-108775500D01*
X175891753Y-108761358D01*
X176071358Y-108581753D01*
X176085500Y-108595895D01*
X176099643Y-108581753D01*
X176279248Y-108761358D01*
%TA.AperFunction,Conductor*%
D32*
G36*
X176279248Y-108761358D02*
G01*
X176265105Y-108775500D01*
X176279248Y-108789643D01*
X176099643Y-108969248D01*
X176085500Y-108955105D01*
X176071358Y-108969248D01*
X175891753Y-108789643D01*
X175905895Y-108775500D01*
X175891753Y-108761358D01*
X176071358Y-108581753D01*
X176085500Y-108595895D01*
X176099643Y-108581753D01*
X176279248Y-108761358D01*
G37*
%TD.AperFunction*%
%TD*%
D31*
%TO.N,GND*%
X144553188Y-94483018D02*
X144540928Y-94607500D01*
X144540928Y-95257500D01*
X144553188Y-95381982D01*
X144589498Y-95501680D01*
X144648463Y-95611994D01*
X144727815Y-95708685D01*
X144824506Y-95788037D01*
X144934820Y-95847002D01*
X145054518Y-95883312D01*
X145179000Y-95895572D01*
X145181500Y-95895572D01*
X145181501Y-96386397D01*
X145159685Y-96359815D01*
X145062994Y-96280463D01*
X144952680Y-96221498D01*
X144832982Y-96185188D01*
X144708500Y-96172928D01*
X144494250Y-96176000D01*
X144335500Y-96334750D01*
X144335500Y-97409000D01*
X144355500Y-97409000D01*
X144355500Y-97663000D01*
X144335500Y-97663000D01*
X144335500Y-98737250D01*
X144494250Y-98896000D01*
X144708500Y-98899072D01*
X144832982Y-98886812D01*
X144952680Y-98850502D01*
X145062994Y-98791537D01*
X145159685Y-98712185D01*
X145225158Y-98632406D01*
X145230538Y-98638962D01*
X145365114Y-98749405D01*
X145518650Y-98831472D01*
X145685246Y-98882008D01*
X145858500Y-98899072D01*
X146358500Y-98899072D01*
X146531754Y-98882008D01*
X146698350Y-98831472D01*
X146851886Y-98749405D01*
X146921409Y-98692349D01*
X146909428Y-98814000D01*
X146912500Y-99028250D01*
X147071250Y-99187000D01*
X148145500Y-99187000D01*
X148145500Y-99167000D01*
X148399500Y-99167000D01*
X148399500Y-99187000D01*
X149473750Y-99187000D01*
X149632500Y-99028250D01*
X149635572Y-98814000D01*
X149623312Y-98689518D01*
X149587002Y-98569820D01*
X149528037Y-98459506D01*
X149448685Y-98362815D01*
X149368906Y-98297342D01*
X149375462Y-98291962D01*
X149472270Y-98174000D01*
X153865178Y-98174000D01*
X153902500Y-98177676D01*
X153939822Y-98174000D01*
X153939833Y-98174000D01*
X154051486Y-98163003D01*
X154194747Y-98119546D01*
X154326776Y-98048974D01*
X154442501Y-97954001D01*
X154466303Y-97924998D01*
X154483229Y-97908072D01*
X155009001Y-97908072D01*
X155182255Y-97891008D01*
X155348851Y-97840472D01*
X155502387Y-97758405D01*
X155636962Y-97647962D01*
X155744030Y-97517500D01*
X159745178Y-97517500D01*
X159782500Y-97521176D01*
X159819822Y-97517500D01*
X159819833Y-97517500D01*
X159931486Y-97506503D01*
X160074747Y-97463046D01*
X160206776Y-97392474D01*
X160322501Y-97297501D01*
X160346304Y-97268497D01*
X162433000Y-95181801D01*
X162433000Y-99695000D01*
X149633866Y-99695000D01*
X149632500Y-99599750D01*
X149473750Y-99441000D01*
X148399500Y-99441000D01*
X148399500Y-99461000D01*
X148145500Y-99461000D01*
X148145500Y-99441000D01*
X147071250Y-99441000D01*
X146912500Y-99599750D01*
X146911134Y-99695000D01*
X138049000Y-99695000D01*
X138049000Y-98366000D01*
X140520928Y-98366000D01*
X140533188Y-98490482D01*
X140569498Y-98610180D01*
X140628463Y-98720494D01*
X140707815Y-98817185D01*
X140804506Y-98896537D01*
X140914820Y-98955502D01*
X141034518Y-98991812D01*
X141159000Y-99004072D01*
X141573250Y-99001000D01*
X141732000Y-98842250D01*
X141732000Y-97980500D01*
X140682750Y-97980500D01*
X140524000Y-98139250D01*
X140520928Y-98366000D01*
X138049000Y-98366000D01*
X138049000Y-94932000D01*
X140798753Y-94932000D01*
X140915424Y-95027750D01*
X140781038Y-95138038D01*
X140670595Y-95272613D01*
X140588528Y-95426149D01*
X140537992Y-95592745D01*
X140520928Y-95765999D01*
X140520928Y-96291001D01*
X140537992Y-96464255D01*
X140588528Y-96630851D01*
X140670595Y-96784387D01*
X140737276Y-96865637D01*
X140707815Y-96889815D01*
X140628463Y-96986506D01*
X140569498Y-97096820D01*
X140533188Y-97216518D01*
X140520928Y-97341000D01*
X140524000Y-97567750D01*
X140682750Y-97726500D01*
X141732000Y-97726500D01*
X141732000Y-97706500D01*
X141986000Y-97706500D01*
X141986000Y-97726500D01*
X142006000Y-97726500D01*
X142006000Y-97980500D01*
X141986000Y-97980500D01*
X141986000Y-98842250D01*
X142144750Y-99001000D01*
X142559000Y-99004072D01*
X142683482Y-98991812D01*
X142803180Y-98955502D01*
X142913494Y-98896537D01*
X143010185Y-98817185D01*
X143089537Y-98720494D01*
X143148502Y-98610180D01*
X143158140Y-98578408D01*
X143177963Y-98615494D01*
X143257315Y-98712185D01*
X143354006Y-98791537D01*
X143464320Y-98850502D01*
X143584018Y-98886812D01*
X143708500Y-98899072D01*
X143922750Y-98896000D01*
X144081500Y-98737250D01*
X144081500Y-97663000D01*
X144061500Y-97663000D01*
X144061500Y-97409000D01*
X144081500Y-97409000D01*
X144081500Y-96334750D01*
X143922750Y-96176000D01*
X143708500Y-96172928D01*
X143584018Y-96185188D01*
X143464320Y-96221498D01*
X143354006Y-96280463D01*
X143257315Y-96359815D01*
X143181154Y-96452618D01*
X143197072Y-96291001D01*
X143197072Y-95765999D01*
X143180008Y-95592745D01*
X143129472Y-95426149D01*
X143047405Y-95272613D01*
X142936962Y-95138038D01*
X142802576Y-95027750D01*
X142936962Y-94917462D01*
X143047405Y-94782887D01*
X143129472Y-94629351D01*
X143180008Y-94462755D01*
X143183973Y-94422500D01*
X144571546Y-94422500D01*
X144553188Y-94483018D01*
%TA.AperFunction,Conductor*%
D32*
G36*
X144553188Y-94483018D02*
G01*
X144540928Y-94607500D01*
X144540928Y-95257500D01*
X144553188Y-95381982D01*
X144589498Y-95501680D01*
X144648463Y-95611994D01*
X144727815Y-95708685D01*
X144824506Y-95788037D01*
X144934820Y-95847002D01*
X145054518Y-95883312D01*
X145179000Y-95895572D01*
X145181500Y-95895572D01*
X145181501Y-96386397D01*
X145159685Y-96359815D01*
X145062994Y-96280463D01*
X144952680Y-96221498D01*
X144832982Y-96185188D01*
X144708500Y-96172928D01*
X144494250Y-96176000D01*
X144335500Y-96334750D01*
X144335500Y-97409000D01*
X144355500Y-97409000D01*
X144355500Y-97663000D01*
X144335500Y-97663000D01*
X144335500Y-98737250D01*
X144494250Y-98896000D01*
X144708500Y-98899072D01*
X144832982Y-98886812D01*
X144952680Y-98850502D01*
X145062994Y-98791537D01*
X145159685Y-98712185D01*
X145225158Y-98632406D01*
X145230538Y-98638962D01*
X145365114Y-98749405D01*
X145518650Y-98831472D01*
X145685246Y-98882008D01*
X145858500Y-98899072D01*
X146358500Y-98899072D01*
X146531754Y-98882008D01*
X146698350Y-98831472D01*
X146851886Y-98749405D01*
X146921409Y-98692349D01*
X146909428Y-98814000D01*
X146912500Y-99028250D01*
X147071250Y-99187000D01*
X148145500Y-99187000D01*
X148145500Y-99167000D01*
X148399500Y-99167000D01*
X148399500Y-99187000D01*
X149473750Y-99187000D01*
X149632500Y-99028250D01*
X149635572Y-98814000D01*
X149623312Y-98689518D01*
X149587002Y-98569820D01*
X149528037Y-98459506D01*
X149448685Y-98362815D01*
X149368906Y-98297342D01*
X149375462Y-98291962D01*
X149472270Y-98174000D01*
X153865178Y-98174000D01*
X153902500Y-98177676D01*
X153939822Y-98174000D01*
X153939833Y-98174000D01*
X154051486Y-98163003D01*
X154194747Y-98119546D01*
X154326776Y-98048974D01*
X154442501Y-97954001D01*
X154466303Y-97924998D01*
X154483229Y-97908072D01*
X155009001Y-97908072D01*
X155182255Y-97891008D01*
X155348851Y-97840472D01*
X155502387Y-97758405D01*
X155636962Y-97647962D01*
X155744030Y-97517500D01*
X159745178Y-97517500D01*
X159782500Y-97521176D01*
X159819822Y-97517500D01*
X159819833Y-97517500D01*
X159931486Y-97506503D01*
X160074747Y-97463046D01*
X160206776Y-97392474D01*
X160322501Y-97297501D01*
X160346304Y-97268497D01*
X162433000Y-95181801D01*
X162433000Y-99695000D01*
X149633866Y-99695000D01*
X149632500Y-99599750D01*
X149473750Y-99441000D01*
X148399500Y-99441000D01*
X148399500Y-99461000D01*
X148145500Y-99461000D01*
X148145500Y-99441000D01*
X147071250Y-99441000D01*
X146912500Y-99599750D01*
X146911134Y-99695000D01*
X138049000Y-99695000D01*
X138049000Y-98366000D01*
X140520928Y-98366000D01*
X140533188Y-98490482D01*
X140569498Y-98610180D01*
X140628463Y-98720494D01*
X140707815Y-98817185D01*
X140804506Y-98896537D01*
X140914820Y-98955502D01*
X141034518Y-98991812D01*
X141159000Y-99004072D01*
X141573250Y-99001000D01*
X141732000Y-98842250D01*
X141732000Y-97980500D01*
X140682750Y-97980500D01*
X140524000Y-98139250D01*
X140520928Y-98366000D01*
X138049000Y-98366000D01*
X138049000Y-94932000D01*
X140798753Y-94932000D01*
X140915424Y-95027750D01*
X140781038Y-95138038D01*
X140670595Y-95272613D01*
X140588528Y-95426149D01*
X140537992Y-95592745D01*
X140520928Y-95765999D01*
X140520928Y-96291001D01*
X140537992Y-96464255D01*
X140588528Y-96630851D01*
X140670595Y-96784387D01*
X140737276Y-96865637D01*
X140707815Y-96889815D01*
X140628463Y-96986506D01*
X140569498Y-97096820D01*
X140533188Y-97216518D01*
X140520928Y-97341000D01*
X140524000Y-97567750D01*
X140682750Y-97726500D01*
X141732000Y-97726500D01*
X141732000Y-97706500D01*
X141986000Y-97706500D01*
X141986000Y-97726500D01*
X142006000Y-97726500D01*
X142006000Y-97980500D01*
X141986000Y-97980500D01*
X141986000Y-98842250D01*
X142144750Y-99001000D01*
X142559000Y-99004072D01*
X142683482Y-98991812D01*
X142803180Y-98955502D01*
X142913494Y-98896537D01*
X143010185Y-98817185D01*
X143089537Y-98720494D01*
X143148502Y-98610180D01*
X143158140Y-98578408D01*
X143177963Y-98615494D01*
X143257315Y-98712185D01*
X143354006Y-98791537D01*
X143464320Y-98850502D01*
X143584018Y-98886812D01*
X143708500Y-98899072D01*
X143922750Y-98896000D01*
X144081500Y-98737250D01*
X144081500Y-97663000D01*
X144061500Y-97663000D01*
X144061500Y-97409000D01*
X144081500Y-97409000D01*
X144081500Y-96334750D01*
X143922750Y-96176000D01*
X143708500Y-96172928D01*
X143584018Y-96185188D01*
X143464320Y-96221498D01*
X143354006Y-96280463D01*
X143257315Y-96359815D01*
X143181154Y-96452618D01*
X143197072Y-96291001D01*
X143197072Y-95765999D01*
X143180008Y-95592745D01*
X143129472Y-95426149D01*
X143047405Y-95272613D01*
X142936962Y-95138038D01*
X142802576Y-95027750D01*
X142936962Y-94917462D01*
X143047405Y-94782887D01*
X143129472Y-94629351D01*
X143180008Y-94462755D01*
X143183973Y-94422500D01*
X144571546Y-94422500D01*
X144553188Y-94483018D01*
G37*
%TD.AperFunction*%
D31*
X166052500Y-87122000D02*
X166072500Y-87122000D01*
X166072500Y-87376000D01*
X166052500Y-87376000D01*
X166052500Y-88450250D01*
X166211250Y-88609000D01*
X166425500Y-88612072D01*
X166549982Y-88599812D01*
X166669680Y-88563502D01*
X166779994Y-88504537D01*
X166876685Y-88425185D01*
X166942158Y-88345406D01*
X166947538Y-88351962D01*
X167038547Y-88426651D01*
X164196408Y-91268790D01*
X163976260Y-91225000D01*
X163683740Y-91225000D01*
X163396842Y-91282068D01*
X163126589Y-91394010D01*
X162883368Y-91556525D01*
X162676525Y-91763368D01*
X162514010Y-92006589D01*
X162402068Y-92276842D01*
X162345000Y-92563740D01*
X162345000Y-92856260D01*
X162388791Y-93076408D01*
X159467699Y-95997500D01*
X158766356Y-95997500D01*
X158797898Y-95991226D01*
X158986256Y-95913205D01*
X159155774Y-95799937D01*
X159299937Y-95655774D01*
X159413205Y-95486256D01*
X159491226Y-95297898D01*
X159531000Y-95097939D01*
X159531000Y-94894061D01*
X159491226Y-94694102D01*
X159413205Y-94505744D01*
X159299937Y-94336226D01*
X159155774Y-94192063D01*
X158986256Y-94078795D01*
X158797898Y-94000774D01*
X158597939Y-93961000D01*
X158394061Y-93961000D01*
X158194102Y-94000774D01*
X158005744Y-94078795D01*
X157836226Y-94192063D01*
X157792289Y-94236000D01*
X155779148Y-94236000D01*
X155747405Y-94176613D01*
X155636962Y-94042038D01*
X155502387Y-93931595D01*
X155348851Y-93849528D01*
X155182255Y-93798992D01*
X155009001Y-93781928D01*
X154108999Y-93781928D01*
X153935745Y-93798992D01*
X153769149Y-93849528D01*
X153615613Y-93931595D01*
X153481038Y-94042038D01*
X153373970Y-94172500D01*
X152735454Y-94172500D01*
X152753812Y-94111982D01*
X152766072Y-93987500D01*
X152766072Y-93337500D01*
X152753812Y-93213018D01*
X152735454Y-93152500D01*
X160046178Y-93152500D01*
X160083500Y-93156176D01*
X160120822Y-93152500D01*
X160120833Y-93152500D01*
X160232486Y-93141503D01*
X160375747Y-93098046D01*
X160507776Y-93027474D01*
X160623501Y-92932501D01*
X160647304Y-92903497D01*
X163259621Y-90291181D01*
X163280063Y-90321774D01*
X163424226Y-90465937D01*
X163593744Y-90579205D01*
X163782102Y-90657226D01*
X163982061Y-90697000D01*
X164185939Y-90697000D01*
X164385898Y-90657226D01*
X164574256Y-90579205D01*
X164743774Y-90465937D01*
X164887937Y-90321774D01*
X165001205Y-90152256D01*
X165079226Y-89963898D01*
X165119000Y-89763939D01*
X165119000Y-89560061D01*
X165079226Y-89360102D01*
X165001205Y-89171744D01*
X164887937Y-89002226D01*
X164844000Y-88958289D01*
X164844000Y-88233150D01*
X164894963Y-88328494D01*
X164974315Y-88425185D01*
X165071006Y-88504537D01*
X165181320Y-88563502D01*
X165301018Y-88599812D01*
X165425500Y-88612072D01*
X165639750Y-88609000D01*
X165798500Y-88450250D01*
X165798500Y-87376000D01*
X165778500Y-87376000D01*
X165778500Y-87122000D01*
X165798500Y-87122000D01*
X165798500Y-87102000D01*
X166052500Y-87102000D01*
X166052500Y-87122000D01*
%TA.AperFunction,Conductor*%
D32*
G36*
X166052500Y-87122000D02*
G01*
X166072500Y-87122000D01*
X166072500Y-87376000D01*
X166052500Y-87376000D01*
X166052500Y-88450250D01*
X166211250Y-88609000D01*
X166425500Y-88612072D01*
X166549982Y-88599812D01*
X166669680Y-88563502D01*
X166779994Y-88504537D01*
X166876685Y-88425185D01*
X166942158Y-88345406D01*
X166947538Y-88351962D01*
X167038547Y-88426651D01*
X164196408Y-91268790D01*
X163976260Y-91225000D01*
X163683740Y-91225000D01*
X163396842Y-91282068D01*
X163126589Y-91394010D01*
X162883368Y-91556525D01*
X162676525Y-91763368D01*
X162514010Y-92006589D01*
X162402068Y-92276842D01*
X162345000Y-92563740D01*
X162345000Y-92856260D01*
X162388791Y-93076408D01*
X159467699Y-95997500D01*
X158766356Y-95997500D01*
X158797898Y-95991226D01*
X158986256Y-95913205D01*
X159155774Y-95799937D01*
X159299937Y-95655774D01*
X159413205Y-95486256D01*
X159491226Y-95297898D01*
X159531000Y-95097939D01*
X159531000Y-94894061D01*
X159491226Y-94694102D01*
X159413205Y-94505744D01*
X159299937Y-94336226D01*
X159155774Y-94192063D01*
X158986256Y-94078795D01*
X158797898Y-94000774D01*
X158597939Y-93961000D01*
X158394061Y-93961000D01*
X158194102Y-94000774D01*
X158005744Y-94078795D01*
X157836226Y-94192063D01*
X157792289Y-94236000D01*
X155779148Y-94236000D01*
X155747405Y-94176613D01*
X155636962Y-94042038D01*
X155502387Y-93931595D01*
X155348851Y-93849528D01*
X155182255Y-93798992D01*
X155009001Y-93781928D01*
X154108999Y-93781928D01*
X153935745Y-93798992D01*
X153769149Y-93849528D01*
X153615613Y-93931595D01*
X153481038Y-94042038D01*
X153373970Y-94172500D01*
X152735454Y-94172500D01*
X152753812Y-94111982D01*
X152766072Y-93987500D01*
X152766072Y-93337500D01*
X152753812Y-93213018D01*
X152735454Y-93152500D01*
X160046178Y-93152500D01*
X160083500Y-93156176D01*
X160120822Y-93152500D01*
X160120833Y-93152500D01*
X160232486Y-93141503D01*
X160375747Y-93098046D01*
X160507776Y-93027474D01*
X160623501Y-92932501D01*
X160647304Y-92903497D01*
X163259621Y-90291181D01*
X163280063Y-90321774D01*
X163424226Y-90465937D01*
X163593744Y-90579205D01*
X163782102Y-90657226D01*
X163982061Y-90697000D01*
X164185939Y-90697000D01*
X164385898Y-90657226D01*
X164574256Y-90579205D01*
X164743774Y-90465937D01*
X164887937Y-90321774D01*
X165001205Y-90152256D01*
X165079226Y-89963898D01*
X165119000Y-89763939D01*
X165119000Y-89560061D01*
X165079226Y-89360102D01*
X165001205Y-89171744D01*
X164887937Y-89002226D01*
X164844000Y-88958289D01*
X164844000Y-88233150D01*
X164894963Y-88328494D01*
X164974315Y-88425185D01*
X165071006Y-88504537D01*
X165181320Y-88563502D01*
X165301018Y-88599812D01*
X165425500Y-88612072D01*
X165639750Y-88609000D01*
X165798500Y-88450250D01*
X165798500Y-87376000D01*
X165778500Y-87376000D01*
X165778500Y-87122000D01*
X165798500Y-87122000D01*
X165798500Y-87102000D01*
X166052500Y-87102000D01*
X166052500Y-87122000D01*
G37*
%TD.AperFunction*%
D31*
X168594038Y-89075462D02*
X168728613Y-89185905D01*
X168882149Y-89267972D01*
X169048745Y-89318508D01*
X169221999Y-89335572D01*
X170122001Y-89335572D01*
X170295255Y-89318508D01*
X170461851Y-89267972D01*
X170615387Y-89185905D01*
X170688000Y-89126313D01*
X170760613Y-89185905D01*
X170914149Y-89267972D01*
X170944000Y-89277027D01*
X170944001Y-89378300D01*
X170847649Y-89407528D01*
X170694113Y-89489595D01*
X170559538Y-89600038D01*
X170449095Y-89734613D01*
X170367028Y-89888149D01*
X170316492Y-90054745D01*
X170299428Y-90227999D01*
X170299428Y-91128001D01*
X170316492Y-91301255D01*
X170367028Y-91467851D01*
X170449095Y-91621387D01*
X170559538Y-91755962D01*
X170694113Y-91866405D01*
X170847649Y-91948472D01*
X171014245Y-91999008D01*
X171187499Y-92016072D01*
X171712501Y-92016072D01*
X171885755Y-91999008D01*
X172052351Y-91948472D01*
X172205887Y-91866405D01*
X172340462Y-91755962D01*
X172362500Y-91729109D01*
X172384538Y-91755962D01*
X172519113Y-91866405D01*
X172672649Y-91948472D01*
X172839245Y-91999008D01*
X173012499Y-92016072D01*
X173537501Y-92016072D01*
X173710755Y-91999008D01*
X173877351Y-91948472D01*
X174030887Y-91866405D01*
X174165462Y-91755962D01*
X174228133Y-91679597D01*
X174396061Y-91713000D01*
X174599939Y-91713000D01*
X174799898Y-91673226D01*
X174935820Y-91616925D01*
X174950574Y-91691098D01*
X175028595Y-91879456D01*
X175101335Y-91988320D01*
X175002413Y-92041195D01*
X174867838Y-92151638D01*
X174757395Y-92286213D01*
X174675328Y-92439749D01*
X174624792Y-92606345D01*
X174607728Y-92779599D01*
X174607728Y-93304601D01*
X174624792Y-93477855D01*
X174675328Y-93644451D01*
X174757395Y-93797987D01*
X174802543Y-93853000D01*
X170323407Y-93853000D01*
X170349502Y-93804180D01*
X170385812Y-93684482D01*
X170398072Y-93560000D01*
X170395000Y-92995750D01*
X170236250Y-92837000D01*
X169037000Y-92837000D01*
X169037000Y-92857000D01*
X168783000Y-92857000D01*
X168783000Y-92837000D01*
X168763000Y-92837000D01*
X168763000Y-92583000D01*
X168783000Y-92583000D01*
X168783000Y-91383750D01*
X169037000Y-91383750D01*
X169037000Y-92583000D01*
X170236250Y-92583000D01*
X170395000Y-92424250D01*
X170398072Y-91860000D01*
X170385812Y-91735518D01*
X170349502Y-91615820D01*
X170290537Y-91505506D01*
X170211185Y-91408815D01*
X170114494Y-91329463D01*
X170004180Y-91270498D01*
X169884482Y-91234188D01*
X169760000Y-91221928D01*
X169195750Y-91225000D01*
X169037000Y-91383750D01*
X168783000Y-91383750D01*
X168624250Y-91225000D01*
X168060000Y-91221928D01*
X167935518Y-91234188D01*
X167815820Y-91270498D01*
X167705506Y-91329463D01*
X167608815Y-91408815D01*
X167529463Y-91505506D01*
X167470498Y-91615820D01*
X167448487Y-91688380D01*
X167316632Y-91556525D01*
X167073411Y-91394010D01*
X166803158Y-91282068D01*
X166516260Y-91225000D01*
X166389802Y-91225000D01*
X168336504Y-89278298D01*
X168365501Y-89254501D01*
X168460474Y-89138776D01*
X168531046Y-89006747D01*
X168532827Y-89000876D01*
X168594038Y-89075462D01*
%TA.AperFunction,Conductor*%
D32*
G36*
X168594038Y-89075462D02*
G01*
X168728613Y-89185905D01*
X168882149Y-89267972D01*
X169048745Y-89318508D01*
X169221999Y-89335572D01*
X170122001Y-89335572D01*
X170295255Y-89318508D01*
X170461851Y-89267972D01*
X170615387Y-89185905D01*
X170688000Y-89126313D01*
X170760613Y-89185905D01*
X170914149Y-89267972D01*
X170944000Y-89277027D01*
X170944001Y-89378300D01*
X170847649Y-89407528D01*
X170694113Y-89489595D01*
X170559538Y-89600038D01*
X170449095Y-89734613D01*
X170367028Y-89888149D01*
X170316492Y-90054745D01*
X170299428Y-90227999D01*
X170299428Y-91128001D01*
X170316492Y-91301255D01*
X170367028Y-91467851D01*
X170449095Y-91621387D01*
X170559538Y-91755962D01*
X170694113Y-91866405D01*
X170847649Y-91948472D01*
X171014245Y-91999008D01*
X171187499Y-92016072D01*
X171712501Y-92016072D01*
X171885755Y-91999008D01*
X172052351Y-91948472D01*
X172205887Y-91866405D01*
X172340462Y-91755962D01*
X172362500Y-91729109D01*
X172384538Y-91755962D01*
X172519113Y-91866405D01*
X172672649Y-91948472D01*
X172839245Y-91999008D01*
X173012499Y-92016072D01*
X173537501Y-92016072D01*
X173710755Y-91999008D01*
X173877351Y-91948472D01*
X174030887Y-91866405D01*
X174165462Y-91755962D01*
X174228133Y-91679597D01*
X174396061Y-91713000D01*
X174599939Y-91713000D01*
X174799898Y-91673226D01*
X174935820Y-91616925D01*
X174950574Y-91691098D01*
X175028595Y-91879456D01*
X175101335Y-91988320D01*
X175002413Y-92041195D01*
X174867838Y-92151638D01*
X174757395Y-92286213D01*
X174675328Y-92439749D01*
X174624792Y-92606345D01*
X174607728Y-92779599D01*
X174607728Y-93304601D01*
X174624792Y-93477855D01*
X174675328Y-93644451D01*
X174757395Y-93797987D01*
X174802543Y-93853000D01*
X170323407Y-93853000D01*
X170349502Y-93804180D01*
X170385812Y-93684482D01*
X170398072Y-93560000D01*
X170395000Y-92995750D01*
X170236250Y-92837000D01*
X169037000Y-92837000D01*
X169037000Y-92857000D01*
X168783000Y-92857000D01*
X168783000Y-92837000D01*
X168763000Y-92837000D01*
X168763000Y-92583000D01*
X168783000Y-92583000D01*
X168783000Y-91383750D01*
X169037000Y-91383750D01*
X169037000Y-92583000D01*
X170236250Y-92583000D01*
X170395000Y-92424250D01*
X170398072Y-91860000D01*
X170385812Y-91735518D01*
X170349502Y-91615820D01*
X170290537Y-91505506D01*
X170211185Y-91408815D01*
X170114494Y-91329463D01*
X170004180Y-91270498D01*
X169884482Y-91234188D01*
X169760000Y-91221928D01*
X169195750Y-91225000D01*
X169037000Y-91383750D01*
X168783000Y-91383750D01*
X168624250Y-91225000D01*
X168060000Y-91221928D01*
X167935518Y-91234188D01*
X167815820Y-91270498D01*
X167705506Y-91329463D01*
X167608815Y-91408815D01*
X167529463Y-91505506D01*
X167470498Y-91615820D01*
X167448487Y-91688380D01*
X167316632Y-91556525D01*
X167073411Y-91394010D01*
X166803158Y-91282068D01*
X166516260Y-91225000D01*
X166389802Y-91225000D01*
X168336504Y-89278298D01*
X168365501Y-89254501D01*
X168460474Y-89138776D01*
X168531046Y-89006747D01*
X168532827Y-89000876D01*
X168594038Y-89075462D01*
G37*
%TD.AperFunction*%
D31*
X147068000Y-89722802D02*
X147068000Y-90274764D01*
X147058494Y-90266963D01*
X146948180Y-90207998D01*
X146828482Y-90171688D01*
X146704000Y-90159428D01*
X146227250Y-90162500D01*
X146068500Y-90321250D01*
X146068500Y-90995500D01*
X146088500Y-90995500D01*
X146088500Y-91249500D01*
X146068500Y-91249500D01*
X146068500Y-91269500D01*
X145814500Y-91269500D01*
X145814500Y-91249500D01*
X144702750Y-91249500D01*
X144544000Y-91408250D01*
X144541358Y-91442000D01*
X143044030Y-91442000D01*
X142936962Y-91311538D01*
X142802387Y-91201095D01*
X142648851Y-91119028D01*
X142619000Y-91109973D01*
X142619000Y-91008027D01*
X142648851Y-90998972D01*
X142802387Y-90916905D01*
X142936962Y-90806462D01*
X142944316Y-90797500D01*
X144540928Y-90797500D01*
X144544000Y-90836750D01*
X144702750Y-90995500D01*
X145814500Y-90995500D01*
X145814500Y-90321250D01*
X145655750Y-90162500D01*
X145179000Y-90159428D01*
X145054518Y-90171688D01*
X144934820Y-90207998D01*
X144824506Y-90266963D01*
X144727815Y-90346315D01*
X144648463Y-90443006D01*
X144589498Y-90553320D01*
X144553188Y-90673018D01*
X144540928Y-90797500D01*
X142944316Y-90797500D01*
X143047405Y-90671887D01*
X143129472Y-90518351D01*
X143180008Y-90351755D01*
X143197072Y-90178501D01*
X143197072Y-89653499D01*
X143180008Y-89480245D01*
X143129472Y-89313649D01*
X143047405Y-89160113D01*
X142936962Y-89025538D01*
X142910109Y-89003500D01*
X142936962Y-88981462D01*
X143044030Y-88851000D01*
X146196199Y-88851000D01*
X147068000Y-89722802D01*
%TA.AperFunction,Conductor*%
D32*
G36*
X147068000Y-89722802D02*
G01*
X147068000Y-90274764D01*
X147058494Y-90266963D01*
X146948180Y-90207998D01*
X146828482Y-90171688D01*
X146704000Y-90159428D01*
X146227250Y-90162500D01*
X146068500Y-90321250D01*
X146068500Y-90995500D01*
X146088500Y-90995500D01*
X146088500Y-91249500D01*
X146068500Y-91249500D01*
X146068500Y-91269500D01*
X145814500Y-91269500D01*
X145814500Y-91249500D01*
X144702750Y-91249500D01*
X144544000Y-91408250D01*
X144541358Y-91442000D01*
X143044030Y-91442000D01*
X142936962Y-91311538D01*
X142802387Y-91201095D01*
X142648851Y-91119028D01*
X142619000Y-91109973D01*
X142619000Y-91008027D01*
X142648851Y-90998972D01*
X142802387Y-90916905D01*
X142936962Y-90806462D01*
X142944316Y-90797500D01*
X144540928Y-90797500D01*
X144544000Y-90836750D01*
X144702750Y-90995500D01*
X145814500Y-90995500D01*
X145814500Y-90321250D01*
X145655750Y-90162500D01*
X145179000Y-90159428D01*
X145054518Y-90171688D01*
X144934820Y-90207998D01*
X144824506Y-90266963D01*
X144727815Y-90346315D01*
X144648463Y-90443006D01*
X144589498Y-90553320D01*
X144553188Y-90673018D01*
X144540928Y-90797500D01*
X142944316Y-90797500D01*
X143047405Y-90671887D01*
X143129472Y-90518351D01*
X143180008Y-90351755D01*
X143197072Y-90178501D01*
X143197072Y-89653499D01*
X143180008Y-89480245D01*
X143129472Y-89313649D01*
X143047405Y-89160113D01*
X142936962Y-89025538D01*
X142910109Y-89003500D01*
X142936962Y-88981462D01*
X143044030Y-88851000D01*
X146196199Y-88851000D01*
X147068000Y-89722802D01*
G37*
%TD.AperFunction*%
D31*
X155160595Y-69326114D02*
X155078528Y-69479650D01*
X155075049Y-69491119D01*
X154969624Y-69420676D01*
X154763067Y-69335117D01*
X154543788Y-69291500D01*
X154320212Y-69291500D01*
X154100933Y-69335117D01*
X153894376Y-69420676D01*
X153708480Y-69544888D01*
X153574285Y-69679083D01*
X153436253Y-69720954D01*
X153304224Y-69791526D01*
X153188499Y-69886499D01*
X153164696Y-69915503D01*
X152777998Y-70302201D01*
X152749000Y-70325999D01*
X152725202Y-70354997D01*
X152725201Y-70354998D01*
X152654026Y-70441724D01*
X152583454Y-70573754D01*
X152561183Y-70647174D01*
X152539998Y-70717014D01*
X152535021Y-70767542D01*
X152525324Y-70866000D01*
X152529001Y-70903332D01*
X152529000Y-72987677D01*
X152525324Y-73025000D01*
X152529000Y-73062322D01*
X152529000Y-73062332D01*
X152539997Y-73173985D01*
X152580960Y-73309025D01*
X152583454Y-73317246D01*
X152654026Y-73449276D01*
X152687221Y-73489724D01*
X152748999Y-73565001D01*
X152778003Y-73588804D01*
X154952127Y-75762928D01*
X154338000Y-75762928D01*
X154164746Y-75779992D01*
X153998150Y-75830528D01*
X153844614Y-75912595D01*
X153710038Y-76023038D01*
X153599595Y-76157614D01*
X153517528Y-76311150D01*
X153466992Y-76477746D01*
X153449928Y-76651000D01*
X153449928Y-76710000D01*
X151525909Y-76710000D01*
X151443799Y-76587114D01*
X151250886Y-76394201D01*
X151024043Y-76242629D01*
X150771989Y-76138225D01*
X150504411Y-76085000D01*
X150231589Y-76085000D01*
X149964011Y-76138225D01*
X149711957Y-76242629D01*
X149485114Y-76394201D01*
X149292201Y-76587114D01*
X149140629Y-76813957D01*
X149036225Y-77066011D01*
X148983000Y-77333589D01*
X148983000Y-77606411D01*
X149036225Y-77873989D01*
X149140629Y-78126043D01*
X149292201Y-78352886D01*
X149485114Y-78545799D01*
X149711957Y-78697371D01*
X149964011Y-78801775D01*
X150231589Y-78855000D01*
X150504411Y-78855000D01*
X150771989Y-78801775D01*
X151024043Y-78697371D01*
X151250886Y-78545799D01*
X151443799Y-78352886D01*
X151525909Y-78230000D01*
X153456921Y-78230000D01*
X153449928Y-78301000D01*
X153453000Y-78515250D01*
X153611750Y-78674000D01*
X154686000Y-78674000D01*
X154686000Y-78654000D01*
X154940000Y-78654000D01*
X154940000Y-78674000D01*
X156014250Y-78674000D01*
X156173000Y-78515250D01*
X156176072Y-78301000D01*
X156163812Y-78176518D01*
X156127502Y-78056820D01*
X156068537Y-77946506D01*
X155989185Y-77849815D01*
X155909406Y-77784342D01*
X155915962Y-77778962D01*
X155932279Y-77759080D01*
X157992698Y-79819500D01*
X156215199Y-81597000D01*
X156012770Y-81597000D01*
X155915962Y-81479038D01*
X155909406Y-81473658D01*
X155989185Y-81408185D01*
X156068537Y-81311494D01*
X156127502Y-81201180D01*
X156163812Y-81081482D01*
X156176072Y-80957000D01*
X156173000Y-80742750D01*
X156014250Y-80584000D01*
X154940000Y-80584000D01*
X154940000Y-80604000D01*
X154686000Y-80604000D01*
X154686000Y-80584000D01*
X153611750Y-80584000D01*
X153453000Y-80742750D01*
X153449928Y-80957000D01*
X153462188Y-81081482D01*
X153498498Y-81201180D01*
X153557463Y-81311494D01*
X153636815Y-81408185D01*
X153716594Y-81473658D01*
X153710038Y-81479038D01*
X153618974Y-81590000D01*
X151525909Y-81590000D01*
X151443799Y-81467114D01*
X151250886Y-81274201D01*
X151024043Y-81122629D01*
X150771989Y-81018225D01*
X150504411Y-80965000D01*
X150231589Y-80965000D01*
X149964011Y-81018225D01*
X149711957Y-81122629D01*
X149485114Y-81274201D01*
X149292201Y-81467114D01*
X149140629Y-81693957D01*
X149036225Y-81946011D01*
X148983000Y-82213589D01*
X148983000Y-82486411D01*
X149036225Y-82753989D01*
X149140629Y-83006043D01*
X149292201Y-83232886D01*
X149485114Y-83425799D01*
X149711957Y-83577371D01*
X149964011Y-83681775D01*
X150231589Y-83735000D01*
X150504411Y-83735000D01*
X150771989Y-83681775D01*
X151024043Y-83577371D01*
X151250886Y-83425799D01*
X151443799Y-83232886D01*
X151525909Y-83110000D01*
X153607485Y-83110000D01*
X153710038Y-83234962D01*
X153844614Y-83345405D01*
X153998150Y-83427472D01*
X154164746Y-83478008D01*
X154338000Y-83495072D01*
X155288000Y-83495072D01*
X155461254Y-83478008D01*
X155627850Y-83427472D01*
X155781386Y-83345405D01*
X155915962Y-83234962D01*
X156012770Y-83117000D01*
X156492678Y-83117000D01*
X156530000Y-83120676D01*
X156567322Y-83117000D01*
X156567333Y-83117000D01*
X156678986Y-83106003D01*
X156822247Y-83062546D01*
X156954276Y-82991974D01*
X157070001Y-82897001D01*
X157093804Y-82867998D01*
X159187803Y-80774000D01*
X159571349Y-80774000D01*
X159565000Y-80832250D01*
X159640982Y-80908232D01*
X159682102Y-80985162D01*
X159705769Y-81014000D01*
X159682102Y-81042838D01*
X159640982Y-81119768D01*
X159565000Y-81195750D01*
X159576132Y-81297883D01*
X159576186Y-81298051D01*
X159575629Y-81299887D01*
X159561928Y-81439000D01*
X159561928Y-81589000D01*
X159575629Y-81728113D01*
X159586515Y-81764000D01*
X159575629Y-81799887D01*
X159561928Y-81939000D01*
X159561928Y-82089000D01*
X159575629Y-82228113D01*
X159583482Y-82254000D01*
X158069333Y-82254000D01*
X158032000Y-82250323D01*
X157994667Y-82254000D01*
X157883014Y-82264997D01*
X157739753Y-82308454D01*
X157607724Y-82379026D01*
X157491999Y-82473999D01*
X157468201Y-82502997D01*
X156207003Y-83764196D01*
X156177999Y-83787999D01*
X156125474Y-83852001D01*
X156083026Y-83903724D01*
X156021460Y-84018905D01*
X156012454Y-84035754D01*
X155968997Y-84179015D01*
X155958000Y-84290668D01*
X155958000Y-84290678D01*
X155954324Y-84328000D01*
X155958000Y-84365323D01*
X155958001Y-90109197D01*
X155726301Y-90340898D01*
X155636962Y-90232038D01*
X155610109Y-90210000D01*
X155636962Y-90187962D01*
X155747405Y-90053387D01*
X155829472Y-89899851D01*
X155880008Y-89733255D01*
X155897072Y-89560001D01*
X155897072Y-89034999D01*
X155880008Y-88861745D01*
X155829472Y-88695149D01*
X155747405Y-88541613D01*
X155636962Y-88407038D01*
X155502387Y-88296595D01*
X155348851Y-88214528D01*
X155182255Y-88163992D01*
X155009001Y-88146928D01*
X154108999Y-88146928D01*
X153935745Y-88163992D01*
X153769149Y-88214528D01*
X153615613Y-88296595D01*
X153574300Y-88330500D01*
X152269027Y-88330500D01*
X152259972Y-88300649D01*
X152177905Y-88147113D01*
X152067462Y-88012538D01*
X151937000Y-87905470D01*
X151937000Y-87841322D01*
X151940676Y-87803999D01*
X151937000Y-87766676D01*
X151937000Y-87766667D01*
X151926003Y-87655014D01*
X151882546Y-87511753D01*
X151811974Y-87379724D01*
X151717001Y-87263999D01*
X151688002Y-87240200D01*
X151236603Y-86788802D01*
X151212801Y-86759799D01*
X151097076Y-86664826D01*
X150965047Y-86594254D01*
X150821786Y-86550797D01*
X150710133Y-86539800D01*
X150710122Y-86539800D01*
X150672800Y-86536124D01*
X150635478Y-86539800D01*
X142687525Y-86539800D01*
X142650200Y-86536124D01*
X142612875Y-86539800D01*
X142612867Y-86539800D01*
X142501214Y-86550797D01*
X142357953Y-86594254D01*
X142225924Y-86664826D01*
X142110199Y-86759799D01*
X142086401Y-86788798D01*
X141934770Y-86940428D01*
X141408999Y-86940428D01*
X141235745Y-86957492D01*
X141069149Y-87008028D01*
X140915613Y-87090095D01*
X140781038Y-87200538D01*
X140670595Y-87335113D01*
X140588528Y-87488649D01*
X140537992Y-87655245D01*
X140520928Y-87828499D01*
X140520928Y-88353501D01*
X140537992Y-88526755D01*
X140588528Y-88693351D01*
X140670595Y-88846887D01*
X140781038Y-88981462D01*
X140807891Y-89003500D01*
X140781038Y-89025538D01*
X140670595Y-89160113D01*
X140588528Y-89313649D01*
X140537992Y-89480245D01*
X140520928Y-89653499D01*
X140520928Y-90178501D01*
X140537992Y-90351755D01*
X140588528Y-90518351D01*
X140670595Y-90671887D01*
X140781038Y-90806462D01*
X140915613Y-90916905D01*
X141069149Y-90998972D01*
X141099000Y-91008027D01*
X141099001Y-91109973D01*
X141069149Y-91119028D01*
X140915613Y-91201095D01*
X140798753Y-91297000D01*
X138049000Y-91297000D01*
X138049000Y-84162000D01*
X139989928Y-84162000D01*
X140002188Y-84286482D01*
X140038498Y-84406180D01*
X140097463Y-84516494D01*
X140176815Y-84613185D01*
X140273506Y-84692537D01*
X140383820Y-84751502D01*
X140503518Y-84787812D01*
X140628000Y-84800072D01*
X141192250Y-84797000D01*
X141351000Y-84638250D01*
X141351000Y-83439000D01*
X140151750Y-83439000D01*
X139993000Y-83597750D01*
X139989928Y-84162000D01*
X138049000Y-84162000D01*
X138049000Y-82462000D01*
X139989928Y-82462000D01*
X139993000Y-83026250D01*
X140151750Y-83185000D01*
X141351000Y-83185000D01*
X141351000Y-80899000D01*
X140157845Y-80899000D01*
X140036524Y-81128890D01*
X140081175Y-81276099D01*
X140206359Y-81538920D01*
X140380412Y-81772269D01*
X140464466Y-81848034D01*
X140383820Y-81872498D01*
X140273506Y-81931463D01*
X140176815Y-82010815D01*
X140097463Y-82107506D01*
X140038498Y-82217820D01*
X140002188Y-82337518D01*
X139989928Y-82462000D01*
X138049000Y-82462000D01*
X138049000Y-78588890D01*
X140036524Y-78588890D01*
X140081175Y-78736099D01*
X140206359Y-78998920D01*
X140380412Y-79232269D01*
X140596645Y-79427178D01*
X140722255Y-79502000D01*
X140596645Y-79576822D01*
X140380412Y-79771731D01*
X140206359Y-80005080D01*
X140081175Y-80267901D01*
X140036524Y-80415110D01*
X140157845Y-80645000D01*
X141351000Y-80645000D01*
X141351000Y-78359000D01*
X140157845Y-78359000D01*
X140036524Y-78588890D01*
X138049000Y-78588890D01*
X138049000Y-76048890D01*
X140036524Y-76048890D01*
X140081175Y-76196099D01*
X140206359Y-76458920D01*
X140380412Y-76692269D01*
X140596645Y-76887178D01*
X140722255Y-76962000D01*
X140596645Y-77036822D01*
X140380412Y-77231731D01*
X140206359Y-77465080D01*
X140081175Y-77727901D01*
X140036524Y-77875110D01*
X140157845Y-78105000D01*
X141351000Y-78105000D01*
X141351000Y-75819000D01*
X140157845Y-75819000D01*
X140036524Y-76048890D01*
X138049000Y-76048890D01*
X138049000Y-75335110D01*
X140036524Y-75335110D01*
X140157845Y-75565000D01*
X141351000Y-75565000D01*
X141351000Y-74371186D01*
X141605000Y-74371186D01*
X141605000Y-75565000D01*
X141625000Y-75565000D01*
X141625000Y-75819000D01*
X141605000Y-75819000D01*
X141605000Y-78105000D01*
X141625000Y-78105000D01*
X141625000Y-78359000D01*
X141605000Y-78359000D01*
X141605000Y-80645000D01*
X141625000Y-80645000D01*
X141625000Y-80899000D01*
X141605000Y-80899000D01*
X141605000Y-83185000D01*
X141625000Y-83185000D01*
X141625000Y-83439000D01*
X141605000Y-83439000D01*
X141605000Y-84638250D01*
X141763750Y-84797000D01*
X142328000Y-84800072D01*
X142452482Y-84787812D01*
X142572180Y-84751502D01*
X142682494Y-84692537D01*
X142779185Y-84613185D01*
X142858537Y-84516494D01*
X142917502Y-84406180D01*
X142939513Y-84333620D01*
X143071368Y-84465475D01*
X143314589Y-84627990D01*
X143584842Y-84739932D01*
X143871740Y-84797000D01*
X144164260Y-84797000D01*
X144451158Y-84739932D01*
X144721411Y-84627990D01*
X144964632Y-84465475D01*
X145171475Y-84258632D01*
X145333990Y-84015411D01*
X145445932Y-83745158D01*
X145503000Y-83458260D01*
X145503000Y-83165740D01*
X145445932Y-82878842D01*
X145333990Y-82608589D01*
X145171475Y-82365368D01*
X144964632Y-82158525D01*
X144790240Y-82042000D01*
X144964632Y-81925475D01*
X145171475Y-81718632D01*
X145333990Y-81475411D01*
X145445932Y-81205158D01*
X145503000Y-80918260D01*
X145503000Y-80625740D01*
X145445932Y-80338842D01*
X145333990Y-80068589D01*
X145171475Y-79825368D01*
X144964632Y-79618525D01*
X144790240Y-79502000D01*
X144964632Y-79385475D01*
X145049107Y-79301000D01*
X153449928Y-79301000D01*
X153462188Y-79425482D01*
X153498498Y-79545180D01*
X153543301Y-79629000D01*
X153498498Y-79712820D01*
X153462188Y-79832518D01*
X153449928Y-79957000D01*
X153453000Y-80171250D01*
X153611750Y-80330000D01*
X154686000Y-80330000D01*
X154686000Y-78928000D01*
X154940000Y-78928000D01*
X154940000Y-80330000D01*
X156014250Y-80330000D01*
X156173000Y-80171250D01*
X156176072Y-79957000D01*
X156163812Y-79832518D01*
X156127502Y-79712820D01*
X156082699Y-79629000D01*
X156127502Y-79545180D01*
X156163812Y-79425482D01*
X156176072Y-79301000D01*
X156173000Y-79086750D01*
X156014250Y-78928000D01*
X154940000Y-78928000D01*
X154686000Y-78928000D01*
X153611750Y-78928000D01*
X153453000Y-79086750D01*
X153449928Y-79301000D01*
X145049107Y-79301000D01*
X145171475Y-79178632D01*
X145333990Y-78935411D01*
X145445932Y-78665158D01*
X145503000Y-78378260D01*
X145503000Y-78085740D01*
X145445932Y-77798842D01*
X145333990Y-77528589D01*
X145171475Y-77285368D01*
X144964632Y-77078525D01*
X144790240Y-76962000D01*
X144964632Y-76845475D01*
X145171475Y-76638632D01*
X145333990Y-76395411D01*
X145445932Y-76125158D01*
X145503000Y-75838260D01*
X145503000Y-75545740D01*
X145445932Y-75258842D01*
X145333990Y-74988589D01*
X145171475Y-74745368D01*
X144964632Y-74538525D01*
X144721411Y-74376010D01*
X144451158Y-74264068D01*
X144164260Y-74207000D01*
X143871740Y-74207000D01*
X143584842Y-74264068D01*
X143314589Y-74376010D01*
X143071368Y-74538525D01*
X142864525Y-74745368D01*
X142746900Y-74921406D01*
X142575588Y-74691731D01*
X142359355Y-74496822D01*
X142109252Y-74347843D01*
X141834891Y-74250519D01*
X141605000Y-74371186D01*
X141351000Y-74371186D01*
X141121109Y-74250519D01*
X140846748Y-74347843D01*
X140596645Y-74496822D01*
X140380412Y-74691731D01*
X140206359Y-74925080D01*
X140081175Y-75187901D01*
X140036524Y-75335110D01*
X138049000Y-75335110D01*
X138049000Y-69240000D01*
X155231267Y-69240000D01*
X155160595Y-69326114D01*
%TA.AperFunction,Conductor*%
D32*
G36*
X155160595Y-69326114D02*
G01*
X155078528Y-69479650D01*
X155075049Y-69491119D01*
X154969624Y-69420676D01*
X154763067Y-69335117D01*
X154543788Y-69291500D01*
X154320212Y-69291500D01*
X154100933Y-69335117D01*
X153894376Y-69420676D01*
X153708480Y-69544888D01*
X153574285Y-69679083D01*
X153436253Y-69720954D01*
X153304224Y-69791526D01*
X153188499Y-69886499D01*
X153164696Y-69915503D01*
X152777998Y-70302201D01*
X152749000Y-70325999D01*
X152725202Y-70354997D01*
X152725201Y-70354998D01*
X152654026Y-70441724D01*
X152583454Y-70573754D01*
X152561183Y-70647174D01*
X152539998Y-70717014D01*
X152535021Y-70767542D01*
X152525324Y-70866000D01*
X152529001Y-70903332D01*
X152529000Y-72987677D01*
X152525324Y-73025000D01*
X152529000Y-73062322D01*
X152529000Y-73062332D01*
X152539997Y-73173985D01*
X152580960Y-73309025D01*
X152583454Y-73317246D01*
X152654026Y-73449276D01*
X152687221Y-73489724D01*
X152748999Y-73565001D01*
X152778003Y-73588804D01*
X154952127Y-75762928D01*
X154338000Y-75762928D01*
X154164746Y-75779992D01*
X153998150Y-75830528D01*
X153844614Y-75912595D01*
X153710038Y-76023038D01*
X153599595Y-76157614D01*
X153517528Y-76311150D01*
X153466992Y-76477746D01*
X153449928Y-76651000D01*
X153449928Y-76710000D01*
X151525909Y-76710000D01*
X151443799Y-76587114D01*
X151250886Y-76394201D01*
X151024043Y-76242629D01*
X150771989Y-76138225D01*
X150504411Y-76085000D01*
X150231589Y-76085000D01*
X149964011Y-76138225D01*
X149711957Y-76242629D01*
X149485114Y-76394201D01*
X149292201Y-76587114D01*
X149140629Y-76813957D01*
X149036225Y-77066011D01*
X148983000Y-77333589D01*
X148983000Y-77606411D01*
X149036225Y-77873989D01*
X149140629Y-78126043D01*
X149292201Y-78352886D01*
X149485114Y-78545799D01*
X149711957Y-78697371D01*
X149964011Y-78801775D01*
X150231589Y-78855000D01*
X150504411Y-78855000D01*
X150771989Y-78801775D01*
X151024043Y-78697371D01*
X151250886Y-78545799D01*
X151443799Y-78352886D01*
X151525909Y-78230000D01*
X153456921Y-78230000D01*
X153449928Y-78301000D01*
X153453000Y-78515250D01*
X153611750Y-78674000D01*
X154686000Y-78674000D01*
X154686000Y-78654000D01*
X154940000Y-78654000D01*
X154940000Y-78674000D01*
X156014250Y-78674000D01*
X156173000Y-78515250D01*
X156176072Y-78301000D01*
X156163812Y-78176518D01*
X156127502Y-78056820D01*
X156068537Y-77946506D01*
X155989185Y-77849815D01*
X155909406Y-77784342D01*
X155915962Y-77778962D01*
X155932279Y-77759080D01*
X157992698Y-79819500D01*
X156215199Y-81597000D01*
X156012770Y-81597000D01*
X155915962Y-81479038D01*
X155909406Y-81473658D01*
X155989185Y-81408185D01*
X156068537Y-81311494D01*
X156127502Y-81201180D01*
X156163812Y-81081482D01*
X156176072Y-80957000D01*
X156173000Y-80742750D01*
X156014250Y-80584000D01*
X154940000Y-80584000D01*
X154940000Y-80604000D01*
X154686000Y-80604000D01*
X154686000Y-80584000D01*
X153611750Y-80584000D01*
X153453000Y-80742750D01*
X153449928Y-80957000D01*
X153462188Y-81081482D01*
X153498498Y-81201180D01*
X153557463Y-81311494D01*
X153636815Y-81408185D01*
X153716594Y-81473658D01*
X153710038Y-81479038D01*
X153618974Y-81590000D01*
X151525909Y-81590000D01*
X151443799Y-81467114D01*
X151250886Y-81274201D01*
X151024043Y-81122629D01*
X150771989Y-81018225D01*
X150504411Y-80965000D01*
X150231589Y-80965000D01*
X149964011Y-81018225D01*
X149711957Y-81122629D01*
X149485114Y-81274201D01*
X149292201Y-81467114D01*
X149140629Y-81693957D01*
X149036225Y-81946011D01*
X148983000Y-82213589D01*
X148983000Y-82486411D01*
X149036225Y-82753989D01*
X149140629Y-83006043D01*
X149292201Y-83232886D01*
X149485114Y-83425799D01*
X149711957Y-83577371D01*
X149964011Y-83681775D01*
X150231589Y-83735000D01*
X150504411Y-83735000D01*
X150771989Y-83681775D01*
X151024043Y-83577371D01*
X151250886Y-83425799D01*
X151443799Y-83232886D01*
X151525909Y-83110000D01*
X153607485Y-83110000D01*
X153710038Y-83234962D01*
X153844614Y-83345405D01*
X153998150Y-83427472D01*
X154164746Y-83478008D01*
X154338000Y-83495072D01*
X155288000Y-83495072D01*
X155461254Y-83478008D01*
X155627850Y-83427472D01*
X155781386Y-83345405D01*
X155915962Y-83234962D01*
X156012770Y-83117000D01*
X156492678Y-83117000D01*
X156530000Y-83120676D01*
X156567322Y-83117000D01*
X156567333Y-83117000D01*
X156678986Y-83106003D01*
X156822247Y-83062546D01*
X156954276Y-82991974D01*
X157070001Y-82897001D01*
X157093804Y-82867998D01*
X159187803Y-80774000D01*
X159571349Y-80774000D01*
X159565000Y-80832250D01*
X159640982Y-80908232D01*
X159682102Y-80985162D01*
X159705769Y-81014000D01*
X159682102Y-81042838D01*
X159640982Y-81119768D01*
X159565000Y-81195750D01*
X159576132Y-81297883D01*
X159576186Y-81298051D01*
X159575629Y-81299887D01*
X159561928Y-81439000D01*
X159561928Y-81589000D01*
X159575629Y-81728113D01*
X159586515Y-81764000D01*
X159575629Y-81799887D01*
X159561928Y-81939000D01*
X159561928Y-82089000D01*
X159575629Y-82228113D01*
X159583482Y-82254000D01*
X158069333Y-82254000D01*
X158032000Y-82250323D01*
X157994667Y-82254000D01*
X157883014Y-82264997D01*
X157739753Y-82308454D01*
X157607724Y-82379026D01*
X157491999Y-82473999D01*
X157468201Y-82502997D01*
X156207003Y-83764196D01*
X156177999Y-83787999D01*
X156125474Y-83852001D01*
X156083026Y-83903724D01*
X156021460Y-84018905D01*
X156012454Y-84035754D01*
X155968997Y-84179015D01*
X155958000Y-84290668D01*
X155958000Y-84290678D01*
X155954324Y-84328000D01*
X155958000Y-84365323D01*
X155958001Y-90109197D01*
X155726301Y-90340898D01*
X155636962Y-90232038D01*
X155610109Y-90210000D01*
X155636962Y-90187962D01*
X155747405Y-90053387D01*
X155829472Y-89899851D01*
X155880008Y-89733255D01*
X155897072Y-89560001D01*
X155897072Y-89034999D01*
X155880008Y-88861745D01*
X155829472Y-88695149D01*
X155747405Y-88541613D01*
X155636962Y-88407038D01*
X155502387Y-88296595D01*
X155348851Y-88214528D01*
X155182255Y-88163992D01*
X155009001Y-88146928D01*
X154108999Y-88146928D01*
X153935745Y-88163992D01*
X153769149Y-88214528D01*
X153615613Y-88296595D01*
X153574300Y-88330500D01*
X152269027Y-88330500D01*
X152259972Y-88300649D01*
X152177905Y-88147113D01*
X152067462Y-88012538D01*
X151937000Y-87905470D01*
X151937000Y-87841322D01*
X151940676Y-87803999D01*
X151937000Y-87766676D01*
X151937000Y-87766667D01*
X151926003Y-87655014D01*
X151882546Y-87511753D01*
X151811974Y-87379724D01*
X151717001Y-87263999D01*
X151688002Y-87240200D01*
X151236603Y-86788802D01*
X151212801Y-86759799D01*
X151097076Y-86664826D01*
X150965047Y-86594254D01*
X150821786Y-86550797D01*
X150710133Y-86539800D01*
X150710122Y-86539800D01*
X150672800Y-86536124D01*
X150635478Y-86539800D01*
X142687525Y-86539800D01*
X142650200Y-86536124D01*
X142612875Y-86539800D01*
X142612867Y-86539800D01*
X142501214Y-86550797D01*
X142357953Y-86594254D01*
X142225924Y-86664826D01*
X142110199Y-86759799D01*
X142086401Y-86788798D01*
X141934770Y-86940428D01*
X141408999Y-86940428D01*
X141235745Y-86957492D01*
X141069149Y-87008028D01*
X140915613Y-87090095D01*
X140781038Y-87200538D01*
X140670595Y-87335113D01*
X140588528Y-87488649D01*
X140537992Y-87655245D01*
X140520928Y-87828499D01*
X140520928Y-88353501D01*
X140537992Y-88526755D01*
X140588528Y-88693351D01*
X140670595Y-88846887D01*
X140781038Y-88981462D01*
X140807891Y-89003500D01*
X140781038Y-89025538D01*
X140670595Y-89160113D01*
X140588528Y-89313649D01*
X140537992Y-89480245D01*
X140520928Y-89653499D01*
X140520928Y-90178501D01*
X140537992Y-90351755D01*
X140588528Y-90518351D01*
X140670595Y-90671887D01*
X140781038Y-90806462D01*
X140915613Y-90916905D01*
X141069149Y-90998972D01*
X141099000Y-91008027D01*
X141099001Y-91109973D01*
X141069149Y-91119028D01*
X140915613Y-91201095D01*
X140798753Y-91297000D01*
X138049000Y-91297000D01*
X138049000Y-84162000D01*
X139989928Y-84162000D01*
X140002188Y-84286482D01*
X140038498Y-84406180D01*
X140097463Y-84516494D01*
X140176815Y-84613185D01*
X140273506Y-84692537D01*
X140383820Y-84751502D01*
X140503518Y-84787812D01*
X140628000Y-84800072D01*
X141192250Y-84797000D01*
X141351000Y-84638250D01*
X141351000Y-83439000D01*
X140151750Y-83439000D01*
X139993000Y-83597750D01*
X139989928Y-84162000D01*
X138049000Y-84162000D01*
X138049000Y-82462000D01*
X139989928Y-82462000D01*
X139993000Y-83026250D01*
X140151750Y-83185000D01*
X141351000Y-83185000D01*
X141351000Y-80899000D01*
X140157845Y-80899000D01*
X140036524Y-81128890D01*
X140081175Y-81276099D01*
X140206359Y-81538920D01*
X140380412Y-81772269D01*
X140464466Y-81848034D01*
X140383820Y-81872498D01*
X140273506Y-81931463D01*
X140176815Y-82010815D01*
X140097463Y-82107506D01*
X140038498Y-82217820D01*
X140002188Y-82337518D01*
X139989928Y-82462000D01*
X138049000Y-82462000D01*
X138049000Y-78588890D01*
X140036524Y-78588890D01*
X140081175Y-78736099D01*
X140206359Y-78998920D01*
X140380412Y-79232269D01*
X140596645Y-79427178D01*
X140722255Y-79502000D01*
X140596645Y-79576822D01*
X140380412Y-79771731D01*
X140206359Y-80005080D01*
X140081175Y-80267901D01*
X140036524Y-80415110D01*
X140157845Y-80645000D01*
X141351000Y-80645000D01*
X141351000Y-78359000D01*
X140157845Y-78359000D01*
X140036524Y-78588890D01*
X138049000Y-78588890D01*
X138049000Y-76048890D01*
X140036524Y-76048890D01*
X140081175Y-76196099D01*
X140206359Y-76458920D01*
X140380412Y-76692269D01*
X140596645Y-76887178D01*
X140722255Y-76962000D01*
X140596645Y-77036822D01*
X140380412Y-77231731D01*
X140206359Y-77465080D01*
X140081175Y-77727901D01*
X140036524Y-77875110D01*
X140157845Y-78105000D01*
X141351000Y-78105000D01*
X141351000Y-75819000D01*
X140157845Y-75819000D01*
X140036524Y-76048890D01*
X138049000Y-76048890D01*
X138049000Y-75335110D01*
X140036524Y-75335110D01*
X140157845Y-75565000D01*
X141351000Y-75565000D01*
X141351000Y-74371186D01*
X141605000Y-74371186D01*
X141605000Y-75565000D01*
X141625000Y-75565000D01*
X141625000Y-75819000D01*
X141605000Y-75819000D01*
X141605000Y-78105000D01*
X141625000Y-78105000D01*
X141625000Y-78359000D01*
X141605000Y-78359000D01*
X141605000Y-80645000D01*
X141625000Y-80645000D01*
X141625000Y-80899000D01*
X141605000Y-80899000D01*
X141605000Y-83185000D01*
X141625000Y-83185000D01*
X141625000Y-83439000D01*
X141605000Y-83439000D01*
X141605000Y-84638250D01*
X141763750Y-84797000D01*
X142328000Y-84800072D01*
X142452482Y-84787812D01*
X142572180Y-84751502D01*
X142682494Y-84692537D01*
X142779185Y-84613185D01*
X142858537Y-84516494D01*
X142917502Y-84406180D01*
X142939513Y-84333620D01*
X143071368Y-84465475D01*
X143314589Y-84627990D01*
X143584842Y-84739932D01*
X143871740Y-84797000D01*
X144164260Y-84797000D01*
X144451158Y-84739932D01*
X144721411Y-84627990D01*
X144964632Y-84465475D01*
X145171475Y-84258632D01*
X145333990Y-84015411D01*
X145445932Y-83745158D01*
X145503000Y-83458260D01*
X145503000Y-83165740D01*
X145445932Y-82878842D01*
X145333990Y-82608589D01*
X145171475Y-82365368D01*
X144964632Y-82158525D01*
X144790240Y-82042000D01*
X144964632Y-81925475D01*
X145171475Y-81718632D01*
X145333990Y-81475411D01*
X145445932Y-81205158D01*
X145503000Y-80918260D01*
X145503000Y-80625740D01*
X145445932Y-80338842D01*
X145333990Y-80068589D01*
X145171475Y-79825368D01*
X144964632Y-79618525D01*
X144790240Y-79502000D01*
X144964632Y-79385475D01*
X145049107Y-79301000D01*
X153449928Y-79301000D01*
X153462188Y-79425482D01*
X153498498Y-79545180D01*
X153543301Y-79629000D01*
X153498498Y-79712820D01*
X153462188Y-79832518D01*
X153449928Y-79957000D01*
X153453000Y-80171250D01*
X153611750Y-80330000D01*
X154686000Y-80330000D01*
X154686000Y-78928000D01*
X154940000Y-78928000D01*
X154940000Y-80330000D01*
X156014250Y-80330000D01*
X156173000Y-80171250D01*
X156176072Y-79957000D01*
X156163812Y-79832518D01*
X156127502Y-79712820D01*
X156082699Y-79629000D01*
X156127502Y-79545180D01*
X156163812Y-79425482D01*
X156176072Y-79301000D01*
X156173000Y-79086750D01*
X156014250Y-78928000D01*
X154940000Y-78928000D01*
X154686000Y-78928000D01*
X153611750Y-78928000D01*
X153453000Y-79086750D01*
X153449928Y-79301000D01*
X145049107Y-79301000D01*
X145171475Y-79178632D01*
X145333990Y-78935411D01*
X145445932Y-78665158D01*
X145503000Y-78378260D01*
X145503000Y-78085740D01*
X145445932Y-77798842D01*
X145333990Y-77528589D01*
X145171475Y-77285368D01*
X144964632Y-77078525D01*
X144790240Y-76962000D01*
X144964632Y-76845475D01*
X145171475Y-76638632D01*
X145333990Y-76395411D01*
X145445932Y-76125158D01*
X145503000Y-75838260D01*
X145503000Y-75545740D01*
X145445932Y-75258842D01*
X145333990Y-74988589D01*
X145171475Y-74745368D01*
X144964632Y-74538525D01*
X144721411Y-74376010D01*
X144451158Y-74264068D01*
X144164260Y-74207000D01*
X143871740Y-74207000D01*
X143584842Y-74264068D01*
X143314589Y-74376010D01*
X143071368Y-74538525D01*
X142864525Y-74745368D01*
X142746900Y-74921406D01*
X142575588Y-74691731D01*
X142359355Y-74496822D01*
X142109252Y-74347843D01*
X141834891Y-74250519D01*
X141605000Y-74371186D01*
X141351000Y-74371186D01*
X141121109Y-74250519D01*
X140846748Y-74347843D01*
X140596645Y-74496822D01*
X140380412Y-74691731D01*
X140206359Y-74925080D01*
X140081175Y-75187901D01*
X140036524Y-75335110D01*
X138049000Y-75335110D01*
X138049000Y-69240000D01*
X155231267Y-69240000D01*
X155160595Y-69326114D01*
G37*
%TD.AperFunction*%
D31*
X186509500Y-69352560D02*
X186192560Y-69669500D01*
X185943543Y-70042181D01*
X185772016Y-70456282D01*
X185684573Y-70895890D01*
X185684573Y-71058444D01*
X185683537Y-71056506D01*
X185604185Y-70959815D01*
X185507494Y-70880463D01*
X185397180Y-70821498D01*
X185277482Y-70785188D01*
X185153000Y-70772928D01*
X184938750Y-70776000D01*
X184780000Y-70934750D01*
X184780000Y-72009000D01*
X185629250Y-72009000D01*
X185788000Y-71850250D01*
X185788192Y-71822771D01*
X185943543Y-72197819D01*
X186192560Y-72570500D01*
X186509500Y-72887440D01*
X186882181Y-73136457D01*
X187296282Y-73307984D01*
X187735890Y-73395427D01*
X188184110Y-73395427D01*
X188623718Y-73307984D01*
X189037819Y-73136457D01*
X189410500Y-72887440D01*
X189727440Y-72570500D01*
X189840001Y-72402040D01*
X189840001Y-88773000D01*
X180340000Y-88773000D01*
X180315224Y-88775440D01*
X180291399Y-88782667D01*
X180269443Y-88794403D01*
X180250197Y-88810197D01*
X180234403Y-88829443D01*
X180222667Y-88851399D01*
X180215440Y-88875224D01*
X180213000Y-88900000D01*
X180213000Y-89476198D01*
X177969542Y-87232740D01*
X182012964Y-87232740D01*
X182037245Y-87338087D01*
X182157138Y-87615204D01*
X182328790Y-87863606D01*
X182545604Y-88073748D01*
X182799249Y-88237554D01*
X183079977Y-88348729D01*
X183377000Y-88403000D01*
X184277000Y-88403000D01*
X184277000Y-86995000D01*
X184531000Y-86995000D01*
X184531000Y-88403000D01*
X185431000Y-88403000D01*
X185728023Y-88348729D01*
X186008751Y-88237554D01*
X186262396Y-88073748D01*
X186479210Y-87863606D01*
X186650862Y-87615204D01*
X186770755Y-87338087D01*
X186795036Y-87232740D01*
X186674378Y-86995000D01*
X184531000Y-86995000D01*
X184277000Y-86995000D01*
X182133622Y-86995000D01*
X182012964Y-87232740D01*
X177969542Y-87232740D01*
X177240062Y-86503260D01*
X182012964Y-86503260D01*
X182133622Y-86741000D01*
X184277000Y-86741000D01*
X184277000Y-85333000D01*
X184531000Y-85333000D01*
X184531000Y-86741000D01*
X186674378Y-86741000D01*
X186795036Y-86503260D01*
X186770755Y-86397913D01*
X186650862Y-86120796D01*
X186479210Y-85872394D01*
X186262396Y-85662252D01*
X186008751Y-85498446D01*
X185728023Y-85387271D01*
X185431000Y-85333000D01*
X184531000Y-85333000D01*
X184277000Y-85333000D01*
X183377000Y-85333000D01*
X183079977Y-85387271D01*
X182799249Y-85498446D01*
X182545604Y-85662252D01*
X182328790Y-85872394D01*
X182157138Y-86120796D01*
X182037245Y-86397913D01*
X182012964Y-86503260D01*
X177240062Y-86503260D01*
X176470011Y-85733210D01*
X176470011Y-84477736D01*
X176611244Y-84572105D01*
X176799602Y-84650126D01*
X176999561Y-84689900D01*
X177203439Y-84689900D01*
X177403398Y-84650126D01*
X177591756Y-84572105D01*
X177761274Y-84458837D01*
X177905437Y-84314674D01*
X178018705Y-84145156D01*
X178035795Y-84103898D01*
X178192745Y-84151508D01*
X178365999Y-84168572D01*
X179266001Y-84168572D01*
X179439255Y-84151508D01*
X179605851Y-84100972D01*
X179759387Y-84018905D01*
X179893962Y-83908462D01*
X180004405Y-83773887D01*
X180086472Y-83620351D01*
X180137008Y-83453755D01*
X180154072Y-83280501D01*
X180154072Y-82755499D01*
X180137008Y-82582245D01*
X180086472Y-82415649D01*
X180004405Y-82262113D01*
X179893962Y-82127538D01*
X179867109Y-82105500D01*
X179893962Y-82083462D01*
X180001030Y-81953000D01*
X180182893Y-81953000D01*
X180345868Y-82115975D01*
X180589089Y-82278490D01*
X180859342Y-82390432D01*
X181146240Y-82447500D01*
X181438760Y-82447500D01*
X181725658Y-82390432D01*
X181995911Y-82278490D01*
X182239132Y-82115975D01*
X182364210Y-81990897D01*
X184943708Y-81990897D01*
X185021343Y-82239972D01*
X185285383Y-82365871D01*
X185568911Y-82437839D01*
X185861031Y-82453111D01*
X186150519Y-82411099D01*
X186426247Y-82313419D01*
X186563657Y-82239972D01*
X186641292Y-81990897D01*
X185792500Y-81142105D01*
X184943708Y-81990897D01*
X182364210Y-81990897D01*
X182445975Y-81909132D01*
X182608490Y-81665911D01*
X182720432Y-81395658D01*
X182777500Y-81108760D01*
X182777500Y-81031031D01*
X184301889Y-81031031D01*
X184343901Y-81320519D01*
X184441581Y-81596247D01*
X184515028Y-81733657D01*
X184764103Y-81811292D01*
X185612895Y-80962500D01*
X185972105Y-80962500D01*
X186820897Y-81811292D01*
X187069972Y-81733657D01*
X187195871Y-81469617D01*
X187267839Y-81186089D01*
X187283111Y-80893969D01*
X187241099Y-80604481D01*
X187143419Y-80328753D01*
X187069972Y-80191343D01*
X186820897Y-80113708D01*
X185972105Y-80962500D01*
X185612895Y-80962500D01*
X184764103Y-80113708D01*
X184515028Y-80191343D01*
X184389129Y-80455383D01*
X184317161Y-80738911D01*
X184301889Y-81031031D01*
X182777500Y-81031031D01*
X182777500Y-80816240D01*
X182720432Y-80529342D01*
X182608490Y-80259089D01*
X182445975Y-80015868D01*
X182364210Y-79934103D01*
X184943708Y-79934103D01*
X185792500Y-80782895D01*
X186641292Y-79934103D01*
X186563657Y-79685028D01*
X186299617Y-79559129D01*
X186016089Y-79487161D01*
X185723969Y-79471889D01*
X185434481Y-79513901D01*
X185158753Y-79611581D01*
X185021343Y-79685028D01*
X184943708Y-79934103D01*
X182364210Y-79934103D01*
X182239132Y-79809025D01*
X182052500Y-79684322D01*
X182052500Y-75740678D01*
X182239132Y-75615975D01*
X182364210Y-75490897D01*
X184943708Y-75490897D01*
X185021343Y-75739972D01*
X185285383Y-75865871D01*
X185568911Y-75937839D01*
X185861031Y-75953111D01*
X186150519Y-75911099D01*
X186426247Y-75813419D01*
X186563657Y-75739972D01*
X186641292Y-75490897D01*
X185792500Y-74642105D01*
X184943708Y-75490897D01*
X182364210Y-75490897D01*
X182445975Y-75409132D01*
X182608490Y-75165911D01*
X182720432Y-74895658D01*
X182777500Y-74608760D01*
X182777500Y-74531031D01*
X184301889Y-74531031D01*
X184343901Y-74820519D01*
X184441581Y-75096247D01*
X184515028Y-75233657D01*
X184764103Y-75311292D01*
X185612895Y-74462500D01*
X185972105Y-74462500D01*
X186820897Y-75311292D01*
X187069972Y-75233657D01*
X187195871Y-74969617D01*
X187267839Y-74686089D01*
X187283111Y-74393969D01*
X187241099Y-74104481D01*
X187143419Y-73828753D01*
X187069972Y-73691343D01*
X186820897Y-73613708D01*
X185972105Y-74462500D01*
X185612895Y-74462500D01*
X184764103Y-73613708D01*
X184515028Y-73691343D01*
X184389129Y-73955383D01*
X184317161Y-74238911D01*
X184301889Y-74531031D01*
X182777500Y-74531031D01*
X182777500Y-74316240D01*
X182733710Y-74096092D01*
X183264003Y-73565799D01*
X183293001Y-73542001D01*
X183319332Y-73509917D01*
X183387974Y-73426277D01*
X183402135Y-73399783D01*
X183496386Y-73349405D01*
X183630962Y-73238962D01*
X183636342Y-73232406D01*
X183701815Y-73312185D01*
X183798506Y-73391537D01*
X183908820Y-73450502D01*
X184028518Y-73486812D01*
X184153000Y-73499072D01*
X184367250Y-73496000D01*
X184526000Y-73337250D01*
X184526000Y-72263000D01*
X184780000Y-72263000D01*
X184780000Y-73337250D01*
X184938750Y-73496000D01*
X185006578Y-73496973D01*
X185792500Y-74282895D01*
X186641292Y-73434103D01*
X186563657Y-73185028D01*
X186299617Y-73059129D01*
X186016089Y-72987161D01*
X185779863Y-72974811D01*
X185791072Y-72861000D01*
X185788000Y-72421750D01*
X185629250Y-72263000D01*
X184780000Y-72263000D01*
X184526000Y-72263000D01*
X184506000Y-72263000D01*
X184506000Y-72009000D01*
X184526000Y-72009000D01*
X184526000Y-70934750D01*
X184367250Y-70776000D01*
X184153000Y-70772928D01*
X184028518Y-70785188D01*
X183908820Y-70821498D01*
X183798506Y-70880463D01*
X183701815Y-70959815D01*
X183636342Y-71039594D01*
X183630962Y-71033038D01*
X183496386Y-70922595D01*
X183342850Y-70840528D01*
X183176254Y-70789992D01*
X183003000Y-70772928D01*
X182503000Y-70772928D01*
X182329746Y-70789992D01*
X182163150Y-70840528D01*
X182009614Y-70922595D01*
X181875038Y-71033038D01*
X181764595Y-71167614D01*
X181682528Y-71321150D01*
X181631992Y-71487746D01*
X181614928Y-71661000D01*
X181614928Y-72611000D01*
X181631992Y-72784254D01*
X181682528Y-72950850D01*
X181698837Y-72981362D01*
X181658908Y-73021290D01*
X181438760Y-72977500D01*
X181146240Y-72977500D01*
X180859342Y-73034568D01*
X180589089Y-73146510D01*
X180345868Y-73309025D01*
X180139025Y-73515868D01*
X180081721Y-73601630D01*
X180073508Y-73518245D01*
X180022972Y-73351649D01*
X179940905Y-73198113D01*
X179830462Y-73063538D01*
X179695887Y-72953095D01*
X179542351Y-72871028D01*
X179512500Y-72861973D01*
X179512500Y-72532302D01*
X179558740Y-72541500D01*
X179851260Y-72541500D01*
X180138158Y-72484432D01*
X180408411Y-72372490D01*
X180651632Y-72209975D01*
X180858475Y-72003132D01*
X181020990Y-71759911D01*
X181132932Y-71489658D01*
X181190000Y-71202760D01*
X181190000Y-70910240D01*
X181132932Y-70623342D01*
X181020990Y-70353089D01*
X180858475Y-70109868D01*
X180651632Y-69903025D01*
X180408411Y-69740510D01*
X180138158Y-69628568D01*
X179851260Y-69571500D01*
X179558740Y-69571500D01*
X179271842Y-69628568D01*
X179001589Y-69740510D01*
X178758368Y-69903025D01*
X178551525Y-70109868D01*
X178435000Y-70284260D01*
X178318475Y-70109868D01*
X178111632Y-69903025D01*
X177868411Y-69740510D01*
X177598158Y-69628568D01*
X177311260Y-69571500D01*
X177018740Y-69571500D01*
X176731842Y-69628568D01*
X176461589Y-69740510D01*
X176218368Y-69903025D01*
X176086513Y-70034880D01*
X176064502Y-69962320D01*
X176005537Y-69852006D01*
X175926185Y-69755315D01*
X175829494Y-69675963D01*
X175719180Y-69616998D01*
X175599482Y-69580688D01*
X175475000Y-69568428D01*
X174910750Y-69571500D01*
X174752000Y-69730250D01*
X174752000Y-70929500D01*
X174772000Y-70929500D01*
X174772000Y-71183500D01*
X174752000Y-71183500D01*
X174752000Y-72382750D01*
X174910750Y-72541500D01*
X175475000Y-72544572D01*
X175599482Y-72532312D01*
X175719180Y-72496002D01*
X175829494Y-72437037D01*
X175926185Y-72357685D01*
X175960501Y-72315871D01*
X175960500Y-72855970D01*
X175883363Y-72919276D01*
X175859185Y-72889815D01*
X175762494Y-72810463D01*
X175652180Y-72751498D01*
X175532482Y-72715188D01*
X175408000Y-72702928D01*
X175181250Y-72706000D01*
X175022500Y-72864750D01*
X175022500Y-73914000D01*
X175042500Y-73914000D01*
X175042500Y-74168000D01*
X175022500Y-74168000D01*
X175022500Y-74188000D01*
X174768500Y-74188000D01*
X174768500Y-74168000D01*
X173906750Y-74168000D01*
X173748000Y-74326750D01*
X173747279Y-74424000D01*
X170190210Y-74424000D01*
X170152887Y-74420324D01*
X170115564Y-74424000D01*
X170115555Y-74424000D01*
X170003902Y-74434997D01*
X169904084Y-74465276D01*
X169860641Y-74478454D01*
X169728611Y-74549026D01*
X169689650Y-74581001D01*
X169612887Y-74643999D01*
X169589089Y-74672997D01*
X168638072Y-75624014D01*
X168638072Y-75439000D01*
X168624371Y-75299887D01*
X168610000Y-75252512D01*
X168610000Y-74859833D01*
X168613677Y-74822500D01*
X168599003Y-74673514D01*
X168555546Y-74530253D01*
X168484974Y-74398224D01*
X168426317Y-74326750D01*
X168390001Y-74282499D01*
X168361004Y-74258702D01*
X167443302Y-73341000D01*
X173744928Y-73341000D01*
X173748000Y-73755250D01*
X173906750Y-73914000D01*
X174768500Y-73914000D01*
X174768500Y-72864750D01*
X174609750Y-72706000D01*
X174383000Y-72702928D01*
X174258518Y-72715188D01*
X174138820Y-72751498D01*
X174028506Y-72810463D01*
X173931815Y-72889815D01*
X173852463Y-72986506D01*
X173793498Y-73096820D01*
X173757188Y-73216518D01*
X173744928Y-73341000D01*
X167443302Y-73341000D01*
X166622000Y-72519699D01*
X166622000Y-72334678D01*
X166808632Y-72209975D01*
X167015475Y-72003132D01*
X167132000Y-71828740D01*
X167248525Y-72003132D01*
X167455368Y-72209975D01*
X167698589Y-72372490D01*
X167968842Y-72484432D01*
X168255740Y-72541500D01*
X168548260Y-72541500D01*
X168835158Y-72484432D01*
X169105411Y-72372490D01*
X169348632Y-72209975D01*
X169555475Y-72003132D01*
X169677195Y-71820966D01*
X169746822Y-71937855D01*
X169941731Y-72154088D01*
X170175080Y-72328141D01*
X170437901Y-72453325D01*
X170585110Y-72497976D01*
X170815000Y-72376655D01*
X170815000Y-71183500D01*
X171069000Y-71183500D01*
X171069000Y-72376655D01*
X171298890Y-72497976D01*
X171446099Y-72453325D01*
X171708920Y-72328141D01*
X171942269Y-72154088D01*
X172137178Y-71937855D01*
X172155855Y-71906500D01*
X173136928Y-71906500D01*
X173149188Y-72030982D01*
X173185498Y-72150680D01*
X173244463Y-72260994D01*
X173323815Y-72357685D01*
X173420506Y-72437037D01*
X173530820Y-72496002D01*
X173650518Y-72532312D01*
X173775000Y-72544572D01*
X174339250Y-72541500D01*
X174498000Y-72382750D01*
X174498000Y-71183500D01*
X173298750Y-71183500D01*
X173140000Y-71342250D01*
X173136928Y-71906500D01*
X172155855Y-71906500D01*
X172286157Y-71687752D01*
X172383481Y-71413391D01*
X172262814Y-71183500D01*
X171069000Y-71183500D01*
X170815000Y-71183500D01*
X170795000Y-71183500D01*
X170795000Y-70929500D01*
X170815000Y-70929500D01*
X170815000Y-69736345D01*
X171069000Y-69736345D01*
X171069000Y-70929500D01*
X172262814Y-70929500D01*
X172383481Y-70699609D01*
X172286157Y-70425248D01*
X172155856Y-70206500D01*
X173136928Y-70206500D01*
X173140000Y-70770750D01*
X173298750Y-70929500D01*
X174498000Y-70929500D01*
X174498000Y-69730250D01*
X174339250Y-69571500D01*
X173775000Y-69568428D01*
X173650518Y-69580688D01*
X173530820Y-69616998D01*
X173420506Y-69675963D01*
X173323815Y-69755315D01*
X173244463Y-69852006D01*
X173185498Y-69962320D01*
X173149188Y-70082018D01*
X173136928Y-70206500D01*
X172155856Y-70206500D01*
X172137178Y-70175145D01*
X171942269Y-69958912D01*
X171708920Y-69784859D01*
X171446099Y-69659675D01*
X171298890Y-69615024D01*
X171069000Y-69736345D01*
X170815000Y-69736345D01*
X170585110Y-69615024D01*
X170437901Y-69659675D01*
X170175080Y-69784859D01*
X169941731Y-69958912D01*
X169746822Y-70175145D01*
X169677195Y-70292034D01*
X169555475Y-70109868D01*
X169348632Y-69903025D01*
X169105411Y-69740510D01*
X168835158Y-69628568D01*
X168548260Y-69571500D01*
X168255740Y-69571500D01*
X167968842Y-69628568D01*
X167698589Y-69740510D01*
X167455368Y-69903025D01*
X167248525Y-70109868D01*
X167132000Y-70284260D01*
X167015475Y-70109868D01*
X166808632Y-69903025D01*
X166565411Y-69740510D01*
X166295158Y-69628568D01*
X166008260Y-69571500D01*
X165715740Y-69571500D01*
X165428842Y-69628568D01*
X165158589Y-69740510D01*
X164915368Y-69903025D01*
X164708525Y-70109868D01*
X164592000Y-70284260D01*
X164475475Y-70109868D01*
X164268632Y-69903025D01*
X164025411Y-69740510D01*
X163755158Y-69628568D01*
X163468260Y-69571500D01*
X163175740Y-69571500D01*
X162888842Y-69628568D01*
X162618589Y-69740510D01*
X162375368Y-69903025D01*
X162243513Y-70034880D01*
X162221502Y-69962320D01*
X162162537Y-69852006D01*
X162083185Y-69755315D01*
X161986494Y-69675963D01*
X161876180Y-69616998D01*
X161756482Y-69580688D01*
X161632000Y-69568428D01*
X159932000Y-69568428D01*
X159807518Y-69580688D01*
X159687820Y-69616998D01*
X159577506Y-69675963D01*
X159480815Y-69755315D01*
X159401463Y-69852006D01*
X159342498Y-69962320D01*
X159306188Y-70082018D01*
X159293928Y-70206500D01*
X159293928Y-71906500D01*
X159306188Y-72030982D01*
X159342498Y-72150680D01*
X159401463Y-72260994D01*
X159480815Y-72357685D01*
X159577506Y-72437037D01*
X159687820Y-72496002D01*
X159807518Y-72532312D01*
X159932000Y-72544572D01*
X160034692Y-72544572D01*
X160037191Y-72552809D01*
X159906000Y-72550928D01*
X159781518Y-72563188D01*
X159661820Y-72599498D01*
X159551506Y-72658463D01*
X159454815Y-72737815D01*
X159375463Y-72834506D01*
X159316498Y-72944820D01*
X159280188Y-73064518D01*
X159267928Y-73189000D01*
X159271000Y-73628250D01*
X159429750Y-73787000D01*
X160279000Y-73787000D01*
X160279000Y-73767000D01*
X160533000Y-73767000D01*
X160533000Y-73787000D01*
X160553000Y-73787000D01*
X160553000Y-74041000D01*
X160533000Y-74041000D01*
X160533000Y-75115250D01*
X160691750Y-75274000D01*
X160906000Y-75277072D01*
X161030482Y-75264812D01*
X161150180Y-75228502D01*
X161260494Y-75169537D01*
X161357185Y-75090185D01*
X161422658Y-75010406D01*
X161428038Y-75016962D01*
X161562614Y-75127405D01*
X161590000Y-75142043D01*
X161590000Y-75252511D01*
X161575629Y-75299887D01*
X161561928Y-75439000D01*
X161561928Y-76725928D01*
X160275000Y-76725928D01*
X160135887Y-76739629D01*
X160002119Y-76780207D01*
X159878838Y-76846102D01*
X159770782Y-76934782D01*
X159682102Y-77042838D01*
X159616207Y-77166119D01*
X159575629Y-77299887D01*
X159561928Y-77439000D01*
X159561928Y-77586716D01*
X156614212Y-74639000D01*
X159267928Y-74639000D01*
X159280188Y-74763482D01*
X159316498Y-74883180D01*
X159375463Y-74993494D01*
X159454815Y-75090185D01*
X159551506Y-75169537D01*
X159661820Y-75228502D01*
X159781518Y-75264812D01*
X159906000Y-75277072D01*
X160120250Y-75274000D01*
X160279000Y-75115250D01*
X160279000Y-74041000D01*
X159429750Y-74041000D01*
X159271000Y-74199750D01*
X159267928Y-74639000D01*
X156614212Y-74639000D01*
X155705982Y-73730771D01*
X155723246Y-73736008D01*
X155896500Y-73753072D01*
X156396500Y-73753072D01*
X156569754Y-73736008D01*
X156736350Y-73685472D01*
X156889886Y-73603405D01*
X157024462Y-73492962D01*
X157029842Y-73486406D01*
X157095315Y-73566185D01*
X157192006Y-73645537D01*
X157302320Y-73704502D01*
X157422018Y-73740812D01*
X157546500Y-73753072D01*
X157760750Y-73750000D01*
X157919500Y-73591250D01*
X157919500Y-72517000D01*
X158173500Y-72517000D01*
X158173500Y-73591250D01*
X158332250Y-73750000D01*
X158546500Y-73753072D01*
X158670982Y-73740812D01*
X158790680Y-73704502D01*
X158900994Y-73645537D01*
X158997685Y-73566185D01*
X159077037Y-73469494D01*
X159136002Y-73359180D01*
X159172312Y-73239482D01*
X159184572Y-73115000D01*
X159181500Y-72675750D01*
X159022750Y-72517000D01*
X158173500Y-72517000D01*
X157919500Y-72517000D01*
X157899500Y-72517000D01*
X157899500Y-72263000D01*
X157919500Y-72263000D01*
X157919500Y-71498250D01*
X157922000Y-71495750D01*
X157922000Y-71188750D01*
X158173500Y-71188750D01*
X158173500Y-72263000D01*
X159022750Y-72263000D01*
X159181500Y-72104250D01*
X159184572Y-71665000D01*
X159172312Y-71540518D01*
X159136002Y-71420820D01*
X159095255Y-71344589D01*
X159138502Y-71263680D01*
X159174812Y-71143982D01*
X159187072Y-71019500D01*
X159184000Y-70580250D01*
X159025250Y-70421500D01*
X158176000Y-70421500D01*
X158176000Y-71186250D01*
X158173500Y-71188750D01*
X157922000Y-71188750D01*
X157922000Y-70421500D01*
X157902000Y-70421500D01*
X157902000Y-70167500D01*
X157922000Y-70167500D01*
X157922000Y-70147500D01*
X158176000Y-70147500D01*
X158176000Y-70167500D01*
X159025250Y-70167500D01*
X159184000Y-70008750D01*
X159187072Y-69569500D01*
X159174812Y-69445018D01*
X159138502Y-69325320D01*
X159092897Y-69240000D01*
X186677958Y-69240000D01*
X186509500Y-69352560D01*
%TA.AperFunction,Conductor*%
D32*
G36*
X186509500Y-69352560D02*
G01*
X186192560Y-69669500D01*
X185943543Y-70042181D01*
X185772016Y-70456282D01*
X185684573Y-70895890D01*
X185684573Y-71058444D01*
X185683537Y-71056506D01*
X185604185Y-70959815D01*
X185507494Y-70880463D01*
X185397180Y-70821498D01*
X185277482Y-70785188D01*
X185153000Y-70772928D01*
X184938750Y-70776000D01*
X184780000Y-70934750D01*
X184780000Y-72009000D01*
X185629250Y-72009000D01*
X185788000Y-71850250D01*
X185788192Y-71822771D01*
X185943543Y-72197819D01*
X186192560Y-72570500D01*
X186509500Y-72887440D01*
X186882181Y-73136457D01*
X187296282Y-73307984D01*
X187735890Y-73395427D01*
X188184110Y-73395427D01*
X188623718Y-73307984D01*
X189037819Y-73136457D01*
X189410500Y-72887440D01*
X189727440Y-72570500D01*
X189840001Y-72402040D01*
X189840001Y-88773000D01*
X180340000Y-88773000D01*
X180315224Y-88775440D01*
X180291399Y-88782667D01*
X180269443Y-88794403D01*
X180250197Y-88810197D01*
X180234403Y-88829443D01*
X180222667Y-88851399D01*
X180215440Y-88875224D01*
X180213000Y-88900000D01*
X180213000Y-89476198D01*
X177969542Y-87232740D01*
X182012964Y-87232740D01*
X182037245Y-87338087D01*
X182157138Y-87615204D01*
X182328790Y-87863606D01*
X182545604Y-88073748D01*
X182799249Y-88237554D01*
X183079977Y-88348729D01*
X183377000Y-88403000D01*
X184277000Y-88403000D01*
X184277000Y-86995000D01*
X184531000Y-86995000D01*
X184531000Y-88403000D01*
X185431000Y-88403000D01*
X185728023Y-88348729D01*
X186008751Y-88237554D01*
X186262396Y-88073748D01*
X186479210Y-87863606D01*
X186650862Y-87615204D01*
X186770755Y-87338087D01*
X186795036Y-87232740D01*
X186674378Y-86995000D01*
X184531000Y-86995000D01*
X184277000Y-86995000D01*
X182133622Y-86995000D01*
X182012964Y-87232740D01*
X177969542Y-87232740D01*
X177240062Y-86503260D01*
X182012964Y-86503260D01*
X182133622Y-86741000D01*
X184277000Y-86741000D01*
X184277000Y-85333000D01*
X184531000Y-85333000D01*
X184531000Y-86741000D01*
X186674378Y-86741000D01*
X186795036Y-86503260D01*
X186770755Y-86397913D01*
X186650862Y-86120796D01*
X186479210Y-85872394D01*
X186262396Y-85662252D01*
X186008751Y-85498446D01*
X185728023Y-85387271D01*
X185431000Y-85333000D01*
X184531000Y-85333000D01*
X184277000Y-85333000D01*
X183377000Y-85333000D01*
X183079977Y-85387271D01*
X182799249Y-85498446D01*
X182545604Y-85662252D01*
X182328790Y-85872394D01*
X182157138Y-86120796D01*
X182037245Y-86397913D01*
X182012964Y-86503260D01*
X177240062Y-86503260D01*
X176470011Y-85733210D01*
X176470011Y-84477736D01*
X176611244Y-84572105D01*
X176799602Y-84650126D01*
X176999561Y-84689900D01*
X177203439Y-84689900D01*
X177403398Y-84650126D01*
X177591756Y-84572105D01*
X177761274Y-84458837D01*
X177905437Y-84314674D01*
X178018705Y-84145156D01*
X178035795Y-84103898D01*
X178192745Y-84151508D01*
X178365999Y-84168572D01*
X179266001Y-84168572D01*
X179439255Y-84151508D01*
X179605851Y-84100972D01*
X179759387Y-84018905D01*
X179893962Y-83908462D01*
X180004405Y-83773887D01*
X180086472Y-83620351D01*
X180137008Y-83453755D01*
X180154072Y-83280501D01*
X180154072Y-82755499D01*
X180137008Y-82582245D01*
X180086472Y-82415649D01*
X180004405Y-82262113D01*
X179893962Y-82127538D01*
X179867109Y-82105500D01*
X179893962Y-82083462D01*
X180001030Y-81953000D01*
X180182893Y-81953000D01*
X180345868Y-82115975D01*
X180589089Y-82278490D01*
X180859342Y-82390432D01*
X181146240Y-82447500D01*
X181438760Y-82447500D01*
X181725658Y-82390432D01*
X181995911Y-82278490D01*
X182239132Y-82115975D01*
X182364210Y-81990897D01*
X184943708Y-81990897D01*
X185021343Y-82239972D01*
X185285383Y-82365871D01*
X185568911Y-82437839D01*
X185861031Y-82453111D01*
X186150519Y-82411099D01*
X186426247Y-82313419D01*
X186563657Y-82239972D01*
X186641292Y-81990897D01*
X185792500Y-81142105D01*
X184943708Y-81990897D01*
X182364210Y-81990897D01*
X182445975Y-81909132D01*
X182608490Y-81665911D01*
X182720432Y-81395658D01*
X182777500Y-81108760D01*
X182777500Y-81031031D01*
X184301889Y-81031031D01*
X184343901Y-81320519D01*
X184441581Y-81596247D01*
X184515028Y-81733657D01*
X184764103Y-81811292D01*
X185612895Y-80962500D01*
X185972105Y-80962500D01*
X186820897Y-81811292D01*
X187069972Y-81733657D01*
X187195871Y-81469617D01*
X187267839Y-81186089D01*
X187283111Y-80893969D01*
X187241099Y-80604481D01*
X187143419Y-80328753D01*
X187069972Y-80191343D01*
X186820897Y-80113708D01*
X185972105Y-80962500D01*
X185612895Y-80962500D01*
X184764103Y-80113708D01*
X184515028Y-80191343D01*
X184389129Y-80455383D01*
X184317161Y-80738911D01*
X184301889Y-81031031D01*
X182777500Y-81031031D01*
X182777500Y-80816240D01*
X182720432Y-80529342D01*
X182608490Y-80259089D01*
X182445975Y-80015868D01*
X182364210Y-79934103D01*
X184943708Y-79934103D01*
X185792500Y-80782895D01*
X186641292Y-79934103D01*
X186563657Y-79685028D01*
X186299617Y-79559129D01*
X186016089Y-79487161D01*
X185723969Y-79471889D01*
X185434481Y-79513901D01*
X185158753Y-79611581D01*
X185021343Y-79685028D01*
X184943708Y-79934103D01*
X182364210Y-79934103D01*
X182239132Y-79809025D01*
X182052500Y-79684322D01*
X182052500Y-75740678D01*
X182239132Y-75615975D01*
X182364210Y-75490897D01*
X184943708Y-75490897D01*
X185021343Y-75739972D01*
X185285383Y-75865871D01*
X185568911Y-75937839D01*
X185861031Y-75953111D01*
X186150519Y-75911099D01*
X186426247Y-75813419D01*
X186563657Y-75739972D01*
X186641292Y-75490897D01*
X185792500Y-74642105D01*
X184943708Y-75490897D01*
X182364210Y-75490897D01*
X182445975Y-75409132D01*
X182608490Y-75165911D01*
X182720432Y-74895658D01*
X182777500Y-74608760D01*
X182777500Y-74531031D01*
X184301889Y-74531031D01*
X184343901Y-74820519D01*
X184441581Y-75096247D01*
X184515028Y-75233657D01*
X184764103Y-75311292D01*
X185612895Y-74462500D01*
X185972105Y-74462500D01*
X186820897Y-75311292D01*
X187069972Y-75233657D01*
X187195871Y-74969617D01*
X187267839Y-74686089D01*
X187283111Y-74393969D01*
X187241099Y-74104481D01*
X187143419Y-73828753D01*
X187069972Y-73691343D01*
X186820897Y-73613708D01*
X185972105Y-74462500D01*
X185612895Y-74462500D01*
X184764103Y-73613708D01*
X184515028Y-73691343D01*
X184389129Y-73955383D01*
X184317161Y-74238911D01*
X184301889Y-74531031D01*
X182777500Y-74531031D01*
X182777500Y-74316240D01*
X182733710Y-74096092D01*
X183264003Y-73565799D01*
X183293001Y-73542001D01*
X183319332Y-73509917D01*
X183387974Y-73426277D01*
X183402135Y-73399783D01*
X183496386Y-73349405D01*
X183630962Y-73238962D01*
X183636342Y-73232406D01*
X183701815Y-73312185D01*
X183798506Y-73391537D01*
X183908820Y-73450502D01*
X184028518Y-73486812D01*
X184153000Y-73499072D01*
X184367250Y-73496000D01*
X184526000Y-73337250D01*
X184526000Y-72263000D01*
X184780000Y-72263000D01*
X184780000Y-73337250D01*
X184938750Y-73496000D01*
X185006578Y-73496973D01*
X185792500Y-74282895D01*
X186641292Y-73434103D01*
X186563657Y-73185028D01*
X186299617Y-73059129D01*
X186016089Y-72987161D01*
X185779863Y-72974811D01*
X185791072Y-72861000D01*
X185788000Y-72421750D01*
X185629250Y-72263000D01*
X184780000Y-72263000D01*
X184526000Y-72263000D01*
X184506000Y-72263000D01*
X184506000Y-72009000D01*
X184526000Y-72009000D01*
X184526000Y-70934750D01*
X184367250Y-70776000D01*
X184153000Y-70772928D01*
X184028518Y-70785188D01*
X183908820Y-70821498D01*
X183798506Y-70880463D01*
X183701815Y-70959815D01*
X183636342Y-71039594D01*
X183630962Y-71033038D01*
X183496386Y-70922595D01*
X183342850Y-70840528D01*
X183176254Y-70789992D01*
X183003000Y-70772928D01*
X182503000Y-70772928D01*
X182329746Y-70789992D01*
X182163150Y-70840528D01*
X182009614Y-70922595D01*
X181875038Y-71033038D01*
X181764595Y-71167614D01*
X181682528Y-71321150D01*
X181631992Y-71487746D01*
X181614928Y-71661000D01*
X181614928Y-72611000D01*
X181631992Y-72784254D01*
X181682528Y-72950850D01*
X181698837Y-72981362D01*
X181658908Y-73021290D01*
X181438760Y-72977500D01*
X181146240Y-72977500D01*
X180859342Y-73034568D01*
X180589089Y-73146510D01*
X180345868Y-73309025D01*
X180139025Y-73515868D01*
X180081721Y-73601630D01*
X180073508Y-73518245D01*
X180022972Y-73351649D01*
X179940905Y-73198113D01*
X179830462Y-73063538D01*
X179695887Y-72953095D01*
X179542351Y-72871028D01*
X179512500Y-72861973D01*
X179512500Y-72532302D01*
X179558740Y-72541500D01*
X179851260Y-72541500D01*
X180138158Y-72484432D01*
X180408411Y-72372490D01*
X180651632Y-72209975D01*
X180858475Y-72003132D01*
X181020990Y-71759911D01*
X181132932Y-71489658D01*
X181190000Y-71202760D01*
X181190000Y-70910240D01*
X181132932Y-70623342D01*
X181020990Y-70353089D01*
X180858475Y-70109868D01*
X180651632Y-69903025D01*
X180408411Y-69740510D01*
X180138158Y-69628568D01*
X179851260Y-69571500D01*
X179558740Y-69571500D01*
X179271842Y-69628568D01*
X179001589Y-69740510D01*
X178758368Y-69903025D01*
X178551525Y-70109868D01*
X178435000Y-70284260D01*
X178318475Y-70109868D01*
X178111632Y-69903025D01*
X177868411Y-69740510D01*
X177598158Y-69628568D01*
X177311260Y-69571500D01*
X177018740Y-69571500D01*
X176731842Y-69628568D01*
X176461589Y-69740510D01*
X176218368Y-69903025D01*
X176086513Y-70034880D01*
X176064502Y-69962320D01*
X176005537Y-69852006D01*
X175926185Y-69755315D01*
X175829494Y-69675963D01*
X175719180Y-69616998D01*
X175599482Y-69580688D01*
X175475000Y-69568428D01*
X174910750Y-69571500D01*
X174752000Y-69730250D01*
X174752000Y-70929500D01*
X174772000Y-70929500D01*
X174772000Y-71183500D01*
X174752000Y-71183500D01*
X174752000Y-72382750D01*
X174910750Y-72541500D01*
X175475000Y-72544572D01*
X175599482Y-72532312D01*
X175719180Y-72496002D01*
X175829494Y-72437037D01*
X175926185Y-72357685D01*
X175960501Y-72315871D01*
X175960500Y-72855970D01*
X175883363Y-72919276D01*
X175859185Y-72889815D01*
X175762494Y-72810463D01*
X175652180Y-72751498D01*
X175532482Y-72715188D01*
X175408000Y-72702928D01*
X175181250Y-72706000D01*
X175022500Y-72864750D01*
X175022500Y-73914000D01*
X175042500Y-73914000D01*
X175042500Y-74168000D01*
X175022500Y-74168000D01*
X175022500Y-74188000D01*
X174768500Y-74188000D01*
X174768500Y-74168000D01*
X173906750Y-74168000D01*
X173748000Y-74326750D01*
X173747279Y-74424000D01*
X170190210Y-74424000D01*
X170152887Y-74420324D01*
X170115564Y-74424000D01*
X170115555Y-74424000D01*
X170003902Y-74434997D01*
X169904084Y-74465276D01*
X169860641Y-74478454D01*
X169728611Y-74549026D01*
X169689650Y-74581001D01*
X169612887Y-74643999D01*
X169589089Y-74672997D01*
X168638072Y-75624014D01*
X168638072Y-75439000D01*
X168624371Y-75299887D01*
X168610000Y-75252512D01*
X168610000Y-74859833D01*
X168613677Y-74822500D01*
X168599003Y-74673514D01*
X168555546Y-74530253D01*
X168484974Y-74398224D01*
X168426317Y-74326750D01*
X168390001Y-74282499D01*
X168361004Y-74258702D01*
X167443302Y-73341000D01*
X173744928Y-73341000D01*
X173748000Y-73755250D01*
X173906750Y-73914000D01*
X174768500Y-73914000D01*
X174768500Y-72864750D01*
X174609750Y-72706000D01*
X174383000Y-72702928D01*
X174258518Y-72715188D01*
X174138820Y-72751498D01*
X174028506Y-72810463D01*
X173931815Y-72889815D01*
X173852463Y-72986506D01*
X173793498Y-73096820D01*
X173757188Y-73216518D01*
X173744928Y-73341000D01*
X167443302Y-73341000D01*
X166622000Y-72519699D01*
X166622000Y-72334678D01*
X166808632Y-72209975D01*
X167015475Y-72003132D01*
X167132000Y-71828740D01*
X167248525Y-72003132D01*
X167455368Y-72209975D01*
X167698589Y-72372490D01*
X167968842Y-72484432D01*
X168255740Y-72541500D01*
X168548260Y-72541500D01*
X168835158Y-72484432D01*
X169105411Y-72372490D01*
X169348632Y-72209975D01*
X169555475Y-72003132D01*
X169677195Y-71820966D01*
X169746822Y-71937855D01*
X169941731Y-72154088D01*
X170175080Y-72328141D01*
X170437901Y-72453325D01*
X170585110Y-72497976D01*
X170815000Y-72376655D01*
X170815000Y-71183500D01*
X171069000Y-71183500D01*
X171069000Y-72376655D01*
X171298890Y-72497976D01*
X171446099Y-72453325D01*
X171708920Y-72328141D01*
X171942269Y-72154088D01*
X172137178Y-71937855D01*
X172155855Y-71906500D01*
X173136928Y-71906500D01*
X173149188Y-72030982D01*
X173185498Y-72150680D01*
X173244463Y-72260994D01*
X173323815Y-72357685D01*
X173420506Y-72437037D01*
X173530820Y-72496002D01*
X173650518Y-72532312D01*
X173775000Y-72544572D01*
X174339250Y-72541500D01*
X174498000Y-72382750D01*
X174498000Y-71183500D01*
X173298750Y-71183500D01*
X173140000Y-71342250D01*
X173136928Y-71906500D01*
X172155855Y-71906500D01*
X172286157Y-71687752D01*
X172383481Y-71413391D01*
X172262814Y-71183500D01*
X171069000Y-71183500D01*
X170815000Y-71183500D01*
X170795000Y-71183500D01*
X170795000Y-70929500D01*
X170815000Y-70929500D01*
X170815000Y-69736345D01*
X171069000Y-69736345D01*
X171069000Y-70929500D01*
X172262814Y-70929500D01*
X172383481Y-70699609D01*
X172286157Y-70425248D01*
X172155856Y-70206500D01*
X173136928Y-70206500D01*
X173140000Y-70770750D01*
X173298750Y-70929500D01*
X174498000Y-70929500D01*
X174498000Y-69730250D01*
X174339250Y-69571500D01*
X173775000Y-69568428D01*
X173650518Y-69580688D01*
X173530820Y-69616998D01*
X173420506Y-69675963D01*
X173323815Y-69755315D01*
X173244463Y-69852006D01*
X173185498Y-69962320D01*
X173149188Y-70082018D01*
X173136928Y-70206500D01*
X172155856Y-70206500D01*
X172137178Y-70175145D01*
X171942269Y-69958912D01*
X171708920Y-69784859D01*
X171446099Y-69659675D01*
X171298890Y-69615024D01*
X171069000Y-69736345D01*
X170815000Y-69736345D01*
X170585110Y-69615024D01*
X170437901Y-69659675D01*
X170175080Y-69784859D01*
X169941731Y-69958912D01*
X169746822Y-70175145D01*
X169677195Y-70292034D01*
X169555475Y-70109868D01*
X169348632Y-69903025D01*
X169105411Y-69740510D01*
X168835158Y-69628568D01*
X168548260Y-69571500D01*
X168255740Y-69571500D01*
X167968842Y-69628568D01*
X167698589Y-69740510D01*
X167455368Y-69903025D01*
X167248525Y-70109868D01*
X167132000Y-70284260D01*
X167015475Y-70109868D01*
X166808632Y-69903025D01*
X166565411Y-69740510D01*
X166295158Y-69628568D01*
X166008260Y-69571500D01*
X165715740Y-69571500D01*
X165428842Y-69628568D01*
X165158589Y-69740510D01*
X164915368Y-69903025D01*
X164708525Y-70109868D01*
X164592000Y-70284260D01*
X164475475Y-70109868D01*
X164268632Y-69903025D01*
X164025411Y-69740510D01*
X163755158Y-69628568D01*
X163468260Y-69571500D01*
X163175740Y-69571500D01*
X162888842Y-69628568D01*
X162618589Y-69740510D01*
X162375368Y-69903025D01*
X162243513Y-70034880D01*
X162221502Y-69962320D01*
X162162537Y-69852006D01*
X162083185Y-69755315D01*
X161986494Y-69675963D01*
X161876180Y-69616998D01*
X161756482Y-69580688D01*
X161632000Y-69568428D01*
X159932000Y-69568428D01*
X159807518Y-69580688D01*
X159687820Y-69616998D01*
X159577506Y-69675963D01*
X159480815Y-69755315D01*
X159401463Y-69852006D01*
X159342498Y-69962320D01*
X159306188Y-70082018D01*
X159293928Y-70206500D01*
X159293928Y-71906500D01*
X159306188Y-72030982D01*
X159342498Y-72150680D01*
X159401463Y-72260994D01*
X159480815Y-72357685D01*
X159577506Y-72437037D01*
X159687820Y-72496002D01*
X159807518Y-72532312D01*
X159932000Y-72544572D01*
X160034692Y-72544572D01*
X160037191Y-72552809D01*
X159906000Y-72550928D01*
X159781518Y-72563188D01*
X159661820Y-72599498D01*
X159551506Y-72658463D01*
X159454815Y-72737815D01*
X159375463Y-72834506D01*
X159316498Y-72944820D01*
X159280188Y-73064518D01*
X159267928Y-73189000D01*
X159271000Y-73628250D01*
X159429750Y-73787000D01*
X160279000Y-73787000D01*
X160279000Y-73767000D01*
X160533000Y-73767000D01*
X160533000Y-73787000D01*
X160553000Y-73787000D01*
X160553000Y-74041000D01*
X160533000Y-74041000D01*
X160533000Y-75115250D01*
X160691750Y-75274000D01*
X160906000Y-75277072D01*
X161030482Y-75264812D01*
X161150180Y-75228502D01*
X161260494Y-75169537D01*
X161357185Y-75090185D01*
X161422658Y-75010406D01*
X161428038Y-75016962D01*
X161562614Y-75127405D01*
X161590000Y-75142043D01*
X161590000Y-75252511D01*
X161575629Y-75299887D01*
X161561928Y-75439000D01*
X161561928Y-76725928D01*
X160275000Y-76725928D01*
X160135887Y-76739629D01*
X160002119Y-76780207D01*
X159878838Y-76846102D01*
X159770782Y-76934782D01*
X159682102Y-77042838D01*
X159616207Y-77166119D01*
X159575629Y-77299887D01*
X159561928Y-77439000D01*
X159561928Y-77586716D01*
X156614212Y-74639000D01*
X159267928Y-74639000D01*
X159280188Y-74763482D01*
X159316498Y-74883180D01*
X159375463Y-74993494D01*
X159454815Y-75090185D01*
X159551506Y-75169537D01*
X159661820Y-75228502D01*
X159781518Y-75264812D01*
X159906000Y-75277072D01*
X160120250Y-75274000D01*
X160279000Y-75115250D01*
X160279000Y-74041000D01*
X159429750Y-74041000D01*
X159271000Y-74199750D01*
X159267928Y-74639000D01*
X156614212Y-74639000D01*
X155705982Y-73730771D01*
X155723246Y-73736008D01*
X155896500Y-73753072D01*
X156396500Y-73753072D01*
X156569754Y-73736008D01*
X156736350Y-73685472D01*
X156889886Y-73603405D01*
X157024462Y-73492962D01*
X157029842Y-73486406D01*
X157095315Y-73566185D01*
X157192006Y-73645537D01*
X157302320Y-73704502D01*
X157422018Y-73740812D01*
X157546500Y-73753072D01*
X157760750Y-73750000D01*
X157919500Y-73591250D01*
X157919500Y-72517000D01*
X158173500Y-72517000D01*
X158173500Y-73591250D01*
X158332250Y-73750000D01*
X158546500Y-73753072D01*
X158670982Y-73740812D01*
X158790680Y-73704502D01*
X158900994Y-73645537D01*
X158997685Y-73566185D01*
X159077037Y-73469494D01*
X159136002Y-73359180D01*
X159172312Y-73239482D01*
X159184572Y-73115000D01*
X159181500Y-72675750D01*
X159022750Y-72517000D01*
X158173500Y-72517000D01*
X157919500Y-72517000D01*
X157899500Y-72517000D01*
X157899500Y-72263000D01*
X157919500Y-72263000D01*
X157919500Y-71498250D01*
X157922000Y-71495750D01*
X157922000Y-71188750D01*
X158173500Y-71188750D01*
X158173500Y-72263000D01*
X159022750Y-72263000D01*
X159181500Y-72104250D01*
X159184572Y-71665000D01*
X159172312Y-71540518D01*
X159136002Y-71420820D01*
X159095255Y-71344589D01*
X159138502Y-71263680D01*
X159174812Y-71143982D01*
X159187072Y-71019500D01*
X159184000Y-70580250D01*
X159025250Y-70421500D01*
X158176000Y-70421500D01*
X158176000Y-71186250D01*
X158173500Y-71188750D01*
X157922000Y-71188750D01*
X157922000Y-70421500D01*
X157902000Y-70421500D01*
X157902000Y-70167500D01*
X157922000Y-70167500D01*
X157922000Y-70147500D01*
X158176000Y-70147500D01*
X158176000Y-70167500D01*
X159025250Y-70167500D01*
X159184000Y-70008750D01*
X159187072Y-69569500D01*
X159174812Y-69445018D01*
X159138502Y-69325320D01*
X159092897Y-69240000D01*
X186677958Y-69240000D01*
X186509500Y-69352560D01*
G37*
%TD.AperFunction*%
D31*
X163810614Y-79263003D02*
X163922267Y-79274000D01*
X163922276Y-79274000D01*
X163959599Y-79277676D01*
X163996922Y-79274000D01*
X167908482Y-79274000D01*
X167900629Y-79299887D01*
X167886928Y-79439000D01*
X167886928Y-79589000D01*
X167900629Y-79728113D01*
X167911515Y-79764000D01*
X167900629Y-79799887D01*
X167886928Y-79939000D01*
X167886928Y-80089000D01*
X167900629Y-80228113D01*
X167911515Y-80264000D01*
X167900629Y-80299887D01*
X167886928Y-80439000D01*
X167886928Y-80589000D01*
X167900629Y-80728113D01*
X167911515Y-80764000D01*
X167900629Y-80799887D01*
X167886928Y-80939000D01*
X167886928Y-81089000D01*
X167900629Y-81228113D01*
X167911515Y-81264000D01*
X167900629Y-81299887D01*
X167886928Y-81439000D01*
X167886928Y-81589000D01*
X167900629Y-81728113D01*
X167903988Y-81739186D01*
X167167804Y-81003003D01*
X167144001Y-80973999D01*
X167028276Y-80879026D01*
X166896247Y-80808454D01*
X166752986Y-80764997D01*
X166641333Y-80754000D01*
X166641322Y-80754000D01*
X166604000Y-80750324D01*
X166566678Y-80754000D01*
X162575503Y-80754000D01*
X162828402Y-80501102D01*
X162890539Y-80501102D01*
X163090498Y-80461328D01*
X163278856Y-80383307D01*
X163448374Y-80270039D01*
X163592537Y-80125876D01*
X163705805Y-79956358D01*
X163783826Y-79768000D01*
X163823600Y-79568041D01*
X163823600Y-79364163D01*
X163803020Y-79260699D01*
X163810614Y-79263003D01*
%TA.AperFunction,Conductor*%
D32*
G36*
X163810614Y-79263003D02*
G01*
X163922267Y-79274000D01*
X163922276Y-79274000D01*
X163959599Y-79277676D01*
X163996922Y-79274000D01*
X167908482Y-79274000D01*
X167900629Y-79299887D01*
X167886928Y-79439000D01*
X167886928Y-79589000D01*
X167900629Y-79728113D01*
X167911515Y-79764000D01*
X167900629Y-79799887D01*
X167886928Y-79939000D01*
X167886928Y-80089000D01*
X167900629Y-80228113D01*
X167911515Y-80264000D01*
X167900629Y-80299887D01*
X167886928Y-80439000D01*
X167886928Y-80589000D01*
X167900629Y-80728113D01*
X167911515Y-80764000D01*
X167900629Y-80799887D01*
X167886928Y-80939000D01*
X167886928Y-81089000D01*
X167900629Y-81228113D01*
X167911515Y-81264000D01*
X167900629Y-81299887D01*
X167886928Y-81439000D01*
X167886928Y-81589000D01*
X167900629Y-81728113D01*
X167903988Y-81739186D01*
X167167804Y-81003003D01*
X167144001Y-80973999D01*
X167028276Y-80879026D01*
X166896247Y-80808454D01*
X166752986Y-80764997D01*
X166641333Y-80754000D01*
X166641322Y-80754000D01*
X166604000Y-80750324D01*
X166566678Y-80754000D01*
X162575503Y-80754000D01*
X162828402Y-80501102D01*
X162890539Y-80501102D01*
X163090498Y-80461328D01*
X163278856Y-80383307D01*
X163448374Y-80270039D01*
X163592537Y-80125876D01*
X163705805Y-79956358D01*
X163783826Y-79768000D01*
X163823600Y-79568041D01*
X163823600Y-79364163D01*
X163803020Y-79260699D01*
X163810614Y-79263003D01*
G37*
%TD.AperFunction*%
D31*
X177482028Y-76381351D02*
X177564095Y-76534887D01*
X177658541Y-76649970D01*
X177563042Y-76766336D01*
X177481553Y-76918791D01*
X177431372Y-77084215D01*
X177414428Y-77256250D01*
X177414428Y-77743750D01*
X177431372Y-77915785D01*
X177481553Y-78081209D01*
X177563042Y-78233664D01*
X177672708Y-78367292D01*
X177758256Y-78437500D01*
X177672708Y-78507708D01*
X177563042Y-78641336D01*
X177502822Y-78754000D01*
X174236215Y-78754000D01*
X174288502Y-78656180D01*
X174324812Y-78536482D01*
X174337072Y-78412000D01*
X174334000Y-78197750D01*
X174175250Y-78039000D01*
X173101000Y-78039000D01*
X173101000Y-78059000D01*
X172847000Y-78059000D01*
X172847000Y-78039000D01*
X171772750Y-78039000D01*
X171614000Y-78197750D01*
X171610928Y-78412000D01*
X171623188Y-78536482D01*
X171659498Y-78656180D01*
X171711785Y-78754000D01*
X170616518Y-78754000D01*
X170624371Y-78728113D01*
X170638072Y-78589000D01*
X170638072Y-78439000D01*
X170624371Y-78299887D01*
X170623814Y-78298051D01*
X170623868Y-78297883D01*
X170635000Y-78195750D01*
X170580252Y-78141002D01*
X170635000Y-78141002D01*
X170635000Y-78087649D01*
X170676001Y-78054001D01*
X170699804Y-78024997D01*
X171854722Y-76870080D01*
X171871038Y-76889962D01*
X171877594Y-76895342D01*
X171797815Y-76960815D01*
X171718463Y-77057506D01*
X171659498Y-77167820D01*
X171623188Y-77287518D01*
X171610928Y-77412000D01*
X171614000Y-77626250D01*
X171772750Y-77785000D01*
X172847000Y-77785000D01*
X172847000Y-77765000D01*
X173101000Y-77765000D01*
X173101000Y-77785000D01*
X174175250Y-77785000D01*
X174334000Y-77626250D01*
X174337072Y-77412000D01*
X174324812Y-77287518D01*
X174288502Y-77167820D01*
X174229537Y-77057506D01*
X174150185Y-76960815D01*
X174070406Y-76895342D01*
X174076962Y-76889962D01*
X174187405Y-76755386D01*
X174213802Y-76706000D01*
X174437199Y-76706000D01*
X174938451Y-77207252D01*
X174962249Y-77236251D01*
X175077974Y-77331224D01*
X175210003Y-77401796D01*
X175270408Y-77420119D01*
X175350476Y-77500187D01*
X175519994Y-77613455D01*
X175708352Y-77691476D01*
X175908311Y-77731250D01*
X176112189Y-77731250D01*
X176312148Y-77691476D01*
X176500506Y-77613455D01*
X176670024Y-77500187D01*
X176814187Y-77356024D01*
X176927455Y-77186506D01*
X177005476Y-76998148D01*
X177045250Y-76798189D01*
X177045250Y-76736051D01*
X177462925Y-76318376D01*
X177482028Y-76381351D01*
%TA.AperFunction,Conductor*%
D32*
G36*
X177482028Y-76381351D02*
G01*
X177564095Y-76534887D01*
X177658541Y-76649970D01*
X177563042Y-76766336D01*
X177481553Y-76918791D01*
X177431372Y-77084215D01*
X177414428Y-77256250D01*
X177414428Y-77743750D01*
X177431372Y-77915785D01*
X177481553Y-78081209D01*
X177563042Y-78233664D01*
X177672708Y-78367292D01*
X177758256Y-78437500D01*
X177672708Y-78507708D01*
X177563042Y-78641336D01*
X177502822Y-78754000D01*
X174236215Y-78754000D01*
X174288502Y-78656180D01*
X174324812Y-78536482D01*
X174337072Y-78412000D01*
X174334000Y-78197750D01*
X174175250Y-78039000D01*
X173101000Y-78039000D01*
X173101000Y-78059000D01*
X172847000Y-78059000D01*
X172847000Y-78039000D01*
X171772750Y-78039000D01*
X171614000Y-78197750D01*
X171610928Y-78412000D01*
X171623188Y-78536482D01*
X171659498Y-78656180D01*
X171711785Y-78754000D01*
X170616518Y-78754000D01*
X170624371Y-78728113D01*
X170638072Y-78589000D01*
X170638072Y-78439000D01*
X170624371Y-78299887D01*
X170623814Y-78298051D01*
X170623868Y-78297883D01*
X170635000Y-78195750D01*
X170580252Y-78141002D01*
X170635000Y-78141002D01*
X170635000Y-78087649D01*
X170676001Y-78054001D01*
X170699804Y-78024997D01*
X171854722Y-76870080D01*
X171871038Y-76889962D01*
X171877594Y-76895342D01*
X171797815Y-76960815D01*
X171718463Y-77057506D01*
X171659498Y-77167820D01*
X171623188Y-77287518D01*
X171610928Y-77412000D01*
X171614000Y-77626250D01*
X171772750Y-77785000D01*
X172847000Y-77785000D01*
X172847000Y-77765000D01*
X173101000Y-77765000D01*
X173101000Y-77785000D01*
X174175250Y-77785000D01*
X174334000Y-77626250D01*
X174337072Y-77412000D01*
X174324812Y-77287518D01*
X174288502Y-77167820D01*
X174229537Y-77057506D01*
X174150185Y-76960815D01*
X174070406Y-76895342D01*
X174076962Y-76889962D01*
X174187405Y-76755386D01*
X174213802Y-76706000D01*
X174437199Y-76706000D01*
X174938451Y-77207252D01*
X174962249Y-77236251D01*
X175077974Y-77331224D01*
X175210003Y-77401796D01*
X175270408Y-77420119D01*
X175350476Y-77500187D01*
X175519994Y-77613455D01*
X175708352Y-77691476D01*
X175908311Y-77731250D01*
X176112189Y-77731250D01*
X176312148Y-77691476D01*
X176500506Y-77613455D01*
X176670024Y-77500187D01*
X176814187Y-77356024D01*
X176927455Y-77186506D01*
X177005476Y-76998148D01*
X177045250Y-76798189D01*
X177045250Y-76736051D01*
X177462925Y-76318376D01*
X177482028Y-76381351D01*
G37*
%TD.AperFunction*%
D31*
X162591800Y-78283139D02*
X162623722Y-78443621D01*
X162486702Y-78470876D01*
X162313072Y-78542796D01*
X162313072Y-78439000D01*
X162299371Y-78299887D01*
X162288485Y-78264000D01*
X162291848Y-78252913D01*
X162401847Y-78219546D01*
X162533876Y-78148974D01*
X162591800Y-78101437D01*
X162591800Y-78283139D01*
%TA.AperFunction,Conductor*%
D32*
G36*
X162591800Y-78283139D02*
G01*
X162623722Y-78443621D01*
X162486702Y-78470876D01*
X162313072Y-78542796D01*
X162313072Y-78439000D01*
X162299371Y-78299887D01*
X162288485Y-78264000D01*
X162291848Y-78252913D01*
X162401847Y-78219546D01*
X162533876Y-78148974D01*
X162591800Y-78101437D01*
X162591800Y-78283139D01*
G37*
%TD.AperFunction*%
%TD*%
M02*
